  0
SECTION
  2
BLOCKS
  0
ENDSEC
  0
SECTION
  2
ENTITIES
  0
LINE
  8
0
 10
-33
 11
-33
 20
-71.556
 21
-61.111
  0
LINE
  8
0
 10
-33
 11
-30
 20
-61.111
 21
-61.111
  0
LINE
  8
0
 10
-30
 11
-30
 20
-61.111
 21
-50.667
  0
LINE
  8
0
 10
-30
 11
-33
 20
-50.667
 21
-50.667
  0
LINE
  8
0
 10
-33
 11
-33
 20
-50.667
 21
-40.222
  0
LINE
  8
0
 10
-33
 11
-30
 20
-40.222
 21
-40.222
  0
LINE
  8
0
 10
-30
 11
-30
 20
-40.222
 21
-29.778
  0
LINE
  8
0
 10
-30
 11
-33
 20
-29.778
 21
-29.778
  0
LINE
  8
0
 10
-33
 11
-33
 20
-29.778
 21
-19.333
  0
LINE
  8
0
 10
-33
 11
-30
 20
-19.333
 21
-19.333
  0
LINE
  8
0
 10
-30
 11
-30
 20
-19.333
 21
-8.889
  0
LINE
  8
0
 10
-30
 11
-33
 20
-8.889
 21
-8.889
  0
LINE
  8
0
 10
-33
 11
-33
 20
-8.889
 21
1.556
  0
LINE
  8
0
 10
-33
 11
-30
 20
1.556
 21
1.556
  0
LINE
  8
0
 10
-30
 11
-30
 20
1.556
 21
12
  0
LINE
  8
0
 10
-30
 11
-19.556
 20
12
 21
12
  0
LINE
  8
0
 10
-19.556
 11
-19.556
 20
12
 21
15
  0
LINE
  8
0
 10
-19.556
 11
-9.111
 20
15
 21
15
  0
LINE
  8
0
 10
-9.111
 11
-9.111
 20
15
 21
12
  0
LINE
  8
0
 10
-9.111
 11
1.333
 20
12
 21
12
  0
LINE
  8
0
 10
1.333
 11
1.333
 20
12
 21
15
  0
LINE
  8
0
 10
1.333
 11
11.778
 20
15
 21
15
  0
LINE
  8
0
 10
11.778
 11
11.778
 20
15
 21
12
  0
LINE
  8
0
 10
11.778
 11
22.222
 20
12
 21
12
  0
LINE
  8
0
 10
22.222
 11
22.222
 20
12
 21
15
  0
LINE
  8
0
 10
22.222
 11
32.667
 20
15
 21
15
  0
LINE
  8
0
 10
32.667
 11
32.667
 20
15
 21
12
  0
LINE
  8
0
 10
32.667
 11
43.111
 20
12
 21
12
  0
LINE
  8
0
 10
43.111
 11
43.111
 20
12
 21
15
  0
LINE
  8
0
 10
43.111
 11
53.556
 20
15
 21
15
  0
LINE
  8
0
 10
53.556
 11
53.556
 20
15
 21
12
  0
LINE
  8
0
 10
53.556
 11
64
 20
12
 21
12
  0
LINE
  8
0
 10
64
 11
64
 20
12
 21
1.556
  0
LINE
  8
0
 10
64
 11
67
 20
1.556
 21
1.556
  0
LINE
  8
0
 10
67
 11
67
 20
1.556
 21
-8.889
  0
LINE
  8
0
 10
67
 11
64
 20
-8.889
 21
-8.889
  0
LINE
  8
0
 10
64
 11
64
 20
-8.889
 21
-19.333
  0
LINE
  8
0
 10
64
 11
67
 20
-19.333
 21
-19.333
  0
LINE
  8
0
 10
67
 11
67
 20
-19.333
 21
-29.778
  0
LINE
  8
0
 10
67
 11
64
 20
-29.778
 21
-29.778
  0
LINE
  8
0
 10
64
 11
64
 20
-29.778
 21
-40.222
  0
LINE
  8
0
 10
64
 11
67
 20
-40.222
 21
-40.222
  0
LINE
  8
0
 10
67
 11
67
 20
-40.222
 21
-50.667
  0
LINE
  8
0
 10
67
 11
64
 20
-50.667
 21
-50.667
  0
LINE
  8
0
 10
64
 11
64
 20
-50.667
 21
-61.111
  0
LINE
  8
0
 10
64
 11
67
 20
-61.111
 21
-61.111
  0
LINE
  8
0
 10
67
 11
67
 20
-61.111
 21
-71.556
  0
LINE
  8
0
 10
67
 11
64
 20
-71.556
 21
-71.556
  0
LINE
  8
0
 10
64
 11
64
 20
-71.556
 21
-82
  0
LINE
  8
0
 10
64
 11
53.556
 20
-82
 21
-82
  0
LINE
  8
0
 10
53.556
 11
53.556
 20
-82
 21
-85
  0
LINE
  8
0
 10
53.556
 11
43.111
 20
-85
 21
-85
  0
LINE
  8
0
 10
43.111
 11
43.111
 20
-85
 21
-82
  0
LINE
  8
0
 10
43.111
 11
32.667
 20
-82
 21
-82
  0
LINE
  8
0
 10
32.667
 11
32.667
 20
-82
 21
-85
  0
LINE
  8
0
 10
32.667
 11
22.222
 20
-85
 21
-85
  0
LINE
  8
0
 10
22.222
 11
22.222
 20
-85
 21
-82
  0
LINE
  8
0
 10
22.222
 11
11.778
 20
-82
 21
-82
  0
LINE
  8
0
 10
11.778
 11
11.778
 20
-82
 21
-85
  0
LINE
  8
0
 10
11.778
 11
1.333
 20
-85
 21
-85
  0
LINE
  8
0
 10
1.333
 11
1.333
 20
-85
 21
-82
  0
LINE
  8
0
 10
1.333
 11
-9.111
 20
-82
 21
-82
  0
LINE
  8
0
 10
-9.111
 11
-9.111
 20
-82
 21
-85
  0
LINE
  8
0
 10
-9.111
 11
-19.556
 20
-85
 21
-85
  0
LINE
  8
0
 10
-19.556
 11
-19.556
 20
-85
 21
-82
  0
LINE
  8
0
 10
-19.556
 11
-30
 20
-82
 21
-82
  0
LINE
  8
0
 10
-30
 11
-30
 20
-82
 21
-71.556
  0
LINE
  8
0
 10
-30
 11
-33
 20
-71.556
 21
-71.556
  0
LINE
  8
0
 10
-2.581
 11
-2.581
 20
-48.591
 21
-48.215
  0
LINE
  8
0
 10
-2.581
 11
-2.488
 20
-48.215
 21
-47.851
  0
LINE
  8
0
 10
-2.488
 11
-2.306
 20
-47.851
 21
-47.521
  0
LINE
  8
0
 10
-2.306
 11
-2.049
 20
-47.521
 21
-47.247
  0
LINE
  8
0
 10
-2.049
 11
-1.732
 20
-47.247
 21
-47.045
  0
LINE
  8
0
 10
-1.732
 11
-1.374
 20
-47.045
 21
-46.929
  0
LINE
  8
0
 10
-1.374
 11
-0.999
 20
-46.929
 21
-46.906
  0
LINE
  8
0
 10
-0.999
 11
-0.629
 20
-46.906
 21
-46.976
  0
LINE
  8
0
 10
-0.629
 11
-0.289
 20
-46.976
 21
-47.136
  0
LINE
  8
0
 10
-0.289
 11
0.001
 20
-47.136
 21
-47.376
  0
LINE
  8
0
 10
0.001
 11
0.222
 20
-47.376
 21
-47.68
  0
LINE
  8
0
 10
0.222
 11
0.36
 20
-47.68
 21
-48.03
  0
LINE
  8
0
 10
0.36
 11
0.407
 20
-48.03
 21
-48.403
  0
LINE
  8
0
 10
0.407
 11
0.36
 20
-48.403
 21
-48.776
  0
LINE
  8
0
 10
0.36
 11
0.222
 20
-48.776
 21
-49.125
  0
LINE
  8
0
 10
0.222
 11
0.001
 20
-49.125
 21
-49.43
  0
LINE
  8
0
 10
0.001
 11
-0.289
 20
-49.43
 21
-49.669
  0
LINE
  8
0
 10
-0.289
 11
-0.629
 20
-49.669
 21
-49.829
  0
LINE
  8
0
 10
-0.629
 11
-0.999
 20
-49.829
 21
-49.9
  0
LINE
  8
0
 10
-0.999
 11
-1.374
 20
-49.9
 21
-49.876
  0
LINE
  8
0
 10
-1.374
 11
-1.732
 20
-49.876
 21
-49.76
  0
LINE
  8
0
 10
-1.732
 11
-2.049
 20
-49.76
 21
-49.558
  0
LINE
  8
0
 10
-2.049
 11
-2.306
 20
-49.558
 21
-49.284
  0
LINE
  8
0
 10
-2.306
 11
-2.488
 20
-49.284
 21
-48.955
  0
LINE
  8
0
 10
-2.488
 11
-2.581
 20
-48.955
 21
-48.591
  0
LINE
  8
0
 10
-2
 11
-1.99
 20
-70
 21
-69.804
  0
LINE
  8
0
 10
-1.99
 11
-1.962
 20
-69.804
 21
-69.61
  0
LINE
  8
0
 10
-1.962
 11
-1.914
 20
-69.61
 21
-69.419
  0
LINE
  8
0
 10
-1.914
 11
-1.848
 20
-69.419
 21
-69.235
  0
LINE
  8
0
 10
-1.848
 11
-1.764
 20
-69.235
 21
-69.057
  0
LINE
  8
0
 10
-1.764
 11
-1.663
 20
-69.057
 21
-68.889
  0
LINE
  8
0
 10
-1.663
 11
-1.546
 20
-68.889
 21
-68.731
  0
LINE
  8
0
 10
-1.546
 11
-1.414
 20
-68.731
 21
-68.586
  0
LINE
  8
0
 10
-1.414
 11
-1.269
 20
-68.586
 21
-68.454
  0
LINE
  8
0
 10
-1.269
 11
-1.111
 20
-68.454
 21
-68.337
  0
LINE
  8
0
 10
-1.111
 11
-0.943
 20
-68.337
 21
-68.236
  0
LINE
  8
0
 10
-0.943
 11
-0.765
 20
-68.236
 21
-68.152
  0
LINE
  8
0
 10
-0.765
 11
-0.581
 20
-68.152
 21
-68.086
  0
LINE
  8
0
 10
-0.581
 11
-0.39
 20
-68.086
 21
-68.038
  0
LINE
  8
0
 10
-0.39
 11
-0.196
 20
-68.038
 21
-68.01
  0
LINE
  8
0
 10
-0.196
 11
0
 20
-68.01
 21
-68
  0
LINE
  8
0
 10
0
 11
0.196
 20
-68
 21
-68.01
  0
LINE
  8
0
 10
0.196
 11
0.39
 20
-68.01
 21
-68.038
  0
LINE
  8
0
 10
0.39
 11
0.581
 20
-68.038
 21
-68.086
  0
LINE
  8
0
 10
0.581
 11
0.765
 20
-68.086
 21
-68.152
  0
LINE
  8
0
 10
0.765
 11
0.943
 20
-68.152
 21
-68.236
  0
LINE
  8
0
 10
0.943
 11
1.111
 20
-68.236
 21
-68.337
  0
LINE
  8
0
 10
1.111
 11
1.269
 20
-68.337
 21
-68.454
  0
LINE
  8
0
 10
1.269
 11
1.414
 20
-68.454
 21
-68.586
  0
LINE
  8
0
 10
1.414
 11
1.546
 20
-68.586
 21
-68.731
  0
LINE
  8
0
 10
1.546
 11
1.663
 20
-68.731
 21
-68.889
  0
LINE
  8
0
 10
1.663
 11
1.764
 20
-68.889
 21
-69.057
  0
LINE
  8
0
 10
1.764
 11
1.848
 20
-69.057
 21
-69.235
  0
LINE
  8
0
 10
1.848
 11
1.914
 20
-69.235
 21
-69.419
  0
LINE
  8
0
 10
1.914
 11
1.962
 20
-69.419
 21
-69.61
  0
LINE
  8
0
 10
1.962
 11
1.99
 20
-69.61
 21
-69.804
  0
LINE
  8
0
 10
1.99
 11
2
 20
-69.804
 21
-70
  0
LINE
  8
0
 10
2
 11
1.99
 20
-70
 21
-70.196
  0
LINE
  8
0
 10
1.99
 11
1.962
 20
-70.196
 21
-70.39
  0
LINE
  8
0
 10
1.962
 11
1.914
 20
-70.39
 21
-70.581
  0
LINE
  8
0
 10
1.914
 11
1.848
 20
-70.581
 21
-70.765
  0
LINE
  8
0
 10
1.848
 11
1.764
 20
-70.765
 21
-70.943
  0
LINE
  8
0
 10
1.764
 11
1.663
 20
-70.943
 21
-71.111
  0
LINE
  8
0
 10
1.663
 11
1.546
 20
-71.111
 21
-71.269
  0
LINE
  8
0
 10
1.546
 11
1.414
 20
-71.269
 21
-71.414
  0
LINE
  8
0
 10
1.414
 11
1.269
 20
-71.414
 21
-71.546
  0
LINE
  8
0
 10
1.269
 11
1.111
 20
-71.546
 21
-71.663
  0
LINE
  8
0
 10
1.111
 11
0.943
 20
-71.663
 21
-71.764
  0
LINE
  8
0
 10
0.943
 11
0.765
 20
-71.764
 21
-71.848
  0
LINE
  8
0
 10
0.765
 11
0.581
 20
-71.848
 21
-71.914
  0
LINE
  8
0
 10
0.581
 11
0.39
 20
-71.914
 21
-71.962
  0
LINE
  8
0
 10
0.39
 11
0.196
 20
-71.962
 21
-71.99
  0
LINE
  8
0
 10
0.196
 11
0
 20
-71.99
 21
-72
  0
LINE
  8
0
 10
0
 11
-0.196
 20
-72
 21
-71.99
  0
LINE
  8
0
 10
-0.196
 11
-0.39
 20
-71.99
 21
-71.962
  0
LINE
  8
0
 10
-0.39
 11
-0.581
 20
-71.962
 21
-71.914
  0
LINE
  8
0
 10
-0.581
 11
-0.765
 20
-71.914
 21
-71.848
  0
LINE
  8
0
 10
-0.765
 11
-0.943
 20
-71.848
 21
-71.764
  0
LINE
  8
0
 10
-0.943
 11
-1.111
 20
-71.764
 21
-71.663
  0
LINE
  8
0
 10
-1.111
 11
-1.269
 20
-71.663
 21
-71.546
  0
LINE
  8
0
 10
-1.269
 11
-1.414
 20
-71.546
 21
-71.414
  0
LINE
  8
0
 10
-1.414
 11
-1.546
 20
-71.414
 21
-71.269
  0
LINE
  8
0
 10
-1.546
 11
-1.663
 20
-71.269
 21
-71.111
  0
LINE
  8
0
 10
-1.663
 11
-1.764
 20
-71.111
 21
-70.943
  0
LINE
  8
0
 10
-1.764
 11
-1.848
 20
-70.943
 21
-70.765
  0
LINE
  8
0
 10
-1.848
 11
-1.914
 20
-70.765
 21
-70.581
  0
LINE
  8
0
 10
-1.914
 11
-1.962
 20
-70.581
 21
-70.39
  0
LINE
  8
0
 10
-1.962
 11
-1.99
 20
-70.39
 21
-70.196
  0
LINE
  8
0
 10
-1.99
 11
-2
 20
-70.196
 21
-70
  0
LINE
  8
0
 10
-1.488
 11
-1.488
 20
-0.188
 21
0.188
  0
LINE
  8
0
 10
-1.488
 11
-1.395
 20
0.188
 21
0.552
  0
LINE
  8
0
 10
-1.395
 11
-1.214
 20
0.552
 21
0.882
  0
LINE
  8
0
 10
-1.214
 11
-0.956
 20
0.882
 21
1.156
  0
LINE
  8
0
 10
-0.956
 11
-0.639
 20
1.156
 21
1.357
  0
LINE
  8
0
 10
-0.639
 11
-0.281
 20
1.357
 21
1.473
  0
LINE
  8
0
 10
-0.281
 11
0.094
 20
1.473
 21
1.497
  0
LINE
  8
0
 10
0.094
 11
0.464
 20
1.497
 21
1.427
  0
LINE
  8
0
 10
0.464
 11
0.804
 20
1.427
 21
1.266
  0
LINE
  8
0
 10
0.804
 11
1.093
 20
1.266
 21
1.027
  0
LINE
  8
0
 10
1.093
 11
1.314
 20
1.027
 21
0.723
  0
LINE
  8
0
 10
1.314
 11
1.453
 20
0.723
 21
0.373
  0
LINE
  8
0
 10
1.453
 11
1.5
 20
0.373
 21
0
  0
LINE
  8
0
 10
1.5
 11
1.453
 20
0
 21
-0.373
  0
LINE
  8
0
 10
1.453
 11
1.314
 20
-0.373
 21
-0.723
  0
LINE
  8
0
 10
1.314
 11
1.093
 20
-0.723
 21
-1.027
  0
LINE
  8
0
 10
1.093
 11
0.804
 20
-1.027
 21
-1.266
  0
LINE
  8
0
 10
0.804
 11
0.464
 20
-1.266
 21
-1.427
  0
LINE
  8
0
 10
0.464
 11
0.094
 20
-1.427
 21
-1.497
  0
LINE
  8
0
 10
0.094
 11
-0.281
 20
-1.497
 21
-1.473
  0
LINE
  8
0
 10
-0.281
 11
-0.639
 20
-1.473
 21
-1.357
  0
LINE
  8
0
 10
-0.639
 11
-0.956
 20
-1.357
 21
-1.156
  0
LINE
  8
0
 10
-0.956
 11
-1.214
 20
-1.156
 21
-0.882
  0
LINE
  8
0
 10
-1.214
 11
-1.395
 20
-0.882
 21
-0.552
  0
LINE
  8
0
 10
-1.395
 11
-1.488
 20
-0.552
 21
-0.188
  0
LINE
  8
0
 10
43
 11
43.01
 20
-70
 21
-69.804
  0
LINE
  8
0
 10
43.01
 11
43.038
 20
-69.804
 21
-69.61
  0
LINE
  8
0
 10
43.038
 11
43.086
 20
-69.61
 21
-69.419
  0
LINE
  8
0
 10
43.086
 11
43.152
 20
-69.419
 21
-69.235
  0
LINE
  8
0
 10
43.152
 11
43.236
 20
-69.235
 21
-69.057
  0
LINE
  8
0
 10
43.236
 11
43.337
 20
-69.057
 21
-68.889
  0
LINE
  8
0
 10
43.337
 11
43.454
 20
-68.889
 21
-68.731
  0
LINE
  8
0
 10
43.454
 11
43.586
 20
-68.731
 21
-68.586
  0
LINE
  8
0
 10
43.586
 11
43.731
 20
-68.586
 21
-68.454
  0
LINE
  8
0
 10
43.731
 11
43.889
 20
-68.454
 21
-68.337
  0
LINE
  8
0
 10
43.889
 11
44.057
 20
-68.337
 21
-68.236
  0
LINE
  8
0
 10
44.057
 11
44.235
 20
-68.236
 21
-68.152
  0
LINE
  8
0
 10
44.235
 11
44.419
 20
-68.152
 21
-68.086
  0
LINE
  8
0
 10
44.419
 11
44.61
 20
-68.086
 21
-68.038
  0
LINE
  8
0
 10
44.61
 11
44.804
 20
-68.038
 21
-68.01
  0
LINE
  8
0
 10
44.804
 11
45
 20
-68.01
 21
-68
  0
LINE
  8
0
 10
45
 11
45.196
 20
-68
 21
-68.01
  0
LINE
  8
0
 10
45.196
 11
45.39
 20
-68.01
 21
-68.038
  0
LINE
  8
0
 10
45.39
 11
45.581
 20
-68.038
 21
-68.086
  0
LINE
  8
0
 10
45.581
 11
45.765
 20
-68.086
 21
-68.152
  0
LINE
  8
0
 10
45.765
 11
45.943
 20
-68.152
 21
-68.236
  0
LINE
  8
0
 10
45.943
 11
46.111
 20
-68.236
 21
-68.337
  0
LINE
  8
0
 10
46.111
 11
46.269
 20
-68.337
 21
-68.454
  0
LINE
  8
0
 10
46.269
 11
46.414
 20
-68.454
 21
-68.586
  0
LINE
  8
0
 10
46.414
 11
46.546
 20
-68.586
 21
-68.731
  0
LINE
  8
0
 10
46.546
 11
46.663
 20
-68.731
 21
-68.889
  0
LINE
  8
0
 10
46.663
 11
46.764
 20
-68.889
 21
-69.057
  0
LINE
  8
0
 10
46.764
 11
46.848
 20
-69.057
 21
-69.235
  0
LINE
  8
0
 10
46.848
 11
46.914
 20
-69.235
 21
-69.419
  0
LINE
  8
0
 10
46.914
 11
46.962
 20
-69.419
 21
-69.61
  0
LINE
  8
0
 10
46.962
 11
46.99
 20
-69.61
 21
-69.804
  0
LINE
  8
0
 10
46.99
 11
47
 20
-69.804
 21
-70
  0
LINE
  8
0
 10
47
 11
46.99
 20
-70
 21
-70.196
  0
LINE
  8
0
 10
46.99
 11
46.962
 20
-70.196
 21
-70.39
  0
LINE
  8
0
 10
46.962
 11
46.914
 20
-70.39
 21
-70.581
  0
LINE
  8
0
 10
46.914
 11
46.848
 20
-70.581
 21
-70.765
  0
LINE
  8
0
 10
46.848
 11
46.764
 20
-70.765
 21
-70.943
  0
LINE
  8
0
 10
46.764
 11
46.663
 20
-70.943
 21
-71.111
  0
LINE
  8
0
 10
46.663
 11
46.546
 20
-71.111
 21
-71.269
  0
LINE
  8
0
 10
46.546
 11
46.414
 20
-71.269
 21
-71.414
  0
LINE
  8
0
 10
46.414
 11
46.269
 20
-71.414
 21
-71.546
  0
LINE
  8
0
 10
46.269
 11
46.111
 20
-71.546
 21
-71.663
  0
LINE
  8
0
 10
46.111
 11
45.943
 20
-71.663
 21
-71.764
  0
LINE
  8
0
 10
45.943
 11
45.765
 20
-71.764
 21
-71.848
  0
LINE
  8
0
 10
45.765
 11
45.581
 20
-71.848
 21
-71.914
  0
LINE
  8
0
 10
45.581
 11
45.39
 20
-71.914
 21
-71.962
  0
LINE
  8
0
 10
45.39
 11
45.196
 20
-71.962
 21
-71.99
  0
LINE
  8
0
 10
45.196
 11
45
 20
-71.99
 21
-72
  0
LINE
  8
0
 10
45
 11
44.804
 20
-72
 21
-71.99
  0
LINE
  8
0
 10
44.804
 11
44.61
 20
-71.99
 21
-71.962
  0
LINE
  8
0
 10
44.61
 11
44.419
 20
-71.962
 21
-71.914
  0
LINE
  8
0
 10
44.419
 11
44.235
 20
-71.914
 21
-71.848
  0
LINE
  8
0
 10
44.235
 11
44.057
 20
-71.848
 21
-71.764
  0
LINE
  8
0
 10
44.057
 11
43.889
 20
-71.764
 21
-71.663
  0
LINE
  8
0
 10
43.889
 11
43.731
 20
-71.663
 21
-71.546
  0
LINE
  8
0
 10
43.731
 11
43.586
 20
-71.546
 21
-71.414
  0
LINE
  8
0
 10
43.586
 11
43.454
 20
-71.414
 21
-71.269
  0
LINE
  8
0
 10
43.454
 11
43.337
 20
-71.269
 21
-71.111
  0
LINE
  8
0
 10
43.337
 11
43.236
 20
-71.111
 21
-70.943
  0
LINE
  8
0
 10
43.236
 11
43.152
 20
-70.943
 21
-70.765
  0
LINE
  8
0
 10
43.152
 11
43.086
 20
-70.765
 21
-70.581
  0
LINE
  8
0
 10
43.086
 11
43.038
 20
-70.581
 21
-70.39
  0
LINE
  8
0
 10
43.038
 11
43.01
 20
-70.39
 21
-70.196
  0
LINE
  8
0
 10
43.01
 11
43
 20
-70.196
 21
-70
  0
LINE
  8
0
 10
49.512
 11
49.512
 20
-15.438
 21
-15.062
  0
LINE
  8
0
 10
49.512
 11
49.605
 20
-15.062
 21
-14.698
  0
LINE
  8
0
 10
49.605
 11
49.786
 20
-14.698
 21
-14.368
  0
LINE
  8
0
 10
49.786
 11
50.044
 20
-14.368
 21
-14.094
  0
LINE
  8
0
 10
50.044
 11
50.361
 20
-14.094
 21
-13.893
  0
LINE
  8
0
 10
50.361
 11
50.719
 20
-13.893
 21
-13.777
  0
LINE
  8
0
 10
50.719
 11
51.094
 20
-13.777
 21
-13.753
  0
LINE
  8
0
 10
51.094
 11
51.464
 20
-13.753
 21
-13.823
  0
LINE
  8
0
 10
51.464
 11
51.804
 20
-13.823
 21
-13.984
  0
LINE
  8
0
 10
51.804
 11
52.093
 20
-13.984
 21
-14.223
  0
LINE
  8
0
 10
52.093
 11
52.314
 20
-14.223
 21
-14.527
  0
LINE
  8
0
 10
52.314
 11
52.453
 20
-14.527
 21
-14.877
  0
LINE
  8
0
 10
52.453
 11
52.5
 20
-14.877
 21
-15.25
  0
LINE
  8
0
 10
52.5
 11
52.453
 20
-15.25
 21
-15.623
  0
LINE
  8
0
 10
52.453
 11
52.314
 20
-15.623
 21
-15.973
  0
LINE
  8
0
 10
52.314
 11
52.093
 20
-15.973
 21
-16.277
  0
LINE
  8
0
 10
52.093
 11
51.804
 20
-16.277
 21
-16.516
  0
LINE
  8
0
 10
51.804
 11
51.464
 20
-16.516
 21
-16.677
  0
LINE
  8
0
 10
51.464
 11
51.094
 20
-16.677
 21
-16.747
  0
LINE
  8
0
 10
51.094
 11
50.719
 20
-16.747
 21
-16.723
  0
LINE
  8
0
 10
50.719
 11
50.361
 20
-16.723
 21
-16.607
  0
LINE
  8
0
 10
50.361
 11
50.044
 20
-16.607
 21
-16.406
  0
LINE
  8
0
 10
50.044
 11
49.786
 20
-16.406
 21
-16.132
  0
LINE
  8
0
 10
49.786
 11
49.605
 20
-16.132
 21
-15.802
  0
LINE
  8
0
 10
49.605
 11
49.512
 20
-15.802
 21
-15.438
  0
ENDSEC
  0
SECTION
  2
OBJECTS
  0
DICTIONARY
  0
ENDSEC
  0
EOF
