solid OpenSCAD_Model
  facet normal -1 0 0
    outer loop
      vertex -7 -13 -8
      vertex -7 -13 5
      vertex -7 -1.77636e-015 -8
    endloop
  endfacet
  facet normal -1 0 0
    outer loop
      vertex -7 -1.77636e-015 -8
      vertex -7 -13 5
      vertex -7 1.11022e-015 5
    endloop
  endfacet
  facet normal 0 -1 2.22045e-016
    outer loop
      vertex 15.54 -13 -6.5
      vertex -7 -13 -8
      vertex 53 -13 -8
    endloop
  endfacet
  facet normal 0 -1 2.22045e-016
    outer loop
      vertex 15.54 -13 -1.5
      vertex 35 -13 -1.5
      vertex 15.54 -13 5
    endloop
  endfacet
  facet normal 0 -1 2.22045e-016
    outer loop
      vertex 53 -13 5
      vertex 35 -13 -1.5
      vertex 53 -13 -8
    endloop
  endfacet
  facet normal 0 -1 2.22045e-016
    outer loop
      vertex 53 -13 5
      vertex 15.54 -13 5
      vertex 35 -13 -1.5
    endloop
  endfacet
  facet normal 0 -1 2.22045e-016
    outer loop
      vertex 15.54 -13 -6.5
      vertex 9.54 -13 -6.5
      vertex -7 -13 -8
    endloop
  endfacet
  facet normal 0 -1 2.22045e-016
    outer loop
      vertex 35 -13 -5
      vertex 15.54 -13 -6.5
      vertex 53 -13 -8
    endloop
  endfacet
  facet normal 0 -1 2.22045e-016
    outer loop
      vertex 9.54 -13 -6.5
      vertex -7 -13 5
      vertex -7 -13 -8
    endloop
  endfacet
  facet normal 0 -1 2.22045e-016
    outer loop
      vertex 15.54 -13 -5
      vertex 15.54 -13 -6.5
      vertex 35 -13 -5
    endloop
  endfacet
  facet normal 0 -1 2.22045e-016
    outer loop
      vertex 35 -13 -1.5
      vertex 35 -13 -5
      vertex 53 -13 -8
    endloop
  endfacet
  facet normal 0 -1 2.22045e-016
    outer loop
      vertex 9.54 -13 -6.5
      vertex 9.54 -13 5
      vertex -7 -13 5
    endloop
  endfacet
  facet normal 0 -2.22045e-016 -1
    outer loop
      vertex 0.765367 -3.15224 -8
      vertex -7 -1.77636e-015 -8
      vertex 53 -13 -8
    endloop
  endfacet
  facet normal 0 -2.22045e-016 -1
    outer loop
      vertex 45.196 -3.00963 -8
      vertex -7 -1.77636e-015 -8
      vertex 53 -1.77636e-015 -8
    endloop
  endfacet
  facet normal 0 -2.22045e-016 -1
    outer loop
      vertex -7 -13 -8
      vertex -7 -1.77636e-015 -8
      vertex -2 -5 -8
    endloop
  endfacet
  facet normal 0 -2.22045e-016 -1
    outer loop
      vertex -7 -13 -8
      vertex -2 -5 -8
      vertex -1.99037 -5.19603 -8
    endloop
  endfacet
  facet normal 0 -2.22045e-016 -1
    outer loop
      vertex -7 -13 -8
      vertex -1.99037 -5.19603 -8
      vertex -1.96157 -5.39018 -8
    endloop
  endfacet
  facet normal 0 -2.22045e-016 -1
    outer loop
      vertex -7 -13 -8
      vertex -1.96157 -5.39018 -8
      vertex -1.91388 -5.58057 -8
    endloop
  endfacet
  facet normal 0 -2.22045e-016 -1
    outer loop
      vertex -7 -13 -8
      vertex -1.91388 -5.58057 -8
      vertex -1.84776 -5.76537 -8
    endloop
  endfacet
  facet normal 0 -2.22045e-016 -1
    outer loop
      vertex -7 -13 -8
      vertex -1.84776 -5.76537 -8
      vertex -1.76384 -5.94279 -8
    endloop
  endfacet
  facet normal 0 -2.22045e-016 -1
    outer loop
      vertex -7 -13 -8
      vertex -1.76384 -5.94279 -8
      vertex -1.66294 -6.11114 -8
    endloop
  endfacet
  facet normal 0 -2.22045e-016 -1
    outer loop
      vertex -7 -13 -8
      vertex -1.66294 -6.11114 -8
      vertex -1.54602 -6.26879 -8
    endloop
  endfacet
  facet normal 0 -2.22045e-016 -1
    outer loop
      vertex -7 -13 -8
      vertex -1.54602 -6.26879 -8
      vertex -1.41421 -6.41421 -8
    endloop
  endfacet
  facet normal 0 -2.22045e-016 -1
    outer loop
      vertex -7 -13 -8
      vertex -1.41421 -6.41421 -8
      vertex -1.26879 -6.54602 -8
    endloop
  endfacet
  facet normal 0 -2.22045e-016 -1
    outer loop
      vertex -7 -13 -8
      vertex -1.26879 -6.54602 -8
      vertex -1.11114 -6.66294 -8
    endloop
  endfacet
  facet normal 0 -2.22045e-016 -1
    outer loop
      vertex -7 -13 -8
      vertex -1.11114 -6.66294 -8
      vertex -0.942793 -6.76384 -8
    endloop
  endfacet
  facet normal 0 -2.22045e-016 -1
    outer loop
      vertex -7 -13 -8
      vertex -0.942793 -6.76384 -8
      vertex -0.765367 -6.84776 -8
    endloop
  endfacet
  facet normal 0 -2.22045e-016 -1
    outer loop
      vertex -7 -13 -8
      vertex -0.765367 -6.84776 -8
      vertex -0.580569 -6.91388 -8
    endloop
  endfacet
  facet normal 0 -2.22045e-016 -1
    outer loop
      vertex -7 -13 -8
      vertex -0.580569 -6.91388 -8
      vertex -0.390181 -6.96157 -8
    endloop
  endfacet
  facet normal 0 -2.22045e-016 -1
    outer loop
      vertex -7 -13 -8
      vertex -0.390181 -6.96157 -8
      vertex -0.196034 -6.99037 -8
    endloop
  endfacet
  facet normal 0 -2.22045e-016 -1
    outer loop
      vertex -7 -13 -8
      vertex -0.196034 -6.99037 -8
      vertex 53 -13 -8
    endloop
  endfacet
  facet normal 0 -2.22045e-016 -1
    outer loop
      vertex 0.196034 -6.99037 -8
      vertex 53 -13 -8
      vertex 0 -7 -8
    endloop
  endfacet
  facet normal 0 -2.22045e-016 -1
    outer loop
      vertex 0.390181 -6.96157 -8
      vertex 53 -13 -8
      vertex 0.196034 -6.99037 -8
    endloop
  endfacet
  facet normal 0 -2.22045e-016 -1
    outer loop
      vertex 0.580569 -6.91388 -8
      vertex 53 -13 -8
      vertex 0.390181 -6.96157 -8
    endloop
  endfacet
  facet normal 0 -2.22045e-016 -1
    outer loop
      vertex 0.765367 -6.84776 -8
      vertex 53 -13 -8
      vertex 0.580569 -6.91388 -8
    endloop
  endfacet
  facet normal 0 -2.22045e-016 -1
    outer loop
      vertex 0.942793 -6.76384 -8
      vertex 53 -13 -8
      vertex 0.765367 -6.84776 -8
    endloop
  endfacet
  facet normal 0 -2.22045e-016 -1
    outer loop
      vertex 1.11114 -6.66294 -8
      vertex 53 -13 -8
      vertex 0.942793 -6.76384 -8
    endloop
  endfacet
  facet normal 0 -2.22045e-016 -1
    outer loop
      vertex 1.26879 -6.54602 -8
      vertex 53 -13 -8
      vertex 1.11114 -6.66294 -8
    endloop
  endfacet
  facet normal 0 -2.22045e-016 -1
    outer loop
      vertex 1.41421 -6.41421 -8
      vertex 53 -13 -8
      vertex 1.26879 -6.54602 -8
    endloop
  endfacet
  facet normal 0 -2.22045e-016 -1
    outer loop
      vertex 1.54602 -6.26879 -8
      vertex 53 -13 -8
      vertex 1.41421 -6.41421 -8
    endloop
  endfacet
  facet normal 0 -2.22045e-016 -1
    outer loop
      vertex 1.66294 -6.11114 -8
      vertex 53 -13 -8
      vertex 1.54602 -6.26879 -8
    endloop
  endfacet
  facet normal 0 -2.22045e-016 -1
    outer loop
      vertex 1.76384 -5.94279 -8
      vertex 53 -13 -8
      vertex 1.66294 -6.11114 -8
    endloop
  endfacet
  facet normal 0 -2.22045e-016 -1
    outer loop
      vertex 1.84776 -5.76537 -8
      vertex 53 -13 -8
      vertex 1.76384 -5.94279 -8
    endloop
  endfacet
  facet normal 0 -2.22045e-016 -1
    outer loop
      vertex 1.91388 -5.58057 -8
      vertex 53 -13 -8
      vertex 1.84776 -5.76537 -8
    endloop
  endfacet
  facet normal 0 -2.22045e-016 -1
    outer loop
      vertex 1.96157 -5.39018 -8
      vertex 53 -13 -8
      vertex 1.91388 -5.58057 -8
    endloop
  endfacet
  facet normal 0 -2.22045e-016 -1
    outer loop
      vertex 44.0572 -6.76384 -8
      vertex 53 -13 -8
      vertex 43.8889 -6.66294 -8
    endloop
  endfacet
  facet normal 0 -2.22045e-016 -1
    outer loop
      vertex 0.390181 -3.03843 -8
      vertex -7 -1.77636e-015 -8
      vertex 0.580569 -3.08612 -8
    endloop
  endfacet
  facet normal 0 -2.22045e-016 -1
    outer loop
      vertex 1.96157 -5.39018 -8
      vertex 1.99037 -5.19603 -8
      vertex 53 -13 -8
    endloop
  endfacet
  facet normal 0 -2.22045e-016 -1
    outer loop
      vertex -1.26879 -3.45398 -8
      vertex -7 -1.77636e-015 -8
      vertex -1.11114 -3.33706 -8
    endloop
  endfacet
  facet normal 0 -2.22045e-016 -1
    outer loop
      vertex 1.99037 -5.19603 -8
      vertex 2 -5 -8
      vertex 53 -13 -8
    endloop
  endfacet
  facet normal 0 -2.22045e-016 -1
    outer loop
      vertex 2 -5 -8
      vertex 1.99037 -4.80397 -8
      vertex 53 -13 -8
    endloop
  endfacet
  facet normal 0 -2.22045e-016 -1
    outer loop
      vertex -1.11114 -3.33706 -8
      vertex -7 -1.77636e-015 -8
      vertex -0.942793 -3.23616 -8
    endloop
  endfacet
  facet normal 0 -2.22045e-016 -1
    outer loop
      vertex 1.99037 -4.80397 -8
      vertex 1.96157 -4.60982 -8
      vertex 53 -13 -8
    endloop
  endfacet
  facet normal 0 -2.22045e-016 -1
    outer loop
      vertex -0.942793 -3.23616 -8
      vertex -7 -1.77636e-015 -8
      vertex -0.765367 -3.15224 -8
    endloop
  endfacet
  facet normal 0 -2.22045e-016 -1
    outer loop
      vertex 1.96157 -4.60982 -8
      vertex 1.91388 -4.41943 -8
      vertex 53 -13 -8
    endloop
  endfacet
  facet normal 0 -2.22045e-016 -1
    outer loop
      vertex -0.765367 -3.15224 -8
      vertex -7 -1.77636e-015 -8
      vertex -0.580569 -3.08612 -8
    endloop
  endfacet
  facet normal 0 -2.22045e-016 -1
    outer loop
      vertex 1.91388 -4.41943 -8
      vertex 1.84776 -4.23463 -8
      vertex 53 -13 -8
    endloop
  endfacet
  facet normal 0 -2.22045e-016 -1
    outer loop
      vertex 1.84776 -4.23463 -8
      vertex 1.76384 -4.05721 -8
      vertex 53 -13 -8
    endloop
  endfacet
  facet normal 0 -2.22045e-016 -1
    outer loop
      vertex -0.580569 -3.08612 -8
      vertex -7 -1.77636e-015 -8
      vertex -0.390181 -3.03843 -8
    endloop
  endfacet
  facet normal 0 -2.22045e-016 -1
    outer loop
      vertex 1.76384 -4.05721 -8
      vertex 1.66294 -3.88886 -8
      vertex 53 -13 -8
    endloop
  endfacet
  facet normal 0 -2.22045e-016 -1
    outer loop
      vertex -0.390181 -3.03843 -8
      vertex -7 -1.77636e-015 -8
      vertex -0.196034 -3.00963 -8
    endloop
  endfacet
  facet normal 0 -2.22045e-016 -1
    outer loop
      vertex 1.66294 -3.88886 -8
      vertex 1.54602 -3.73121 -8
      vertex 53 -13 -8
    endloop
  endfacet
  facet normal 0 -2.22045e-016 -1
    outer loop
      vertex -0.196034 -3.00963 -8
      vertex -7 -1.77636e-015 -8
      vertex 0 -3 -8
    endloop
  endfacet
  facet normal 0 -2.22045e-016 -1
    outer loop
      vertex 1.54602 -3.73121 -8
      vertex 1.41421 -3.58579 -8
      vertex 53 -13 -8
    endloop
  endfacet
  facet normal 0 -2.22045e-016 -1
    outer loop
      vertex 0 -3 -8
      vertex -7 -1.77636e-015 -8
      vertex 0.196034 -3.00963 -8
    endloop
  endfacet
  facet normal 0 -2.22045e-016 -1
    outer loop
      vertex 1.41421 -3.58579 -8
      vertex 1.26879 -3.45398 -8
      vertex 53 -13 -8
    endloop
  endfacet
  facet normal 0 -2.22045e-016 -1
    outer loop
      vertex 1.26879 -3.45398 -8
      vertex 1.11114 -3.33706 -8
      vertex 53 -13 -8
    endloop
  endfacet
  facet normal 0 -2.22045e-016 -1
    outer loop
      vertex 0.196034 -3.00963 -8
      vertex -7 -1.77636e-015 -8
      vertex 0.390181 -3.03843 -8
    endloop
  endfacet
  facet normal 0 -2.22045e-016 -1
    outer loop
      vertex 1.11114 -3.33706 -8
      vertex 0.942793 -3.23616 -8
      vertex 53 -13 -8
    endloop
  endfacet
  facet normal 0 -2.22045e-016 -1
    outer loop
      vertex 0.580569 -3.08612 -8
      vertex -7 -1.77636e-015 -8
      vertex 0.765367 -3.15224 -8
    endloop
  endfacet
  facet normal 0 -2.22045e-016 -1
    outer loop
      vertex 0.942793 -3.23616 -8
      vertex 0.765367 -3.15224 -8
      vertex 53 -13 -8
    endloop
  endfacet
  facet normal 0 -2.22045e-016 -1
    outer loop
      vertex -1.41421 -3.58579 -8
      vertex -7 -1.77636e-015 -8
      vertex -1.26879 -3.45398 -8
    endloop
  endfacet
  facet normal 0 -2.22045e-016 -1
    outer loop
      vertex -1.54602 -3.73121 -8
      vertex -7 -1.77636e-015 -8
      vertex -1.41421 -3.58579 -8
    endloop
  endfacet
  facet normal 0 -2.22045e-016 -1
    outer loop
      vertex -1.66294 -3.88886 -8
      vertex -7 -1.77636e-015 -8
      vertex -1.54602 -3.73121 -8
    endloop
  endfacet
  facet normal 0 -2.22045e-016 -1
    outer loop
      vertex -1.76384 -4.05721 -8
      vertex -7 -1.77636e-015 -8
      vertex -1.66294 -3.88886 -8
    endloop
  endfacet
  facet normal 0 -2.22045e-016 -1
    outer loop
      vertex -1.84776 -4.23463 -8
      vertex -7 -1.77636e-015 -8
      vertex -1.76384 -4.05721 -8
    endloop
  endfacet
  facet normal 0 -2.22045e-016 -1
    outer loop
      vertex -1.91388 -4.41943 -8
      vertex -7 -1.77636e-015 -8
      vertex -1.84776 -4.23463 -8
    endloop
  endfacet
  facet normal 0 -2.22045e-016 -1
    outer loop
      vertex -1.96157 -4.60982 -8
      vertex -7 -1.77636e-015 -8
      vertex -1.91388 -4.41943 -8
    endloop
  endfacet
  facet normal 0 -2.22045e-016 -1
    outer loop
      vertex -1.99037 -4.80397 -8
      vertex -7 -1.77636e-015 -8
      vertex -1.96157 -4.60982 -8
    endloop
  endfacet
  facet normal 0 -2.22045e-016 -1
    outer loop
      vertex -2 -5 -8
      vertex -7 -1.77636e-015 -8
      vertex -1.99037 -4.80397 -8
    endloop
  endfacet
  facet normal 0 -2.22045e-016 -1
    outer loop
      vertex 43.0096 -5.19603 -8
      vertex -7 -1.77636e-015 -8
      vertex 43 -5 -8
    endloop
  endfacet
  facet normal 0 -2.22045e-016 -1
    outer loop
      vertex 43.0384 -5.39018 -8
      vertex -7 -1.77636e-015 -8
      vertex 43.0096 -5.19603 -8
    endloop
  endfacet
  facet normal 0 -2.22045e-016 -1
    outer loop
      vertex 43.0861 -5.58057 -8
      vertex -7 -1.77636e-015 -8
      vertex 43.0384 -5.39018 -8
    endloop
  endfacet
  facet normal 0 -2.22045e-016 -1
    outer loop
      vertex 43.1522 -5.76537 -8
      vertex -7 -1.77636e-015 -8
      vertex 43.0861 -5.58057 -8
    endloop
  endfacet
  facet normal 0 -2.22045e-016 -1
    outer loop
      vertex 43.2362 -5.94279 -8
      vertex -7 -1.77636e-015 -8
      vertex 43.1522 -5.76537 -8
    endloop
  endfacet
  facet normal 0 -2.22045e-016 -1
    outer loop
      vertex 43.3371 -6.11114 -8
      vertex -7 -1.77636e-015 -8
      vertex 43.2362 -5.94279 -8
    endloop
  endfacet
  facet normal 0 -2.22045e-016 -1
    outer loop
      vertex 43.454 -6.26879 -8
      vertex -7 -1.77636e-015 -8
      vertex 43.3371 -6.11114 -8
    endloop
  endfacet
  facet normal 0 -2.22045e-016 -1
    outer loop
      vertex 43.5858 -6.41421 -8
      vertex -7 -1.77636e-015 -8
      vertex 43.454 -6.26879 -8
    endloop
  endfacet
  facet normal 0 -2.22045e-016 -1
    outer loop
      vertex 43.7312 -6.54602 -8
      vertex -7 -1.77636e-015 -8
      vertex 43.5858 -6.41421 -8
    endloop
  endfacet
  facet normal 0 -2.22045e-016 -1
    outer loop
      vertex 43.8889 -6.66294 -8
      vertex -7 -1.77636e-015 -8
      vertex 43.7312 -6.54602 -8
    endloop
  endfacet
  facet normal 0 -2.22045e-016 -1
    outer loop
      vertex 53 -13 -8
      vertex -7 -1.77636e-015 -8
      vertex 43.8889 -6.66294 -8
    endloop
  endfacet
  facet normal 0 -2.22045e-016 -1
    outer loop
      vertex 44.2346 -6.84776 -8
      vertex 53 -13 -8
      vertex 44.0572 -6.76384 -8
    endloop
  endfacet
  facet normal 0 -2.22045e-016 -1
    outer loop
      vertex 44.4194 -6.91388 -8
      vertex 53 -13 -8
      vertex 44.2346 -6.84776 -8
    endloop
  endfacet
  facet normal 0 -2.22045e-016 -1
    outer loop
      vertex 44.6098 -6.96157 -8
      vertex 53 -13 -8
      vertex 44.4194 -6.91388 -8
    endloop
  endfacet
  facet normal 0 -2.22045e-016 -1
    outer loop
      vertex 44.804 -6.99037 -8
      vertex 53 -13 -8
      vertex 44.6098 -6.96157 -8
    endloop
  endfacet
  facet normal 0 -2.22045e-016 -1
    outer loop
      vertex 45 -7 -8
      vertex 53 -13 -8
      vertex 44.804 -6.99037 -8
    endloop
  endfacet
  facet normal 0 -2.22045e-016 -1
    outer loop
      vertex 45.196 -6.99037 -8
      vertex 53 -13 -8
      vertex 45 -7 -8
    endloop
  endfacet
  facet normal 0 -2.22045e-016 -1
    outer loop
      vertex 45.3902 -6.96157 -8
      vertex 53 -13 -8
      vertex 45.196 -6.99037 -8
    endloop
  endfacet
  facet normal 0 -2.22045e-016 -1
    outer loop
      vertex 45.5806 -6.91388 -8
      vertex 53 -13 -8
      vertex 45.3902 -6.96157 -8
    endloop
  endfacet
  facet normal 0 -2.22045e-016 -1
    outer loop
      vertex 46.546 -6.26879 -8
      vertex 53 -1.77636e-015 -8
      vertex 46.4142 -6.41421 -8
    endloop
  endfacet
  facet normal 0 -2.22045e-016 -1
    outer loop
      vertex 53 -13 -8
      vertex 45.5806 -6.91388 -8
      vertex 45.7654 -6.84776 -8
    endloop
  endfacet
  facet normal 0 -2.22045e-016 -1
    outer loop
      vertex 53 -13 -8
      vertex 45.7654 -6.84776 -8
      vertex 45.9428 -6.76384 -8
    endloop
  endfacet
  facet normal 0 -2.22045e-016 -1
    outer loop
      vertex 53 -13 -8
      vertex 45.9428 -6.76384 -8
      vertex 46.1111 -6.66294 -8
    endloop
  endfacet
  facet normal 0 -2.22045e-016 -1
    outer loop
      vertex 53 -13 -8
      vertex 46.1111 -6.66294 -8
      vertex 46.2688 -6.54602 -8
    endloop
  endfacet
  facet normal 0 -2.22045e-016 -1
    outer loop
      vertex 53 -13 -8
      vertex 46.2688 -6.54602 -8
      vertex 46.4142 -6.41421 -8
    endloop
  endfacet
  facet normal 0 -2.22045e-016 -1
    outer loop
      vertex 53 -13 -8
      vertex 46.4142 -6.41421 -8
      vertex 53 -1.77636e-015 -8
    endloop
  endfacet
  facet normal 0 -2.22045e-016 -1
    outer loop
      vertex 46.6629 -6.11114 -8
      vertex 53 -1.77636e-015 -8
      vertex 46.546 -6.26879 -8
    endloop
  endfacet
  facet normal 0 -2.22045e-016 -1
    outer loop
      vertex 46.7638 -5.94279 -8
      vertex 53 -1.77636e-015 -8
      vertex 46.6629 -6.11114 -8
    endloop
  endfacet
  facet normal 0 -2.22045e-016 -1
    outer loop
      vertex 46.8478 -5.76537 -8
      vertex 53 -1.77636e-015 -8
      vertex 46.7638 -5.94279 -8
    endloop
  endfacet
  facet normal 0 -2.22045e-016 -1
    outer loop
      vertex 46.9139 -5.58057 -8
      vertex 53 -1.77636e-015 -8
      vertex 46.8478 -5.76537 -8
    endloop
  endfacet
  facet normal 0 -2.22045e-016 -1
    outer loop
      vertex 46.1111 -3.33706 -8
      vertex 53 -1.77636e-015 -8
      vertex 46.2688 -3.45398 -8
    endloop
  endfacet
  facet normal 0 -2.22045e-016 -1
    outer loop
      vertex 46.9139 -5.58057 -8
      vertex 46.9616 -5.39018 -8
      vertex 53 -1.77636e-015 -8
    endloop
  endfacet
  facet normal 0 -2.22045e-016 -1
    outer loop
      vertex 46.9616 -5.39018 -8
      vertex 46.9904 -5.19603 -8
      vertex 53 -1.77636e-015 -8
    endloop
  endfacet
  facet normal 0 -2.22045e-016 -1
    outer loop
      vertex 46.9904 -5.19603 -8
      vertex 47 -5 -8
      vertex 53 -1.77636e-015 -8
    endloop
  endfacet
  facet normal 0 -2.22045e-016 -1
    outer loop
      vertex 47 -5 -8
      vertex 46.9904 -4.80397 -8
      vertex 53 -1.77636e-015 -8
    endloop
  endfacet
  facet normal 0 -2.22045e-016 -1
    outer loop
      vertex 46.9904 -4.80397 -8
      vertex 46.9616 -4.60982 -8
      vertex 53 -1.77636e-015 -8
    endloop
  endfacet
  facet normal 0 -2.22045e-016 -1
    outer loop
      vertex 46.9616 -4.60982 -8
      vertex 46.9139 -4.41943 -8
      vertex 53 -1.77636e-015 -8
    endloop
  endfacet
  facet normal 0 -2.22045e-016 -1
    outer loop
      vertex 46.9139 -4.41943 -8
      vertex 46.8478 -4.23463 -8
      vertex 53 -1.77636e-015 -8
    endloop
  endfacet
  facet normal 0 -2.22045e-016 -1
    outer loop
      vertex 46.8478 -4.23463 -8
      vertex 46.7638 -4.05721 -8
      vertex 53 -1.77636e-015 -8
    endloop
  endfacet
  facet normal 0 -2.22045e-016 -1
    outer loop
      vertex 46.7638 -4.05721 -8
      vertex 46.6629 -3.88886 -8
      vertex 53 -1.77636e-015 -8
    endloop
  endfacet
  facet normal 0 -2.22045e-016 -1
    outer loop
      vertex 46.6629 -3.88886 -8
      vertex 46.546 -3.73121 -8
      vertex 53 -1.77636e-015 -8
    endloop
  endfacet
  facet normal 0 -2.22045e-016 -1
    outer loop
      vertex 46.546 -3.73121 -8
      vertex 46.4142 -3.58579 -8
      vertex 53 -1.77636e-015 -8
    endloop
  endfacet
  facet normal 0 -2.22045e-016 -1
    outer loop
      vertex 46.4142 -3.58579 -8
      vertex 46.2688 -3.45398 -8
      vertex 53 -1.77636e-015 -8
    endloop
  endfacet
  facet normal 0 -2.22045e-016 -1
    outer loop
      vertex 44.804 -3.00963 -8
      vertex -7 -1.77636e-015 -8
      vertex 45 -3 -8
    endloop
  endfacet
  facet normal 0 -2.22045e-016 -1
    outer loop
      vertex 44.0572 -3.23616 -8
      vertex -7 -1.77636e-015 -8
      vertex 44.2346 -3.15224 -8
    endloop
  endfacet
  facet normal 0 -2.22045e-016 -1
    outer loop
      vertex 46.1111 -3.33706 -8
      vertex 45.9428 -3.23616 -8
      vertex 53 -1.77636e-015 -8
    endloop
  endfacet
  facet normal 0 -2.22045e-016 -1
    outer loop
      vertex 44.2346 -3.15224 -8
      vertex -7 -1.77636e-015 -8
      vertex 44.4194 -3.08612 -8
    endloop
  endfacet
  facet normal 0 -2.22045e-016 -1
    outer loop
      vertex 45.9428 -3.23616 -8
      vertex 45.7654 -3.15224 -8
      vertex 53 -1.77636e-015 -8
    endloop
  endfacet
  facet normal 0 -2.22045e-016 -1
    outer loop
      vertex 44.4194 -3.08612 -8
      vertex -7 -1.77636e-015 -8
      vertex 44.6098 -3.03843 -8
    endloop
  endfacet
  facet normal 0 -2.22045e-016 -1
    outer loop
      vertex 45.7654 -3.15224 -8
      vertex 45.5806 -3.08612 -8
      vertex 53 -1.77636e-015 -8
    endloop
  endfacet
  facet normal 0 -2.22045e-016 -1
    outer loop
      vertex 44.6098 -3.03843 -8
      vertex -7 -1.77636e-015 -8
      vertex 44.804 -3.00963 -8
    endloop
  endfacet
  facet normal 0 -2.22045e-016 -1
    outer loop
      vertex 45.5806 -3.08612 -8
      vertex 45.3902 -3.03843 -8
      vertex 53 -1.77636e-015 -8
    endloop
  endfacet
  facet normal 0 -2.22045e-016 -1
    outer loop
      vertex 45 -3 -8
      vertex -7 -1.77636e-015 -8
      vertex 45.196 -3.00963 -8
    endloop
  endfacet
  facet normal 0 -2.22045e-016 -1
    outer loop
      vertex 45.3902 -3.03843 -8
      vertex 45.196 -3.00963 -8
      vertex 53 -1.77636e-015 -8
    endloop
  endfacet
  facet normal 0 -2.22045e-016 -1
    outer loop
      vertex 43.8889 -3.33706 -8
      vertex -7 -1.77636e-015 -8
      vertex 44.0572 -3.23616 -8
    endloop
  endfacet
  facet normal 0 -2.22045e-016 -1
    outer loop
      vertex 43.7312 -3.45398 -8
      vertex -7 -1.77636e-015 -8
      vertex 43.8889 -3.33706 -8
    endloop
  endfacet
  facet normal 0 -2.22045e-016 -1
    outer loop
      vertex 43.5858 -3.58579 -8
      vertex -7 -1.77636e-015 -8
      vertex 43.7312 -3.45398 -8
    endloop
  endfacet
  facet normal 0 -2.22045e-016 -1
    outer loop
      vertex 43.454 -3.73121 -8
      vertex -7 -1.77636e-015 -8
      vertex 43.5858 -3.58579 -8
    endloop
  endfacet
  facet normal 0 -2.22045e-016 -1
    outer loop
      vertex 43.3371 -3.88886 -8
      vertex -7 -1.77636e-015 -8
      vertex 43.454 -3.73121 -8
    endloop
  endfacet
  facet normal 0 -2.22045e-016 -1
    outer loop
      vertex 43.2362 -4.05721 -8
      vertex -7 -1.77636e-015 -8
      vertex 43.3371 -3.88886 -8
    endloop
  endfacet
  facet normal 0 -2.22045e-016 -1
    outer loop
      vertex 43.1522 -4.23463 -8
      vertex -7 -1.77636e-015 -8
      vertex 43.2362 -4.05721 -8
    endloop
  endfacet
  facet normal 0 -2.22045e-016 -1
    outer loop
      vertex 43.0861 -4.41943 -8
      vertex -7 -1.77636e-015 -8
      vertex 43.1522 -4.23463 -8
    endloop
  endfacet
  facet normal 0 -2.22045e-016 -1
    outer loop
      vertex 43.0384 -4.60982 -8
      vertex -7 -1.77636e-015 -8
      vertex 43.0861 -4.41943 -8
    endloop
  endfacet
  facet normal 0 -2.22045e-016 -1
    outer loop
      vertex 43.0096 -4.80397 -8
      vertex -7 -1.77636e-015 -8
      vertex 43.0384 -4.60982 -8
    endloop
  endfacet
  facet normal 0 -2.22045e-016 -1
    outer loop
      vertex 43 -5 -8
      vertex -7 -1.77636e-015 -8
      vertex 43.0096 -4.80397 -8
    endloop
  endfacet
  facet normal 0 -2.22045e-016 -1
    outer loop
      vertex 0 -7 -8
      vertex 53 -13 -8
      vertex -0.196034 -6.99037 -8
    endloop
  endfacet
  facet normal 0 1 -2.22045e-016
    outer loop
      vertex -7 -1.77636e-015 -8
      vertex -7 1.11022e-015 5
      vertex 53 -1.77636e-015 -8
    endloop
  endfacet
  facet normal 0 1 -2.22045e-016
    outer loop
      vertex 53 -1.77636e-015 -8
      vertex -7 1.11022e-015 5
      vertex 53 1.11022e-015 5
    endloop
  endfacet
  facet normal 0 2.22045e-016 1
    outer loop
      vertex 0.390181 -6.96157 5
      vertex -7 -13 5
      vertex 9.54 -13 5
    endloop
  endfacet
  facet normal 0 2.22045e-016 1
    outer loop
      vertex 15.54 -1 5
      vertex -7 1.11022e-015 5
      vertex 9.54 -1 5
    endloop
  endfacet
  facet normal 0 2.22045e-016 1
    outer loop
      vertex 53 1.11022e-015 5
      vertex -7 1.11022e-015 5
      vertex 15.54 -1 5
    endloop
  endfacet
  facet normal 0 2.22045e-016 1
    outer loop
      vertex 53 -13 5
      vertex 15.54 -1 5
      vertex 15.54 -13 5
    endloop
  endfacet
  facet normal 0 2.22045e-016 1
    outer loop
      vertex 44.6098 -6.96157 5
      vertex 15.54 -1 5
      vertex 53 -13 5
    endloop
  endfacet
  facet normal 0 2.22045e-016 1
    outer loop
      vertex 44.4194 -3.08612 5
      vertex 44.6098 -3.03843 5
      vertex 53 1.11022e-015 5
    endloop
  endfacet
  facet normal 0 2.22045e-016 1
    outer loop
      vertex -7 1.11022e-015 5
      vertex -7 -13 5
      vertex -1.99037 -5.19603 5
    endloop
  endfacet
  facet normal 0 2.22045e-016 1
    outer loop
      vertex 0.580569 -6.91388 5
      vertex 0.390181 -6.96157 5
      vertex 9.54 -13 5
    endloop
  endfacet
  facet normal 0 2.22045e-016 1
    outer loop
      vertex -7 1.11022e-015 5
      vertex -1.99037 -5.19603 5
      vertex -2 -5 5
    endloop
  endfacet
  facet normal 0 2.22045e-016 1
    outer loop
      vertex 0.765367 -6.84776 5
      vertex 0.580569 -6.91388 5
      vertex 9.54 -13 5
    endloop
  endfacet
  facet normal 0 2.22045e-016 1
    outer loop
      vertex -7 1.11022e-015 5
      vertex -2 -5 5
      vertex -1.99037 -4.80397 5
    endloop
  endfacet
  facet normal 0 2.22045e-016 1
    outer loop
      vertex 0.942793 -6.76384 5
      vertex 0.765367 -6.84776 5
      vertex 9.54 -13 5
    endloop
  endfacet
  facet normal 0 2.22045e-016 1
    outer loop
      vertex -7 1.11022e-015 5
      vertex -1.99037 -4.80397 5
      vertex -1.96157 -4.60982 5
    endloop
  endfacet
  facet normal 0 2.22045e-016 1
    outer loop
      vertex 45.3902 -3.03843 5
      vertex 45.5806 -3.08612 5
      vertex 53 1.11022e-015 5
    endloop
  endfacet
  facet normal 0 2.22045e-016 1
    outer loop
      vertex -7 1.11022e-015 5
      vertex -1.96157 -4.60982 5
      vertex -1.91388 -4.41943 5
    endloop
  endfacet
  facet normal 0 2.22045e-016 1
    outer loop
      vertex -7 1.11022e-015 5
      vertex -1.91388 -4.41943 5
      vertex -1.84776 -4.23463 5
    endloop
  endfacet
  facet normal 0 2.22045e-016 1
    outer loop
      vertex 1.26879 -6.54602 5
      vertex 1.11114 -6.66294 5
      vertex 9.54 -13 5
    endloop
  endfacet
  facet normal 0 2.22045e-016 1
    outer loop
      vertex -1.66294 -3.88886 5
      vertex -7 1.11022e-015 5
      vertex -1.76384 -4.05721 5
    endloop
  endfacet
  facet normal 0 2.22045e-016 1
    outer loop
      vertex -1.54602 -3.73121 5
      vertex -7 1.11022e-015 5
      vertex -1.66294 -3.88886 5
    endloop
  endfacet
  facet normal 0 2.22045e-016 1
    outer loop
      vertex 0.942793 -3.23616 5
      vertex 1.11114 -3.33706 5
      vertex 9.54 -1 5
    endloop
  endfacet
  facet normal 0 2.22045e-016 1
    outer loop
      vertex -1.41421 -3.58579 5
      vertex -7 1.11022e-015 5
      vertex -1.54602 -3.73121 5
    endloop
  endfacet
  facet normal 0 2.22045e-016 1
    outer loop
      vertex -1.26879 -3.45398 5
      vertex -7 1.11022e-015 5
      vertex -1.41421 -3.58579 5
    endloop
  endfacet
  facet normal 0 2.22045e-016 1
    outer loop
      vertex -1.11114 -3.33706 5
      vertex -7 1.11022e-015 5
      vertex -1.26879 -3.45398 5
    endloop
  endfacet
  facet normal 0 2.22045e-016 1
    outer loop
      vertex -0.942793 -3.23616 5
      vertex -7 1.11022e-015 5
      vertex -1.11114 -3.33706 5
    endloop
  endfacet
  facet normal 0 2.22045e-016 1
    outer loop
      vertex -0.765367 -3.15224 5
      vertex -7 1.11022e-015 5
      vertex -0.942793 -3.23616 5
    endloop
  endfacet
  facet normal 0 2.22045e-016 1
    outer loop
      vertex -0.580569 -3.08612 5
      vertex -7 1.11022e-015 5
      vertex -0.765367 -3.15224 5
    endloop
  endfacet
  facet normal 0 2.22045e-016 1
    outer loop
      vertex -0.390181 -3.03843 5
      vertex -7 1.11022e-015 5
      vertex -0.580569 -3.08612 5
    endloop
  endfacet
  facet normal 0 2.22045e-016 1
    outer loop
      vertex -0.196034 -3.00963 5
      vertex 0 -3 5
      vertex 9.54 -1 5
    endloop
  endfacet
  facet normal 0 2.22045e-016 1
    outer loop
      vertex 9.54 -1 5
      vertex -7 1.11022e-015 5
      vertex -0.390181 -3.03843 5
    endloop
  endfacet
  facet normal 0 2.22045e-016 1
    outer loop
      vertex 0 -3 5
      vertex 0.196034 -3.00963 5
      vertex 9.54 -1 5
    endloop
  endfacet
  facet normal 0 2.22045e-016 1
    outer loop
      vertex 0.196034 -3.00963 5
      vertex 0.390181 -3.03843 5
      vertex 9.54 -1 5
    endloop
  endfacet
  facet normal 0 2.22045e-016 1
    outer loop
      vertex 0.390181 -3.03843 5
      vertex 0.580569 -3.08612 5
      vertex 9.54 -1 5
    endloop
  endfacet
  facet normal 0 2.22045e-016 1
    outer loop
      vertex 0.580569 -3.08612 5
      vertex 0.765367 -3.15224 5
      vertex 9.54 -1 5
    endloop
  endfacet
  facet normal 0 2.22045e-016 1
    outer loop
      vertex 1.11114 -6.66294 5
      vertex 0.942793 -6.76384 5
      vertex 9.54 -13 5
    endloop
  endfacet
  facet normal 0 2.22045e-016 1
    outer loop
      vertex 1.54602 -3.73121 5
      vertex 1.66294 -3.88886 5
      vertex 9.54 -13 5
    endloop
  endfacet
  facet normal 0 2.22045e-016 1
    outer loop
      vertex 1.41421 -6.41421 5
      vertex 1.26879 -6.54602 5
      vertex 9.54 -13 5
    endloop
  endfacet
  facet normal 0 2.22045e-016 1
    outer loop
      vertex 1.76384 -4.05721 5
      vertex 1.84776 -4.23463 5
      vertex 9.54 -13 5
    endloop
  endfacet
  facet normal 0 2.22045e-016 1
    outer loop
      vertex 9.54 -1 5
      vertex 1.11114 -3.33706 5
      vertex 1.26879 -3.45398 5
    endloop
  endfacet
  facet normal 0 2.22045e-016 1
    outer loop
      vertex 1.66294 -3.88886 5
      vertex 1.76384 -4.05721 5
      vertex 9.54 -13 5
    endloop
  endfacet
  facet normal 0 2.22045e-016 1
    outer loop
      vertex 9.54 -1 5
      vertex 1.26879 -3.45398 5
      vertex 1.41421 -3.58579 5
    endloop
  endfacet
  facet normal 0 2.22045e-016 1
    outer loop
      vertex 9.54 -1 5
      vertex 1.54602 -3.73121 5
      vertex 9.54 -13 5
    endloop
  endfacet
  facet normal 0 2.22045e-016 1
    outer loop
      vertex 9.54 -1 5
      vertex 1.41421 -3.58579 5
      vertex 1.54602 -3.73121 5
    endloop
  endfacet
  facet normal 0 2.22045e-016 1
    outer loop
      vertex 1.84776 -4.23463 5
      vertex 1.91388 -4.41943 5
      vertex 9.54 -13 5
    endloop
  endfacet
  facet normal 0 2.22045e-016 1
    outer loop
      vertex 1.91388 -4.41943 5
      vertex 1.96157 -4.60982 5
      vertex 9.54 -13 5
    endloop
  endfacet
  facet normal 0 2.22045e-016 1
    outer loop
      vertex 1.96157 -4.60982 5
      vertex 1.99037 -4.80397 5
      vertex 9.54 -13 5
    endloop
  endfacet
  facet normal 0 2.22045e-016 1
    outer loop
      vertex 1.99037 -4.80397 5
      vertex 2 -5 5
      vertex 9.54 -13 5
    endloop
  endfacet
  facet normal 0 2.22045e-016 1
    outer loop
      vertex 2 -5 5
      vertex 1.99037 -5.19603 5
      vertex 9.54 -13 5
    endloop
  endfacet
  facet normal 0 2.22045e-016 1
    outer loop
      vertex 1.99037 -5.19603 5
      vertex 1.96157 -5.39018 5
      vertex 9.54 -13 5
    endloop
  endfacet
  facet normal 0 2.22045e-016 1
    outer loop
      vertex 1.96157 -5.39018 5
      vertex 1.91388 -5.58057 5
      vertex 9.54 -13 5
    endloop
  endfacet
  facet normal 0 2.22045e-016 1
    outer loop
      vertex 1.91388 -5.58057 5
      vertex 1.84776 -5.76537 5
      vertex 9.54 -13 5
    endloop
  endfacet
  facet normal 0 2.22045e-016 1
    outer loop
      vertex 1.84776 -5.76537 5
      vertex 1.76384 -5.94279 5
      vertex 9.54 -13 5
    endloop
  endfacet
  facet normal 0 2.22045e-016 1
    outer loop
      vertex 1.76384 -5.94279 5
      vertex 1.66294 -6.11114 5
      vertex 9.54 -13 5
    endloop
  endfacet
  facet normal 0 2.22045e-016 1
    outer loop
      vertex 1.66294 -6.11114 5
      vertex 1.54602 -6.26879 5
      vertex 9.54 -13 5
    endloop
  endfacet
  facet normal 0 2.22045e-016 1
    outer loop
      vertex 1.54602 -6.26879 5
      vertex 1.41421 -6.41421 5
      vertex 9.54 -13 5
    endloop
  endfacet
  facet normal 0 2.22045e-016 1
    outer loop
      vertex -0.390181 -3.03843 5
      vertex -0.196034 -3.00963 5
      vertex 9.54 -1 5
    endloop
  endfacet
  facet normal 0 2.22045e-016 1
    outer loop
      vertex 0.765367 -3.15224 5
      vertex 0.942793 -3.23616 5
      vertex 9.54 -1 5
    endloop
  endfacet
  facet normal 0 2.22045e-016 1
    outer loop
      vertex 0.196034 -6.99037 5
      vertex -7 -13 5
      vertex 0.390181 -6.96157 5
    endloop
  endfacet
  facet normal 0 2.22045e-016 1
    outer loop
      vertex 0 -7 5
      vertex -7 -13 5
      vertex 0.196034 -6.99037 5
    endloop
  endfacet
  facet normal 0 2.22045e-016 1
    outer loop
      vertex -0.196034 -6.99037 5
      vertex -7 -13 5
      vertex 0 -7 5
    endloop
  endfacet
  facet normal 0 2.22045e-016 1
    outer loop
      vertex -0.390181 -6.96157 5
      vertex -7 -13 5
      vertex -0.196034 -6.99037 5
    endloop
  endfacet
  facet normal 0 2.22045e-016 1
    outer loop
      vertex -0.580569 -6.91388 5
      vertex -7 -13 5
      vertex -0.390181 -6.96157 5
    endloop
  endfacet
  facet normal 0 2.22045e-016 1
    outer loop
      vertex -0.765367 -6.84776 5
      vertex -7 -13 5
      vertex -0.580569 -6.91388 5
    endloop
  endfacet
  facet normal 0 2.22045e-016 1
    outer loop
      vertex -0.942793 -6.76384 5
      vertex -7 -13 5
      vertex -0.765367 -6.84776 5
    endloop
  endfacet
  facet normal 0 2.22045e-016 1
    outer loop
      vertex -1.11114 -6.66294 5
      vertex -7 -13 5
      vertex -0.942793 -6.76384 5
    endloop
  endfacet
  facet normal 0 2.22045e-016 1
    outer loop
      vertex -1.26879 -6.54602 5
      vertex -7 -13 5
      vertex -1.11114 -6.66294 5
    endloop
  endfacet
  facet normal 0 2.22045e-016 1
    outer loop
      vertex -1.41421 -6.41421 5
      vertex -7 -13 5
      vertex -1.26879 -6.54602 5
    endloop
  endfacet
  facet normal 0 2.22045e-016 1
    outer loop
      vertex -1.54602 -6.26879 5
      vertex -7 -13 5
      vertex -1.41421 -6.41421 5
    endloop
  endfacet
  facet normal 0 2.22045e-016 1
    outer loop
      vertex -1.66294 -6.11114 5
      vertex -7 -13 5
      vertex -1.54602 -6.26879 5
    endloop
  endfacet
  facet normal 0 2.22045e-016 1
    outer loop
      vertex -1.76384 -5.94279 5
      vertex -7 -13 5
      vertex -1.66294 -6.11114 5
    endloop
  endfacet
  facet normal 0 2.22045e-016 1
    outer loop
      vertex -1.84776 -5.76537 5
      vertex -7 -13 5
      vertex -1.76384 -5.94279 5
    endloop
  endfacet
  facet normal 0 2.22045e-016 1
    outer loop
      vertex -1.91388 -5.58057 5
      vertex -7 -13 5
      vertex -1.84776 -5.76537 5
    endloop
  endfacet
  facet normal 0 2.22045e-016 1
    outer loop
      vertex -1.96157 -5.39018 5
      vertex -7 -13 5
      vertex -1.91388 -5.58057 5
    endloop
  endfacet
  facet normal 0 2.22045e-016 1
    outer loop
      vertex -1.99037 -5.19603 5
      vertex -7 -13 5
      vertex -1.96157 -5.39018 5
    endloop
  endfacet
  facet normal 0 2.22045e-016 1
    outer loop
      vertex 44.4194 -6.91388 5
      vertex 44.2346 -6.84776 5
      vertex 15.54 -1 5
    endloop
  endfacet
  facet normal 0 2.22045e-016 1
    outer loop
      vertex 43 -5 5
      vertex 15.54 -1 5
      vertex 43.0096 -5.19603 5
    endloop
  endfacet
  facet normal 0 2.22045e-016 1
    outer loop
      vertex 43.0096 -4.80397 5
      vertex 15.54 -1 5
      vertex 43 -5 5
    endloop
  endfacet
  facet normal 0 2.22045e-016 1
    outer loop
      vertex 43.0384 -4.60982 5
      vertex 15.54 -1 5
      vertex 43.0096 -4.80397 5
    endloop
  endfacet
  facet normal 0 2.22045e-016 1
    outer loop
      vertex 46.1111 -3.33706 5
      vertex 46.2688 -3.45398 5
      vertex 53 1.11022e-015 5
    endloop
  endfacet
  facet normal 0 2.22045e-016 1
    outer loop
      vertex 43.0861 -4.41943 5
      vertex 15.54 -1 5
      vertex 43.0384 -4.60982 5
    endloop
  endfacet
  facet normal 0 2.22045e-016 1
    outer loop
      vertex 43.1522 -4.23463 5
      vertex 15.54 -1 5
      vertex 43.0861 -4.41943 5
    endloop
  endfacet
  facet normal 0 2.22045e-016 1
    outer loop
      vertex 43.2362 -4.05721 5
      vertex 15.54 -1 5
      vertex 43.1522 -4.23463 5
    endloop
  endfacet
  facet normal 0 2.22045e-016 1
    outer loop
      vertex 43.3371 -3.88886 5
      vertex 15.54 -1 5
      vertex 43.2362 -4.05721 5
    endloop
  endfacet
  facet normal 0 2.22045e-016 1
    outer loop
      vertex 45.5806 -3.08612 5
      vertex 45.7654 -3.15224 5
      vertex 53 1.11022e-015 5
    endloop
  endfacet
  facet normal 0 2.22045e-016 1
    outer loop
      vertex 43.454 -3.73121 5
      vertex 15.54 -1 5
      vertex 43.3371 -3.88886 5
    endloop
  endfacet
  facet normal 0 2.22045e-016 1
    outer loop
      vertex 43.5858 -3.58579 5
      vertex 15.54 -1 5
      vertex 43.454 -3.73121 5
    endloop
  endfacet
  facet normal 0 2.22045e-016 1
    outer loop
      vertex 43.7312 -3.45398 5
      vertex 15.54 -1 5
      vertex 43.5858 -3.58579 5
    endloop
  endfacet
  facet normal 0 2.22045e-016 1
    outer loop
      vertex 43.8889 -3.33706 5
      vertex 15.54 -1 5
      vertex 43.7312 -3.45398 5
    endloop
  endfacet
  facet normal 0 2.22045e-016 1
    outer loop
      vertex 44.0572 -3.23616 5
      vertex 15.54 -1 5
      vertex 43.8889 -3.33706 5
    endloop
  endfacet
  facet normal 0 2.22045e-016 1
    outer loop
      vertex 44.2346 -3.15224 5
      vertex 15.54 -1 5
      vertex 44.0572 -3.23616 5
    endloop
  endfacet
  facet normal 0 2.22045e-016 1
    outer loop
      vertex 53 1.11022e-015 5
      vertex 15.54 -1 5
      vertex 44.2346 -3.15224 5
    endloop
  endfacet
  facet normal 0 2.22045e-016 1
    outer loop
      vertex 44.6098 -3.03843 5
      vertex 44.804 -3.00963 5
      vertex 53 1.11022e-015 5
    endloop
  endfacet
  facet normal 0 2.22045e-016 1
    outer loop
      vertex 53 1.11022e-015 5
      vertex 44.2346 -3.15224 5
      vertex 44.4194 -3.08612 5
    endloop
  endfacet
  facet normal 0 2.22045e-016 1
    outer loop
      vertex 44.804 -3.00963 5
      vertex 45 -3 5
      vertex 53 1.11022e-015 5
    endloop
  endfacet
  facet normal 0 2.22045e-016 1
    outer loop
      vertex 45 -3 5
      vertex 45.196 -3.00963 5
      vertex 53 1.11022e-015 5
    endloop
  endfacet
  facet normal 0 2.22045e-016 1
    outer loop
      vertex 45.196 -3.00963 5
      vertex 45.3902 -3.03843 5
      vertex 53 1.11022e-015 5
    endloop
  endfacet
  facet normal 0 2.22045e-016 1
    outer loop
      vertex 45.9428 -3.23616 5
      vertex 46.1111 -3.33706 5
      vertex 53 1.11022e-015 5
    endloop
  endfacet
  facet normal 0 2.22045e-016 1
    outer loop
      vertex 45.7654 -3.15224 5
      vertex 45.9428 -3.23616 5
      vertex 53 1.11022e-015 5
    endloop
  endfacet
  facet normal 0 2.22045e-016 1
    outer loop
      vertex 46.2688 -3.45398 5
      vertex 46.4142 -3.58579 5
      vertex 53 1.11022e-015 5
    endloop
  endfacet
  facet normal 0 2.22045e-016 1
    outer loop
      vertex 46.6629 -3.88886 5
      vertex 46.7638 -4.05721 5
      vertex 53 -13 5
    endloop
  endfacet
  facet normal 0 2.22045e-016 1
    outer loop
      vertex 45.3902 -6.96157 5
      vertex 45.196 -6.99037 5
      vertex 53 -13 5
    endloop
  endfacet
  facet normal 0 2.22045e-016 1
    outer loop
      vertex 46.7638 -4.05721 5
      vertex 46.8478 -4.23463 5
      vertex 53 -13 5
    endloop
  endfacet
  facet normal 0 2.22045e-016 1
    outer loop
      vertex 53 1.11022e-015 5
      vertex 46.4142 -3.58579 5
      vertex 46.546 -3.73121 5
    endloop
  endfacet
  facet normal 0 2.22045e-016 1
    outer loop
      vertex 53 1.11022e-015 5
      vertex 46.6629 -3.88886 5
      vertex 53 -13 5
    endloop
  endfacet
  facet normal 0 2.22045e-016 1
    outer loop
      vertex 53 1.11022e-015 5
      vertex 46.546 -3.73121 5
      vertex 46.6629 -3.88886 5
    endloop
  endfacet
  facet normal 0 2.22045e-016 1
    outer loop
      vertex 46.8478 -4.23463 5
      vertex 46.9139 -4.41943 5
      vertex 53 -13 5
    endloop
  endfacet
  facet normal 0 2.22045e-016 1
    outer loop
      vertex 46.9139 -4.41943 5
      vertex 46.9616 -4.60982 5
      vertex 53 -13 5
    endloop
  endfacet
  facet normal 0 2.22045e-016 1
    outer loop
      vertex 46.9616 -4.60982 5
      vertex 46.9904 -4.80397 5
      vertex 53 -13 5
    endloop
  endfacet
  facet normal 0 2.22045e-016 1
    outer loop
      vertex 46.9904 -4.80397 5
      vertex 47 -5 5
      vertex 53 -13 5
    endloop
  endfacet
  facet normal 0 2.22045e-016 1
    outer loop
      vertex 47 -5 5
      vertex 46.9904 -5.19603 5
      vertex 53 -13 5
    endloop
  endfacet
  facet normal 0 2.22045e-016 1
    outer loop
      vertex 46.9904 -5.19603 5
      vertex 46.9616 -5.39018 5
      vertex 53 -13 5
    endloop
  endfacet
  facet normal 0 2.22045e-016 1
    outer loop
      vertex 46.9616 -5.39018 5
      vertex 46.9139 -5.58057 5
      vertex 53 -13 5
    endloop
  endfacet
  facet normal 0 2.22045e-016 1
    outer loop
      vertex 46.9139 -5.58057 5
      vertex 46.8478 -5.76537 5
      vertex 53 -13 5
    endloop
  endfacet
  facet normal 0 2.22045e-016 1
    outer loop
      vertex 46.8478 -5.76537 5
      vertex 46.7638 -5.94279 5
      vertex 53 -13 5
    endloop
  endfacet
  facet normal 0 2.22045e-016 1
    outer loop
      vertex 46.7638 -5.94279 5
      vertex 46.6629 -6.11114 5
      vertex 53 -13 5
    endloop
  endfacet
  facet normal 0 2.22045e-016 1
    outer loop
      vertex 46.6629 -6.11114 5
      vertex 46.546 -6.26879 5
      vertex 53 -13 5
    endloop
  endfacet
  facet normal 0 2.22045e-016 1
    outer loop
      vertex 46.546 -6.26879 5
      vertex 46.4142 -6.41421 5
      vertex 53 -13 5
    endloop
  endfacet
  facet normal 0 2.22045e-016 1
    outer loop
      vertex 46.4142 -6.41421 5
      vertex 46.2688 -6.54602 5
      vertex 53 -13 5
    endloop
  endfacet
  facet normal 0 2.22045e-016 1
    outer loop
      vertex 46.2688 -6.54602 5
      vertex 46.1111 -6.66294 5
      vertex 53 -13 5
    endloop
  endfacet
  facet normal 0 2.22045e-016 1
    outer loop
      vertex 46.1111 -6.66294 5
      vertex 45.9428 -6.76384 5
      vertex 53 -13 5
    endloop
  endfacet
  facet normal 0 2.22045e-016 1
    outer loop
      vertex 45.9428 -6.76384 5
      vertex 45.7654 -6.84776 5
      vertex 53 -13 5
    endloop
  endfacet
  facet normal 0 2.22045e-016 1
    outer loop
      vertex 45.7654 -6.84776 5
      vertex 45.5806 -6.91388 5
      vertex 53 -13 5
    endloop
  endfacet
  facet normal 0 2.22045e-016 1
    outer loop
      vertex 45.5806 -6.91388 5
      vertex 45.3902 -6.96157 5
      vertex 53 -13 5
    endloop
  endfacet
  facet normal 0 2.22045e-016 1
    outer loop
      vertex 45.196 -6.99037 5
      vertex 45 -7 5
      vertex 53 -13 5
    endloop
  endfacet
  facet normal 0 2.22045e-016 1
    outer loop
      vertex 45 -7 5
      vertex 44.804 -6.99037 5
      vertex 53 -13 5
    endloop
  endfacet
  facet normal 0 2.22045e-016 1
    outer loop
      vertex 44.804 -6.99037 5
      vertex 44.6098 -6.96157 5
      vertex 53 -13 5
    endloop
  endfacet
  facet normal 0 2.22045e-016 1
    outer loop
      vertex 44.4194 -6.91388 5
      vertex 15.54 -1 5
      vertex 44.6098 -6.96157 5
    endloop
  endfacet
  facet normal 0 2.22045e-016 1
    outer loop
      vertex 44.2346 -6.84776 5
      vertex 44.0572 -6.76384 5
      vertex 15.54 -1 5
    endloop
  endfacet
  facet normal 0 2.22045e-016 1
    outer loop
      vertex 44.0572 -6.76384 5
      vertex 43.8889 -6.66294 5
      vertex 15.54 -1 5
    endloop
  endfacet
  facet normal 0 2.22045e-016 1
    outer loop
      vertex 43.7312 -6.54602 5
      vertex 15.54 -1 5
      vertex 43.8889 -6.66294 5
    endloop
  endfacet
  facet normal 0 2.22045e-016 1
    outer loop
      vertex 43.5858 -6.41421 5
      vertex 15.54 -1 5
      vertex 43.7312 -6.54602 5
    endloop
  endfacet
  facet normal 0 2.22045e-016 1
    outer loop
      vertex 43.454 -6.26879 5
      vertex 15.54 -1 5
      vertex 43.5858 -6.41421 5
    endloop
  endfacet
  facet normal 0 2.22045e-016 1
    outer loop
      vertex 43.3371 -6.11114 5
      vertex 15.54 -1 5
      vertex 43.454 -6.26879 5
    endloop
  endfacet
  facet normal 0 2.22045e-016 1
    outer loop
      vertex 43.2362 -5.94279 5
      vertex 15.54 -1 5
      vertex 43.3371 -6.11114 5
    endloop
  endfacet
  facet normal 0 2.22045e-016 1
    outer loop
      vertex 43.1522 -5.76537 5
      vertex 15.54 -1 5
      vertex 43.2362 -5.94279 5
    endloop
  endfacet
  facet normal 0 2.22045e-016 1
    outer loop
      vertex 43.0861 -5.58057 5
      vertex 15.54 -1 5
      vertex 43.1522 -5.76537 5
    endloop
  endfacet
  facet normal 0 2.22045e-016 1
    outer loop
      vertex 43.0384 -5.39018 5
      vertex 15.54 -1 5
      vertex 43.0861 -5.58057 5
    endloop
  endfacet
  facet normal 0 2.22045e-016 1
    outer loop
      vertex 43.0096 -5.19603 5
      vertex 15.54 -1 5
      vertex 43.0384 -5.39018 5
    endloop
  endfacet
  facet normal 0 2.22045e-016 1
    outer loop
      vertex -1.84776 -4.23463 5
      vertex -1.76384 -4.05721 5
      vertex -7 1.11022e-015 5
    endloop
  endfacet
  facet normal 1 1.22461e-016 -1.22461e-016
    outer loop
      vertex 9.54 -1 5
      vertex 9.54 -13 5
      vertex 9.54 -13 -6.5
    endloop
  endfacet
  facet normal 1 1.22461e-016 -1.22461e-016
    outer loop
      vertex 9.54 -1 -6.5
      vertex 9.54 -1 5
      vertex 9.54 -13 -6.5
    endloop
  endfacet
  facet normal 1.22461e-016 3.99366e-016 1
    outer loop
      vertex 9.54 -13 -6.5
      vertex 15.54 -13 -6.5
      vertex 15.54 -1 -6.5
    endloop
  endfacet
  facet normal 1.22461e-016 3.99366e-016 1
    outer loop
      vertex 9.54 -1 -6.5
      vertex 9.54 -13 -6.5
      vertex 15.54 -1 -6.5
    endloop
  endfacet
  facet normal -1 -1.22461e-016 1.22461e-016
    outer loop
      vertex 15.54 -13 -5
      vertex 15.54 -1 -5
      vertex 15.54 -13 -6.5
    endloop
  endfacet
  facet normal -1 -1.22461e-016 1.22461e-016
    outer loop
      vertex 15.54 -13 -6.5
      vertex 15.54 -1 -5
      vertex 15.54 -1 -6.5
    endloop
  endfacet
  facet normal 1.22461e-016 3.99366e-016 1
    outer loop
      vertex 15.54 -13 -5
      vertex 35 -13 -5
      vertex 35 -1 -5
    endloop
  endfacet
  facet normal 1.22461e-016 3.99366e-016 1
    outer loop
      vertex 15.54 -1 -5
      vertex 15.54 -13 -5
      vertex 35 -1 -5
    endloop
  endfacet
  facet normal -1 -1.22461e-016 1.22461e-016
    outer loop
      vertex 35 -13 -1.5
      vertex 35 -1 -1.5
      vertex 35 -13 -5
    endloop
  endfacet
  facet normal -1 -1.22461e-016 1.22461e-016
    outer loop
      vertex 35 -13 -5
      vertex 35 -1 -1.5
      vertex 35 -1 -5
    endloop
  endfacet
  facet normal -1.22461e-016 -3.99366e-016 -1
    outer loop
      vertex 35 -13 -1.5
      vertex 15.54 -13 -1.5
      vertex 35 -1 -1.5
    endloop
  endfacet
  facet normal -1.22461e-016 -3.99366e-016 -1
    outer loop
      vertex 35 -1 -1.5
      vertex 15.54 -13 -1.5
      vertex 15.54 -1 -1.5
    endloop
  endfacet
  facet normal -1 -1.22461e-016 1.22461e-016
    outer loop
      vertex 15.54 -13 5
      vertex 15.54 -1 5
      vertex 15.54 -13 -1.5
    endloop
  endfacet
  facet normal -1 -1.22461e-016 1.22461e-016
    outer loop
      vertex 15.54 -13 -1.5
      vertex 15.54 -1 5
      vertex 15.54 -1 -1.5
    endloop
  endfacet
  facet normal 1 0 0
    outer loop
      vertex 53 -13 5
      vertex 53 -13 -8
      vertex 53 -1.77636e-015 -8
    endloop
  endfacet
  facet normal 1 0 0
    outer loop
      vertex 53 1.11022e-015 5
      vertex 53 -13 5
      vertex 53 -1.77636e-015 -8
    endloop
  endfacet
  facet normal 0.998795 0.04907 0
    outer loop
      vertex -2 -5 5
      vertex -1.99037 -5.19603 5
      vertex -1.99037 -5.19603 -8
    endloop
  endfacet
  facet normal 0.998795 0.04907 0
    outer loop
      vertex -2 -5 -8
      vertex -2 -5 5
      vertex -1.99037 -5.19603 -8
    endloop
  endfacet
  facet normal 0.998795 -0.04907 0
    outer loop
      vertex -1.99037 -4.80397 -8
      vertex -1.99037 -4.80397 5
      vertex -2 -5 5
    endloop
  endfacet
  facet normal 0.998795 -0.04907 0
    outer loop
      vertex -2 -5 -8
      vertex -1.99037 -4.80397 -8
      vertex -2 -5 5
    endloop
  endfacet
  facet normal 0.989177 -0.146726 0
    outer loop
      vertex -1.96157 -4.60982 -8
      vertex -1.96157 -4.60982 5
      vertex -1.99037 -4.80397 5
    endloop
  endfacet
  facet normal 0.989177 -0.146726 0
    outer loop
      vertex -1.99037 -4.80397 -8
      vertex -1.96157 -4.60982 -8
      vertex -1.99037 -4.80397 5
    endloop
  endfacet
  facet normal 0.970031 -0.242982 0
    outer loop
      vertex -1.91388 -4.41943 -8
      vertex -1.91388 -4.41943 5
      vertex -1.96157 -4.60982 5
    endloop
  endfacet
  facet normal 0.970031 -0.242982 0
    outer loop
      vertex -1.96157 -4.60982 -8
      vertex -1.91388 -4.41943 -8
      vertex -1.96157 -4.60982 5
    endloop
  endfacet
  facet normal 0.941544 -0.336891 0
    outer loop
      vertex -1.84776 -4.23463 -8
      vertex -1.84776 -4.23463 5
      vertex -1.91388 -4.41943 5
    endloop
  endfacet
  facet normal 0.941544 -0.336891 0
    outer loop
      vertex -1.91388 -4.41943 -8
      vertex -1.84776 -4.23463 -8
      vertex -1.91388 -4.41943 5
    endloop
  endfacet
  facet normal 0.90399 -0.427554 0
    outer loop
      vertex -1.76384 -4.05721 -8
      vertex -1.76384 -4.05721 5
      vertex -1.84776 -4.23463 5
    endloop
  endfacet
  facet normal 0.90399 -0.427554 0
    outer loop
      vertex -1.84776 -4.23463 -8
      vertex -1.76384 -4.05721 -8
      vertex -1.84776 -4.23463 5
    endloop
  endfacet
  facet normal 0.857727 -0.514105 0
    outer loop
      vertex -1.66294 -3.88886 -8
      vertex -1.66294 -3.88886 5
      vertex -1.76384 -4.05721 5
    endloop
  endfacet
  facet normal 0.857727 -0.514105 0
    outer loop
      vertex -1.76384 -4.05721 -8
      vertex -1.66294 -3.88886 -8
      vertex -1.76384 -4.05721 5
    endloop
  endfacet
  facet normal 0.80321 -0.595696 0
    outer loop
      vertex -1.54602 -3.73121 -8
      vertex -1.54602 -3.73121 5
      vertex -1.66294 -3.88886 5
    endloop
  endfacet
  facet normal 0.80321 -0.595696 0
    outer loop
      vertex -1.66294 -3.88886 -8
      vertex -1.54602 -3.73121 -8
      vertex -1.66294 -3.88886 5
    endloop
  endfacet
  facet normal 0.740952 -0.671558 0
    outer loop
      vertex -1.41421 -3.58579 -8
      vertex -1.41421 -3.58579 5
      vertex -1.54602 -3.73121 5
    endloop
  endfacet
  facet normal 0.740952 -0.671558 0
    outer loop
      vertex -1.54602 -3.73121 -8
      vertex -1.41421 -3.58579 -8
      vertex -1.54602 -3.73121 5
    endloop
  endfacet
  facet normal 0.671558 -0.740952 0
    outer loop
      vertex -1.26879 -3.45398 -8
      vertex -1.26879 -3.45398 5
      vertex -1.41421 -3.58579 5
    endloop
  endfacet
  facet normal 0.671558 -0.740952 0
    outer loop
      vertex -1.41421 -3.58579 -8
      vertex -1.26879 -3.45398 -8
      vertex -1.41421 -3.58579 5
    endloop
  endfacet
  facet normal 0.595696 -0.80321 0
    outer loop
      vertex -1.11114 -3.33706 -8
      vertex -1.11114 -3.33706 5
      vertex -1.26879 -3.45398 5
    endloop
  endfacet
  facet normal 0.595696 -0.80321 0
    outer loop
      vertex -1.26879 -3.45398 -8
      vertex -1.11114 -3.33706 -8
      vertex -1.26879 -3.45398 5
    endloop
  endfacet
  facet normal 0.514105 -0.857727 0
    outer loop
      vertex -0.942793 -3.23616 -8
      vertex -0.942793 -3.23616 5
      vertex -1.11114 -3.33706 5
    endloop
  endfacet
  facet normal 0.514105 -0.857727 0
    outer loop
      vertex -1.11114 -3.33706 -8
      vertex -0.942793 -3.23616 -8
      vertex -1.11114 -3.33706 5
    endloop
  endfacet
  facet normal 0.427554 -0.90399 0
    outer loop
      vertex -0.765367 -3.15224 -8
      vertex -0.765367 -3.15224 5
      vertex -0.942793 -3.23616 5
    endloop
  endfacet
  facet normal 0.427554 -0.90399 0
    outer loop
      vertex -0.942793 -3.23616 -8
      vertex -0.765367 -3.15224 -8
      vertex -0.942793 -3.23616 5
    endloop
  endfacet
  facet normal 0.336891 -0.941544 0
    outer loop
      vertex -0.580569 -3.08612 -8
      vertex -0.580569 -3.08612 5
      vertex -0.765367 -3.15224 5
    endloop
  endfacet
  facet normal 0.336891 -0.941544 0
    outer loop
      vertex -0.765367 -3.15224 -8
      vertex -0.580569 -3.08612 -8
      vertex -0.765367 -3.15224 5
    endloop
  endfacet
  facet normal 0.242982 -0.970031 0
    outer loop
      vertex -0.390181 -3.03843 -8
      vertex -0.390181 -3.03843 5
      vertex -0.580569 -3.08612 5
    endloop
  endfacet
  facet normal 0.242982 -0.970031 0
    outer loop
      vertex -0.580569 -3.08612 -8
      vertex -0.390181 -3.03843 -8
      vertex -0.580569 -3.08612 5
    endloop
  endfacet
  facet normal 0.146726 -0.989177 0
    outer loop
      vertex -0.196034 -3.00963 -8
      vertex -0.196034 -3.00963 5
      vertex -0.390181 -3.03843 5
    endloop
  endfacet
  facet normal 0.146726 -0.989177 0
    outer loop
      vertex -0.390181 -3.03843 -8
      vertex -0.196034 -3.00963 -8
      vertex -0.390181 -3.03843 5
    endloop
  endfacet
  facet normal 0.04907 -0.998795 0
    outer loop
      vertex 0 -3 -8
      vertex 0 -3 5
      vertex -0.196034 -3.00963 5
    endloop
  endfacet
  facet normal 0.04907 -0.998795 0
    outer loop
      vertex -0.196034 -3.00963 -8
      vertex 0 -3 -8
      vertex -0.196034 -3.00963 5
    endloop
  endfacet
  facet normal -0.04907 -0.998795 0
    outer loop
      vertex 0.196034 -3.00963 -8
      vertex 0.196034 -3.00963 5
      vertex 0 -3 5
    endloop
  endfacet
  facet normal -0.04907 -0.998795 0
    outer loop
      vertex 0 -3 -8
      vertex 0.196034 -3.00963 -8
      vertex 0 -3 5
    endloop
  endfacet
  facet normal -0.146726 -0.989177 0
    outer loop
      vertex 0.390181 -3.03843 -8
      vertex 0.390181 -3.03843 5
      vertex 0.196034 -3.00963 5
    endloop
  endfacet
  facet normal -0.146726 -0.989177 0
    outer loop
      vertex 0.196034 -3.00963 -8
      vertex 0.390181 -3.03843 -8
      vertex 0.196034 -3.00963 5
    endloop
  endfacet
  facet normal -0.242982 -0.970031 0
    outer loop
      vertex 0.580569 -3.08612 -8
      vertex 0.580569 -3.08612 5
      vertex 0.390181 -3.03843 5
    endloop
  endfacet
  facet normal -0.242982 -0.970031 0
    outer loop
      vertex 0.390181 -3.03843 -8
      vertex 0.580569 -3.08612 -8
      vertex 0.390181 -3.03843 5
    endloop
  endfacet
  facet normal -0.336891 -0.941544 0
    outer loop
      vertex 0.765367 -3.15224 -8
      vertex 0.765367 -3.15224 5
      vertex 0.580569 -3.08612 5
    endloop
  endfacet
  facet normal -0.336891 -0.941544 0
    outer loop
      vertex 0.580569 -3.08612 -8
      vertex 0.765367 -3.15224 -8
      vertex 0.580569 -3.08612 5
    endloop
  endfacet
  facet normal -0.427554 -0.90399 0
    outer loop
      vertex 0.942793 -3.23616 -8
      vertex 0.942793 -3.23616 5
      vertex 0.765367 -3.15224 5
    endloop
  endfacet
  facet normal -0.427554 -0.90399 0
    outer loop
      vertex 0.765367 -3.15224 -8
      vertex 0.942793 -3.23616 -8
      vertex 0.765367 -3.15224 5
    endloop
  endfacet
  facet normal -0.514105 -0.857727 0
    outer loop
      vertex 1.11114 -3.33706 -8
      vertex 1.11114 -3.33706 5
      vertex 0.942793 -3.23616 5
    endloop
  endfacet
  facet normal -0.514105 -0.857727 0
    outer loop
      vertex 0.942793 -3.23616 -8
      vertex 1.11114 -3.33706 -8
      vertex 0.942793 -3.23616 5
    endloop
  endfacet
  facet normal -0.595696 -0.80321 0
    outer loop
      vertex 1.26879 -3.45398 -8
      vertex 1.26879 -3.45398 5
      vertex 1.11114 -3.33706 5
    endloop
  endfacet
  facet normal -0.595696 -0.80321 0
    outer loop
      vertex 1.11114 -3.33706 -8
      vertex 1.26879 -3.45398 -8
      vertex 1.11114 -3.33706 5
    endloop
  endfacet
  facet normal -0.671558 -0.740952 0
    outer loop
      vertex 1.41421 -3.58579 -8
      vertex 1.41421 -3.58579 5
      vertex 1.26879 -3.45398 5
    endloop
  endfacet
  facet normal -0.671558 -0.740952 0
    outer loop
      vertex 1.26879 -3.45398 -8
      vertex 1.41421 -3.58579 -8
      vertex 1.26879 -3.45398 5
    endloop
  endfacet
  facet normal -0.740952 -0.671558 0
    outer loop
      vertex 1.54602 -3.73121 5
      vertex 1.41421 -3.58579 5
      vertex 1.54602 -3.73121 -8
    endloop
  endfacet
  facet normal -0.740952 -0.671558 0
    outer loop
      vertex 1.54602 -3.73121 -8
      vertex 1.41421 -3.58579 5
      vertex 1.41421 -3.58579 -8
    endloop
  endfacet
  facet normal -0.80321 -0.595696 0
    outer loop
      vertex 1.66294 -3.88886 5
      vertex 1.54602 -3.73121 5
      vertex 1.66294 -3.88886 -8
    endloop
  endfacet
  facet normal -0.80321 -0.595696 0
    outer loop
      vertex 1.66294 -3.88886 -8
      vertex 1.54602 -3.73121 5
      vertex 1.54602 -3.73121 -8
    endloop
  endfacet
  facet normal -0.857727 -0.514105 0
    outer loop
      vertex 1.76384 -4.05721 5
      vertex 1.66294 -3.88886 5
      vertex 1.76384 -4.05721 -8
    endloop
  endfacet
  facet normal -0.857727 -0.514105 0
    outer loop
      vertex 1.76384 -4.05721 -8
      vertex 1.66294 -3.88886 5
      vertex 1.66294 -3.88886 -8
    endloop
  endfacet
  facet normal -0.90399 -0.427554 0
    outer loop
      vertex 1.84776 -4.23463 5
      vertex 1.76384 -4.05721 5
      vertex 1.84776 -4.23463 -8
    endloop
  endfacet
  facet normal -0.90399 -0.427554 0
    outer loop
      vertex 1.84776 -4.23463 -8
      vertex 1.76384 -4.05721 5
      vertex 1.76384 -4.05721 -8
    endloop
  endfacet
  facet normal -0.941544 -0.336891 0
    outer loop
      vertex 1.91388 -4.41943 5
      vertex 1.84776 -4.23463 5
      vertex 1.91388 -4.41943 -8
    endloop
  endfacet
  facet normal -0.941544 -0.336891 0
    outer loop
      vertex 1.91388 -4.41943 -8
      vertex 1.84776 -4.23463 5
      vertex 1.84776 -4.23463 -8
    endloop
  endfacet
  facet normal -0.970031 -0.242982 0
    outer loop
      vertex 1.96157 -4.60982 5
      vertex 1.91388 -4.41943 5
      vertex 1.96157 -4.60982 -8
    endloop
  endfacet
  facet normal -0.970031 -0.242982 0
    outer loop
      vertex 1.96157 -4.60982 -8
      vertex 1.91388 -4.41943 5
      vertex 1.91388 -4.41943 -8
    endloop
  endfacet
  facet normal -0.989177 -0.146726 0
    outer loop
      vertex 1.99037 -4.80397 5
      vertex 1.96157 -4.60982 5
      vertex 1.99037 -4.80397 -8
    endloop
  endfacet
  facet normal -0.989177 -0.146726 0
    outer loop
      vertex 1.99037 -4.80397 -8
      vertex 1.96157 -4.60982 5
      vertex 1.96157 -4.60982 -8
    endloop
  endfacet
  facet normal -0.998795 -0.04907 0
    outer loop
      vertex 2 -5 5
      vertex 1.99037 -4.80397 5
      vertex 2 -5 -8
    endloop
  endfacet
  facet normal -0.998795 -0.04907 0
    outer loop
      vertex 2 -5 -8
      vertex 1.99037 -4.80397 5
      vertex 1.99037 -4.80397 -8
    endloop
  endfacet
  facet normal -0.998795 0.04907 0
    outer loop
      vertex 2 -5 5
      vertex 2 -5 -8
      vertex 1.99037 -5.19603 5
    endloop
  endfacet
  facet normal -0.998795 0.04907 0
    outer loop
      vertex 1.99037 -5.19603 5
      vertex 2 -5 -8
      vertex 1.99037 -5.19603 -8
    endloop
  endfacet
  facet normal -0.989177 0.146726 0
    outer loop
      vertex 1.99037 -5.19603 5
      vertex 1.99037 -5.19603 -8
      vertex 1.96157 -5.39018 5
    endloop
  endfacet
  facet normal -0.989177 0.146726 0
    outer loop
      vertex 1.96157 -5.39018 5
      vertex 1.99037 -5.19603 -8
      vertex 1.96157 -5.39018 -8
    endloop
  endfacet
  facet normal -0.970031 0.242982 0
    outer loop
      vertex 1.96157 -5.39018 5
      vertex 1.96157 -5.39018 -8
      vertex 1.91388 -5.58057 5
    endloop
  endfacet
  facet normal -0.970031 0.242982 0
    outer loop
      vertex 1.91388 -5.58057 5
      vertex 1.96157 -5.39018 -8
      vertex 1.91388 -5.58057 -8
    endloop
  endfacet
  facet normal -0.941544 0.336891 0
    outer loop
      vertex 1.91388 -5.58057 5
      vertex 1.91388 -5.58057 -8
      vertex 1.84776 -5.76537 5
    endloop
  endfacet
  facet normal -0.941544 0.336891 0
    outer loop
      vertex 1.84776 -5.76537 5
      vertex 1.91388 -5.58057 -8
      vertex 1.84776 -5.76537 -8
    endloop
  endfacet
  facet normal -0.90399 0.427554 0
    outer loop
      vertex 1.84776 -5.76537 5
      vertex 1.84776 -5.76537 -8
      vertex 1.76384 -5.94279 5
    endloop
  endfacet
  facet normal -0.90399 0.427554 0
    outer loop
      vertex 1.76384 -5.94279 5
      vertex 1.84776 -5.76537 -8
      vertex 1.76384 -5.94279 -8
    endloop
  endfacet
  facet normal -0.857727 0.514105 0
    outer loop
      vertex 1.76384 -5.94279 5
      vertex 1.76384 -5.94279 -8
      vertex 1.66294 -6.11114 5
    endloop
  endfacet
  facet normal -0.857727 0.514105 0
    outer loop
      vertex 1.66294 -6.11114 5
      vertex 1.76384 -5.94279 -8
      vertex 1.66294 -6.11114 -8
    endloop
  endfacet
  facet normal -0.80321 0.595696 0
    outer loop
      vertex 1.66294 -6.11114 5
      vertex 1.66294 -6.11114 -8
      vertex 1.54602 -6.26879 5
    endloop
  endfacet
  facet normal -0.80321 0.595696 0
    outer loop
      vertex 1.54602 -6.26879 5
      vertex 1.66294 -6.11114 -8
      vertex 1.54602 -6.26879 -8
    endloop
  endfacet
  facet normal -0.740952 0.671558 0
    outer loop
      vertex 1.54602 -6.26879 5
      vertex 1.54602 -6.26879 -8
      vertex 1.41421 -6.41421 5
    endloop
  endfacet
  facet normal -0.740952 0.671558 0
    outer loop
      vertex 1.41421 -6.41421 5
      vertex 1.54602 -6.26879 -8
      vertex 1.41421 -6.41421 -8
    endloop
  endfacet
  facet normal -0.671558 0.740952 0
    outer loop
      vertex 1.41421 -6.41421 5
      vertex 1.41421 -6.41421 -8
      vertex 1.26879 -6.54602 5
    endloop
  endfacet
  facet normal -0.671558 0.740952 0
    outer loop
      vertex 1.26879 -6.54602 5
      vertex 1.41421 -6.41421 -8
      vertex 1.26879 -6.54602 -8
    endloop
  endfacet
  facet normal -0.595696 0.80321 0
    outer loop
      vertex 1.26879 -6.54602 5
      vertex 1.26879 -6.54602 -8
      vertex 1.11114 -6.66294 5
    endloop
  endfacet
  facet normal -0.595696 0.80321 0
    outer loop
      vertex 1.11114 -6.66294 5
      vertex 1.26879 -6.54602 -8
      vertex 1.11114 -6.66294 -8
    endloop
  endfacet
  facet normal -0.514105 0.857727 0
    outer loop
      vertex 1.11114 -6.66294 5
      vertex 1.11114 -6.66294 -8
      vertex 0.942793 -6.76384 5
    endloop
  endfacet
  facet normal -0.514105 0.857727 0
    outer loop
      vertex 0.942793 -6.76384 5
      vertex 1.11114 -6.66294 -8
      vertex 0.942793 -6.76384 -8
    endloop
  endfacet
  facet normal -0.427554 0.90399 0
    outer loop
      vertex 0.942793 -6.76384 5
      vertex 0.942793 -6.76384 -8
      vertex 0.765367 -6.84776 5
    endloop
  endfacet
  facet normal -0.427554 0.90399 0
    outer loop
      vertex 0.765367 -6.84776 5
      vertex 0.942793 -6.76384 -8
      vertex 0.765367 -6.84776 -8
    endloop
  endfacet
  facet normal -0.336891 0.941544 0
    outer loop
      vertex 0.765367 -6.84776 5
      vertex 0.765367 -6.84776 -8
      vertex 0.580569 -6.91388 5
    endloop
  endfacet
  facet normal -0.336891 0.941544 0
    outer loop
      vertex 0.580569 -6.91388 5
      vertex 0.765367 -6.84776 -8
      vertex 0.580569 -6.91388 -8
    endloop
  endfacet
  facet normal -0.242982 0.970031 0
    outer loop
      vertex 0.580569 -6.91388 5
      vertex 0.580569 -6.91388 -8
      vertex 0.390181 -6.96157 5
    endloop
  endfacet
  facet normal -0.242982 0.970031 0
    outer loop
      vertex 0.390181 -6.96157 5
      vertex 0.580569 -6.91388 -8
      vertex 0.390181 -6.96157 -8
    endloop
  endfacet
  facet normal -0.146726 0.989177 0
    outer loop
      vertex 0.390181 -6.96157 5
      vertex 0.390181 -6.96157 -8
      vertex 0.196034 -6.99037 5
    endloop
  endfacet
  facet normal -0.146726 0.989177 0
    outer loop
      vertex 0.196034 -6.99037 5
      vertex 0.390181 -6.96157 -8
      vertex 0.196034 -6.99037 -8
    endloop
  endfacet
  facet normal -0.04907 0.998795 0
    outer loop
      vertex 0.196034 -6.99037 5
      vertex 0.196034 -6.99037 -8
      vertex 0 -7 5
    endloop
  endfacet
  facet normal -0.04907 0.998795 0
    outer loop
      vertex 0 -7 5
      vertex 0.196034 -6.99037 -8
      vertex 0 -7 -8
    endloop
  endfacet
  facet normal 0.04907 0.998795 0
    outer loop
      vertex 0 -7 5
      vertex 0 -7 -8
      vertex -0.196034 -6.99037 5
    endloop
  endfacet
  facet normal 0.04907 0.998795 0
    outer loop
      vertex -0.196034 -6.99037 5
      vertex 0 -7 -8
      vertex -0.196034 -6.99037 -8
    endloop
  endfacet
  facet normal 0.146726 0.989177 0
    outer loop
      vertex -0.196034 -6.99037 5
      vertex -0.196034 -6.99037 -8
      vertex -0.390181 -6.96157 5
    endloop
  endfacet
  facet normal 0.146726 0.989177 0
    outer loop
      vertex -0.390181 -6.96157 5
      vertex -0.196034 -6.99037 -8
      vertex -0.390181 -6.96157 -8
    endloop
  endfacet
  facet normal 0.242982 0.970031 0
    outer loop
      vertex -0.390181 -6.96157 5
      vertex -0.390181 -6.96157 -8
      vertex -0.580569 -6.91388 5
    endloop
  endfacet
  facet normal 0.242982 0.970031 0
    outer loop
      vertex -0.580569 -6.91388 5
      vertex -0.390181 -6.96157 -8
      vertex -0.580569 -6.91388 -8
    endloop
  endfacet
  facet normal 0.336891 0.941544 0
    outer loop
      vertex -0.580569 -6.91388 5
      vertex -0.580569 -6.91388 -8
      vertex -0.765367 -6.84776 5
    endloop
  endfacet
  facet normal 0.336891 0.941544 0
    outer loop
      vertex -0.765367 -6.84776 5
      vertex -0.580569 -6.91388 -8
      vertex -0.765367 -6.84776 -8
    endloop
  endfacet
  facet normal 0.427554 0.90399 0
    outer loop
      vertex -0.765367 -6.84776 5
      vertex -0.765367 -6.84776 -8
      vertex -0.942793 -6.76384 5
    endloop
  endfacet
  facet normal 0.427554 0.90399 0
    outer loop
      vertex -0.942793 -6.76384 5
      vertex -0.765367 -6.84776 -8
      vertex -0.942793 -6.76384 -8
    endloop
  endfacet
  facet normal 0.514105 0.857727 0
    outer loop
      vertex -0.942793 -6.76384 5
      vertex -0.942793 -6.76384 -8
      vertex -1.11114 -6.66294 5
    endloop
  endfacet
  facet normal 0.514105 0.857727 0
    outer loop
      vertex -1.11114 -6.66294 5
      vertex -0.942793 -6.76384 -8
      vertex -1.11114 -6.66294 -8
    endloop
  endfacet
  facet normal 0.595696 0.80321 0
    outer loop
      vertex -1.11114 -6.66294 5
      vertex -1.11114 -6.66294 -8
      vertex -1.26879 -6.54602 5
    endloop
  endfacet
  facet normal 0.595696 0.80321 0
    outer loop
      vertex -1.26879 -6.54602 5
      vertex -1.11114 -6.66294 -8
      vertex -1.26879 -6.54602 -8
    endloop
  endfacet
  facet normal 0.671558 0.740952 0
    outer loop
      vertex -1.26879 -6.54602 5
      vertex -1.26879 -6.54602 -8
      vertex -1.41421 -6.41421 5
    endloop
  endfacet
  facet normal 0.671558 0.740952 0
    outer loop
      vertex -1.41421 -6.41421 5
      vertex -1.26879 -6.54602 -8
      vertex -1.41421 -6.41421 -8
    endloop
  endfacet
  facet normal 0.740952 0.671558 0
    outer loop
      vertex -1.54602 -6.26879 5
      vertex -1.41421 -6.41421 5
      vertex -1.41421 -6.41421 -8
    endloop
  endfacet
  facet normal 0.740952 0.671558 0
    outer loop
      vertex -1.54602 -6.26879 -8
      vertex -1.54602 -6.26879 5
      vertex -1.41421 -6.41421 -8
    endloop
  endfacet
  facet normal 0.80321 0.595696 0
    outer loop
      vertex -1.66294 -6.11114 5
      vertex -1.54602 -6.26879 5
      vertex -1.54602 -6.26879 -8
    endloop
  endfacet
  facet normal 0.80321 0.595696 0
    outer loop
      vertex -1.66294 -6.11114 -8
      vertex -1.66294 -6.11114 5
      vertex -1.54602 -6.26879 -8
    endloop
  endfacet
  facet normal 0.857727 0.514105 0
    outer loop
      vertex -1.76384 -5.94279 5
      vertex -1.66294 -6.11114 5
      vertex -1.66294 -6.11114 -8
    endloop
  endfacet
  facet normal 0.857727 0.514105 0
    outer loop
      vertex -1.76384 -5.94279 -8
      vertex -1.76384 -5.94279 5
      vertex -1.66294 -6.11114 -8
    endloop
  endfacet
  facet normal 0.90399 0.427554 0
    outer loop
      vertex -1.84776 -5.76537 5
      vertex -1.76384 -5.94279 5
      vertex -1.76384 -5.94279 -8
    endloop
  endfacet
  facet normal 0.90399 0.427554 0
    outer loop
      vertex -1.84776 -5.76537 -8
      vertex -1.84776 -5.76537 5
      vertex -1.76384 -5.94279 -8
    endloop
  endfacet
  facet normal 0.941544 0.336891 0
    outer loop
      vertex -1.91388 -5.58057 5
      vertex -1.84776 -5.76537 5
      vertex -1.84776 -5.76537 -8
    endloop
  endfacet
  facet normal 0.941544 0.336891 0
    outer loop
      vertex -1.91388 -5.58057 -8
      vertex -1.91388 -5.58057 5
      vertex -1.84776 -5.76537 -8
    endloop
  endfacet
  facet normal 0.970031 0.242982 0
    outer loop
      vertex -1.96157 -5.39018 5
      vertex -1.91388 -5.58057 5
      vertex -1.91388 -5.58057 -8
    endloop
  endfacet
  facet normal 0.970031 0.242982 0
    outer loop
      vertex -1.96157 -5.39018 -8
      vertex -1.96157 -5.39018 5
      vertex -1.91388 -5.58057 -8
    endloop
  endfacet
  facet normal 0.989177 0.146726 0
    outer loop
      vertex -1.99037 -5.19603 5
      vertex -1.96157 -5.39018 5
      vertex -1.96157 -5.39018 -8
    endloop
  endfacet
  facet normal 0.989177 0.146726 0
    outer loop
      vertex -1.99037 -5.19603 -8
      vertex -1.99037 -5.19603 5
      vertex -1.96157 -5.39018 -8
    endloop
  endfacet
  facet normal 0.998795 -0.04907 0
    outer loop
      vertex 43.0096 -4.80397 -8
      vertex 43.0096 -4.80397 5
      vertex 43 -5 5
    endloop
  endfacet
  facet normal 0.998795 -0.04907 0
    outer loop
      vertex 43 -5 -8
      vertex 43.0096 -4.80397 -8
      vertex 43 -5 5
    endloop
  endfacet
  facet normal 0.998795 0.04907 0
    outer loop
      vertex 43 -5 5
      vertex 43.0096 -5.19603 5
      vertex 43.0096 -5.19603 -8
    endloop
  endfacet
  facet normal 0.998795 0.04907 0
    outer loop
      vertex 43 -5 -8
      vertex 43 -5 5
      vertex 43.0096 -5.19603 -8
    endloop
  endfacet
  facet normal 0.989177 -0.146726 0
    outer loop
      vertex 43.0384 -4.60982 -8
      vertex 43.0384 -4.60982 5
      vertex 43.0096 -4.80397 5
    endloop
  endfacet
  facet normal 0.989177 -0.146726 0
    outer loop
      vertex 43.0096 -4.80397 -8
      vertex 43.0384 -4.60982 -8
      vertex 43.0096 -4.80397 5
    endloop
  endfacet
  facet normal 0.970031 -0.242982 0
    outer loop
      vertex 43.0861 -4.41943 -8
      vertex 43.0861 -4.41943 5
      vertex 43.0384 -4.60982 5
    endloop
  endfacet
  facet normal 0.970031 -0.242982 0
    outer loop
      vertex 43.0384 -4.60982 -8
      vertex 43.0861 -4.41943 -8
      vertex 43.0384 -4.60982 5
    endloop
  endfacet
  facet normal 0.941544 -0.336891 0
    outer loop
      vertex 43.1522 -4.23463 -8
      vertex 43.1522 -4.23463 5
      vertex 43.0861 -4.41943 5
    endloop
  endfacet
  facet normal 0.941544 -0.336891 0
    outer loop
      vertex 43.0861 -4.41943 -8
      vertex 43.1522 -4.23463 -8
      vertex 43.0861 -4.41943 5
    endloop
  endfacet
  facet normal 0.90399 -0.427554 0
    outer loop
      vertex 43.2362 -4.05721 -8
      vertex 43.2362 -4.05721 5
      vertex 43.1522 -4.23463 5
    endloop
  endfacet
  facet normal 0.90399 -0.427554 0
    outer loop
      vertex 43.1522 -4.23463 -8
      vertex 43.2362 -4.05721 -8
      vertex 43.1522 -4.23463 5
    endloop
  endfacet
  facet normal 0.857727 -0.514105 0
    outer loop
      vertex 43.3371 -3.88886 -8
      vertex 43.3371 -3.88886 5
      vertex 43.2362 -4.05721 5
    endloop
  endfacet
  facet normal 0.857727 -0.514105 0
    outer loop
      vertex 43.2362 -4.05721 -8
      vertex 43.3371 -3.88886 -8
      vertex 43.2362 -4.05721 5
    endloop
  endfacet
  facet normal 0.80321 -0.595696 0
    outer loop
      vertex 43.454 -3.73121 -8
      vertex 43.454 -3.73121 5
      vertex 43.3371 -3.88886 5
    endloop
  endfacet
  facet normal 0.80321 -0.595696 0
    outer loop
      vertex 43.3371 -3.88886 -8
      vertex 43.454 -3.73121 -8
      vertex 43.3371 -3.88886 5
    endloop
  endfacet
  facet normal 0.740952 -0.671558 0
    outer loop
      vertex 43.5858 -3.58579 -8
      vertex 43.5858 -3.58579 5
      vertex 43.454 -3.73121 5
    endloop
  endfacet
  facet normal 0.740952 -0.671558 0
    outer loop
      vertex 43.454 -3.73121 -8
      vertex 43.5858 -3.58579 -8
      vertex 43.454 -3.73121 5
    endloop
  endfacet
  facet normal 0.671558 -0.740952 0
    outer loop
      vertex 43.7312 -3.45398 -8
      vertex 43.7312 -3.45398 5
      vertex 43.5858 -3.58579 5
    endloop
  endfacet
  facet normal 0.671558 -0.740952 0
    outer loop
      vertex 43.5858 -3.58579 -8
      vertex 43.7312 -3.45398 -8
      vertex 43.5858 -3.58579 5
    endloop
  endfacet
  facet normal 0.595696 -0.80321 0
    outer loop
      vertex 43.8889 -3.33706 -8
      vertex 43.8889 -3.33706 5
      vertex 43.7312 -3.45398 5
    endloop
  endfacet
  facet normal 0.595696 -0.80321 0
    outer loop
      vertex 43.7312 -3.45398 -8
      vertex 43.8889 -3.33706 -8
      vertex 43.7312 -3.45398 5
    endloop
  endfacet
  facet normal 0.514105 -0.857727 0
    outer loop
      vertex 44.0572 -3.23616 -8
      vertex 44.0572 -3.23616 5
      vertex 43.8889 -3.33706 5
    endloop
  endfacet
  facet normal 0.514105 -0.857727 0
    outer loop
      vertex 43.8889 -3.33706 -8
      vertex 44.0572 -3.23616 -8
      vertex 43.8889 -3.33706 5
    endloop
  endfacet
  facet normal 0.427554 -0.90399 0
    outer loop
      vertex 44.2346 -3.15224 -8
      vertex 44.2346 -3.15224 5
      vertex 44.0572 -3.23616 5
    endloop
  endfacet
  facet normal 0.427554 -0.90399 0
    outer loop
      vertex 44.0572 -3.23616 -8
      vertex 44.2346 -3.15224 -8
      vertex 44.0572 -3.23616 5
    endloop
  endfacet
  facet normal 0.336891 -0.941544 0
    outer loop
      vertex 44.4194 -3.08612 -8
      vertex 44.4194 -3.08612 5
      vertex 44.2346 -3.15224 5
    endloop
  endfacet
  facet normal 0.336891 -0.941544 0
    outer loop
      vertex 44.2346 -3.15224 -8
      vertex 44.4194 -3.08612 -8
      vertex 44.2346 -3.15224 5
    endloop
  endfacet
  facet normal 0.242982 -0.970031 0
    outer loop
      vertex 44.6098 -3.03843 -8
      vertex 44.6098 -3.03843 5
      vertex 44.4194 -3.08612 5
    endloop
  endfacet
  facet normal 0.242982 -0.970031 0
    outer loop
      vertex 44.4194 -3.08612 -8
      vertex 44.6098 -3.03843 -8
      vertex 44.4194 -3.08612 5
    endloop
  endfacet
  facet normal 0.146726 -0.989177 0
    outer loop
      vertex 44.804 -3.00963 -8
      vertex 44.804 -3.00963 5
      vertex 44.6098 -3.03843 5
    endloop
  endfacet
  facet normal 0.146726 -0.989177 0
    outer loop
      vertex 44.6098 -3.03843 -8
      vertex 44.804 -3.00963 -8
      vertex 44.6098 -3.03843 5
    endloop
  endfacet
  facet normal 0.04907 -0.998795 0
    outer loop
      vertex 45 -3 -8
      vertex 45 -3 5
      vertex 44.804 -3.00963 5
    endloop
  endfacet
  facet normal 0.04907 -0.998795 0
    outer loop
      vertex 44.804 -3.00963 -8
      vertex 45 -3 -8
      vertex 44.804 -3.00963 5
    endloop
  endfacet
  facet normal -0.04907 -0.998795 0
    outer loop
      vertex 45.196 -3.00963 -8
      vertex 45.196 -3.00963 5
      vertex 45 -3 5
    endloop
  endfacet
  facet normal -0.04907 -0.998795 0
    outer loop
      vertex 45 -3 -8
      vertex 45.196 -3.00963 -8
      vertex 45 -3 5
    endloop
  endfacet
  facet normal -0.146726 -0.989177 0
    outer loop
      vertex 45.3902 -3.03843 -8
      vertex 45.3902 -3.03843 5
      vertex 45.196 -3.00963 5
    endloop
  endfacet
  facet normal -0.146726 -0.989177 0
    outer loop
      vertex 45.196 -3.00963 -8
      vertex 45.3902 -3.03843 -8
      vertex 45.196 -3.00963 5
    endloop
  endfacet
  facet normal -0.242982 -0.970031 0
    outer loop
      vertex 45.5806 -3.08612 -8
      vertex 45.5806 -3.08612 5
      vertex 45.3902 -3.03843 5
    endloop
  endfacet
  facet normal -0.242982 -0.970031 0
    outer loop
      vertex 45.3902 -3.03843 -8
      vertex 45.5806 -3.08612 -8
      vertex 45.3902 -3.03843 5
    endloop
  endfacet
  facet normal -0.336891 -0.941544 0
    outer loop
      vertex 45.7654 -3.15224 -8
      vertex 45.7654 -3.15224 5
      vertex 45.5806 -3.08612 5
    endloop
  endfacet
  facet normal -0.336891 -0.941544 0
    outer loop
      vertex 45.5806 -3.08612 -8
      vertex 45.7654 -3.15224 -8
      vertex 45.5806 -3.08612 5
    endloop
  endfacet
  facet normal -0.427554 -0.90399 0
    outer loop
      vertex 45.9428 -3.23616 -8
      vertex 45.9428 -3.23616 5
      vertex 45.7654 -3.15224 5
    endloop
  endfacet
  facet normal -0.427554 -0.90399 0
    outer loop
      vertex 45.7654 -3.15224 -8
      vertex 45.9428 -3.23616 -8
      vertex 45.7654 -3.15224 5
    endloop
  endfacet
  facet normal -0.514105 -0.857727 0
    outer loop
      vertex 46.1111 -3.33706 -8
      vertex 46.1111 -3.33706 5
      vertex 45.9428 -3.23616 5
    endloop
  endfacet
  facet normal -0.514105 -0.857727 0
    outer loop
      vertex 45.9428 -3.23616 -8
      vertex 46.1111 -3.33706 -8
      vertex 45.9428 -3.23616 5
    endloop
  endfacet
  facet normal -0.595696 -0.80321 0
    outer loop
      vertex 46.2688 -3.45398 -8
      vertex 46.2688 -3.45398 5
      vertex 46.1111 -3.33706 5
    endloop
  endfacet
  facet normal -0.595696 -0.80321 0
    outer loop
      vertex 46.1111 -3.33706 -8
      vertex 46.2688 -3.45398 -8
      vertex 46.1111 -3.33706 5
    endloop
  endfacet
  facet normal -0.671558 -0.740952 0
    outer loop
      vertex 46.4142 -3.58579 -8
      vertex 46.4142 -3.58579 5
      vertex 46.2688 -3.45398 5
    endloop
  endfacet
  facet normal -0.671558 -0.740952 0
    outer loop
      vertex 46.2688 -3.45398 -8
      vertex 46.4142 -3.58579 -8
      vertex 46.2688 -3.45398 5
    endloop
  endfacet
  facet normal -0.740952 -0.671558 0
    outer loop
      vertex 46.546 -3.73121 5
      vertex 46.4142 -3.58579 5
      vertex 46.546 -3.73121 -8
    endloop
  endfacet
  facet normal -0.740952 -0.671558 0
    outer loop
      vertex 46.546 -3.73121 -8
      vertex 46.4142 -3.58579 5
      vertex 46.4142 -3.58579 -8
    endloop
  endfacet
  facet normal -0.80321 -0.595696 0
    outer loop
      vertex 46.6629 -3.88886 5
      vertex 46.546 -3.73121 5
      vertex 46.6629 -3.88886 -8
    endloop
  endfacet
  facet normal -0.80321 -0.595696 0
    outer loop
      vertex 46.6629 -3.88886 -8
      vertex 46.546 -3.73121 5
      vertex 46.546 -3.73121 -8
    endloop
  endfacet
  facet normal -0.857727 -0.514105 0
    outer loop
      vertex 46.7638 -4.05721 5
      vertex 46.6629 -3.88886 5
      vertex 46.7638 -4.05721 -8
    endloop
  endfacet
  facet normal -0.857727 -0.514105 0
    outer loop
      vertex 46.7638 -4.05721 -8
      vertex 46.6629 -3.88886 5
      vertex 46.6629 -3.88886 -8
    endloop
  endfacet
  facet normal -0.90399 -0.427554 0
    outer loop
      vertex 46.8478 -4.23463 5
      vertex 46.7638 -4.05721 5
      vertex 46.8478 -4.23463 -8
    endloop
  endfacet
  facet normal -0.90399 -0.427554 0
    outer loop
      vertex 46.8478 -4.23463 -8
      vertex 46.7638 -4.05721 5
      vertex 46.7638 -4.05721 -8
    endloop
  endfacet
  facet normal -0.941544 -0.336891 0
    outer loop
      vertex 46.9139 -4.41943 5
      vertex 46.8478 -4.23463 5
      vertex 46.9139 -4.41943 -8
    endloop
  endfacet
  facet normal -0.941544 -0.336891 0
    outer loop
      vertex 46.9139 -4.41943 -8
      vertex 46.8478 -4.23463 5
      vertex 46.8478 -4.23463 -8
    endloop
  endfacet
  facet normal -0.970031 -0.242982 0
    outer loop
      vertex 46.9616 -4.60982 5
      vertex 46.9139 -4.41943 5
      vertex 46.9616 -4.60982 -8
    endloop
  endfacet
  facet normal -0.970031 -0.242982 0
    outer loop
      vertex 46.9616 -4.60982 -8
      vertex 46.9139 -4.41943 5
      vertex 46.9139 -4.41943 -8
    endloop
  endfacet
  facet normal -0.989177 -0.146726 0
    outer loop
      vertex 46.9904 -4.80397 5
      vertex 46.9616 -4.60982 5
      vertex 46.9904 -4.80397 -8
    endloop
  endfacet
  facet normal -0.989177 -0.146726 0
    outer loop
      vertex 46.9904 -4.80397 -8
      vertex 46.9616 -4.60982 5
      vertex 46.9616 -4.60982 -8
    endloop
  endfacet
  facet normal -0.998795 -0.04907 0
    outer loop
      vertex 47 -5 5
      vertex 46.9904 -4.80397 5
      vertex 47 -5 -8
    endloop
  endfacet
  facet normal -0.998795 -0.04907 0
    outer loop
      vertex 47 -5 -8
      vertex 46.9904 -4.80397 5
      vertex 46.9904 -4.80397 -8
    endloop
  endfacet
  facet normal -0.998795 0.04907 0
    outer loop
      vertex 47 -5 5
      vertex 47 -5 -8
      vertex 46.9904 -5.19603 5
    endloop
  endfacet
  facet normal -0.998795 0.04907 0
    outer loop
      vertex 46.9904 -5.19603 5
      vertex 47 -5 -8
      vertex 46.9904 -5.19603 -8
    endloop
  endfacet
  facet normal -0.989177 0.146726 0
    outer loop
      vertex 46.9904 -5.19603 5
      vertex 46.9904 -5.19603 -8
      vertex 46.9616 -5.39018 5
    endloop
  endfacet
  facet normal -0.989177 0.146726 0
    outer loop
      vertex 46.9616 -5.39018 5
      vertex 46.9904 -5.19603 -8
      vertex 46.9616 -5.39018 -8
    endloop
  endfacet
  facet normal -0.970031 0.242982 0
    outer loop
      vertex 46.9616 -5.39018 5
      vertex 46.9616 -5.39018 -8
      vertex 46.9139 -5.58057 5
    endloop
  endfacet
  facet normal -0.970031 0.242982 0
    outer loop
      vertex 46.9139 -5.58057 5
      vertex 46.9616 -5.39018 -8
      vertex 46.9139 -5.58057 -8
    endloop
  endfacet
  facet normal -0.941544 0.336891 0
    outer loop
      vertex 46.9139 -5.58057 5
      vertex 46.9139 -5.58057 -8
      vertex 46.8478 -5.76537 5
    endloop
  endfacet
  facet normal -0.941544 0.336891 0
    outer loop
      vertex 46.8478 -5.76537 5
      vertex 46.9139 -5.58057 -8
      vertex 46.8478 -5.76537 -8
    endloop
  endfacet
  facet normal -0.90399 0.427554 0
    outer loop
      vertex 46.8478 -5.76537 5
      vertex 46.8478 -5.76537 -8
      vertex 46.7638 -5.94279 5
    endloop
  endfacet
  facet normal -0.90399 0.427554 0
    outer loop
      vertex 46.7638 -5.94279 5
      vertex 46.8478 -5.76537 -8
      vertex 46.7638 -5.94279 -8
    endloop
  endfacet
  facet normal -0.857727 0.514105 0
    outer loop
      vertex 46.7638 -5.94279 5
      vertex 46.7638 -5.94279 -8
      vertex 46.6629 -6.11114 5
    endloop
  endfacet
  facet normal -0.857727 0.514105 0
    outer loop
      vertex 46.6629 -6.11114 5
      vertex 46.7638 -5.94279 -8
      vertex 46.6629 -6.11114 -8
    endloop
  endfacet
  facet normal -0.80321 0.595696 0
    outer loop
      vertex 46.6629 -6.11114 5
      vertex 46.6629 -6.11114 -8
      vertex 46.546 -6.26879 5
    endloop
  endfacet
  facet normal -0.80321 0.595696 0
    outer loop
      vertex 46.546 -6.26879 5
      vertex 46.6629 -6.11114 -8
      vertex 46.546 -6.26879 -8
    endloop
  endfacet
  facet normal -0.740952 0.671558 0
    outer loop
      vertex 46.546 -6.26879 5
      vertex 46.546 -6.26879 -8
      vertex 46.4142 -6.41421 5
    endloop
  endfacet
  facet normal -0.740952 0.671558 0
    outer loop
      vertex 46.4142 -6.41421 5
      vertex 46.546 -6.26879 -8
      vertex 46.4142 -6.41421 -8
    endloop
  endfacet
  facet normal -0.671558 0.740952 0
    outer loop
      vertex 46.4142 -6.41421 5
      vertex 46.4142 -6.41421 -8
      vertex 46.2688 -6.54602 5
    endloop
  endfacet
  facet normal -0.671558 0.740952 0
    outer loop
      vertex 46.2688 -6.54602 5
      vertex 46.4142 -6.41421 -8
      vertex 46.2688 -6.54602 -8
    endloop
  endfacet
  facet normal -0.595696 0.80321 0
    outer loop
      vertex 46.2688 -6.54602 5
      vertex 46.2688 -6.54602 -8
      vertex 46.1111 -6.66294 5
    endloop
  endfacet
  facet normal -0.595696 0.80321 0
    outer loop
      vertex 46.1111 -6.66294 5
      vertex 46.2688 -6.54602 -8
      vertex 46.1111 -6.66294 -8
    endloop
  endfacet
  facet normal -0.514105 0.857727 0
    outer loop
      vertex 46.1111 -6.66294 5
      vertex 46.1111 -6.66294 -8
      vertex 45.9428 -6.76384 5
    endloop
  endfacet
  facet normal -0.514105 0.857727 0
    outer loop
      vertex 45.9428 -6.76384 5
      vertex 46.1111 -6.66294 -8
      vertex 45.9428 -6.76384 -8
    endloop
  endfacet
  facet normal -0.427554 0.90399 0
    outer loop
      vertex 45.9428 -6.76384 5
      vertex 45.9428 -6.76384 -8
      vertex 45.7654 -6.84776 5
    endloop
  endfacet
  facet normal -0.427554 0.90399 0
    outer loop
      vertex 45.7654 -6.84776 5
      vertex 45.9428 -6.76384 -8
      vertex 45.7654 -6.84776 -8
    endloop
  endfacet
  facet normal -0.336891 0.941544 0
    outer loop
      vertex 45.7654 -6.84776 5
      vertex 45.7654 -6.84776 -8
      vertex 45.5806 -6.91388 5
    endloop
  endfacet
  facet normal -0.336891 0.941544 0
    outer loop
      vertex 45.5806 -6.91388 5
      vertex 45.7654 -6.84776 -8
      vertex 45.5806 -6.91388 -8
    endloop
  endfacet
  facet normal -0.242982 0.970031 0
    outer loop
      vertex 45.5806 -6.91388 5
      vertex 45.5806 -6.91388 -8
      vertex 45.3902 -6.96157 5
    endloop
  endfacet
  facet normal -0.242982 0.970031 0
    outer loop
      vertex 45.3902 -6.96157 5
      vertex 45.5806 -6.91388 -8
      vertex 45.3902 -6.96157 -8
    endloop
  endfacet
  facet normal -0.146726 0.989177 0
    outer loop
      vertex 45.3902 -6.96157 5
      vertex 45.3902 -6.96157 -8
      vertex 45.196 -6.99037 5
    endloop
  endfacet
  facet normal -0.146726 0.989177 0
    outer loop
      vertex 45.196 -6.99037 5
      vertex 45.3902 -6.96157 -8
      vertex 45.196 -6.99037 -8
    endloop
  endfacet
  facet normal -0.04907 0.998795 0
    outer loop
      vertex 45.196 -6.99037 5
      vertex 45.196 -6.99037 -8
      vertex 45 -7 5
    endloop
  endfacet
  facet normal -0.04907 0.998795 0
    outer loop
      vertex 45 -7 5
      vertex 45.196 -6.99037 -8
      vertex 45 -7 -8
    endloop
  endfacet
  facet normal 0.04907 0.998795 0
    outer loop
      vertex 45 -7 5
      vertex 45 -7 -8
      vertex 44.804 -6.99037 5
    endloop
  endfacet
  facet normal 0.04907 0.998795 0
    outer loop
      vertex 44.804 -6.99037 5
      vertex 45 -7 -8
      vertex 44.804 -6.99037 -8
    endloop
  endfacet
  facet normal 0.146726 0.989177 0
    outer loop
      vertex 44.804 -6.99037 5
      vertex 44.804 -6.99037 -8
      vertex 44.6098 -6.96157 5
    endloop
  endfacet
  facet normal 0.146726 0.989177 0
    outer loop
      vertex 44.6098 -6.96157 5
      vertex 44.804 -6.99037 -8
      vertex 44.6098 -6.96157 -8
    endloop
  endfacet
  facet normal 0.242982 0.970031 0
    outer loop
      vertex 44.6098 -6.96157 5
      vertex 44.6098 -6.96157 -8
      vertex 44.4194 -6.91388 5
    endloop
  endfacet
  facet normal 0.242982 0.970031 0
    outer loop
      vertex 44.4194 -6.91388 5
      vertex 44.6098 -6.96157 -8
      vertex 44.4194 -6.91388 -8
    endloop
  endfacet
  facet normal 0.336891 0.941544 0
    outer loop
      vertex 44.4194 -6.91388 5
      vertex 44.4194 -6.91388 -8
      vertex 44.2346 -6.84776 5
    endloop
  endfacet
  facet normal 0.336891 0.941544 0
    outer loop
      vertex 44.2346 -6.84776 5
      vertex 44.4194 -6.91388 -8
      vertex 44.2346 -6.84776 -8
    endloop
  endfacet
  facet normal 0.427554 0.90399 0
    outer loop
      vertex 44.2346 -6.84776 5
      vertex 44.2346 -6.84776 -8
      vertex 44.0572 -6.76384 5
    endloop
  endfacet
  facet normal 0.427554 0.90399 0
    outer loop
      vertex 44.0572 -6.76384 5
      vertex 44.2346 -6.84776 -8
      vertex 44.0572 -6.76384 -8
    endloop
  endfacet
  facet normal 0.514105 0.857727 0
    outer loop
      vertex 44.0572 -6.76384 5
      vertex 44.0572 -6.76384 -8
      vertex 43.8889 -6.66294 5
    endloop
  endfacet
  facet normal 0.514105 0.857727 0
    outer loop
      vertex 43.8889 -6.66294 5
      vertex 44.0572 -6.76384 -8
      vertex 43.8889 -6.66294 -8
    endloop
  endfacet
  facet normal 0.595696 0.80321 0
    outer loop
      vertex 43.8889 -6.66294 5
      vertex 43.8889 -6.66294 -8
      vertex 43.7312 -6.54602 5
    endloop
  endfacet
  facet normal 0.595696 0.80321 0
    outer loop
      vertex 43.7312 -6.54602 5
      vertex 43.8889 -6.66294 -8
      vertex 43.7312 -6.54602 -8
    endloop
  endfacet
  facet normal 0.671558 0.740952 0
    outer loop
      vertex 43.7312 -6.54602 5
      vertex 43.7312 -6.54602 -8
      vertex 43.5858 -6.41421 5
    endloop
  endfacet
  facet normal 0.671558 0.740952 0
    outer loop
      vertex 43.5858 -6.41421 5
      vertex 43.7312 -6.54602 -8
      vertex 43.5858 -6.41421 -8
    endloop
  endfacet
  facet normal 0.740952 0.671558 0
    outer loop
      vertex 43.454 -6.26879 5
      vertex 43.5858 -6.41421 5
      vertex 43.5858 -6.41421 -8
    endloop
  endfacet
  facet normal 0.740952 0.671558 0
    outer loop
      vertex 43.454 -6.26879 -8
      vertex 43.454 -6.26879 5
      vertex 43.5858 -6.41421 -8
    endloop
  endfacet
  facet normal 0.80321 0.595696 0
    outer loop
      vertex 43.3371 -6.11114 5
      vertex 43.454 -6.26879 5
      vertex 43.454 -6.26879 -8
    endloop
  endfacet
  facet normal 0.80321 0.595696 0
    outer loop
      vertex 43.3371 -6.11114 -8
      vertex 43.3371 -6.11114 5
      vertex 43.454 -6.26879 -8
    endloop
  endfacet
  facet normal 0.857727 0.514105 0
    outer loop
      vertex 43.2362 -5.94279 5
      vertex 43.3371 -6.11114 5
      vertex 43.3371 -6.11114 -8
    endloop
  endfacet
  facet normal 0.857727 0.514105 0
    outer loop
      vertex 43.2362 -5.94279 -8
      vertex 43.2362 -5.94279 5
      vertex 43.3371 -6.11114 -8
    endloop
  endfacet
  facet normal 0.90399 0.427554 0
    outer loop
      vertex 43.1522 -5.76537 5
      vertex 43.2362 -5.94279 5
      vertex 43.2362 -5.94279 -8
    endloop
  endfacet
  facet normal 0.90399 0.427554 0
    outer loop
      vertex 43.1522 -5.76537 -8
      vertex 43.1522 -5.76537 5
      vertex 43.2362 -5.94279 -8
    endloop
  endfacet
  facet normal 0.941544 0.336891 0
    outer loop
      vertex 43.0861 -5.58057 5
      vertex 43.1522 -5.76537 5
      vertex 43.1522 -5.76537 -8
    endloop
  endfacet
  facet normal 0.941544 0.336891 0
    outer loop
      vertex 43.0861 -5.58057 -8
      vertex 43.0861 -5.58057 5
      vertex 43.1522 -5.76537 -8
    endloop
  endfacet
  facet normal 0.970031 0.242982 0
    outer loop
      vertex 43.0384 -5.39018 5
      vertex 43.0861 -5.58057 5
      vertex 43.0861 -5.58057 -8
    endloop
  endfacet
  facet normal 0.970031 0.242982 0
    outer loop
      vertex 43.0384 -5.39018 -8
      vertex 43.0384 -5.39018 5
      vertex 43.0861 -5.58057 -8
    endloop
  endfacet
  facet normal 0.989177 0.146726 0
    outer loop
      vertex 43.0096 -5.19603 5
      vertex 43.0384 -5.39018 5
      vertex 43.0384 -5.39018 -8
    endloop
  endfacet
  facet normal 0.989177 0.146726 0
    outer loop
      vertex 43.0096 -5.19603 -8
      vertex 43.0096 -5.19603 5
      vertex 43.0384 -5.39018 -8
    endloop
  endfacet
  facet normal 1.22461e-016 -1 4.44089e-016
    outer loop
      vertex 35 -1 -1.5
      vertex 15.54 -1 -5
      vertex 35 -1 -5
    endloop
  endfacet
  facet normal 1.22461e-016 -1 4.44089e-016
    outer loop
      vertex 15.54 -1 -1.5
      vertex 15.54 -1 -5
      vertex 35 -1 -1.5
    endloop
  endfacet
  facet normal 1.22461e-016 -1 4.44089e-016
    outer loop
      vertex 15.54 -1 -6.5
      vertex 15.54 -1 -5
      vertex 9.54 -1 5
    endloop
  endfacet
  facet normal 1.22461e-016 -1 4.44089e-016
    outer loop
      vertex 9.54 -1 5
      vertex 15.54 -1 -5
      vertex 15.54 -1 -1.5
    endloop
  endfacet
  facet normal 1.22461e-016 -1 4.44089e-016
    outer loop
      vertex 9.54 -1 5
      vertex 15.54 -1 -1.5
      vertex 15.54 -1 5
    endloop
  endfacet
  facet normal 1.22461e-016 -1 4.44089e-016
    outer loop
      vertex 9.54 -1 -6.5
      vertex 15.54 -1 -6.5
      vertex 9.54 -1 5
    endloop
  endfacet
endsolid OpenSCAD_Model
