  0
SECTION
  2
BLOCKS
  0
ENDSEC
  0
SECTION
  2
ENTITIES
  0
LINE
  8
0
 10
0
 11
0
 20
0
 21
13.307
  0
LINE
  8
0
 10
0
 11
3
 20
13.307
 21
13.307
  0
LINE
  8
0
 10
3
 11
3
 20
13.307
 21
23.615
  0
LINE
  8
0
 10
3
 11
0
 20
23.615
 21
23.615
  0
LINE
  8
0
 10
0
 11
0
 20
23.615
 21
33.923
  0
LINE
  8
0
 10
0
 11
3
 20
33.923
 21
33.923
  0
LINE
  8
0
 10
3
 11
3
 20
33.923
 21
44.231
  0
LINE
  8
0
 10
3
 11
0
 20
44.231
 21
44.231
  0
LINE
  8
0
 10
0
 11
0
 20
44.231
 21
54.538
  0
LINE
  8
0
 10
0
 11
3
 20
54.538
 21
54.538
  0
LINE
  8
0
 10
3
 11
3
 20
54.538
 21
64.846
  0
LINE
  8
0
 10
3
 11
0
 20
64.846
 21
64.846
  0
LINE
  8
0
 10
0
 11
0
 20
64.846
 21
75.154
  0
LINE
  8
0
 10
0
 11
3
 20
75.154
 21
75.154
  0
LINE
  8
0
 10
3
 11
3
 20
75.154
 21
85.462
  0
LINE
  8
0
 10
3
 11
0
 20
85.462
 21
85.462
  0
LINE
  8
0
 10
0
 11
0
 20
85.462
 21
95.769
  0
LINE
  8
0
 10
0
 11
3
 20
95.769
 21
95.769
  0
LINE
  8
0
 10
3
 11
3
 20
95.769
 21
106.077
  0
LINE
  8
0
 10
3
 11
0
 20
106.077
 21
106.077
  0
LINE
  8
0
 10
0
 11
0
 20
106.077
 21
116.384
  0
LINE
  8
0
 10
0
 11
3
 20
116.384
 21
116.384
  0
LINE
  8
0
 10
3
 11
3
 20
116.384
 21
126.692
  0
LINE
  8
0
 10
3
 11
0
 20
126.692
 21
126.692
  0
LINE
  8
0
 10
0
 11
0
 20
126.692
 21
140
  0
LINE
  8
0
 10
0
 11
13.445
 20
140
 21
140
  0
LINE
  8
0
 10
13.445
 11
13.445
 20
140
 21
137
  0
LINE
  8
0
 10
13.445
 11
23.889
 20
137
 21
137
  0
LINE
  8
0
 10
23.889
 11
23.889
 20
137
 21
140
  0
LINE
  8
0
 10
23.889
 11
34.334
 20
140
 21
140
  0
LINE
  8
0
 10
34.334
 11
34.334
 20
140
 21
137
  0
LINE
  8
0
 10
34.334
 11
44.778
 20
137
 21
137
  0
LINE
  8
0
 10
44.778
 11
44.778
 20
137
 21
140
  0
LINE
  8
0
 10
44.778
 11
55.223
 20
140
 21
140
  0
LINE
  8
0
 10
55.223
 11
55.223
 20
140
 21
137
  0
LINE
  8
0
 10
55.223
 11
65.667
 20
137
 21
137
  0
LINE
  8
0
 10
65.667
 11
65.667
 20
137
 21
140
  0
LINE
  8
0
 10
65.667
 11
76.112
 20
140
 21
140
  0
LINE
  8
0
 10
76.112
 11
76.112
 20
140
 21
137
  0
LINE
  8
0
 10
76.112
 11
86.556
 20
137
 21
137
  0
LINE
  8
0
 10
86.556
 11
86.556
 20
137
 21
140
  0
LINE
  8
0
 10
86.556
 11
100
 20
140
 21
140
  0
LINE
  8
0
 10
100
 11
100
 20
140
 21
126.693
  0
LINE
  8
0
 10
100
 11
97
 20
126.693
 21
126.693
  0
LINE
  8
0
 10
97
 11
97
 20
126.693
 21
116.385
  0
LINE
  8
0
 10
97
 11
100
 20
116.385
 21
116.385
  0
LINE
  8
0
 10
100
 11
100
 20
116.385
 21
106.077
  0
LINE
  8
0
 10
100
 11
97
 20
106.077
 21
106.077
  0
LINE
  8
0
 10
97
 11
97
 20
106.077
 21
95.769
  0
LINE
  8
0
 10
97
 11
100
 20
95.769
 21
95.769
  0
LINE
  8
0
 10
100
 11
100
 20
95.769
 21
85.462
  0
LINE
  8
0
 10
100
 11
97
 20
85.462
 21
85.462
  0
LINE
  8
0
 10
97
 11
97
 20
85.462
 21
75.154
  0
LINE
  8
0
 10
97
 11
100
 20
75.154
 21
75.154
  0
LINE
  8
0
 10
100
 11
100
 20
75.154
 21
64.846
  0
LINE
  8
0
 10
100
 11
97
 20
64.846
 21
64.846
  0
LINE
  8
0
 10
97
 11
97
 20
64.846
 21
54.538
  0
LINE
  8
0
 10
97
 11
100
 20
54.538
 21
54.538
  0
LINE
  8
0
 10
100
 11
100
 20
54.538
 21
44.231
  0
LINE
  8
0
 10
100
 11
97
 20
44.231
 21
44.231
  0
LINE
  8
0
 10
97
 11
97
 20
44.231
 21
33.923
  0
LINE
  8
0
 10
97
 11
100
 20
33.923
 21
33.923
  0
LINE
  8
0
 10
100
 11
100
 20
33.923
 21
23.616
  0
LINE
  8
0
 10
100
 11
97
 20
23.616
 21
23.616
  0
LINE
  8
0
 10
97
 11
97
 20
23.616
 21
13.308
  0
LINE
  8
0
 10
97
 11
100
 20
13.308
 21
13.308
  0
LINE
  8
0
 10
100
 11
100
 20
13.308
 21
0
  0
LINE
  8
0
 10
100
 11
86.555
 20
0
 21
0
  0
LINE
  8
0
 10
86.555
 11
86.555
 20
0
 21
3
  0
LINE
  8
0
 10
86.555
 11
76.111
 20
3
 21
3
  0
LINE
  8
0
 10
76.111
 11
76.111
 20
3
 21
0
  0
LINE
  8
0
 10
76.111
 11
65.666
 20
0
 21
0
  0
LINE
  8
0
 10
65.666
 11
65.666
 20
0
 21
3
  0
LINE
  8
0
 10
65.666
 11
55.222
 20
3
 21
3
  0
LINE
  8
0
 10
55.222
 11
55.222
 20
3
 21
0
  0
LINE
  8
0
 10
55.222
 11
44.777
 20
0
 21
0
  0
LINE
  8
0
 10
44.777
 11
44.777
 20
0
 21
3
  0
LINE
  8
0
 10
44.777
 11
34.333
 20
3
 21
3
  0
LINE
  8
0
 10
34.333
 11
34.333
 20
3
 21
0
  0
LINE
  8
0
 10
34.333
 11
23.888
 20
0
 21
0
  0
LINE
  8
0
 10
23.888
 11
23.888
 20
0
 21
3
  0
LINE
  8
0
 10
23.888
 11
13.444
 20
3
 21
3
  0
LINE
  8
0
 10
13.444
 11
13.444
 20
3
 21
0
  0
LINE
  8
0
 10
13.444
 11
0
 20
0
 21
0
  0
LINE
  8
0
 10
23
 11
23
 20
12
 21
17
  0
LINE
  8
0
 10
23
 11
31.5
 20
17
 21
17
  0
LINE
  8
0
 10
31.5
 11
31.5
 20
17
 21
12
  0
LINE
  8
0
 10
31.5
 11
23
 20
12
 21
12
  0
LINE
  8
0
 10
24
 11
24.573
 20
22
 21
23.763
  0
LINE
  8
0
 10
24.573
 11
26.073
 20
23.763
 21
24.853
  0
LINE
  8
0
 10
26.073
 11
27.927
 20
24.853
 21
24.853
  0
LINE
  8
0
 10
27.927
 11
29.427
 20
24.853
 21
23.763
  0
LINE
  8
0
 10
29.427
 11
30
 20
23.763
 21
22
  0
LINE
  8
0
 10
30
 11
29.427
 20
22
 21
20.237
  0
LINE
  8
0
 10
29.427
 11
27.927
 20
20.237
 21
19.147
  0
LINE
  8
0
 10
27.927
 11
26.073
 20
19.147
 21
19.147
  0
LINE
  8
0
 10
26.073
 11
24.573
 20
19.147
 21
20.237
  0
LINE
  8
0
 10
24.573
 11
24
 20
20.237
 21
22
  0
ENDSEC
  0
SECTION
  2
OBJECTS
  0
DICTIONARY
  0
ENDSEC
  0
EOF
