  0
SECTION
  2
BLOCKS
  0
ENDSEC
  0
SECTION
  2
ENTITIES
  0
LINE
  8
0
 10
-0.75
 11
-0.75
 20
-93.75
 21
-0.25
  0
LINE
  8
0
 10
-0.75
 11
92.75
 20
-0.25
 21
-0.25
  0
LINE
  8
0
 10
92.75
 11
92.75
 20
-0.25
 21
-93.75
  0
LINE
  8
0
 10
92.75
 11
-0.75
 20
-93.75
 21
-93.75
  0
LINE
  8
0
 10
10.75
 11
10.774
 20
-46.75
 21
-46.26
  0
LINE
  8
0
 10
10.774
 11
10.846
 20
-46.26
 21
-45.775
  0
LINE
  8
0
 10
10.846
 11
10.965
 20
-45.775
 21
-45.299
  0
LINE
  8
0
 10
10.965
 11
11.131
 20
-45.299
 21
-44.837
  0
LINE
  8
0
 10
11.131
 11
11.34
 20
-44.837
 21
-44.393
  0
LINE
  8
0
 10
11.34
 11
11.593
 20
-44.393
 21
-43.972
  0
LINE
  8
0
 10
11.593
 11
11.885
 20
-43.972
 21
-43.578
  0
LINE
  8
0
 10
11.885
 11
12.214
 20
-43.578
 21
-43.214
  0
LINE
  8
0
 10
12.214
 11
12.578
 20
-43.214
 21
-42.885
  0
LINE
  8
0
 10
12.578
 11
12.972
 20
-42.885
 21
-42.593
  0
LINE
  8
0
 10
12.972
 11
13.393
 20
-42.593
 21
-42.34
  0
LINE
  8
0
 10
13.393
 11
13.837
 20
-42.34
 21
-42.131
  0
LINE
  8
0
 10
13.837
 11
14.299
 20
-42.131
 21
-41.965
  0
LINE
  8
0
 10
14.299
 11
14.775
 20
-41.965
 21
-41.846
  0
LINE
  8
0
 10
14.775
 11
15.26
 20
-41.846
 21
-41.774
  0
LINE
  8
0
 10
15.26
 11
15.75
 20
-41.774
 21
-41.75
  0
LINE
  8
0
 10
15.75
 11
16.24
 20
-41.75
 21
-41.774
  0
LINE
  8
0
 10
16.24
 11
16.725
 20
-41.774
 21
-41.846
  0
LINE
  8
0
 10
16.725
 11
17.201
 20
-41.846
 21
-41.965
  0
LINE
  8
0
 10
17.201
 11
17.663
 20
-41.965
 21
-42.131
  0
LINE
  8
0
 10
17.663
 11
18.107
 20
-42.131
 21
-42.34
  0
LINE
  8
0
 10
18.107
 11
18.528
 20
-42.34
 21
-42.593
  0
LINE
  8
0
 10
18.528
 11
18.922
 20
-42.593
 21
-42.885
  0
LINE
  8
0
 10
18.922
 11
19.286
 20
-42.885
 21
-43.214
  0
LINE
  8
0
 10
19.286
 11
19.615
 20
-43.214
 21
-43.578
  0
LINE
  8
0
 10
19.615
 11
19.907
 20
-43.578
 21
-43.972
  0
LINE
  8
0
 10
19.907
 11
20.16
 20
-43.972
 21
-44.393
  0
LINE
  8
0
 10
20.16
 11
20.369
 20
-44.393
 21
-44.837
  0
LINE
  8
0
 10
20.369
 11
20.535
 20
-44.837
 21
-45.299
  0
LINE
  8
0
 10
20.535
 11
20.654
 20
-45.299
 21
-45.775
  0
LINE
  8
0
 10
20.654
 11
20.726
 20
-45.775
 21
-46.26
  0
LINE
  8
0
 10
20.726
 11
20.75
 20
-46.26
 21
-46.75
  0
LINE
  8
0
 10
20.75
 11
20.726
 20
-46.75
 21
-47.24
  0
LINE
  8
0
 10
20.726
 11
20.654
 20
-47.24
 21
-47.725
  0
LINE
  8
0
 10
20.654
 11
20.535
 20
-47.725
 21
-48.201
  0
LINE
  8
0
 10
20.535
 11
20.369
 20
-48.201
 21
-48.663
  0
LINE
  8
0
 10
20.369
 11
20.16
 20
-48.663
 21
-49.107
  0
LINE
  8
0
 10
20.16
 11
19.907
 20
-49.107
 21
-49.528
  0
LINE
  8
0
 10
19.907
 11
19.615
 20
-49.528
 21
-49.922
  0
LINE
  8
0
 10
19.615
 11
19.286
 20
-49.922
 21
-50.286
  0
LINE
  8
0
 10
19.286
 11
18.922
 20
-50.286
 21
-50.615
  0
LINE
  8
0
 10
18.922
 11
18.528
 20
-50.615
 21
-50.907
  0
LINE
  8
0
 10
18.528
 11
18.107
 20
-50.907
 21
-51.16
  0
LINE
  8
0
 10
18.107
 11
17.663
 20
-51.16
 21
-51.369
  0
LINE
  8
0
 10
17.663
 11
17.201
 20
-51.369
 21
-51.535
  0
LINE
  8
0
 10
17.201
 11
16.725
 20
-51.535
 21
-51.654
  0
LINE
  8
0
 10
16.725
 11
16.24
 20
-51.654
 21
-51.726
  0
LINE
  8
0
 10
16.24
 11
15.75
 20
-51.726
 21
-51.75
  0
LINE
  8
0
 10
15.75
 11
15.26
 20
-51.75
 21
-51.726
  0
LINE
  8
0
 10
15.26
 11
14.775
 20
-51.726
 21
-51.654
  0
LINE
  8
0
 10
14.775
 11
14.299
 20
-51.654
 21
-51.535
  0
LINE
  8
0
 10
14.299
 11
13.837
 20
-51.535
 21
-51.369
  0
LINE
  8
0
 10
13.837
 11
13.393
 20
-51.369
 21
-51.16
  0
LINE
  8
0
 10
13.393
 11
12.972
 20
-51.16
 21
-50.907
  0
LINE
  8
0
 10
12.972
 11
12.578
 20
-50.907
 21
-50.615
  0
LINE
  8
0
 10
12.578
 11
12.214
 20
-50.615
 21
-50.286
  0
LINE
  8
0
 10
12.214
 11
11.885
 20
-50.286
 21
-49.922
  0
LINE
  8
0
 10
11.885
 11
11.593
 20
-49.922
 21
-49.528
  0
LINE
  8
0
 10
11.593
 11
11.34
 20
-49.528
 21
-49.107
  0
LINE
  8
0
 10
11.34
 11
11.131
 20
-49.107
 21
-48.663
  0
LINE
  8
0
 10
11.131
 11
10.965
 20
-48.663
 21
-48.201
  0
LINE
  8
0
 10
10.965
 11
10.846
 20
-48.201
 21
-47.725
  0
LINE
  8
0
 10
10.846
 11
10.774
 20
-47.725
 21
-47.24
  0
LINE
  8
0
 10
10.774
 11
10.75
 20
-47.24
 21
-46.75
  0
LINE
  8
0
 10
26.419
 11
26.419
 20
-60.591
 21
-60.215
  0
LINE
  8
0
 10
26.419
 11
26.512
 20
-60.215
 21
-59.851
  0
LINE
  8
0
 10
26.512
 11
26.694
 20
-59.851
 21
-59.521
  0
LINE
  8
0
 10
26.694
 11
26.951
 20
-59.521
 21
-59.247
  0
LINE
  8
0
 10
26.951
 11
27.268
 20
-59.247
 21
-59.045
  0
LINE
  8
0
 10
27.268
 11
27.626
 20
-59.045
 21
-58.929
  0
LINE
  8
0
 10
27.626
 11
28.001
 20
-58.929
 21
-58.906
  0
LINE
  8
0
 10
28.001
 11
28.371
 20
-58.906
 21
-58.976
  0
LINE
  8
0
 10
28.371
 11
28.711
 20
-58.976
 21
-59.136
  0
LINE
  8
0
 10
28.711
 11
29.001
 20
-59.136
 21
-59.376
  0
LINE
  8
0
 10
29.001
 11
29.222
 20
-59.376
 21
-59.68
  0
LINE
  8
0
 10
29.222
 11
29.36
 20
-59.68
 21
-60.03
  0
LINE
  8
0
 10
29.36
 11
29.407
 20
-60.03
 21
-60.403
  0
LINE
  8
0
 10
29.407
 11
29.36
 20
-60.403
 21
-60.776
  0
LINE
  8
0
 10
29.36
 11
29.222
 20
-60.776
 21
-61.125
  0
LINE
  8
0
 10
29.222
 11
29.001
 20
-61.125
 21
-61.43
  0
LINE
  8
0
 10
29.001
 11
28.711
 20
-61.43
 21
-61.669
  0
LINE
  8
0
 10
28.711
 11
28.371
 20
-61.669
 21
-61.829
  0
LINE
  8
0
 10
28.371
 11
28.001
 20
-61.829
 21
-61.9
  0
LINE
  8
0
 10
28.001
 11
27.626
 20
-61.9
 21
-61.876
  0
LINE
  8
0
 10
27.626
 11
27.268
 20
-61.876
 21
-61.76
  0
LINE
  8
0
 10
27.268
 11
26.951
 20
-61.76
 21
-61.558
  0
LINE
  8
0
 10
26.951
 11
26.694
 20
-61.558
 21
-61.284
  0
LINE
  8
0
 10
26.694
 11
26.512
 20
-61.284
 21
-60.955
  0
LINE
  8
0
 10
26.512
 11
26.419
 20
-60.955
 21
-60.591
  0
LINE
  8
0
 10
27
 11
27.01
 20
-82
 21
-81.804
  0
LINE
  8
0
 10
27.01
 11
27.038
 20
-81.804
 21
-81.61
  0
LINE
  8
0
 10
27.038
 11
27.086
 20
-81.61
 21
-81.419
  0
LINE
  8
0
 10
27.086
 11
27.152
 20
-81.419
 21
-81.235
  0
LINE
  8
0
 10
27.152
 11
27.236
 20
-81.235
 21
-81.057
  0
LINE
  8
0
 10
27.236
 11
27.337
 20
-81.057
 21
-80.889
  0
LINE
  8
0
 10
27.337
 11
27.454
 20
-80.889
 21
-80.731
  0
LINE
  8
0
 10
27.454
 11
27.586
 20
-80.731
 21
-80.586
  0
LINE
  8
0
 10
27.586
 11
27.731
 20
-80.586
 21
-80.454
  0
LINE
  8
0
 10
27.731
 11
27.889
 20
-80.454
 21
-80.337
  0
LINE
  8
0
 10
27.889
 11
28.057
 20
-80.337
 21
-80.236
  0
LINE
  8
0
 10
28.057
 11
28.235
 20
-80.236
 21
-80.152
  0
LINE
  8
0
 10
28.235
 11
28.419
 20
-80.152
 21
-80.086
  0
LINE
  8
0
 10
28.419
 11
28.61
 20
-80.086
 21
-80.038
  0
LINE
  8
0
 10
28.61
 11
28.804
 20
-80.038
 21
-80.01
  0
LINE
  8
0
 10
28.804
 11
29
 20
-80.01
 21
-80
  0
LINE
  8
0
 10
29
 11
29.196
 20
-80
 21
-80.01
  0
LINE
  8
0
 10
29.196
 11
29.39
 20
-80.01
 21
-80.038
  0
LINE
  8
0
 10
29.39
 11
29.581
 20
-80.038
 21
-80.086
  0
LINE
  8
0
 10
29.581
 11
29.765
 20
-80.086
 21
-80.152
  0
LINE
  8
0
 10
29.765
 11
29.943
 20
-80.152
 21
-80.236
  0
LINE
  8
0
 10
29.943
 11
30.111
 20
-80.236
 21
-80.337
  0
LINE
  8
0
 10
30.111
 11
30.269
 20
-80.337
 21
-80.454
  0
LINE
  8
0
 10
30.269
 11
30.414
 20
-80.454
 21
-80.586
  0
LINE
  8
0
 10
30.414
 11
30.546
 20
-80.586
 21
-80.731
  0
LINE
  8
0
 10
30.546
 11
30.663
 20
-80.731
 21
-80.889
  0
LINE
  8
0
 10
30.663
 11
30.764
 20
-80.889
 21
-81.057
  0
LINE
  8
0
 10
30.764
 11
30.848
 20
-81.057
 21
-81.235
  0
LINE
  8
0
 10
30.848
 11
30.914
 20
-81.235
 21
-81.419
  0
LINE
  8
0
 10
30.914
 11
30.962
 20
-81.419
 21
-81.61
  0
LINE
  8
0
 10
30.962
 11
30.99
 20
-81.61
 21
-81.804
  0
LINE
  8
0
 10
30.99
 11
31
 20
-81.804
 21
-82
  0
LINE
  8
0
 10
31
 11
30.99
 20
-82
 21
-82.196
  0
LINE
  8
0
 10
30.99
 11
30.962
 20
-82.196
 21
-82.39
  0
LINE
  8
0
 10
30.962
 11
30.914
 20
-82.39
 21
-82.581
  0
LINE
  8
0
 10
30.914
 11
30.848
 20
-82.581
 21
-82.765
  0
LINE
  8
0
 10
30.848
 11
30.764
 20
-82.765
 21
-82.943
  0
LINE
  8
0
 10
30.764
 11
30.663
 20
-82.943
 21
-83.111
  0
LINE
  8
0
 10
30.663
 11
30.546
 20
-83.111
 21
-83.269
  0
LINE
  8
0
 10
30.546
 11
30.414
 20
-83.269
 21
-83.414
  0
LINE
  8
0
 10
30.414
 11
30.269
 20
-83.414
 21
-83.546
  0
LINE
  8
0
 10
30.269
 11
30.111
 20
-83.546
 21
-83.663
  0
LINE
  8
0
 10
30.111
 11
29.943
 20
-83.663
 21
-83.764
  0
LINE
  8
0
 10
29.943
 11
29.765
 20
-83.764
 21
-83.848
  0
LINE
  8
0
 10
29.765
 11
29.581
 20
-83.848
 21
-83.914
  0
LINE
  8
0
 10
29.581
 11
29.39
 20
-83.914
 21
-83.962
  0
LINE
  8
0
 10
29.39
 11
29.196
 20
-83.962
 21
-83.99
  0
LINE
  8
0
 10
29.196
 11
29
 20
-83.99
 21
-84
  0
LINE
  8
0
 10
29
 11
28.804
 20
-84
 21
-83.99
  0
LINE
  8
0
 10
28.804
 11
28.61
 20
-83.99
 21
-83.962
  0
LINE
  8
0
 10
28.61
 11
28.419
 20
-83.962
 21
-83.914
  0
LINE
  8
0
 10
28.419
 11
28.235
 20
-83.914
 21
-83.848
  0
LINE
  8
0
 10
28.235
 11
28.057
 20
-83.848
 21
-83.764
  0
LINE
  8
0
 10
28.057
 11
27.889
 20
-83.764
 21
-83.663
  0
LINE
  8
0
 10
27.889
 11
27.731
 20
-83.663
 21
-83.546
  0
LINE
  8
0
 10
27.731
 11
27.586
 20
-83.546
 21
-83.414
  0
LINE
  8
0
 10
27.586
 11
27.454
 20
-83.414
 21
-83.269
  0
LINE
  8
0
 10
27.454
 11
27.337
 20
-83.269
 21
-83.111
  0
LINE
  8
0
 10
27.337
 11
27.236
 20
-83.111
 21
-82.943
  0
LINE
  8
0
 10
27.236
 11
27.152
 20
-82.943
 21
-82.765
  0
LINE
  8
0
 10
27.152
 11
27.086
 20
-82.765
 21
-82.581
  0
LINE
  8
0
 10
27.086
 11
27.038
 20
-82.581
 21
-82.39
  0
LINE
  8
0
 10
27.038
 11
27.01
 20
-82.39
 21
-82.196
  0
LINE
  8
0
 10
27.01
 11
27
 20
-82.196
 21
-82
  0
LINE
  8
0
 10
27.512
 11
27.512
 20
-12.188
 21
-11.812
  0
LINE
  8
0
 10
27.512
 11
27.605
 20
-11.812
 21
-11.448
  0
LINE
  8
0
 10
27.605
 11
27.786
 20
-11.448
 21
-11.118
  0
LINE
  8
0
 10
27.786
 11
28.044
 20
-11.118
 21
-10.844
  0
LINE
  8
0
 10
28.044
 11
28.361
 20
-10.844
 21
-10.643
  0
LINE
  8
0
 10
28.361
 11
28.719
 20
-10.643
 21
-10.527
  0
LINE
  8
0
 10
28.719
 11
29.094
 20
-10.527
 21
-10.503
  0
LINE
  8
0
 10
29.094
 11
29.464
 20
-10.503
 21
-10.573
  0
LINE
  8
0
 10
29.464
 11
29.804
 20
-10.573
 21
-10.734
  0
LINE
  8
0
 10
29.804
 11
30.093
 20
-10.734
 21
-10.973
  0
LINE
  8
0
 10
30.093
 11
30.314
 20
-10.973
 21
-11.277
  0
LINE
  8
0
 10
30.314
 11
30.453
 20
-11.277
 21
-11.627
  0
LINE
  8
0
 10
30.453
 11
30.5
 20
-11.627
 21
-12
  0
LINE
  8
0
 10
30.5
 11
30.453
 20
-12
 21
-12.373
  0
LINE
  8
0
 10
30.453
 11
30.314
 20
-12.373
 21
-12.723
  0
LINE
  8
0
 10
30.314
 11
30.093
 20
-12.723
 21
-13.027
  0
LINE
  8
0
 10
30.093
 11
29.804
 20
-13.027
 21
-13.266
  0
LINE
  8
0
 10
29.804
 11
29.464
 20
-13.266
 21
-13.427
  0
LINE
  8
0
 10
29.464
 11
29.094
 20
-13.427
 21
-13.497
  0
LINE
  8
0
 10
29.094
 11
28.719
 20
-13.497
 21
-13.473
  0
LINE
  8
0
 10
28.719
 11
28.361
 20
-13.473
 21
-13.357
  0
LINE
  8
0
 10
28.361
 11
28.044
 20
-13.357
 21
-13.156
  0
LINE
  8
0
 10
28.044
 11
27.786
 20
-13.156
 21
-12.882
  0
LINE
  8
0
 10
27.786
 11
27.605
 20
-12.882
 21
-12.552
  0
LINE
  8
0
 10
27.605
 11
27.512
 20
-12.552
 21
-12.188
  0
LINE
  8
0
 10
64.512
 11
64.512
 20
-32.188
 21
-31.812
  0
LINE
  8
0
 10
64.512
 11
64.605
 20
-31.812
 21
-31.448
  0
LINE
  8
0
 10
64.605
 11
64.786
 20
-31.448
 21
-31.118
  0
LINE
  8
0
 10
64.786
 11
65.044
 20
-31.118
 21
-30.844
  0
LINE
  8
0
 10
65.044
 11
65.361
 20
-30.844
 21
-30.643
  0
LINE
  8
0
 10
65.361
 11
65.719
 20
-30.643
 21
-30.527
  0
LINE
  8
0
 10
65.719
 11
66.094
 20
-30.527
 21
-30.503
  0
LINE
  8
0
 10
66.094
 11
66.464
 20
-30.503
 21
-30.573
  0
LINE
  8
0
 10
66.464
 11
66.804
 20
-30.573
 21
-30.734
  0
LINE
  8
0
 10
66.804
 11
67.093
 20
-30.734
 21
-30.973
  0
LINE
  8
0
 10
67.093
 11
67.314
 20
-30.973
 21
-31.277
  0
LINE
  8
0
 10
67.314
 11
67.453
 20
-31.277
 21
-31.627
  0
LINE
  8
0
 10
67.453
 11
67.5
 20
-31.627
 21
-32
  0
LINE
  8
0
 10
67.5
 11
67.453
 20
-32
 21
-32.373
  0
LINE
  8
0
 10
67.453
 11
67.314
 20
-32.373
 21
-32.723
  0
LINE
  8
0
 10
67.314
 11
67.093
 20
-32.723
 21
-33.027
  0
LINE
  8
0
 10
67.093
 11
66.804
 20
-33.027
 21
-33.266
  0
LINE
  8
0
 10
66.804
 11
66.464
 20
-33.266
 21
-33.427
  0
LINE
  8
0
 10
66.464
 11
66.094
 20
-33.427
 21
-33.497
  0
LINE
  8
0
 10
66.094
 11
65.719
 20
-33.497
 21
-33.473
  0
LINE
  8
0
 10
65.719
 11
65.361
 20
-33.473
 21
-33.357
  0
LINE
  8
0
 10
65.361
 11
65.044
 20
-33.357
 21
-33.156
  0
LINE
  8
0
 10
65.044
 11
64.786
 20
-33.156
 21
-32.882
  0
LINE
  8
0
 10
64.786
 11
64.605
 20
-32.882
 21
-32.552
  0
LINE
  8
0
 10
64.605
 11
64.512
 20
-32.552
 21
-32.188
  0
LINE
  8
0
 10
72
 11
72.01
 20
-82
 21
-81.804
  0
LINE
  8
0
 10
72.01
 11
72.038
 20
-81.804
 21
-81.61
  0
LINE
  8
0
 10
72.038
 11
72.086
 20
-81.61
 21
-81.419
  0
LINE
  8
0
 10
72.086
 11
72.152
 20
-81.419
 21
-81.235
  0
LINE
  8
0
 10
72.152
 11
72.236
 20
-81.235
 21
-81.057
  0
LINE
  8
0
 10
72.236
 11
72.337
 20
-81.057
 21
-80.889
  0
LINE
  8
0
 10
72.337
 11
72.454
 20
-80.889
 21
-80.731
  0
LINE
  8
0
 10
72.454
 11
72.586
 20
-80.731
 21
-80.586
  0
LINE
  8
0
 10
72.586
 11
72.731
 20
-80.586
 21
-80.454
  0
LINE
  8
0
 10
72.731
 11
72.889
 20
-80.454
 21
-80.337
  0
LINE
  8
0
 10
72.889
 11
73.057
 20
-80.337
 21
-80.236
  0
LINE
  8
0
 10
73.057
 11
73.235
 20
-80.236
 21
-80.152
  0
LINE
  8
0
 10
73.235
 11
73.419
 20
-80.152
 21
-80.086
  0
LINE
  8
0
 10
73.419
 11
73.61
 20
-80.086
 21
-80.038
  0
LINE
  8
0
 10
73.61
 11
73.804
 20
-80.038
 21
-80.01
  0
LINE
  8
0
 10
73.804
 11
74
 20
-80.01
 21
-80
  0
LINE
  8
0
 10
74
 11
74.196
 20
-80
 21
-80.01
  0
LINE
  8
0
 10
74.196
 11
74.39
 20
-80.01
 21
-80.038
  0
LINE
  8
0
 10
74.39
 11
74.581
 20
-80.038
 21
-80.086
  0
LINE
  8
0
 10
74.581
 11
74.765
 20
-80.086
 21
-80.152
  0
LINE
  8
0
 10
74.765
 11
74.943
 20
-80.152
 21
-80.236
  0
LINE
  8
0
 10
74.943
 11
75.111
 20
-80.236
 21
-80.337
  0
LINE
  8
0
 10
75.111
 11
75.269
 20
-80.337
 21
-80.454
  0
LINE
  8
0
 10
75.269
 11
75.414
 20
-80.454
 21
-80.586
  0
LINE
  8
0
 10
75.414
 11
75.546
 20
-80.586
 21
-80.731
  0
LINE
  8
0
 10
75.546
 11
75.663
 20
-80.731
 21
-80.889
  0
LINE
  8
0
 10
75.663
 11
75.764
 20
-80.889
 21
-81.057
  0
LINE
  8
0
 10
75.764
 11
75.848
 20
-81.057
 21
-81.235
  0
LINE
  8
0
 10
75.848
 11
75.914
 20
-81.235
 21
-81.419
  0
LINE
  8
0
 10
75.914
 11
75.962
 20
-81.419
 21
-81.61
  0
LINE
  8
0
 10
75.962
 11
75.99
 20
-81.61
 21
-81.804
  0
LINE
  8
0
 10
75.99
 11
76
 20
-81.804
 21
-82
  0
LINE
  8
0
 10
76
 11
75.99
 20
-82
 21
-82.196
  0
LINE
  8
0
 10
75.99
 11
75.962
 20
-82.196
 21
-82.39
  0
LINE
  8
0
 10
75.962
 11
75.914
 20
-82.39
 21
-82.581
  0
LINE
  8
0
 10
75.914
 11
75.848
 20
-82.581
 21
-82.765
  0
LINE
  8
0
 10
75.848
 11
75.764
 20
-82.765
 21
-82.943
  0
LINE
  8
0
 10
75.764
 11
75.663
 20
-82.943
 21
-83.111
  0
LINE
  8
0
 10
75.663
 11
75.546
 20
-83.111
 21
-83.269
  0
LINE
  8
0
 10
75.546
 11
75.414
 20
-83.269
 21
-83.414
  0
LINE
  8
0
 10
75.414
 11
75.269
 20
-83.414
 21
-83.546
  0
LINE
  8
0
 10
75.269
 11
75.111
 20
-83.546
 21
-83.663
  0
LINE
  8
0
 10
75.111
 11
74.943
 20
-83.663
 21
-83.764
  0
LINE
  8
0
 10
74.943
 11
74.765
 20
-83.764
 21
-83.848
  0
LINE
  8
0
 10
74.765
 11
74.581
 20
-83.848
 21
-83.914
  0
LINE
  8
0
 10
74.581
 11
74.39
 20
-83.914
 21
-83.962
  0
LINE
  8
0
 10
74.39
 11
74.196
 20
-83.962
 21
-83.99
  0
LINE
  8
0
 10
74.196
 11
74
 20
-83.99
 21
-84
  0
LINE
  8
0
 10
74
 11
73.804
 20
-84
 21
-83.99
  0
LINE
  8
0
 10
73.804
 11
73.61
 20
-83.99
 21
-83.962
  0
LINE
  8
0
 10
73.61
 11
73.419
 20
-83.962
 21
-83.914
  0
LINE
  8
0
 10
73.419
 11
73.235
 20
-83.914
 21
-83.848
  0
LINE
  8
0
 10
73.235
 11
73.057
 20
-83.848
 21
-83.764
  0
LINE
  8
0
 10
73.057
 11
72.889
 20
-83.764
 21
-83.663
  0
LINE
  8
0
 10
72.889
 11
72.731
 20
-83.663
 21
-83.546
  0
LINE
  8
0
 10
72.731
 11
72.586
 20
-83.546
 21
-83.414
  0
LINE
  8
0
 10
72.586
 11
72.454
 20
-83.414
 21
-83.269
  0
LINE
  8
0
 10
72.454
 11
72.337
 20
-83.269
 21
-83.111
  0
LINE
  8
0
 10
72.337
 11
72.236
 20
-83.111
 21
-82.943
  0
LINE
  8
0
 10
72.236
 11
72.152
 20
-82.943
 21
-82.765
  0
LINE
  8
0
 10
72.152
 11
72.086
 20
-82.765
 21
-82.581
  0
LINE
  8
0
 10
72.086
 11
72.038
 20
-82.581
 21
-82.39
  0
LINE
  8
0
 10
72.038
 11
72.01
 20
-82.39
 21
-82.196
  0
LINE
  8
0
 10
72.01
 11
72
 20
-82.196
 21
-82
  0
LINE
  8
0
 10
78.512
 11
78.512
 20
-27.438
 21
-27.062
  0
LINE
  8
0
 10
78.512
 11
78.605
 20
-27.062
 21
-26.698
  0
LINE
  8
0
 10
78.605
 11
78.786
 20
-26.698
 21
-26.368
  0
LINE
  8
0
 10
78.786
 11
79.044
 20
-26.368
 21
-26.094
  0
LINE
  8
0
 10
79.044
 11
79.361
 20
-26.094
 21
-25.893
  0
LINE
  8
0
 10
79.361
 11
79.719
 20
-25.893
 21
-25.777
  0
LINE
  8
0
 10
79.719
 11
80.094
 20
-25.777
 21
-25.753
  0
LINE
  8
0
 10
80.094
 11
80.464
 20
-25.753
 21
-25.823
  0
LINE
  8
0
 10
80.464
 11
80.804
 20
-25.823
 21
-25.984
  0
LINE
  8
0
 10
80.804
 11
81.093
 20
-25.984
 21
-26.223
  0
LINE
  8
0
 10
81.093
 11
81.314
 20
-26.223
 21
-26.527
  0
LINE
  8
0
 10
81.314
 11
81.453
 20
-26.527
 21
-26.877
  0
LINE
  8
0
 10
81.453
 11
81.5
 20
-26.877
 21
-27.25
  0
LINE
  8
0
 10
81.5
 11
81.453
 20
-27.25
 21
-27.623
  0
LINE
  8
0
 10
81.453
 11
81.314
 20
-27.623
 21
-27.973
  0
LINE
  8
0
 10
81.314
 11
81.093
 20
-27.973
 21
-28.277
  0
LINE
  8
0
 10
81.093
 11
80.804
 20
-28.277
 21
-28.516
  0
LINE
  8
0
 10
80.804
 11
80.464
 20
-28.516
 21
-28.677
  0
LINE
  8
0
 10
80.464
 11
80.094
 20
-28.677
 21
-28.747
  0
LINE
  8
0
 10
80.094
 11
79.719
 20
-28.747
 21
-28.723
  0
LINE
  8
0
 10
79.719
 11
79.361
 20
-28.723
 21
-28.607
  0
LINE
  8
0
 10
79.361
 11
79.044
 20
-28.607
 21
-28.406
  0
LINE
  8
0
 10
79.044
 11
78.786
 20
-28.406
 21
-28.132
  0
LINE
  8
0
 10
78.786
 11
78.605
 20
-28.132
 21
-27.802
  0
LINE
  8
0
 10
78.605
 11
78.512
 20
-27.802
 21
-27.438
  0
ENDSEC
  0
SECTION
  2
OBJECTS
  0
DICTIONARY
  0
ENDSEC
  0
EOF
