  0
SECTION
  2
BLOCKS
  0
ENDSEC
  0
SECTION
  2
ENTITIES
  0
LINE
  8
0
 10
-0.063
 11
-0.063
 20
101.062
 21
114.424
  0
LINE
  8
0
 10
-0.063
 11
2.937
 20
114.424
 21
114.424
  0
LINE
  8
0
 10
2.937
 11
2.937
 20
114.424
 21
124.533
  0
LINE
  8
0
 10
2.937
 11
-0.063
 20
124.533
 21
124.533
  0
LINE
  8
0
 10
-0.063
 11
-0.063
 20
124.533
 21
134.894
  0
LINE
  8
0
 10
-0.063
 11
2.937
 20
134.894
 21
134.894
  0
LINE
  8
0
 10
2.937
 11
2.937
 20
134.894
 21
145.003
  0
LINE
  8
0
 10
2.937
 11
-0.063
 20
145.003
 21
145.003
  0
LINE
  8
0
 10
-0.063
 11
-0.063
 20
145.003
 21
155.365
  0
LINE
  8
0
 10
-0.063
 11
2.937
 20
155.365
 21
155.365
  0
LINE
  8
0
 10
2.937
 11
2.937
 20
155.365
 21
165.474
  0
LINE
  8
0
 10
2.937
 11
-0.063
 20
165.474
 21
165.474
  0
LINE
  8
0
 10
-0.063
 11
-0.063
 20
165.474
 21
175.835
  0
LINE
  8
0
 10
-0.063
 11
2.937
 20
175.835
 21
175.835
  0
LINE
  8
0
 10
2.937
 11
2.937
 20
175.835
 21
185.944
  0
LINE
  8
0
 10
2.937
 11
-0.063
 20
185.944
 21
185.944
  0
LINE
  8
0
 10
-0.063
 11
-0.063
 20
185.944
 21
196.306
  0
LINE
  8
0
 10
-0.063
 11
2.937
 20
196.306
 21
196.306
  0
LINE
  8
0
 10
2.937
 11
2.937
 20
196.306
 21
206.415
  0
LINE
  8
0
 10
2.937
 11
-0.063
 20
206.415
 21
206.415
  0
LINE
  8
0
 10
-0.063
 11
-0.063
 20
206.415
 21
216.777
  0
LINE
  8
0
 10
-0.063
 11
2.937
 20
216.777
 21
216.777
  0
LINE
  8
0
 10
2.937
 11
2.937
 20
216.777
 21
226.886
  0
LINE
  8
0
 10
2.937
 11
-0.063
 20
226.886
 21
226.886
  0
LINE
  8
0
 10
-0.063
 11
-0.063
 20
226.886
 21
237.247
  0
LINE
  8
0
 10
-0.063
 11
2.937
 20
237.247
 21
237.247
  0
LINE
  8
0
 10
2.937
 11
2.937
 20
237.247
 21
247.356
  0
LINE
  8
0
 10
2.937
 11
-0.063
 20
247.356
 21
247.356
  0
LINE
  8
0
 10
-0.063
 11
-0.063
 20
247.356
 21
257.718
  0
LINE
  8
0
 10
-0.063
 11
2.937
 20
257.718
 21
257.718
  0
LINE
  8
0
 10
2.937
 11
2.937
 20
257.718
 21
267.827
  0
LINE
  8
0
 10
2.937
 11
-0.063
 20
267.827
 21
267.827
  0
LINE
  8
0
 10
-0.063
 11
-0.063
 20
267.827
 21
281.188
  0
LINE
  8
0
 10
-0.063
 11
13.508
 20
281.188
 21
281.188
  0
LINE
  8
0
 10
13.508
 11
13.508
 20
281.188
 21
278.188
  0
LINE
  8
0
 10
13.508
 11
23.826
 20
278.188
 21
278.188
  0
LINE
  8
0
 10
23.826
 11
23.826
 20
278.188
 21
281.188
  0
LINE
  8
0
 10
23.826
 11
34.397
 20
281.188
 21
281.188
  0
LINE
  8
0
 10
34.397
 11
34.397
 20
281.188
 21
278.188
  0
LINE
  8
0
 10
34.397
 11
44.715
 20
278.188
 21
278.188
  0
LINE
  8
0
 10
44.715
 11
44.715
 20
278.188
 21
281.188
  0
LINE
  8
0
 10
44.715
 11
55.286
 20
281.188
 21
281.188
  0
LINE
  8
0
 10
55.286
 11
55.286
 20
281.188
 21
278.188
  0
LINE
  8
0
 10
55.286
 11
65.604
 20
278.188
 21
278.188
  0
LINE
  8
0
 10
65.604
 11
65.604
 20
278.188
 21
281.188
  0
LINE
  8
0
 10
65.604
 11
76.175
 20
281.188
 21
281.188
  0
LINE
  8
0
 10
76.175
 11
76.175
 20
281.188
 21
278.188
  0
LINE
  8
0
 10
76.175
 11
86.493
 20
278.188
 21
278.188
  0
LINE
  8
0
 10
86.493
 11
86.493
 20
278.188
 21
281.188
  0
LINE
  8
0
 10
86.493
 11
100.063
 20
281.188
 21
281.188
  0
LINE
  8
0
 10
100.063
 11
100.063
 20
281.188
 21
267.826
  0
LINE
  8
0
 10
100.063
 11
97.063
 20
267.826
 21
267.826
  0
LINE
  8
0
 10
97.063
 11
97.063
 20
267.826
 21
257.717
  0
LINE
  8
0
 10
97.063
 11
100.063
 20
257.717
 21
257.717
  0
LINE
  8
0
 10
100.063
 11
100.063
 20
257.717
 21
247.356
  0
LINE
  8
0
 10
100.063
 11
97.063
 20
247.356
 21
247.356
  0
LINE
  8
0
 10
97.063
 11
97.063
 20
247.356
 21
237.247
  0
LINE
  8
0
 10
97.063
 11
100.063
 20
237.247
 21
237.247
  0
LINE
  8
0
 10
100.063
 11
100.063
 20
237.247
 21
226.885
  0
LINE
  8
0
 10
100.063
 11
97.063
 20
226.885
 21
226.885
  0
LINE
  8
0
 10
97.063
 11
97.063
 20
226.885
 21
216.776
  0
LINE
  8
0
 10
97.063
 11
100.063
 20
216.776
 21
216.776
  0
LINE
  8
0
 10
100.063
 11
100.063
 20
216.776
 21
206.415
  0
LINE
  8
0
 10
100.063
 11
97.063
 20
206.415
 21
206.415
  0
LINE
  8
0
 10
97.063
 11
97.063
 20
206.415
 21
196.306
  0
LINE
  8
0
 10
97.063
 11
100.063
 20
196.306
 21
196.306
  0
LINE
  8
0
 10
100.063
 11
100.063
 20
196.306
 21
185.944
  0
LINE
  8
0
 10
100.063
 11
97.063
 20
185.944
 21
185.944
  0
LINE
  8
0
 10
97.063
 11
97.063
 20
185.944
 21
175.835
  0
LINE
  8
0
 10
97.063
 11
100.063
 20
175.835
 21
175.835
  0
LINE
  8
0
 10
100.063
 11
100.063
 20
175.835
 21
165.473
  0
LINE
  8
0
 10
100.063
 11
97.063
 20
165.473
 21
165.473
  0
LINE
  8
0
 10
97.063
 11
97.063
 20
165.473
 21
155.364
  0
LINE
  8
0
 10
97.063
 11
100.063
 20
155.364
 21
155.364
  0
LINE
  8
0
 10
100.063
 11
100.063
 20
155.364
 21
145.003
  0
LINE
  8
0
 10
100.063
 11
97.063
 20
145.003
 21
145.003
  0
LINE
  8
0
 10
97.063
 11
97.063
 20
145.003
 21
134.894
  0
LINE
  8
0
 10
97.063
 11
100.063
 20
134.894
 21
134.894
  0
LINE
  8
0
 10
100.063
 11
100.063
 20
134.894
 21
124.532
  0
LINE
  8
0
 10
100.063
 11
97.063
 20
124.532
 21
124.532
  0
LINE
  8
0
 10
97.063
 11
97.063
 20
124.532
 21
114.423
  0
LINE
  8
0
 10
97.063
 11
100.063
 20
114.423
 21
114.423
  0
LINE
  8
0
 10
100.063
 11
100.063
 20
114.423
 21
101.062
  0
LINE
  8
0
 10
100.063
 11
86.492
 20
101.062
 21
101.062
  0
LINE
  8
0
 10
86.492
 11
86.492
 20
101.062
 21
104.062
  0
LINE
  8
0
 10
86.492
 11
76.174
 20
104.062
 21
104.062
  0
LINE
  8
0
 10
76.174
 11
76.174
 20
104.062
 21
101.062
  0
LINE
  8
0
 10
76.174
 11
65.603
 20
101.062
 21
101.062
  0
LINE
  8
0
 10
65.603
 11
65.603
 20
101.062
 21
104.062
  0
LINE
  8
0
 10
65.603
 11
55.285
 20
104.062
 21
104.062
  0
LINE
  8
0
 10
55.285
 11
55.285
 20
104.062
 21
101.062
  0
LINE
  8
0
 10
55.285
 11
44.714
 20
101.062
 21
101.062
  0
LINE
  8
0
 10
44.714
 11
44.714
 20
101.062
 21
104.062
  0
LINE
  8
0
 10
44.714
 11
34.396
 20
104.062
 21
104.062
  0
LINE
  8
0
 10
34.396
 11
34.396
 20
104.062
 21
101.062
  0
LINE
  8
0
 10
34.396
 11
23.825
 20
101.062
 21
101.062
  0
LINE
  8
0
 10
23.825
 11
23.825
 20
101.062
 21
104.062
  0
LINE
  8
0
 10
23.825
 11
13.507
 20
104.062
 21
104.062
  0
LINE
  8
0
 10
13.507
 11
13.507
 20
104.062
 21
101.062
  0
LINE
  8
0
 10
13.507
 11
-0.063
 20
101.062
 21
101.062
  0
LINE
  8
0
 10
-0.063
 11
-0.063
 20
295.422
 21
305.784
  0
LINE
  8
0
 10
-0.063
 11
2.937
 20
305.784
 21
305.784
  0
LINE
  8
0
 10
2.937
 11
2.937
 20
305.784
 21
315.893
  0
LINE
  8
0
 10
2.937
 11
-0.063
 20
315.893
 21
315.893
  0
LINE
  8
0
 10
-0.063
 11
-0.063
 20
315.893
 21
326.254
  0
LINE
  8
0
 10
-0.063
 11
2.937
 20
326.254
 21
326.254
  0
LINE
  8
0
 10
2.937
 11
2.937
 20
326.254
 21
336.363
  0
LINE
  8
0
 10
2.937
 11
-0.063
 20
336.363
 21
336.363
  0
LINE
  8
0
 10
-0.063
 11
-0.063
 20
336.363
 21
346.725
  0
LINE
  8
0
 10
-0.063
 11
2.937
 20
346.725
 21
346.725
  0
LINE
  8
0
 10
2.937
 11
2.937
 20
346.725
 21
356.834
  0
LINE
  8
0
 10
2.937
 11
-0.063
 20
356.834
 21
356.834
  0
LINE
  8
0
 10
-0.063
 11
-0.063
 20
356.834
 21
367.196
  0
LINE
  8
0
 10
-0.063
 11
2.937
 20
367.196
 21
367.196
  0
LINE
  8
0
 10
2.937
 11
2.937
 20
367.196
 21
377.305
  0
LINE
  8
0
 10
2.937
 11
-0.063
 20
377.305
 21
377.305
  0
LINE
  8
0
 10
-0.063
 11
-0.063
 20
377.305
 21
387.666
  0
LINE
  8
0
 10
-0.063
 11
2.937
 20
387.666
 21
387.666
  0
LINE
  8
0
 10
2.937
 11
2.937
 20
387.666
 21
397.775
  0
LINE
  8
0
 10
2.937
 11
-0.063
 20
397.775
 21
397.775
  0
LINE
  8
0
 10
-0.063
 11
-0.063
 20
397.775
 21
408.137
  0
LINE
  8
0
 10
-0.063
 11
2.937
 20
408.137
 21
408.137
  0
LINE
  8
0
 10
2.937
 11
2.937
 20
408.137
 21
418.246
  0
LINE
  8
0
 10
2.937
 11
-0.063
 20
418.246
 21
418.246
  0
LINE
  8
0
 10
-0.063
 11
-0.063
 20
418.246
 21
428.607
  0
LINE
  8
0
 10
-0.063
 11
2.937
 20
428.607
 21
428.607
  0
LINE
  8
0
 10
2.937
 11
2.937
 20
428.607
 21
438.716
  0
LINE
  8
0
 10
2.937
 11
-0.063
 20
438.716
 21
438.716
  0
LINE
  8
0
 10
-0.063
 11
-0.063
 20
438.716
 21
449.078
  0
LINE
  8
0
 10
-0.063
 11
2.937
 20
449.078
 21
449.078
  0
LINE
  8
0
 10
2.937
 11
2.937
 20
449.078
 21
462.313
  0
LINE
  8
0
 10
2.937
 11
13.508
 20
462.313
 21
462.313
  0
LINE
  8
0
 10
13.508
 11
13.508
 20
462.313
 21
459.313
  0
LINE
  8
0
 10
13.508
 11
23.826
 20
459.313
 21
459.313
  0
LINE
  8
0
 10
23.826
 11
23.826
 20
459.313
 21
462.313
  0
LINE
  8
0
 10
23.826
 11
34.397
 20
462.313
 21
462.313
  0
LINE
  8
0
 10
34.397
 11
34.397
 20
462.313
 21
459.313
  0
LINE
  8
0
 10
34.397
 11
44.715
 20
459.313
 21
459.313
  0
LINE
  8
0
 10
44.715
 11
44.715
 20
459.313
 21
462.313
  0
LINE
  8
0
 10
44.715
 11
55.286
 20
462.313
 21
462.313
  0
LINE
  8
0
 10
55.286
 11
55.286
 20
462.313
 21
459.313
  0
LINE
  8
0
 10
55.286
 11
65.604
 20
459.313
 21
459.313
  0
LINE
  8
0
 10
65.604
 11
65.604
 20
459.313
 21
462.313
  0
LINE
  8
0
 10
65.604
 11
76.175
 20
462.313
 21
462.313
  0
LINE
  8
0
 10
76.175
 11
76.175
 20
462.313
 21
459.313
  0
LINE
  8
0
 10
76.175
 11
86.493
 20
459.313
 21
459.313
  0
LINE
  8
0
 10
86.493
 11
86.493
 20
459.313
 21
462.313
  0
LINE
  8
0
 10
86.493
 11
97.063
 20
462.313
 21
462.313
  0
LINE
  8
0
 10
97.063
 11
97.063
 20
462.313
 21
449.078
  0
LINE
  8
0
 10
97.063
 11
100.063
 20
449.078
 21
449.078
  0
LINE
  8
0
 10
100.063
 11
100.063
 20
449.078
 21
438.716
  0
LINE
  8
0
 10
100.063
 11
97.063
 20
438.716
 21
438.716
  0
LINE
  8
0
 10
97.063
 11
97.063
 20
438.716
 21
428.607
  0
LINE
  8
0
 10
97.063
 11
100.063
 20
428.607
 21
428.607
  0
LINE
  8
0
 10
100.063
 11
100.063
 20
428.607
 21
418.246
  0
LINE
  8
0
 10
100.063
 11
97.063
 20
418.246
 21
418.246
  0
LINE
  8
0
 10
97.063
 11
97.063
 20
418.246
 21
408.137
  0
LINE
  8
0
 10
97.063
 11
100.063
 20
408.137
 21
408.137
  0
LINE
  8
0
 10
100.063
 11
100.063
 20
408.137
 21
397.775
  0
LINE
  8
0
 10
100.063
 11
97.063
 20
397.775
 21
397.775
  0
LINE
  8
0
 10
97.063
 11
97.063
 20
397.775
 21
387.666
  0
LINE
  8
0
 10
97.063
 11
100.063
 20
387.666
 21
387.666
  0
LINE
  8
0
 10
100.063
 11
100.063
 20
387.666
 21
377.304
  0
LINE
  8
0
 10
100.063
 11
97.063
 20
377.304
 21
377.304
  0
LINE
  8
0
 10
97.063
 11
97.063
 20
377.304
 21
367.195
  0
LINE
  8
0
 10
97.063
 11
100.063
 20
367.195
 21
367.195
  0
LINE
  8
0
 10
100.063
 11
100.063
 20
367.195
 21
356.834
  0
LINE
  8
0
 10
100.063
 11
97.063
 20
356.834
 21
356.834
  0
LINE
  8
0
 10
97.063
 11
97.063
 20
356.834
 21
346.725
  0
LINE
  8
0
 10
97.063
 11
100.063
 20
346.725
 21
346.725
  0
LINE
  8
0
 10
100.063
 11
100.063
 20
346.725
 21
336.363
  0
LINE
  8
0
 10
100.063
 11
97.063
 20
336.363
 21
336.363
  0
LINE
  8
0
 10
97.063
 11
97.063
 20
336.363
 21
326.254
  0
LINE
  8
0
 10
97.063
 11
100.063
 20
326.254
 21
326.254
  0
LINE
  8
0
 10
100.063
 11
100.063
 20
326.254
 21
315.893
  0
LINE
  8
0
 10
100.063
 11
97.063
 20
315.893
 21
315.893
  0
LINE
  8
0
 10
97.063
 11
97.063
 20
315.893
 21
305.784
  0
LINE
  8
0
 10
97.063
 11
100.063
 20
305.784
 21
305.784
  0
LINE
  8
0
 10
100.063
 11
100.063
 20
305.784
 21
295.422
  0
LINE
  8
0
 10
100.063
 11
97.063
 20
295.422
 21
295.422
  0
LINE
  8
0
 10
97.063
 11
97.063
 20
295.422
 21
282.187
  0
LINE
  8
0
 10
97.063
 11
86.492
 20
282.187
 21
282.187
  0
LINE
  8
0
 10
86.492
 11
86.492
 20
282.187
 21
285.187
  0
LINE
  8
0
 10
86.492
 11
76.174
 20
285.187
 21
285.187
  0
LINE
  8
0
 10
76.174
 11
76.174
 20
285.187
 21
282.187
  0
LINE
  8
0
 10
76.174
 11
65.603
 20
282.187
 21
282.187
  0
LINE
  8
0
 10
65.603
 11
65.603
 20
282.187
 21
285.187
  0
LINE
  8
0
 10
65.603
 11
55.285
 20
285.187
 21
285.187
  0
LINE
  8
0
 10
55.285
 11
55.285
 20
285.187
 21
282.187
  0
LINE
  8
0
 10
55.285
 11
44.714
 20
282.187
 21
282.187
  0
LINE
  8
0
 10
44.714
 11
44.714
 20
282.187
 21
285.187
  0
LINE
  8
0
 10
44.714
 11
34.396
 20
285.187
 21
285.187
  0
LINE
  8
0
 10
34.396
 11
34.396
 20
285.187
 21
282.187
  0
LINE
  8
0
 10
34.396
 11
23.825
 20
282.187
 21
282.187
  0
LINE
  8
0
 10
23.825
 11
23.825
 20
282.187
 21
285.187
  0
LINE
  8
0
 10
23.825
 11
13.507
 20
285.187
 21
285.187
  0
LINE
  8
0
 10
13.507
 11
13.507
 20
285.187
 21
282.187
  0
LINE
  8
0
 10
13.507
 11
2.937
 20
282.187
 21
282.187
  0
LINE
  8
0
 10
2.937
 11
2.937
 20
282.187
 21
295.422
  0
LINE
  8
0
 10
2.937
 11
-0.063
 20
295.422
 21
295.422
  0
LINE
  8
0
 10
101.062
 11
101.062
 20
13.381
 21
23.952
  0
LINE
  8
0
 10
101.062
 11
104.062
 20
23.952
 21
23.952
  0
LINE
  8
0
 10
104.062
 11
104.062
 20
23.952
 21
34.27
  0
LINE
  8
0
 10
104.062
 11
101.062
 20
34.27
 21
34.27
  0
LINE
  8
0
 10
101.062
 11
101.062
 20
34.27
 21
44.841
  0
LINE
  8
0
 10
101.062
 11
104.062
 20
44.841
 21
44.841
  0
LINE
  8
0
 10
104.062
 11
104.062
 20
44.841
 21
55.159
  0
LINE
  8
0
 10
104.062
 11
101.062
 20
55.159
 21
55.159
  0
LINE
  8
0
 10
101.062
 11
101.062
 20
55.159
 21
65.73
  0
LINE
  8
0
 10
101.062
 11
104.062
 20
65.73
 21
65.73
  0
LINE
  8
0
 10
104.062
 11
104.062
 20
65.73
 21
76.048
  0
LINE
  8
0
 10
104.062
 11
101.062
 20
76.048
 21
76.048
  0
LINE
  8
0
 10
101.062
 11
101.062
 20
76.048
 21
86.619
  0
LINE
  8
0
 10
101.062
 11
104.062
 20
86.619
 21
86.619
  0
LINE
  8
0
 10
104.062
 11
104.062
 20
86.619
 21
97.063
  0
LINE
  8
0
 10
104.062
 11
114.506
 20
97.063
 21
97.063
  0
LINE
  8
0
 10
114.506
 11
114.506
 20
97.063
 21
100.063
  0
LINE
  8
0
 10
114.506
 11
125.077
 20
100.063
 21
100.063
  0
LINE
  8
0
 10
125.077
 11
125.077
 20
100.063
 21
97.063
  0
LINE
  8
0
 10
125.077
 11
135.395
 20
97.063
 21
97.063
  0
LINE
  8
0
 10
135.395
 11
135.395
 20
97.063
 21
100.063
  0
LINE
  8
0
 10
135.395
 11
145.966
 20
100.063
 21
100.063
  0
LINE
  8
0
 10
145.966
 11
145.966
 20
100.063
 21
97.063
  0
LINE
  8
0
 10
145.966
 11
156.284
 20
97.063
 21
97.063
  0
LINE
  8
0
 10
156.284
 11
156.284
 20
97.063
 21
100.063
  0
LINE
  8
0
 10
156.284
 11
166.855
 20
100.063
 21
100.063
  0
LINE
  8
0
 10
166.855
 11
166.855
 20
100.063
 21
97.063
  0
LINE
  8
0
 10
166.855
 11
177.173
 20
97.063
 21
97.063
  0
LINE
  8
0
 10
177.173
 11
177.173
 20
97.063
 21
100.063
  0
LINE
  8
0
 10
177.173
 11
187.744
 20
100.063
 21
100.063
  0
LINE
  8
0
 10
187.744
 11
187.744
 20
100.063
 21
97.063
  0
LINE
  8
0
 10
187.744
 11
198.188
 20
97.063
 21
97.063
  0
LINE
  8
0
 10
198.188
 11
198.188
 20
97.063
 21
86.619
  0
LINE
  8
0
 10
198.188
 11
201.188
 20
86.619
 21
86.619
  0
LINE
  8
0
 10
201.188
 11
201.188
 20
86.619
 21
76.048
  0
LINE
  8
0
 10
201.188
 11
198.188
 20
76.048
 21
76.048
  0
LINE
  8
0
 10
198.188
 11
198.188
 20
76.048
 21
65.73
  0
LINE
  8
0
 10
198.188
 11
201.188
 20
65.73
 21
65.73
  0
LINE
  8
0
 10
201.188
 11
201.188
 20
65.73
 21
55.159
  0
LINE
  8
0
 10
201.188
 11
198.188
 20
55.159
 21
55.159
  0
LINE
  8
0
 10
198.188
 11
198.188
 20
55.159
 21
44.841
  0
LINE
  8
0
 10
198.188
 11
201.188
 20
44.841
 21
44.841
  0
LINE
  8
0
 10
201.188
 11
201.188
 20
44.841
 21
34.27
  0
LINE
  8
0
 10
201.188
 11
198.188
 20
34.27
 21
34.27
  0
LINE
  8
0
 10
198.188
 11
198.188
 20
34.27
 21
23.952
  0
LINE
  8
0
 10
198.188
 11
201.188
 20
23.952
 21
23.952
  0
LINE
  8
0
 10
201.188
 11
201.188
 20
23.952
 21
13.381
  0
LINE
  8
0
 10
201.188
 11
198.188
 20
13.381
 21
13.381
  0
LINE
  8
0
 10
198.188
 11
198.188
 20
13.381
 21
2.937
  0
LINE
  8
0
 10
198.188
 11
187.744
 20
2.937
 21
2.937
  0
LINE
  8
0
 10
187.744
 11
187.744
 20
2.937
 21
-0.063
  0
LINE
  8
0
 10
187.744
 11
177.173
 20
-0.063
 21
-0.063
  0
LINE
  8
0
 10
177.173
 11
177.173
 20
-0.063
 21
2.937
  0
LINE
  8
0
 10
177.173
 11
166.855
 20
2.937
 21
2.937
  0
LINE
  8
0
 10
166.855
 11
166.855
 20
2.937
 21
-0.063
  0
LINE
  8
0
 10
166.855
 11
156.284
 20
-0.063
 21
-0.063
  0
LINE
  8
0
 10
156.284
 11
156.284
 20
-0.063
 21
2.937
  0
LINE
  8
0
 10
156.284
 11
145.966
 20
2.937
 21
2.937
  0
LINE
  8
0
 10
145.966
 11
145.966
 20
2.937
 21
-0.063
  0
LINE
  8
0
 10
145.966
 11
135.395
 20
-0.063
 21
-0.063
  0
LINE
  8
0
 10
135.395
 11
135.395
 20
-0.063
 21
2.937
  0
LINE
  8
0
 10
135.395
 11
125.077
 20
2.937
 21
2.937
  0
LINE
  8
0
 10
125.077
 11
125.077
 20
2.937
 21
-0.063
  0
LINE
  8
0
 10
125.077
 11
114.506
 20
-0.063
 21
-0.063
  0
LINE
  8
0
 10
114.506
 11
114.506
 20
-0.063
 21
2.937
  0
LINE
  8
0
 10
114.506
 11
104.062
 20
2.937
 21
2.937
  0
LINE
  8
0
 10
104.062
 11
104.062
 20
2.937
 21
13.381
  0
LINE
  8
0
 10
104.062
 11
101.062
 20
13.381
 21
13.381
  0
LINE
  8
0
 10
101.062
 11
101.062
 20
101.062
 21
114.424
  0
LINE
  8
0
 10
101.062
 11
104.062
 20
114.424
 21
114.424
  0
LINE
  8
0
 10
104.062
 11
104.062
 20
114.424
 21
124.533
  0
LINE
  8
0
 10
104.062
 11
101.062
 20
124.533
 21
124.533
  0
LINE
  8
0
 10
101.062
 11
101.062
 20
124.533
 21
134.894
  0
LINE
  8
0
 10
101.062
 11
104.062
 20
134.894
 21
134.894
  0
LINE
  8
0
 10
104.062
 11
104.062
 20
134.894
 21
145.003
  0
LINE
  8
0
 10
104.062
 11
101.062
 20
145.003
 21
145.003
  0
LINE
  8
0
 10
101.062
 11
101.062
 20
145.003
 21
155.365
  0
LINE
  8
0
 10
101.062
 11
104.062
 20
155.365
 21
155.365
  0
LINE
  8
0
 10
104.062
 11
104.062
 20
155.365
 21
165.474
  0
LINE
  8
0
 10
104.062
 11
101.062
 20
165.474
 21
165.474
  0
LINE
  8
0
 10
101.062
 11
101.062
 20
165.474
 21
175.835
  0
LINE
  8
0
 10
101.062
 11
104.062
 20
175.835
 21
175.835
  0
LINE
  8
0
 10
104.062
 11
104.062
 20
175.835
 21
185.944
  0
LINE
  8
0
 10
104.062
 11
101.062
 20
185.944
 21
185.944
  0
LINE
  8
0
 10
101.062
 11
101.062
 20
185.944
 21
196.306
  0
LINE
  8
0
 10
101.062
 11
104.062
 20
196.306
 21
196.306
  0
LINE
  8
0
 10
104.062
 11
104.062
 20
196.306
 21
206.415
  0
LINE
  8
0
 10
104.062
 11
101.062
 20
206.415
 21
206.415
  0
LINE
  8
0
 10
101.062
 11
101.062
 20
206.415
 21
216.777
  0
LINE
  8
0
 10
101.062
 11
104.062
 20
216.777
 21
216.777
  0
LINE
  8
0
 10
104.062
 11
104.062
 20
216.777
 21
226.886
  0
LINE
  8
0
 10
104.062
 11
101.062
 20
226.886
 21
226.886
  0
LINE
  8
0
 10
101.062
 11
101.062
 20
226.886
 21
237.247
  0
LINE
  8
0
 10
101.062
 11
104.062
 20
237.247
 21
237.247
  0
LINE
  8
0
 10
104.062
 11
104.062
 20
237.247
 21
247.356
  0
LINE
  8
0
 10
104.062
 11
101.062
 20
247.356
 21
247.356
  0
LINE
  8
0
 10
101.062
 11
101.062
 20
247.356
 21
257.718
  0
LINE
  8
0
 10
101.062
 11
104.062
 20
257.718
 21
257.718
  0
LINE
  8
0
 10
104.062
 11
104.062
 20
257.718
 21
267.827
  0
LINE
  8
0
 10
104.062
 11
101.062
 20
267.827
 21
267.827
  0
LINE
  8
0
 10
101.062
 11
101.062
 20
267.827
 21
281.188
  0
LINE
  8
0
 10
101.062
 11
114.633
 20
281.188
 21
281.188
  0
LINE
  8
0
 10
114.633
 11
114.633
 20
281.188
 21
278.188
  0
LINE
  8
0
 10
114.633
 11
124.951
 20
278.188
 21
278.188
  0
LINE
  8
0
 10
124.951
 11
124.951
 20
278.188
 21
281.188
  0
LINE
  8
0
 10
124.951
 11
135.522
 20
281.188
 21
281.188
  0
LINE
  8
0
 10
135.522
 11
135.522
 20
281.188
 21
278.188
  0
LINE
  8
0
 10
135.522
 11
145.84
 20
278.188
 21
278.188
  0
LINE
  8
0
 10
145.84
 11
145.84
 20
278.188
 21
281.188
  0
LINE
  8
0
 10
145.84
 11
156.411
 20
281.188
 21
281.188
  0
LINE
  8
0
 10
156.411
 11
156.411
 20
281.188
 21
278.188
  0
LINE
  8
0
 10
156.411
 11
166.729
 20
278.188
 21
278.188
  0
LINE
  8
0
 10
166.729
 11
166.729
 20
278.188
 21
281.188
  0
LINE
  8
0
 10
166.729
 11
177.3
 20
281.188
 21
281.188
  0
LINE
  8
0
 10
177.3
 11
177.3
 20
281.188
 21
278.188
  0
LINE
  8
0
 10
177.3
 11
187.618
 20
278.188
 21
278.188
  0
LINE
  8
0
 10
187.618
 11
187.618
 20
278.188
 21
281.188
  0
LINE
  8
0
 10
187.618
 11
201.188
 20
281.188
 21
281.188
  0
LINE
  8
0
 10
201.188
 11
201.188
 20
281.188
 21
267.826
  0
LINE
  8
0
 10
201.188
 11
198.188
 20
267.826
 21
267.826
  0
LINE
  8
0
 10
198.188
 11
198.188
 20
267.826
 21
257.717
  0
LINE
  8
0
 10
198.188
 11
201.188
 20
257.717
 21
257.717
  0
LINE
  8
0
 10
201.188
 11
201.188
 20
257.717
 21
247.356
  0
LINE
  8
0
 10
201.188
 11
198.188
 20
247.356
 21
247.356
  0
LINE
  8
0
 10
198.188
 11
198.188
 20
247.356
 21
237.247
  0
LINE
  8
0
 10
198.188
 11
201.188
 20
237.247
 21
237.247
  0
LINE
  8
0
 10
201.188
 11
201.188
 20
237.247
 21
226.885
  0
LINE
  8
0
 10
201.188
 11
198.188
 20
226.885
 21
226.885
  0
LINE
  8
0
 10
198.188
 11
198.188
 20
226.885
 21
216.776
  0
LINE
  8
0
 10
198.188
 11
201.188
 20
216.776
 21
216.776
  0
LINE
  8
0
 10
201.188
 11
201.188
 20
216.776
 21
206.415
  0
LINE
  8
0
 10
201.188
 11
198.188
 20
206.415
 21
206.415
  0
LINE
  8
0
 10
198.188
 11
198.188
 20
206.415
 21
196.306
  0
LINE
  8
0
 10
198.188
 11
201.188
 20
196.306
 21
196.306
  0
LINE
  8
0
 10
201.188
 11
201.188
 20
196.306
 21
185.944
  0
LINE
  8
0
 10
201.188
 11
198.188
 20
185.944
 21
185.944
  0
LINE
  8
0
 10
198.188
 11
198.188
 20
185.944
 21
175.835
  0
LINE
  8
0
 10
198.188
 11
201.188
 20
175.835
 21
175.835
  0
LINE
  8
0
 10
201.188
 11
201.188
 20
175.835
 21
165.473
  0
LINE
  8
0
 10
201.188
 11
198.188
 20
165.473
 21
165.473
  0
LINE
  8
0
 10
198.188
 11
198.188
 20
165.473
 21
155.364
  0
LINE
  8
0
 10
198.188
 11
201.188
 20
155.364
 21
155.364
  0
LINE
  8
0
 10
201.188
 11
201.188
 20
155.364
 21
145.003
  0
LINE
  8
0
 10
201.188
 11
198.188
 20
145.003
 21
145.003
  0
LINE
  8
0
 10
198.188
 11
198.188
 20
145.003
 21
134.894
  0
LINE
  8
0
 10
198.188
 11
201.188
 20
134.894
 21
134.894
  0
LINE
  8
0
 10
201.188
 11
201.188
 20
134.894
 21
124.532
  0
LINE
  8
0
 10
201.188
 11
198.188
 20
124.532
 21
124.532
  0
LINE
  8
0
 10
198.188
 11
198.188
 20
124.532
 21
114.423
  0
LINE
  8
0
 10
198.188
 11
201.188
 20
114.423
 21
114.423
  0
LINE
  8
0
 10
201.188
 11
201.188
 20
114.423
 21
101.062
  0
LINE
  8
0
 10
201.188
 11
187.617
 20
101.062
 21
101.062
  0
LINE
  8
0
 10
187.617
 11
187.617
 20
101.062
 21
104.062
  0
LINE
  8
0
 10
187.617
 11
177.299
 20
104.062
 21
104.062
  0
LINE
  8
0
 10
177.299
 11
177.299
 20
104.062
 21
101.062
  0
LINE
  8
0
 10
177.299
 11
166.728
 20
101.062
 21
101.062
  0
LINE
  8
0
 10
166.728
 11
166.728
 20
101.062
 21
104.062
  0
LINE
  8
0
 10
166.728
 11
156.41
 20
104.062
 21
104.062
  0
LINE
  8
0
 10
156.41
 11
156.41
 20
104.062
 21
101.062
  0
LINE
  8
0
 10
156.41
 11
145.839
 20
101.062
 21
101.062
  0
LINE
  8
0
 10
145.839
 11
145.839
 20
101.062
 21
104.062
  0
LINE
  8
0
 10
145.839
 11
135.521
 20
104.062
 21
104.062
  0
LINE
  8
0
 10
135.521
 11
135.521
 20
104.062
 21
101.062
  0
LINE
  8
0
 10
135.521
 11
124.95
 20
101.062
 21
101.062
  0
LINE
  8
0
 10
124.95
 11
124.95
 20
101.062
 21
104.062
  0
LINE
  8
0
 10
124.95
 11
114.632
 20
104.062
 21
104.062
  0
LINE
  8
0
 10
114.632
 11
114.632
 20
104.062
 21
101.062
  0
LINE
  8
0
 10
114.632
 11
101.062
 20
101.062
 21
101.062
  0
LINE
  8
0
 10
101.062
 11
101.062
 20
295.422
 21
305.784
  0
LINE
  8
0
 10
101.062
 11
104.062
 20
305.784
 21
305.784
  0
LINE
  8
0
 10
104.062
 11
104.062
 20
305.784
 21
315.893
  0
LINE
  8
0
 10
104.062
 11
101.062
 20
315.893
 21
315.893
  0
LINE
  8
0
 10
101.062
 11
101.062
 20
315.893
 21
326.254
  0
LINE
  8
0
 10
101.062
 11
104.062
 20
326.254
 21
326.254
  0
LINE
  8
0
 10
104.062
 11
104.062
 20
326.254
 21
336.363
  0
LINE
  8
0
 10
104.062
 11
101.062
 20
336.363
 21
336.363
  0
LINE
  8
0
 10
101.062
 11
101.062
 20
336.363
 21
346.725
  0
LINE
  8
0
 10
101.062
 11
104.062
 20
346.725
 21
346.725
  0
LINE
  8
0
 10
104.062
 11
104.062
 20
346.725
 21
356.834
  0
LINE
  8
0
 10
104.062
 11
101.062
 20
356.834
 21
356.834
  0
LINE
  8
0
 10
101.062
 11
101.062
 20
356.834
 21
367.196
  0
LINE
  8
0
 10
101.062
 11
104.062
 20
367.196
 21
367.196
  0
LINE
  8
0
 10
104.062
 11
104.062
 20
367.196
 21
377.305
  0
LINE
  8
0
 10
104.062
 11
101.062
 20
377.305
 21
377.305
  0
LINE
  8
0
 10
101.062
 11
101.062
 20
377.305
 21
387.666
  0
LINE
  8
0
 10
101.062
 11
104.062
 20
387.666
 21
387.666
  0
LINE
  8
0
 10
104.062
 11
104.062
 20
387.666
 21
397.775
  0
LINE
  8
0
 10
104.062
 11
101.062
 20
397.775
 21
397.775
  0
LINE
  8
0
 10
101.062
 11
101.062
 20
397.775
 21
408.137
  0
LINE
  8
0
 10
101.062
 11
104.062
 20
408.137
 21
408.137
  0
LINE
  8
0
 10
104.062
 11
104.062
 20
408.137
 21
418.246
  0
LINE
  8
0
 10
104.062
 11
101.062
 20
418.246
 21
418.246
  0
LINE
  8
0
 10
101.062
 11
101.062
 20
418.246
 21
428.607
  0
LINE
  8
0
 10
101.062
 11
104.062
 20
428.607
 21
428.607
  0
LINE
  8
0
 10
104.062
 11
104.062
 20
428.607
 21
438.716
  0
LINE
  8
0
 10
104.062
 11
101.062
 20
438.716
 21
438.716
  0
LINE
  8
0
 10
101.062
 11
101.062
 20
438.716
 21
449.078
  0
LINE
  8
0
 10
101.062
 11
104.062
 20
449.078
 21
449.078
  0
LINE
  8
0
 10
104.062
 11
104.062
 20
449.078
 21
462.313
  0
LINE
  8
0
 10
104.062
 11
114.633
 20
462.313
 21
462.313
  0
LINE
  8
0
 10
114.633
 11
114.633
 20
462.313
 21
459.313
  0
LINE
  8
0
 10
114.633
 11
124.951
 20
459.313
 21
459.313
  0
LINE
  8
0
 10
124.951
 11
124.951
 20
459.313
 21
462.313
  0
LINE
  8
0
 10
124.951
 11
135.522
 20
462.313
 21
462.313
  0
LINE
  8
0
 10
135.522
 11
135.522
 20
462.313
 21
459.313
  0
LINE
  8
0
 10
135.522
 11
145.84
 20
459.313
 21
459.313
  0
LINE
  8
0
 10
145.84
 11
145.84
 20
459.313
 21
462.313
  0
LINE
  8
0
 10
145.84
 11
156.411
 20
462.313
 21
462.313
  0
LINE
  8
0
 10
156.411
 11
156.411
 20
462.313
 21
459.313
  0
LINE
  8
0
 10
156.411
 11
166.729
 20
459.313
 21
459.313
  0
LINE
  8
0
 10
166.729
 11
166.729
 20
459.313
 21
462.313
  0
LINE
  8
0
 10
166.729
 11
177.3
 20
462.313
 21
462.313
  0
LINE
  8
0
 10
177.3
 11
177.3
 20
462.313
 21
459.313
  0
LINE
  8
0
 10
177.3
 11
187.618
 20
459.313
 21
459.313
  0
LINE
  8
0
 10
187.618
 11
187.618
 20
459.313
 21
462.313
  0
LINE
  8
0
 10
187.618
 11
198.188
 20
462.313
 21
462.313
  0
LINE
  8
0
 10
198.188
 11
198.188
 20
462.313
 21
449.078
  0
LINE
  8
0
 10
198.188
 11
201.188
 20
449.078
 21
449.078
  0
LINE
  8
0
 10
201.188
 11
201.188
 20
449.078
 21
438.716
  0
LINE
  8
0
 10
201.188
 11
198.188
 20
438.716
 21
438.716
  0
LINE
  8
0
 10
198.188
 11
198.188
 20
438.716
 21
428.607
  0
LINE
  8
0
 10
198.188
 11
201.188
 20
428.607
 21
428.607
  0
LINE
  8
0
 10
201.188
 11
201.188
 20
428.607
 21
418.246
  0
LINE
  8
0
 10
201.188
 11
198.188
 20
418.246
 21
418.246
  0
LINE
  8
0
 10
198.188
 11
198.188
 20
418.246
 21
408.137
  0
LINE
  8
0
 10
198.188
 11
201.188
 20
408.137
 21
408.137
  0
LINE
  8
0
 10
201.188
 11
201.188
 20
408.137
 21
397.775
  0
LINE
  8
0
 10
201.188
 11
198.188
 20
397.775
 21
397.775
  0
LINE
  8
0
 10
198.188
 11
198.188
 20
397.775
 21
387.666
  0
LINE
  8
0
 10
198.188
 11
201.188
 20
387.666
 21
387.666
  0
LINE
  8
0
 10
201.188
 11
201.188
 20
387.666
 21
377.304
  0
LINE
  8
0
 10
201.188
 11
198.188
 20
377.304
 21
377.304
  0
LINE
  8
0
 10
198.188
 11
198.188
 20
377.304
 21
367.195
  0
LINE
  8
0
 10
198.188
 11
201.188
 20
367.195
 21
367.195
  0
LINE
  8
0
 10
201.188
 11
201.188
 20
367.195
 21
356.834
  0
LINE
  8
0
 10
201.188
 11
198.188
 20
356.834
 21
356.834
  0
LINE
  8
0
 10
198.188
 11
198.188
 20
356.834
 21
346.725
  0
LINE
  8
0
 10
198.188
 11
201.188
 20
346.725
 21
346.725
  0
LINE
  8
0
 10
201.188
 11
201.188
 20
346.725
 21
336.363
  0
LINE
  8
0
 10
201.188
 11
198.188
 20
336.363
 21
336.363
  0
LINE
  8
0
 10
198.188
 11
198.188
 20
336.363
 21
326.254
  0
LINE
  8
0
 10
198.188
 11
201.188
 20
326.254
 21
326.254
  0
LINE
  8
0
 10
201.188
 11
201.188
 20
326.254
 21
315.893
  0
LINE
  8
0
 10
201.188
 11
198.188
 20
315.893
 21
315.893
  0
LINE
  8
0
 10
198.188
 11
198.188
 20
315.893
 21
305.784
  0
LINE
  8
0
 10
198.188
 11
201.188
 20
305.784
 21
305.784
  0
LINE
  8
0
 10
201.188
 11
201.188
 20
305.784
 21
295.422
  0
LINE
  8
0
 10
201.188
 11
198.188
 20
295.422
 21
295.422
  0
LINE
  8
0
 10
198.188
 11
198.188
 20
295.422
 21
282.187
  0
LINE
  8
0
 10
198.188
 11
187.617
 20
282.187
 21
282.187
  0
LINE
  8
0
 10
187.617
 11
187.617
 20
282.187
 21
285.187
  0
LINE
  8
0
 10
187.617
 11
177.299
 20
285.187
 21
285.187
  0
LINE
  8
0
 10
177.299
 11
177.299
 20
285.187
 21
282.187
  0
LINE
  8
0
 10
177.299
 11
166.728
 20
282.187
 21
282.187
  0
LINE
  8
0
 10
166.728
 11
166.728
 20
282.187
 21
285.187
  0
LINE
  8
0
 10
166.728
 11
156.41
 20
285.187
 21
285.187
  0
LINE
  8
0
 10
156.41
 11
156.41
 20
285.187
 21
282.187
  0
LINE
  8
0
 10
156.41
 11
145.839
 20
282.187
 21
282.187
  0
LINE
  8
0
 10
145.839
 11
145.839
 20
282.187
 21
285.187
  0
LINE
  8
0
 10
145.839
 11
135.521
 20
285.187
 21
285.187
  0
LINE
  8
0
 10
135.521
 11
135.521
 20
285.187
 21
282.187
  0
LINE
  8
0
 10
135.521
 11
124.95
 20
282.187
 21
282.187
  0
LINE
  8
0
 10
124.95
 11
124.95
 20
282.187
 21
285.187
  0
LINE
  8
0
 10
124.95
 11
114.632
 20
285.187
 21
285.187
  0
LINE
  8
0
 10
114.632
 11
114.632
 20
285.187
 21
282.187
  0
LINE
  8
0
 10
114.632
 11
104.062
 20
282.187
 21
282.187
  0
LINE
  8
0
 10
104.062
 11
104.062
 20
282.187
 21
295.422
  0
LINE
  8
0
 10
104.062
 11
101.062
 20
295.422
 21
295.422
  0
ENDSEC
  0
SECTION
  2
OBJECTS
  0
DICTIONARY
  0
ENDSEC
  0
EOF
