  0
SECTION
  2
BLOCKS
  0
ENDSEC
  0
SECTION
  2
ENTITIES
  0
LINE
  8
0
 10
-29.75
 11
-29.75
 20
-81.75
 21
11.75
  0
LINE
  8
0
 10
-29.75
 11
63.75
 20
11.75
 21
11.75
  0
LINE
  8
0
 10
63.75
 11
63.75
 20
11.75
 21
-81.75
  0
LINE
  8
0
 10
63.75
 11
-29.75
 20
-81.75
 21
-81.75
  0
LINE
  8
0
 10
-2.581
 11
-2.581
 20
-48.591
 21
-48.215
  0
LINE
  8
0
 10
-2.581
 11
-2.488
 20
-48.215
 21
-47.851
  0
LINE
  8
0
 10
-2.488
 11
-2.306
 20
-47.851
 21
-47.521
  0
LINE
  8
0
 10
-2.306
 11
-2.049
 20
-47.521
 21
-47.247
  0
LINE
  8
0
 10
-2.049
 11
-1.732
 20
-47.247
 21
-47.045
  0
LINE
  8
0
 10
-1.732
 11
-1.374
 20
-47.045
 21
-46.929
  0
LINE
  8
0
 10
-1.374
 11
-0.999
 20
-46.929
 21
-46.906
  0
LINE
  8
0
 10
-0.999
 11
-0.629
 20
-46.906
 21
-46.976
  0
LINE
  8
0
 10
-0.629
 11
-0.289
 20
-46.976
 21
-47.136
  0
LINE
  8
0
 10
-0.289
 11
0.001
 20
-47.136
 21
-47.376
  0
LINE
  8
0
 10
0.001
 11
0.222
 20
-47.376
 21
-47.68
  0
LINE
  8
0
 10
0.222
 11
0.36
 20
-47.68
 21
-48.03
  0
LINE
  8
0
 10
0.36
 11
0.407
 20
-48.03
 21
-48.403
  0
LINE
  8
0
 10
0.407
 11
0.36
 20
-48.403
 21
-48.776
  0
LINE
  8
0
 10
0.36
 11
0.222
 20
-48.776
 21
-49.125
  0
LINE
  8
0
 10
0.222
 11
0.001
 20
-49.125
 21
-49.43
  0
LINE
  8
0
 10
0.001
 11
-0.289
 20
-49.43
 21
-49.669
  0
LINE
  8
0
 10
-0.289
 11
-0.629
 20
-49.669
 21
-49.829
  0
LINE
  8
0
 10
-0.629
 11
-0.999
 20
-49.829
 21
-49.9
  0
LINE
  8
0
 10
-0.999
 11
-1.374
 20
-49.9
 21
-49.876
  0
LINE
  8
0
 10
-1.374
 11
-1.732
 20
-49.876
 21
-49.76
  0
LINE
  8
0
 10
-1.732
 11
-2.049
 20
-49.76
 21
-49.558
  0
LINE
  8
0
 10
-2.049
 11
-2.306
 20
-49.558
 21
-49.284
  0
LINE
  8
0
 10
-2.306
 11
-2.488
 20
-49.284
 21
-48.955
  0
LINE
  8
0
 10
-2.488
 11
-2.581
 20
-48.955
 21
-48.591
  0
LINE
  8
0
 10
-2
 11
-1.99
 20
-70
 21
-69.804
  0
LINE
  8
0
 10
-1.99
 11
-1.962
 20
-69.804
 21
-69.61
  0
LINE
  8
0
 10
-1.962
 11
-1.914
 20
-69.61
 21
-69.419
  0
LINE
  8
0
 10
-1.914
 11
-1.848
 20
-69.419
 21
-69.235
  0
LINE
  8
0
 10
-1.848
 11
-1.764
 20
-69.235
 21
-69.057
  0
LINE
  8
0
 10
-1.764
 11
-1.663
 20
-69.057
 21
-68.889
  0
LINE
  8
0
 10
-1.663
 11
-1.546
 20
-68.889
 21
-68.731
  0
LINE
  8
0
 10
-1.546
 11
-1.414
 20
-68.731
 21
-68.586
  0
LINE
  8
0
 10
-1.414
 11
-1.269
 20
-68.586
 21
-68.454
  0
LINE
  8
0
 10
-1.269
 11
-1.111
 20
-68.454
 21
-68.337
  0
LINE
  8
0
 10
-1.111
 11
-0.943
 20
-68.337
 21
-68.236
  0
LINE
  8
0
 10
-0.943
 11
-0.765
 20
-68.236
 21
-68.152
  0
LINE
  8
0
 10
-0.765
 11
-0.581
 20
-68.152
 21
-68.086
  0
LINE
  8
0
 10
-0.581
 11
-0.39
 20
-68.086
 21
-68.038
  0
LINE
  8
0
 10
-0.39
 11
-0.196
 20
-68.038
 21
-68.01
  0
LINE
  8
0
 10
-0.196
 11
0
 20
-68.01
 21
-68
  0
LINE
  8
0
 10
0
 11
0.196
 20
-68
 21
-68.01
  0
LINE
  8
0
 10
0.196
 11
0.39
 20
-68.01
 21
-68.038
  0
LINE
  8
0
 10
0.39
 11
0.581
 20
-68.038
 21
-68.086
  0
LINE
  8
0
 10
0.581
 11
0.765
 20
-68.086
 21
-68.152
  0
LINE
  8
0
 10
0.765
 11
0.943
 20
-68.152
 21
-68.236
  0
LINE
  8
0
 10
0.943
 11
1.111
 20
-68.236
 21
-68.337
  0
LINE
  8
0
 10
1.111
 11
1.269
 20
-68.337
 21
-68.454
  0
LINE
  8
0
 10
1.269
 11
1.414
 20
-68.454
 21
-68.586
  0
LINE
  8
0
 10
1.414
 11
1.546
 20
-68.586
 21
-68.731
  0
LINE
  8
0
 10
1.546
 11
1.663
 20
-68.731
 21
-68.889
  0
LINE
  8
0
 10
1.663
 11
1.764
 20
-68.889
 21
-69.057
  0
LINE
  8
0
 10
1.764
 11
1.848
 20
-69.057
 21
-69.235
  0
LINE
  8
0
 10
1.848
 11
1.914
 20
-69.235
 21
-69.419
  0
LINE
  8
0
 10
1.914
 11
1.962
 20
-69.419
 21
-69.61
  0
LINE
  8
0
 10
1.962
 11
1.99
 20
-69.61
 21
-69.804
  0
LINE
  8
0
 10
1.99
 11
2
 20
-69.804
 21
-70
  0
LINE
  8
0
 10
2
 11
1.99
 20
-70
 21
-70.196
  0
LINE
  8
0
 10
1.99
 11
1.962
 20
-70.196
 21
-70.39
  0
LINE
  8
0
 10
1.962
 11
1.914
 20
-70.39
 21
-70.581
  0
LINE
  8
0
 10
1.914
 11
1.848
 20
-70.581
 21
-70.765
  0
LINE
  8
0
 10
1.848
 11
1.764
 20
-70.765
 21
-70.943
  0
LINE
  8
0
 10
1.764
 11
1.663
 20
-70.943
 21
-71.111
  0
LINE
  8
0
 10
1.663
 11
1.546
 20
-71.111
 21
-71.269
  0
LINE
  8
0
 10
1.546
 11
1.414
 20
-71.269
 21
-71.414
  0
LINE
  8
0
 10
1.414
 11
1.269
 20
-71.414
 21
-71.546
  0
LINE
  8
0
 10
1.269
 11
1.111
 20
-71.546
 21
-71.663
  0
LINE
  8
0
 10
1.111
 11
0.943
 20
-71.663
 21
-71.764
  0
LINE
  8
0
 10
0.943
 11
0.765
 20
-71.764
 21
-71.848
  0
LINE
  8
0
 10
0.765
 11
0.581
 20
-71.848
 21
-71.914
  0
LINE
  8
0
 10
0.581
 11
0.39
 20
-71.914
 21
-71.962
  0
LINE
  8
0
 10
0.39
 11
0.196
 20
-71.962
 21
-71.99
  0
LINE
  8
0
 10
0.196
 11
0
 20
-71.99
 21
-72
  0
LINE
  8
0
 10
0
 11
-0.196
 20
-72
 21
-71.99
  0
LINE
  8
0
 10
-0.196
 11
-0.39
 20
-71.99
 21
-71.962
  0
LINE
  8
0
 10
-0.39
 11
-0.581
 20
-71.962
 21
-71.914
  0
LINE
  8
0
 10
-0.581
 11
-0.765
 20
-71.914
 21
-71.848
  0
LINE
  8
0
 10
-0.765
 11
-0.943
 20
-71.848
 21
-71.764
  0
LINE
  8
0
 10
-0.943
 11
-1.111
 20
-71.764
 21
-71.663
  0
LINE
  8
0
 10
-1.111
 11
-1.269
 20
-71.663
 21
-71.546
  0
LINE
  8
0
 10
-1.269
 11
-1.414
 20
-71.546
 21
-71.414
  0
LINE
  8
0
 10
-1.414
 11
-1.546
 20
-71.414
 21
-71.269
  0
LINE
  8
0
 10
-1.546
 11
-1.663
 20
-71.269
 21
-71.111
  0
LINE
  8
0
 10
-1.663
 11
-1.764
 20
-71.111
 21
-70.943
  0
LINE
  8
0
 10
-1.764
 11
-1.848
 20
-70.943
 21
-70.765
  0
LINE
  8
0
 10
-1.848
 11
-1.914
 20
-70.765
 21
-70.581
  0
LINE
  8
0
 10
-1.914
 11
-1.962
 20
-70.581
 21
-70.39
  0
LINE
  8
0
 10
-1.962
 11
-1.99
 20
-70.39
 21
-70.196
  0
LINE
  8
0
 10
-1.99
 11
-2
 20
-70.196
 21
-70
  0
LINE
  8
0
 10
-1.488
 11
-1.488
 20
-0.188
 21
0.188
  0
LINE
  8
0
 10
-1.488
 11
-1.395
 20
0.188
 21
0.552
  0
LINE
  8
0
 10
-1.395
 11
-1.214
 20
0.552
 21
0.882
  0
LINE
  8
0
 10
-1.214
 11
-0.956
 20
0.882
 21
1.156
  0
LINE
  8
0
 10
-0.956
 11
-0.639
 20
1.156
 21
1.357
  0
LINE
  8
0
 10
-0.639
 11
-0.281
 20
1.357
 21
1.473
  0
LINE
  8
0
 10
-0.281
 11
0.094
 20
1.473
 21
1.497
  0
LINE
  8
0
 10
0.094
 11
0.464
 20
1.497
 21
1.427
  0
LINE
  8
0
 10
0.464
 11
0.804
 20
1.427
 21
1.266
  0
LINE
  8
0
 10
0.804
 11
1.093
 20
1.266
 21
1.027
  0
LINE
  8
0
 10
1.093
 11
1.314
 20
1.027
 21
0.723
  0
LINE
  8
0
 10
1.314
 11
1.453
 20
0.723
 21
0.373
  0
LINE
  8
0
 10
1.453
 11
1.5
 20
0.373
 21
0
  0
LINE
  8
0
 10
1.5
 11
1.453
 20
0
 21
-0.373
  0
LINE
  8
0
 10
1.453
 11
1.314
 20
-0.373
 21
-0.723
  0
LINE
  8
0
 10
1.314
 11
1.093
 20
-0.723
 21
-1.027
  0
LINE
  8
0
 10
1.093
 11
0.804
 20
-1.027
 21
-1.266
  0
LINE
  8
0
 10
0.804
 11
0.464
 20
-1.266
 21
-1.427
  0
LINE
  8
0
 10
0.464
 11
0.094
 20
-1.427
 21
-1.497
  0
LINE
  8
0
 10
0.094
 11
-0.281
 20
-1.497
 21
-1.473
  0
LINE
  8
0
 10
-0.281
 11
-0.639
 20
-1.473
 21
-1.357
  0
LINE
  8
0
 10
-0.639
 11
-0.956
 20
-1.357
 21
-1.156
  0
LINE
  8
0
 10
-0.956
 11
-1.214
 20
-1.156
 21
-0.882
  0
LINE
  8
0
 10
-1.214
 11
-1.395
 20
-0.882
 21
-0.552
  0
LINE
  8
0
 10
-1.395
 11
-1.488
 20
-0.552
 21
-0.188
  0
LINE
  8
0
 10
25
 11
25.024
 20
-30
 21
-29.51
  0
LINE
  8
0
 10
25.024
 11
25.096
 20
-29.51
 21
-29.025
  0
LINE
  8
0
 10
25.096
 11
25.215
 20
-29.025
 21
-28.549
  0
LINE
  8
0
 10
25.215
 11
25.381
 20
-28.549
 21
-28.087
  0
LINE
  8
0
 10
25.381
 11
25.59
 20
-28.087
 21
-27.643
  0
LINE
  8
0
 10
25.59
 11
25.843
 20
-27.643
 21
-27.222
  0
LINE
  8
0
 10
25.843
 11
26.135
 20
-27.222
 21
-26.828
  0
LINE
  8
0
 10
26.135
 11
26.464
 20
-26.828
 21
-26.464
  0
LINE
  8
0
 10
26.464
 11
26.828
 20
-26.464
 21
-26.135
  0
LINE
  8
0
 10
26.828
 11
27.222
 20
-26.135
 21
-25.843
  0
LINE
  8
0
 10
27.222
 11
27.643
 20
-25.843
 21
-25.59
  0
LINE
  8
0
 10
27.643
 11
28.087
 20
-25.59
 21
-25.381
  0
LINE
  8
0
 10
28.087
 11
28.549
 20
-25.381
 21
-25.215
  0
LINE
  8
0
 10
28.549
 11
29.025
 20
-25.215
 21
-25.096
  0
LINE
  8
0
 10
29.025
 11
29.51
 20
-25.096
 21
-25.024
  0
LINE
  8
0
 10
29.51
 11
30
 20
-25.024
 21
-25
  0
LINE
  8
0
 10
30
 11
30.49
 20
-25
 21
-25.024
  0
LINE
  8
0
 10
30.49
 11
30.975
 20
-25.024
 21
-25.096
  0
LINE
  8
0
 10
30.975
 11
31.451
 20
-25.096
 21
-25.215
  0
LINE
  8
0
 10
31.451
 11
31.913
 20
-25.215
 21
-25.381
  0
LINE
  8
0
 10
31.913
 11
32.357
 20
-25.381
 21
-25.59
  0
LINE
  8
0
 10
32.357
 11
32.778
 20
-25.59
 21
-25.843
  0
LINE
  8
0
 10
32.778
 11
33.172
 20
-25.843
 21
-26.135
  0
LINE
  8
0
 10
33.172
 11
33.536
 20
-26.135
 21
-26.464
  0
LINE
  8
0
 10
33.536
 11
33.865
 20
-26.464
 21
-26.828
  0
LINE
  8
0
 10
33.865
 11
34.157
 20
-26.828
 21
-27.222
  0
LINE
  8
0
 10
34.157
 11
34.41
 20
-27.222
 21
-27.643
  0
LINE
  8
0
 10
34.41
 11
34.619
 20
-27.643
 21
-28.087
  0
LINE
  8
0
 10
34.619
 11
34.785
 20
-28.087
 21
-28.549
  0
LINE
  8
0
 10
34.785
 11
34.904
 20
-28.549
 21
-29.025
  0
LINE
  8
0
 10
34.904
 11
34.976
 20
-29.025
 21
-29.51
  0
LINE
  8
0
 10
34.976
 11
35
 20
-29.51
 21
-30
  0
LINE
  8
0
 10
35
 11
34.976
 20
-30
 21
-30.49
  0
LINE
  8
0
 10
34.976
 11
34.904
 20
-30.49
 21
-30.975
  0
LINE
  8
0
 10
34.904
 11
34.785
 20
-30.975
 21
-31.451
  0
LINE
  8
0
 10
34.785
 11
34.619
 20
-31.451
 21
-31.913
  0
LINE
  8
0
 10
34.619
 11
34.41
 20
-31.913
 21
-32.357
  0
LINE
  8
0
 10
34.41
 11
34.157
 20
-32.357
 21
-32.778
  0
LINE
  8
0
 10
34.157
 11
33.865
 20
-32.778
 21
-33.172
  0
LINE
  8
0
 10
33.865
 11
33.536
 20
-33.172
 21
-33.536
  0
LINE
  8
0
 10
33.536
 11
33.172
 20
-33.536
 21
-33.865
  0
LINE
  8
0
 10
33.172
 11
32.778
 20
-33.865
 21
-34.157
  0
LINE
  8
0
 10
32.778
 11
32.357
 20
-34.157
 21
-34.41
  0
LINE
  8
0
 10
32.357
 11
31.913
 20
-34.41
 21
-34.619
  0
LINE
  8
0
 10
31.913
 11
31.451
 20
-34.619
 21
-34.785
  0
LINE
  8
0
 10
31.451
 11
30.975
 20
-34.785
 21
-34.904
  0
LINE
  8
0
 10
30.975
 11
30.49
 20
-34.904
 21
-34.976
  0
LINE
  8
0
 10
30.49
 11
30
 20
-34.976
 21
-35
  0
LINE
  8
0
 10
30
 11
29.51
 20
-35
 21
-34.976
  0
LINE
  8
0
 10
29.51
 11
29.025
 20
-34.976
 21
-34.904
  0
LINE
  8
0
 10
29.025
 11
28.549
 20
-34.904
 21
-34.785
  0
LINE
  8
0
 10
28.549
 11
28.087
 20
-34.785
 21
-34.619
  0
LINE
  8
0
 10
28.087
 11
27.643
 20
-34.619
 21
-34.41
  0
LINE
  8
0
 10
27.643
 11
27.222
 20
-34.41
 21
-34.157
  0
LINE
  8
0
 10
27.222
 11
26.828
 20
-34.157
 21
-33.865
  0
LINE
  8
0
 10
26.828
 11
26.464
 20
-33.865
 21
-33.536
  0
LINE
  8
0
 10
26.464
 11
26.135
 20
-33.536
 21
-33.172
  0
LINE
  8
0
 10
26.135
 11
25.843
 20
-33.172
 21
-32.778
  0
LINE
  8
0
 10
25.843
 11
25.59
 20
-32.778
 21
-32.357
  0
LINE
  8
0
 10
25.59
 11
25.381
 20
-32.357
 21
-31.913
  0
LINE
  8
0
 10
25.381
 11
25.215
 20
-31.913
 21
-31.451
  0
LINE
  8
0
 10
25.215
 11
25.096
 20
-31.451
 21
-30.975
  0
LINE
  8
0
 10
25.096
 11
25.024
 20
-30.975
 21
-30.49
  0
LINE
  8
0
 10
25.024
 11
25
 20
-30.49
 21
-30
  0
LINE
  8
0
 10
43
 11
43.01
 20
-70
 21
-69.804
  0
LINE
  8
0
 10
43.01
 11
43.038
 20
-69.804
 21
-69.61
  0
LINE
  8
0
 10
43.038
 11
43.086
 20
-69.61
 21
-69.419
  0
LINE
  8
0
 10
43.086
 11
43.152
 20
-69.419
 21
-69.235
  0
LINE
  8
0
 10
43.152
 11
43.236
 20
-69.235
 21
-69.057
  0
LINE
  8
0
 10
43.236
 11
43.337
 20
-69.057
 21
-68.889
  0
LINE
  8
0
 10
43.337
 11
43.454
 20
-68.889
 21
-68.731
  0
LINE
  8
0
 10
43.454
 11
43.586
 20
-68.731
 21
-68.586
  0
LINE
  8
0
 10
43.586
 11
43.731
 20
-68.586
 21
-68.454
  0
LINE
  8
0
 10
43.731
 11
43.889
 20
-68.454
 21
-68.337
  0
LINE
  8
0
 10
43.889
 11
44.057
 20
-68.337
 21
-68.236
  0
LINE
  8
0
 10
44.057
 11
44.235
 20
-68.236
 21
-68.152
  0
LINE
  8
0
 10
44.235
 11
44.419
 20
-68.152
 21
-68.086
  0
LINE
  8
0
 10
44.419
 11
44.61
 20
-68.086
 21
-68.038
  0
LINE
  8
0
 10
44.61
 11
44.804
 20
-68.038
 21
-68.01
  0
LINE
  8
0
 10
44.804
 11
45
 20
-68.01
 21
-68
  0
LINE
  8
0
 10
45
 11
45.196
 20
-68
 21
-68.01
  0
LINE
  8
0
 10
45.196
 11
45.39
 20
-68.01
 21
-68.038
  0
LINE
  8
0
 10
45.39
 11
45.581
 20
-68.038
 21
-68.086
  0
LINE
  8
0
 10
45.581
 11
45.765
 20
-68.086
 21
-68.152
  0
LINE
  8
0
 10
45.765
 11
45.943
 20
-68.152
 21
-68.236
  0
LINE
  8
0
 10
45.943
 11
46.111
 20
-68.236
 21
-68.337
  0
LINE
  8
0
 10
46.111
 11
46.269
 20
-68.337
 21
-68.454
  0
LINE
  8
0
 10
46.269
 11
46.414
 20
-68.454
 21
-68.586
  0
LINE
  8
0
 10
46.414
 11
46.546
 20
-68.586
 21
-68.731
  0
LINE
  8
0
 10
46.546
 11
46.663
 20
-68.731
 21
-68.889
  0
LINE
  8
0
 10
46.663
 11
46.764
 20
-68.889
 21
-69.057
  0
LINE
  8
0
 10
46.764
 11
46.848
 20
-69.057
 21
-69.235
  0
LINE
  8
0
 10
46.848
 11
46.914
 20
-69.235
 21
-69.419
  0
LINE
  8
0
 10
46.914
 11
46.962
 20
-69.419
 21
-69.61
  0
LINE
  8
0
 10
46.962
 11
46.99
 20
-69.61
 21
-69.804
  0
LINE
  8
0
 10
46.99
 11
47
 20
-69.804
 21
-70
  0
LINE
  8
0
 10
47
 11
46.99
 20
-70
 21
-70.196
  0
LINE
  8
0
 10
46.99
 11
46.962
 20
-70.196
 21
-70.39
  0
LINE
  8
0
 10
46.962
 11
46.914
 20
-70.39
 21
-70.581
  0
LINE
  8
0
 10
46.914
 11
46.848
 20
-70.581
 21
-70.765
  0
LINE
  8
0
 10
46.848
 11
46.764
 20
-70.765
 21
-70.943
  0
LINE
  8
0
 10
46.764
 11
46.663
 20
-70.943
 21
-71.111
  0
LINE
  8
0
 10
46.663
 11
46.546
 20
-71.111
 21
-71.269
  0
LINE
  8
0
 10
46.546
 11
46.414
 20
-71.269
 21
-71.414
  0
LINE
  8
0
 10
46.414
 11
46.269
 20
-71.414
 21
-71.546
  0
LINE
  8
0
 10
46.269
 11
46.111
 20
-71.546
 21
-71.663
  0
LINE
  8
0
 10
46.111
 11
45.943
 20
-71.663
 21
-71.764
  0
LINE
  8
0
 10
45.943
 11
45.765
 20
-71.764
 21
-71.848
  0
LINE
  8
0
 10
45.765
 11
45.581
 20
-71.848
 21
-71.914
  0
LINE
  8
0
 10
45.581
 11
45.39
 20
-71.914
 21
-71.962
  0
LINE
  8
0
 10
45.39
 11
45.196
 20
-71.962
 21
-71.99
  0
LINE
  8
0
 10
45.196
 11
45
 20
-71.99
 21
-72
  0
LINE
  8
0
 10
45
 11
44.804
 20
-72
 21
-71.99
  0
LINE
  8
0
 10
44.804
 11
44.61
 20
-71.99
 21
-71.962
  0
LINE
  8
0
 10
44.61
 11
44.419
 20
-71.962
 21
-71.914
  0
LINE
  8
0
 10
44.419
 11
44.235
 20
-71.914
 21
-71.848
  0
LINE
  8
0
 10
44.235
 11
44.057
 20
-71.848
 21
-71.764
  0
LINE
  8
0
 10
44.057
 11
43.889
 20
-71.764
 21
-71.663
  0
LINE
  8
0
 10
43.889
 11
43.731
 20
-71.663
 21
-71.546
  0
LINE
  8
0
 10
43.731
 11
43.586
 20
-71.546
 21
-71.414
  0
LINE
  8
0
 10
43.586
 11
43.454
 20
-71.414
 21
-71.269
  0
LINE
  8
0
 10
43.454
 11
43.337
 20
-71.269
 21
-71.111
  0
LINE
  8
0
 10
43.337
 11
43.236
 20
-71.111
 21
-70.943
  0
LINE
  8
0
 10
43.236
 11
43.152
 20
-70.943
 21
-70.765
  0
LINE
  8
0
 10
43.152
 11
43.086
 20
-70.765
 21
-70.581
  0
LINE
  8
0
 10
43.086
 11
43.038
 20
-70.581
 21
-70.39
  0
LINE
  8
0
 10
43.038
 11
43.01
 20
-70.39
 21
-70.196
  0
LINE
  8
0
 10
43.01
 11
43
 20
-70.196
 21
-70
  0
LINE
  8
0
 10
49.512
 11
49.512
 20
-15.438
 21
-15.062
  0
LINE
  8
0
 10
49.512
 11
49.605
 20
-15.062
 21
-14.698
  0
LINE
  8
0
 10
49.605
 11
49.786
 20
-14.698
 21
-14.368
  0
LINE
  8
0
 10
49.786
 11
50.044
 20
-14.368
 21
-14.094
  0
LINE
  8
0
 10
50.044
 11
50.361
 20
-14.094
 21
-13.893
  0
LINE
  8
0
 10
50.361
 11
50.719
 20
-13.893
 21
-13.777
  0
LINE
  8
0
 10
50.719
 11
51.094
 20
-13.777
 21
-13.753
  0
LINE
  8
0
 10
51.094
 11
51.464
 20
-13.753
 21
-13.823
  0
LINE
  8
0
 10
51.464
 11
51.804
 20
-13.823
 21
-13.984
  0
LINE
  8
0
 10
51.804
 11
52.093
 20
-13.984
 21
-14.223
  0
LINE
  8
0
 10
52.093
 11
52.314
 20
-14.223
 21
-14.527
  0
LINE
  8
0
 10
52.314
 11
52.453
 20
-14.527
 21
-14.877
  0
LINE
  8
0
 10
52.453
 11
52.5
 20
-14.877
 21
-15.25
  0
LINE
  8
0
 10
52.5
 11
52.453
 20
-15.25
 21
-15.623
  0
LINE
  8
0
 10
52.453
 11
52.314
 20
-15.623
 21
-15.973
  0
LINE
  8
0
 10
52.314
 11
52.093
 20
-15.973
 21
-16.277
  0
LINE
  8
0
 10
52.093
 11
51.804
 20
-16.277
 21
-16.516
  0
LINE
  8
0
 10
51.804
 11
51.464
 20
-16.516
 21
-16.677
  0
LINE
  8
0
 10
51.464
 11
51.094
 20
-16.677
 21
-16.747
  0
LINE
  8
0
 10
51.094
 11
50.719
 20
-16.747
 21
-16.723
  0
LINE
  8
0
 10
50.719
 11
50.361
 20
-16.723
 21
-16.607
  0
LINE
  8
0
 10
50.361
 11
50.044
 20
-16.607
 21
-16.406
  0
LINE
  8
0
 10
50.044
 11
49.786
 20
-16.406
 21
-16.132
  0
LINE
  8
0
 10
49.786
 11
49.605
 20
-16.132
 21
-15.802
  0
LINE
  8
0
 10
49.605
 11
49.512
 20
-15.802
 21
-15.438
  0
ENDSEC
  0
SECTION
  2
OBJECTS
  0
DICTIONARY
  0
ENDSEC
  0
EOF
