  0
SECTION
  2
BLOCKS
  0
ENDSEC
  0
SECTION
  2
ENTITIES
  0
LINE
  8
0
 10
0
 11
0
 20
0
 21
13.236
  0
LINE
  8
0
 10
0
 11
3
 20
13.236
 21
13.236
  0
LINE
  8
0
 10
3
 11
3
 20
13.236
 21
23.471
  0
LINE
  8
0
 10
3
 11
0
 20
23.471
 21
23.471
  0
LINE
  8
0
 10
0
 11
0
 20
23.471
 21
33.706
  0
LINE
  8
0
 10
0
 11
3
 20
33.706
 21
33.706
  0
LINE
  8
0
 10
3
 11
3
 20
33.706
 21
43.941
  0
LINE
  8
0
 10
3
 11
0
 20
43.941
 21
43.941
  0
LINE
  8
0
 10
0
 11
0
 20
43.941
 21
54.177
  0
LINE
  8
0
 10
0
 11
3
 20
54.177
 21
54.177
  0
LINE
  8
0
 10
3
 11
3
 20
54.177
 21
64.412
  0
LINE
  8
0
 10
3
 11
0
 20
64.412
 21
64.412
  0
LINE
  8
0
 10
0
 11
0
 20
64.412
 21
74.647
  0
LINE
  8
0
 10
0
 11
3
 20
74.647
 21
74.647
  0
LINE
  8
0
 10
3
 11
3
 20
74.647
 21
84.882
  0
LINE
  8
0
 10
3
 11
0
 20
84.882
 21
84.882
  0
LINE
  8
0
 10
0
 11
0
 20
84.882
 21
95.118
  0
LINE
  8
0
 10
0
 11
3
 20
95.118
 21
95.118
  0
LINE
  8
0
 10
3
 11
3
 20
95.118
 21
105.353
  0
LINE
  8
0
 10
3
 11
0
 20
105.353
 21
105.353
  0
LINE
  8
0
 10
0
 11
0
 20
105.353
 21
115.589
  0
LINE
  8
0
 10
0
 11
3
 20
115.589
 21
115.589
  0
LINE
  8
0
 10
3
 11
3
 20
115.589
 21
125.824
  0
LINE
  8
0
 10
3
 11
0
 20
125.824
 21
125.824
  0
LINE
  8
0
 10
0
 11
0
 20
125.824
 21
136.059
  0
LINE
  8
0
 10
0
 11
3
 20
136.059
 21
136.059
  0
LINE
  8
0
 10
3
 11
3
 20
136.059
 21
146.294
  0
LINE
  8
0
 10
3
 11
0
 20
146.294
 21
146.294
  0
LINE
  8
0
 10
0
 11
0
 20
146.294
 21
156.53
  0
LINE
  8
0
 10
0
 11
3
 20
156.53
 21
156.53
  0
LINE
  8
0
 10
3
 11
3
 20
156.53
 21
166.765
  0
LINE
  8
0
 10
3
 11
0
 20
166.765
 21
166.765
  0
LINE
  8
0
 10
0
 11
0
 20
166.765
 21
180
  0
LINE
  8
0
 10
0
 11
13.445
 20
180
 21
180
  0
LINE
  8
0
 10
13.445
 11
13.445
 20
180
 21
177
  0
LINE
  8
0
 10
13.445
 11
23.889
 20
177
 21
177
  0
LINE
  8
0
 10
23.889
 11
23.889
 20
177
 21
180
  0
LINE
  8
0
 10
23.889
 11
34.334
 20
180
 21
180
  0
LINE
  8
0
 10
34.334
 11
34.334
 20
180
 21
177
  0
LINE
  8
0
 10
34.334
 11
44.778
 20
177
 21
177
  0
LINE
  8
0
 10
44.778
 11
44.778
 20
177
 21
180
  0
LINE
  8
0
 10
44.778
 11
55.223
 20
180
 21
180
  0
LINE
  8
0
 10
55.223
 11
55.223
 20
180
 21
177
  0
LINE
  8
0
 10
55.223
 11
65.667
 20
177
 21
177
  0
LINE
  8
0
 10
65.667
 11
65.667
 20
177
 21
180
  0
LINE
  8
0
 10
65.667
 11
76.112
 20
180
 21
180
  0
LINE
  8
0
 10
76.112
 11
76.112
 20
180
 21
177
  0
LINE
  8
0
 10
76.112
 11
86.556
 20
177
 21
177
  0
LINE
  8
0
 10
86.556
 11
86.556
 20
177
 21
180
  0
LINE
  8
0
 10
86.556
 11
100
 20
180
 21
180
  0
LINE
  8
0
 10
100
 11
100
 20
180
 21
166.764
  0
LINE
  8
0
 10
100
 11
97
 20
166.764
 21
166.764
  0
LINE
  8
0
 10
97
 11
97
 20
166.764
 21
156.529
  0
LINE
  8
0
 10
97
 11
100
 20
156.529
 21
156.529
  0
LINE
  8
0
 10
100
 11
100
 20
156.529
 21
146.294
  0
LINE
  8
0
 10
100
 11
97
 20
146.294
 21
146.294
  0
LINE
  8
0
 10
97
 11
97
 20
146.294
 21
136.059
  0
LINE
  8
0
 10
97
 11
100
 20
136.059
 21
136.059
  0
LINE
  8
0
 10
100
 11
100
 20
136.059
 21
125.823
  0
LINE
  8
0
 10
100
 11
97
 20
125.823
 21
125.823
  0
LINE
  8
0
 10
97
 11
97
 20
125.823
 21
115.588
  0
LINE
  8
0
 10
97
 11
100
 20
115.588
 21
115.588
  0
LINE
  8
0
 10
100
 11
100
 20
115.588
 21
105.353
  0
LINE
  8
0
 10
100
 11
97
 20
105.353
 21
105.353
  0
LINE
  8
0
 10
97
 11
97
 20
105.353
 21
95.118
  0
LINE
  8
0
 10
97
 11
100
 20
95.118
 21
95.118
  0
LINE
  8
0
 10
100
 11
100
 20
95.118
 21
84.882
  0
LINE
  8
0
 10
100
 11
97
 20
84.882
 21
84.882
  0
LINE
  8
0
 10
97
 11
97
 20
84.882
 21
74.647
  0
LINE
  8
0
 10
97
 11
100
 20
74.647
 21
74.647
  0
LINE
  8
0
 10
100
 11
100
 20
74.647
 21
64.411
  0
LINE
  8
0
 10
100
 11
97
 20
64.411
 21
64.411
  0
LINE
  8
0
 10
97
 11
97
 20
64.411
 21
54.176
  0
LINE
  8
0
 10
97
 11
100
 20
54.176
 21
54.176
  0
LINE
  8
0
 10
100
 11
100
 20
54.176
 21
43.941
  0
LINE
  8
0
 10
100
 11
97
 20
43.941
 21
43.941
  0
LINE
  8
0
 10
97
 11
97
 20
43.941
 21
33.706
  0
LINE
  8
0
 10
97
 11
100
 20
33.706
 21
33.706
  0
LINE
  8
0
 10
100
 11
100
 20
33.706
 21
23.47
  0
LINE
  8
0
 10
100
 11
97
 20
23.47
 21
23.47
  0
LINE
  8
0
 10
97
 11
97
 20
23.47
 21
13.235
  0
LINE
  8
0
 10
97
 11
100
 20
13.235
 21
13.235
  0
LINE
  8
0
 10
100
 11
100
 20
13.235
 21
0
  0
LINE
  8
0
 10
100
 11
86.555
 20
0
 21
0
  0
LINE
  8
0
 10
86.555
 11
86.555
 20
0
 21
3
  0
LINE
  8
0
 10
86.555
 11
76.111
 20
3
 21
3
  0
LINE
  8
0
 10
76.111
 11
76.111
 20
3
 21
0
  0
LINE
  8
0
 10
76.111
 11
65.666
 20
0
 21
0
  0
LINE
  8
0
 10
65.666
 11
65.666
 20
0
 21
3
  0
LINE
  8
0
 10
65.666
 11
55.222
 20
3
 21
3
  0
LINE
  8
0
 10
55.222
 11
55.222
 20
3
 21
0
  0
LINE
  8
0
 10
55.222
 11
44.777
 20
0
 21
0
  0
LINE
  8
0
 10
44.777
 11
44.777
 20
0
 21
3
  0
LINE
  8
0
 10
44.777
 11
34.333
 20
3
 21
3
  0
LINE
  8
0
 10
34.333
 11
34.333
 20
3
 21
0
  0
LINE
  8
0
 10
34.333
 11
23.888
 20
0
 21
0
  0
LINE
  8
0
 10
23.888
 11
23.888
 20
0
 21
3
  0
LINE
  8
0
 10
23.888
 11
13.444
 20
3
 21
3
  0
LINE
  8
0
 10
13.444
 11
13.444
 20
3
 21
0
  0
LINE
  8
0
 10
13.444
 11
0
 20
0
 21
0
  0
LINE
  8
0
 10
24
 11
24
 20
12
 21
17
  0
LINE
  8
0
 10
24
 11
32.5
 20
17
 21
17
  0
LINE
  8
0
 10
32.5
 11
32.5
 20
17
 21
12
  0
LINE
  8
0
 10
32.5
 11
24
 20
12
 21
12
  0
ENDSEC
  0
SECTION
  2
OBJECTS
  0
DICTIONARY
  0
ENDSEC
  0
EOF
