  0
SECTION
  2
BLOCKS
  0
ENDSEC
  0
SECTION
  2
ENTITIES
  0
LINE
  8
0
 10
-0.063
 11
-0.063
 20
255.495
 21
265.928
  0
LINE
  8
0
 10
-0.063
 11
2.937
 20
265.928
 21
265.928
  0
LINE
  8
0
 10
2.937
 11
2.937
 20
265.928
 21
276.11
  0
LINE
  8
0
 10
2.937
 11
-0.063
 20
276.11
 21
276.11
  0
LINE
  8
0
 10
-0.063
 11
-0.063
 20
276.11
 21
286.543
  0
LINE
  8
0
 10
-0.063
 11
2.937
 20
286.543
 21
286.543
  0
LINE
  8
0
 10
2.937
 11
2.937
 20
286.543
 21
296.725
  0
LINE
  8
0
 10
2.937
 11
-0.063
 20
296.725
 21
296.725
  0
LINE
  8
0
 10
-0.063
 11
-0.063
 20
296.725
 21
307.159
  0
LINE
  8
0
 10
-0.063
 11
2.937
 20
307.159
 21
307.159
  0
LINE
  8
0
 10
2.937
 11
2.937
 20
307.159
 21
317.341
  0
LINE
  8
0
 10
2.937
 11
-0.063
 20
317.341
 21
317.341
  0
LINE
  8
0
 10
-0.063
 11
-0.063
 20
317.341
 21
327.774
  0
LINE
  8
0
 10
-0.063
 11
2.937
 20
327.774
 21
327.774
  0
LINE
  8
0
 10
2.937
 11
2.937
 20
327.774
 21
337.956
  0
LINE
  8
0
 10
2.937
 11
-0.063
 20
337.956
 21
337.956
  0
LINE
  8
0
 10
-0.063
 11
-0.063
 20
337.956
 21
348.39
  0
LINE
  8
0
 10
-0.063
 11
2.937
 20
348.39
 21
348.39
  0
LINE
  8
0
 10
2.937
 11
2.937
 20
348.39
 21
358.572
  0
LINE
  8
0
 10
2.937
 11
-0.063
 20
358.572
 21
358.572
  0
LINE
  8
0
 10
-0.063
 11
-0.063
 20
358.572
 21
369.005
  0
LINE
  8
0
 10
-0.063
 11
2.937
 20
369.005
 21
369.005
  0
LINE
  8
0
 10
2.937
 11
2.937
 20
369.005
 21
382.313
  0
LINE
  8
0
 10
2.937
 11
13.508
 20
382.313
 21
382.313
  0
LINE
  8
0
 10
13.508
 11
13.508
 20
382.313
 21
379.313
  0
LINE
  8
0
 10
13.508
 11
23.826
 20
379.313
 21
379.313
  0
LINE
  8
0
 10
23.826
 11
23.826
 20
379.313
 21
382.313
  0
LINE
  8
0
 10
23.826
 11
34.397
 20
382.313
 21
382.313
  0
LINE
  8
0
 10
34.397
 11
34.397
 20
382.313
 21
379.313
  0
LINE
  8
0
 10
34.397
 11
44.715
 20
379.313
 21
379.313
  0
LINE
  8
0
 10
44.715
 11
44.715
 20
379.313
 21
382.313
  0
LINE
  8
0
 10
44.715
 11
55.286
 20
382.313
 21
382.313
  0
LINE
  8
0
 10
55.286
 11
55.286
 20
382.313
 21
379.313
  0
LINE
  8
0
 10
55.286
 11
65.604
 20
379.313
 21
379.313
  0
LINE
  8
0
 10
65.604
 11
65.604
 20
379.313
 21
382.313
  0
LINE
  8
0
 10
65.604
 11
76.175
 20
382.313
 21
382.313
  0
LINE
  8
0
 10
76.175
 11
76.175
 20
382.313
 21
379.313
  0
LINE
  8
0
 10
76.175
 11
86.493
 20
379.313
 21
379.313
  0
LINE
  8
0
 10
86.493
 11
86.493
 20
379.313
 21
382.313
  0
LINE
  8
0
 10
86.493
 11
97.063
 20
382.313
 21
382.313
  0
LINE
  8
0
 10
97.063
 11
97.063
 20
382.313
 21
369.005
  0
LINE
  8
0
 10
97.063
 11
100.063
 20
369.005
 21
369.005
  0
LINE
  8
0
 10
100.063
 11
100.063
 20
369.005
 21
358.572
  0
LINE
  8
0
 10
100.063
 11
97.063
 20
358.572
 21
358.572
  0
LINE
  8
0
 10
97.063
 11
97.063
 20
358.572
 21
348.39
  0
LINE
  8
0
 10
97.063
 11
100.063
 20
348.39
 21
348.39
  0
LINE
  8
0
 10
100.063
 11
100.063
 20
348.39
 21
337.957
  0
LINE
  8
0
 10
100.063
 11
97.063
 20
337.957
 21
337.957
  0
LINE
  8
0
 10
97.063
 11
97.063
 20
337.957
 21
327.775
  0
LINE
  8
0
 10
97.063
 11
100.063
 20
327.775
 21
327.775
  0
LINE
  8
0
 10
100.063
 11
100.063
 20
327.775
 21
317.341
  0
LINE
  8
0
 10
100.063
 11
97.063
 20
317.341
 21
317.341
  0
LINE
  8
0
 10
97.063
 11
97.063
 20
317.341
 21
307.159
  0
LINE
  8
0
 10
97.063
 11
100.063
 20
307.159
 21
307.159
  0
LINE
  8
0
 10
100.063
 11
100.063
 20
307.159
 21
296.726
  0
LINE
  8
0
 10
100.063
 11
97.063
 20
296.726
 21
296.726
  0
LINE
  8
0
 10
97.063
 11
97.063
 20
296.726
 21
286.544
  0
LINE
  8
0
 10
97.063
 11
100.063
 20
286.544
 21
286.544
  0
LINE
  8
0
 10
100.063
 11
100.063
 20
286.544
 21
276.11
  0
LINE
  8
0
 10
100.063
 11
97.063
 20
276.11
 21
276.11
  0
LINE
  8
0
 10
97.063
 11
97.063
 20
276.11
 21
265.928
  0
LINE
  8
0
 10
97.063
 11
100.063
 20
265.928
 21
265.928
  0
LINE
  8
0
 10
100.063
 11
100.063
 20
265.928
 21
255.495
  0
LINE
  8
0
 10
100.063
 11
97.063
 20
255.495
 21
255.495
  0
LINE
  8
0
 10
97.063
 11
97.063
 20
255.495
 21
242.187
  0
LINE
  8
0
 10
97.063
 11
86.492
 20
242.187
 21
242.187
  0
LINE
  8
0
 10
86.492
 11
86.492
 20
242.187
 21
245.187
  0
LINE
  8
0
 10
86.492
 11
76.174
 20
245.187
 21
245.187
  0
LINE
  8
0
 10
76.174
 11
76.174
 20
245.187
 21
242.187
  0
LINE
  8
0
 10
76.174
 11
65.603
 20
242.187
 21
242.187
  0
LINE
  8
0
 10
65.603
 11
65.603
 20
242.187
 21
245.187
  0
LINE
  8
0
 10
65.603
 11
55.285
 20
245.187
 21
245.187
  0
LINE
  8
0
 10
55.285
 11
55.285
 20
245.187
 21
242.187
  0
LINE
  8
0
 10
55.285
 11
44.714
 20
242.187
 21
242.187
  0
LINE
  8
0
 10
44.714
 11
44.714
 20
242.187
 21
245.187
  0
LINE
  8
0
 10
44.714
 11
34.396
 20
245.187
 21
245.187
  0
LINE
  8
0
 10
34.396
 11
34.396
 20
245.187
 21
242.187
  0
LINE
  8
0
 10
34.396
 11
23.825
 20
242.187
 21
242.187
  0
LINE
  8
0
 10
23.825
 11
23.825
 20
242.187
 21
245.187
  0
LINE
  8
0
 10
23.825
 11
13.507
 20
245.187
 21
245.187
  0
LINE
  8
0
 10
13.507
 11
13.507
 20
245.187
 21
242.187
  0
LINE
  8
0
 10
13.507
 11
2.937
 20
242.187
 21
242.187
  0
LINE
  8
0
 10
2.937
 11
2.937
 20
242.187
 21
255.495
  0
LINE
  8
0
 10
2.937
 11
-0.063
 20
255.495
 21
255.495
  0
LINE
  8
0
 10
101.062
 11
101.062
 20
13.381
 21
23.952
  0
LINE
  8
0
 10
101.062
 11
104.062
 20
23.952
 21
23.952
  0
LINE
  8
0
 10
104.062
 11
104.062
 20
23.952
 21
34.27
  0
LINE
  8
0
 10
104.062
 11
101.062
 20
34.27
 21
34.27
  0
LINE
  8
0
 10
101.062
 11
101.062
 20
34.27
 21
44.841
  0
LINE
  8
0
 10
101.062
 11
104.062
 20
44.841
 21
44.841
  0
LINE
  8
0
 10
104.062
 11
104.062
 20
44.841
 21
55.159
  0
LINE
  8
0
 10
104.062
 11
101.062
 20
55.159
 21
55.159
  0
LINE
  8
0
 10
101.062
 11
101.062
 20
55.159
 21
65.73
  0
LINE
  8
0
 10
101.062
 11
104.062
 20
65.73
 21
65.73
  0
LINE
  8
0
 10
104.062
 11
104.062
 20
65.73
 21
76.048
  0
LINE
  8
0
 10
104.062
 11
101.062
 20
76.048
 21
76.048
  0
LINE
  8
0
 10
101.062
 11
101.062
 20
76.048
 21
86.619
  0
LINE
  8
0
 10
101.062
 11
104.062
 20
86.619
 21
86.619
  0
LINE
  8
0
 10
104.062
 11
104.062
 20
86.619
 21
97.063
  0
LINE
  8
0
 10
104.062
 11
114.506
 20
97.063
 21
97.063
  0
LINE
  8
0
 10
114.506
 11
114.506
 20
97.063
 21
100.063
  0
LINE
  8
0
 10
114.506
 11
125.077
 20
100.063
 21
100.063
  0
LINE
  8
0
 10
125.077
 11
125.077
 20
100.063
 21
97.063
  0
LINE
  8
0
 10
125.077
 11
135.395
 20
97.063
 21
97.063
  0
LINE
  8
0
 10
135.395
 11
135.395
 20
97.063
 21
100.063
  0
LINE
  8
0
 10
135.395
 11
145.966
 20
100.063
 21
100.063
  0
LINE
  8
0
 10
145.966
 11
145.966
 20
100.063
 21
97.063
  0
LINE
  8
0
 10
145.966
 11
156.284
 20
97.063
 21
97.063
  0
LINE
  8
0
 10
156.284
 11
156.284
 20
97.063
 21
100.063
  0
LINE
  8
0
 10
156.284
 11
166.855
 20
100.063
 21
100.063
  0
LINE
  8
0
 10
166.855
 11
166.855
 20
100.063
 21
97.063
  0
LINE
  8
0
 10
166.855
 11
177.173
 20
97.063
 21
97.063
  0
LINE
  8
0
 10
177.173
 11
177.173
 20
97.063
 21
100.063
  0
LINE
  8
0
 10
177.173
 11
187.744
 20
100.063
 21
100.063
  0
LINE
  8
0
 10
187.744
 11
187.744
 20
100.063
 21
97.063
  0
LINE
  8
0
 10
187.744
 11
198.188
 20
97.063
 21
97.063
  0
LINE
  8
0
 10
198.188
 11
198.188
 20
97.063
 21
86.619
  0
LINE
  8
0
 10
198.188
 11
201.188
 20
86.619
 21
86.619
  0
LINE
  8
0
 10
201.188
 11
201.188
 20
86.619
 21
76.048
  0
LINE
  8
0
 10
201.188
 11
198.188
 20
76.048
 21
76.048
  0
LINE
  8
0
 10
198.188
 11
198.188
 20
76.048
 21
65.73
  0
LINE
  8
0
 10
198.188
 11
201.188
 20
65.73
 21
65.73
  0
LINE
  8
0
 10
201.188
 11
201.188
 20
65.73
 21
55.159
  0
LINE
  8
0
 10
201.188
 11
198.188
 20
55.159
 21
55.159
  0
LINE
  8
0
 10
198.188
 11
198.188
 20
55.159
 21
44.841
  0
LINE
  8
0
 10
198.188
 11
201.188
 20
44.841
 21
44.841
  0
LINE
  8
0
 10
201.188
 11
201.188
 20
44.841
 21
34.27
  0
LINE
  8
0
 10
201.188
 11
198.188
 20
34.27
 21
34.27
  0
LINE
  8
0
 10
198.188
 11
198.188
 20
34.27
 21
23.952
  0
LINE
  8
0
 10
198.188
 11
201.188
 20
23.952
 21
23.952
  0
LINE
  8
0
 10
201.188
 11
201.188
 20
23.952
 21
13.381
  0
LINE
  8
0
 10
201.188
 11
198.188
 20
13.381
 21
13.381
  0
LINE
  8
0
 10
198.188
 11
198.188
 20
13.381
 21
2.937
  0
LINE
  8
0
 10
198.188
 11
187.744
 20
2.937
 21
2.937
  0
LINE
  8
0
 10
187.744
 11
187.744
 20
2.937
 21
-0.063
  0
LINE
  8
0
 10
187.744
 11
177.173
 20
-0.063
 21
-0.063
  0
LINE
  8
0
 10
177.173
 11
177.173
 20
-0.063
 21
2.937
  0
LINE
  8
0
 10
177.173
 11
166.855
 20
2.937
 21
2.937
  0
LINE
  8
0
 10
166.855
 11
166.855
 20
2.937
 21
-0.063
  0
LINE
  8
0
 10
166.855
 11
156.284
 20
-0.063
 21
-0.063
  0
LINE
  8
0
 10
156.284
 11
156.284
 20
-0.063
 21
2.937
  0
LINE
  8
0
 10
156.284
 11
145.966
 20
2.937
 21
2.937
  0
LINE
  8
0
 10
145.966
 11
145.966
 20
2.937
 21
-0.063
  0
LINE
  8
0
 10
145.966
 11
135.395
 20
-0.063
 21
-0.063
  0
LINE
  8
0
 10
135.395
 11
135.395
 20
-0.063
 21
2.937
  0
LINE
  8
0
 10
135.395
 11
125.077
 20
2.937
 21
2.937
  0
LINE
  8
0
 10
125.077
 11
125.077
 20
2.937
 21
-0.063
  0
LINE
  8
0
 10
125.077
 11
114.506
 20
-0.063
 21
-0.063
  0
LINE
  8
0
 10
114.506
 11
114.506
 20
-0.063
 21
2.937
  0
LINE
  8
0
 10
114.506
 11
104.062
 20
2.937
 21
2.937
  0
LINE
  8
0
 10
104.062
 11
104.062
 20
2.937
 21
13.381
  0
LINE
  8
0
 10
104.062
 11
101.062
 20
13.381
 21
13.381
  0
LINE
  8
0
 10
101.062
 11
101.062
 20
101.062
 21
114.495
  0
LINE
  8
0
 10
101.062
 11
104.062
 20
114.495
 21
114.495
  0
LINE
  8
0
 10
104.062
 11
104.062
 20
114.495
 21
124.677
  0
LINE
  8
0
 10
104.062
 11
101.062
 20
124.677
 21
124.677
  0
LINE
  8
0
 10
101.062
 11
101.062
 20
124.677
 21
135.111
  0
LINE
  8
0
 10
101.062
 11
104.062
 20
135.111
 21
135.111
  0
LINE
  8
0
 10
104.062
 11
104.062
 20
135.111
 21
145.293
  0
LINE
  8
0
 10
104.062
 11
101.062
 20
145.293
 21
145.293
  0
LINE
  8
0
 10
101.062
 11
101.062
 20
145.293
 21
155.726
  0
LINE
  8
0
 10
101.062
 11
104.062
 20
155.726
 21
155.726
  0
LINE
  8
0
 10
104.062
 11
104.062
 20
155.726
 21
165.908
  0
LINE
  8
0
 10
104.062
 11
101.062
 20
165.908
 21
165.908
  0
LINE
  8
0
 10
101.062
 11
101.062
 20
165.908
 21
176.342
  0
LINE
  8
0
 10
101.062
 11
104.062
 20
176.342
 21
176.342
  0
LINE
  8
0
 10
104.062
 11
104.062
 20
176.342
 21
186.524
  0
LINE
  8
0
 10
104.062
 11
101.062
 20
186.524
 21
186.524
  0
LINE
  8
0
 10
101.062
 11
101.062
 20
186.524
 21
196.957
  0
LINE
  8
0
 10
101.062
 11
104.062
 20
196.957
 21
196.957
  0
LINE
  8
0
 10
104.062
 11
104.062
 20
196.957
 21
207.139
  0
LINE
  8
0
 10
104.062
 11
101.062
 20
207.139
 21
207.139
  0
LINE
  8
0
 10
101.062
 11
101.062
 20
207.139
 21
217.572
  0
LINE
  8
0
 10
101.062
 11
104.062
 20
217.572
 21
217.572
  0
LINE
  8
0
 10
104.062
 11
104.062
 20
217.572
 21
227.754
  0
LINE
  8
0
 10
104.062
 11
101.062
 20
227.754
 21
227.754
  0
LINE
  8
0
 10
101.062
 11
101.062
 20
227.754
 21
241.188
  0
LINE
  8
0
 10
101.062
 11
114.633
 20
241.188
 21
241.188
  0
LINE
  8
0
 10
114.633
 11
114.633
 20
241.188
 21
238.188
  0
LINE
  8
0
 10
114.633
 11
124.951
 20
238.188
 21
238.188
  0
LINE
  8
0
 10
124.951
 11
124.951
 20
238.188
 21
241.188
  0
LINE
  8
0
 10
124.951
 11
135.522
 20
241.188
 21
241.188
  0
LINE
  8
0
 10
135.522
 11
135.522
 20
241.188
 21
238.188
  0
LINE
  8
0
 10
135.522
 11
145.84
 20
238.188
 21
238.188
  0
LINE
  8
0
 10
145.84
 11
145.84
 20
238.188
 21
241.188
  0
LINE
  8
0
 10
145.84
 11
156.411
 20
241.188
 21
241.188
  0
LINE
  8
0
 10
156.411
 11
156.411
 20
241.188
 21
238.188
  0
LINE
  8
0
 10
156.411
 11
166.729
 20
238.188
 21
238.188
  0
LINE
  8
0
 10
166.729
 11
166.729
 20
238.188
 21
241.188
  0
LINE
  8
0
 10
166.729
 11
177.3
 20
241.188
 21
241.188
  0
LINE
  8
0
 10
177.3
 11
177.3
 20
241.188
 21
238.188
  0
LINE
  8
0
 10
177.3
 11
187.618
 20
238.188
 21
238.188
  0
LINE
  8
0
 10
187.618
 11
187.618
 20
238.188
 21
241.188
  0
LINE
  8
0
 10
187.618
 11
201.188
 20
241.188
 21
241.188
  0
LINE
  8
0
 10
201.188
 11
201.188
 20
241.188
 21
227.755
  0
LINE
  8
0
 10
201.188
 11
198.188
 20
227.755
 21
227.755
  0
LINE
  8
0
 10
198.188
 11
198.188
 20
227.755
 21
217.573
  0
LINE
  8
0
 10
198.188
 11
201.188
 20
217.573
 21
217.573
  0
LINE
  8
0
 10
201.188
 11
201.188
 20
217.573
 21
207.139
  0
LINE
  8
0
 10
201.188
 11
198.188
 20
207.139
 21
207.139
  0
LINE
  8
0
 10
198.188
 11
198.188
 20
207.139
 21
196.957
  0
LINE
  8
0
 10
198.188
 11
201.188
 20
196.957
 21
196.957
  0
LINE
  8
0
 10
201.188
 11
201.188
 20
196.957
 21
186.524
  0
LINE
  8
0
 10
201.188
 11
198.188
 20
186.524
 21
186.524
  0
LINE
  8
0
 10
198.188
 11
198.188
 20
186.524
 21
176.342
  0
LINE
  8
0
 10
198.188
 11
201.188
 20
176.342
 21
176.342
  0
LINE
  8
0
 10
201.188
 11
201.188
 20
176.342
 21
165.908
  0
LINE
  8
0
 10
201.188
 11
198.188
 20
165.908
 21
165.908
  0
LINE
  8
0
 10
198.188
 11
198.188
 20
165.908
 21
155.726
  0
LINE
  8
0
 10
198.188
 11
201.188
 20
155.726
 21
155.726
  0
LINE
  8
0
 10
201.188
 11
201.188
 20
155.726
 21
145.293
  0
LINE
  8
0
 10
201.188
 11
198.188
 20
145.293
 21
145.293
  0
LINE
  8
0
 10
198.188
 11
198.188
 20
145.293
 21
135.111
  0
LINE
  8
0
 10
198.188
 11
201.188
 20
135.111
 21
135.111
  0
LINE
  8
0
 10
201.188
 11
201.188
 20
135.111
 21
124.678
  0
LINE
  8
0
 10
201.188
 11
198.188
 20
124.678
 21
124.678
  0
LINE
  8
0
 10
198.188
 11
198.188
 20
124.678
 21
114.496
  0
LINE
  8
0
 10
198.188
 11
201.188
 20
114.496
 21
114.496
  0
LINE
  8
0
 10
201.188
 11
201.188
 20
114.496
 21
101.062
  0
LINE
  8
0
 10
201.188
 11
187.617
 20
101.062
 21
101.062
  0
LINE
  8
0
 10
187.617
 11
187.617
 20
101.062
 21
104.062
  0
LINE
  8
0
 10
187.617
 11
177.299
 20
104.062
 21
104.062
  0
LINE
  8
0
 10
177.299
 11
177.299
 20
104.062
 21
101.062
  0
LINE
  8
0
 10
177.299
 11
166.728
 20
101.062
 21
101.062
  0
LINE
  8
0
 10
166.728
 11
166.728
 20
101.062
 21
104.062
  0
LINE
  8
0
 10
166.728
 11
156.41
 20
104.062
 21
104.062
  0
LINE
  8
0
 10
156.41
 11
156.41
 20
104.062
 21
101.062
  0
LINE
  8
0
 10
156.41
 11
145.839
 20
101.062
 21
101.062
  0
LINE
  8
0
 10
145.839
 11
145.839
 20
101.062
 21
104.062
  0
LINE
  8
0
 10
145.839
 11
135.521
 20
104.062
 21
104.062
  0
LINE
  8
0
 10
135.521
 11
135.521
 20
104.062
 21
101.062
  0
LINE
  8
0
 10
135.521
 11
124.95
 20
101.062
 21
101.062
  0
LINE
  8
0
 10
124.95
 11
124.95
 20
101.062
 21
104.062
  0
LINE
  8
0
 10
124.95
 11
114.632
 20
104.062
 21
104.062
  0
LINE
  8
0
 10
114.632
 11
114.632
 20
104.062
 21
101.062
  0
LINE
  8
0
 10
114.632
 11
101.062
 20
101.062
 21
101.062
  0
LINE
  8
0
 10
101.062
 11
101.062
 20
255.495
 21
265.928
  0
LINE
  8
0
 10
101.062
 11
104.062
 20
265.928
 21
265.928
  0
LINE
  8
0
 10
104.062
 11
104.062
 20
265.928
 21
276.11
  0
LINE
  8
0
 10
104.062
 11
101.062
 20
276.11
 21
276.11
  0
LINE
  8
0
 10
101.062
 11
101.062
 20
276.11
 21
286.543
  0
LINE
  8
0
 10
101.062
 11
104.062
 20
286.543
 21
286.543
  0
LINE
  8
0
 10
104.062
 11
104.062
 20
286.543
 21
296.725
  0
LINE
  8
0
 10
104.062
 11
101.062
 20
296.725
 21
296.725
  0
LINE
  8
0
 10
101.062
 11
101.062
 20
296.725
 21
307.159
  0
LINE
  8
0
 10
101.062
 11
104.062
 20
307.159
 21
307.159
  0
LINE
  8
0
 10
104.062
 11
104.062
 20
307.159
 21
317.341
  0
LINE
  8
0
 10
104.062
 11
101.062
 20
317.341
 21
317.341
  0
LINE
  8
0
 10
101.062
 11
101.062
 20
317.341
 21
327.774
  0
LINE
  8
0
 10
101.062
 11
104.062
 20
327.774
 21
327.774
  0
LINE
  8
0
 10
104.062
 11
104.062
 20
327.774
 21
337.956
  0
LINE
  8
0
 10
104.062
 11
101.062
 20
337.956
 21
337.956
  0
LINE
  8
0
 10
101.062
 11
101.062
 20
337.956
 21
348.39
  0
LINE
  8
0
 10
101.062
 11
104.062
 20
348.39
 21
348.39
  0
LINE
  8
0
 10
104.062
 11
104.062
 20
348.39
 21
358.572
  0
LINE
  8
0
 10
104.062
 11
101.062
 20
358.572
 21
358.572
  0
LINE
  8
0
 10
101.062
 11
101.062
 20
358.572
 21
369.005
  0
LINE
  8
0
 10
101.062
 11
104.062
 20
369.005
 21
369.005
  0
LINE
  8
0
 10
104.062
 11
104.062
 20
369.005
 21
382.313
  0
LINE
  8
0
 10
104.062
 11
114.633
 20
382.313
 21
382.313
  0
LINE
  8
0
 10
114.633
 11
114.633
 20
382.313
 21
379.313
  0
LINE
  8
0
 10
114.633
 11
124.951
 20
379.313
 21
379.313
  0
LINE
  8
0
 10
124.951
 11
124.951
 20
379.313
 21
382.313
  0
LINE
  8
0
 10
124.951
 11
135.522
 20
382.313
 21
382.313
  0
LINE
  8
0
 10
135.522
 11
135.522
 20
382.313
 21
379.313
  0
LINE
  8
0
 10
135.522
 11
145.84
 20
379.313
 21
379.313
  0
LINE
  8
0
 10
145.84
 11
145.84
 20
379.313
 21
382.313
  0
LINE
  8
0
 10
145.84
 11
156.411
 20
382.313
 21
382.313
  0
LINE
  8
0
 10
156.411
 11
156.411
 20
382.313
 21
379.313
  0
LINE
  8
0
 10
156.411
 11
166.729
 20
379.313
 21
379.313
  0
LINE
  8
0
 10
166.729
 11
166.729
 20
379.313
 21
382.313
  0
LINE
  8
0
 10
166.729
 11
177.3
 20
382.313
 21
382.313
  0
LINE
  8
0
 10
177.3
 11
177.3
 20
382.313
 21
379.313
  0
LINE
  8
0
 10
177.3
 11
187.618
 20
379.313
 21
379.313
  0
LINE
  8
0
 10
187.618
 11
187.618
 20
379.313
 21
382.313
  0
LINE
  8
0
 10
187.618
 11
198.188
 20
382.313
 21
382.313
  0
LINE
  8
0
 10
198.188
 11
198.188
 20
382.313
 21
369.005
  0
LINE
  8
0
 10
198.188
 11
201.188
 20
369.005
 21
369.005
  0
LINE
  8
0
 10
201.188
 11
201.188
 20
369.005
 21
358.572
  0
LINE
  8
0
 10
201.188
 11
198.188
 20
358.572
 21
358.572
  0
LINE
  8
0
 10
198.188
 11
198.188
 20
358.572
 21
348.39
  0
LINE
  8
0
 10
198.188
 11
201.188
 20
348.39
 21
348.39
  0
LINE
  8
0
 10
201.188
 11
201.188
 20
348.39
 21
337.957
  0
LINE
  8
0
 10
201.188
 11
198.188
 20
337.957
 21
337.957
  0
LINE
  8
0
 10
198.188
 11
198.188
 20
337.957
 21
327.775
  0
LINE
  8
0
 10
198.188
 11
201.188
 20
327.775
 21
327.775
  0
LINE
  8
0
 10
201.188
 11
201.188
 20
327.775
 21
317.341
  0
LINE
  8
0
 10
201.188
 11
198.188
 20
317.341
 21
317.341
  0
LINE
  8
0
 10
198.188
 11
198.188
 20
317.341
 21
307.159
  0
LINE
  8
0
 10
198.188
 11
201.188
 20
307.159
 21
307.159
  0
LINE
  8
0
 10
201.188
 11
201.188
 20
307.159
 21
296.726
  0
LINE
  8
0
 10
201.188
 11
198.188
 20
296.726
 21
296.726
  0
LINE
  8
0
 10
198.188
 11
198.188
 20
296.726
 21
286.544
  0
LINE
  8
0
 10
198.188
 11
201.188
 20
286.544
 21
286.544
  0
LINE
  8
0
 10
201.188
 11
201.188
 20
286.544
 21
276.11
  0
LINE
  8
0
 10
201.188
 11
198.188
 20
276.11
 21
276.11
  0
LINE
  8
0
 10
198.188
 11
198.188
 20
276.11
 21
265.928
  0
LINE
  8
0
 10
198.188
 11
201.188
 20
265.928
 21
265.928
  0
LINE
  8
0
 10
201.188
 11
201.188
 20
265.928
 21
255.495
  0
LINE
  8
0
 10
201.188
 11
198.188
 20
255.495
 21
255.495
  0
LINE
  8
0
 10
198.188
 11
198.188
 20
255.495
 21
242.187
  0
LINE
  8
0
 10
198.188
 11
187.617
 20
242.187
 21
242.187
  0
LINE
  8
0
 10
187.617
 11
187.617
 20
242.187
 21
245.187
  0
LINE
  8
0
 10
187.617
 11
177.299
 20
245.187
 21
245.187
  0
LINE
  8
0
 10
177.299
 11
177.299
 20
245.187
 21
242.187
  0
LINE
  8
0
 10
177.299
 11
166.728
 20
242.187
 21
242.187
  0
LINE
  8
0
 10
166.728
 11
166.728
 20
242.187
 21
245.187
  0
LINE
  8
0
 10
166.728
 11
156.41
 20
245.187
 21
245.187
  0
LINE
  8
0
 10
156.41
 11
156.41
 20
245.187
 21
242.187
  0
LINE
  8
0
 10
156.41
 11
145.839
 20
242.187
 21
242.187
  0
LINE
  8
0
 10
145.839
 11
145.839
 20
242.187
 21
245.187
  0
LINE
  8
0
 10
145.839
 11
135.521
 20
245.187
 21
245.187
  0
LINE
  8
0
 10
135.521
 11
135.521
 20
245.187
 21
242.187
  0
LINE
  8
0
 10
135.521
 11
124.95
 20
242.187
 21
242.187
  0
LINE
  8
0
 10
124.95
 11
124.95
 20
242.187
 21
245.187
  0
LINE
  8
0
 10
124.95
 11
114.632
 20
245.187
 21
245.187
  0
LINE
  8
0
 10
114.632
 11
114.632
 20
245.187
 21
242.187
  0
LINE
  8
0
 10
114.632
 11
104.062
 20
242.187
 21
242.187
  0
LINE
  8
0
 10
104.062
 11
104.062
 20
242.187
 21
255.495
  0
LINE
  8
0
 10
104.062
 11
101.062
 20
255.495
 21
255.495
  0
ENDSEC
  0
SECTION
  2
OBJECTS
  0
DICTIONARY
  0
ENDSEC
  0
EOF
