  0
SECTION
  2
BLOCKS
  0
ENDSEC
  0
SECTION
  2
ENTITIES
  0
LINE
  8
0
 10
-388.313
 11
-388.313
 20
-210.188
 21
-200.971
  0
LINE
  8
0
 10
-388.313
 11
-385.313
 20
-200.971
 21
-200.971
  0
LINE
  8
0
 10
-385.313
 11
-385.313
 20
-200.971
 21
-192.006
  0
LINE
  8
0
 10
-385.313
 11
-388.313
 20
-192.006
 21
-192.006
  0
LINE
  8
0
 10
-388.313
 11
-388.313
 20
-192.006
 21
-182.789
  0
LINE
  8
0
 10
-388.313
 11
-385.313
 20
-182.789
 21
-182.789
  0
LINE
  8
0
 10
-385.313
 11
-385.313
 20
-182.789
 21
-173.824
  0
LINE
  8
0
 10
-385.313
 11
-388.313
 20
-173.824
 21
-173.824
  0
LINE
  8
0
 10
-388.313
 11
-388.313
 20
-173.824
 21
-164.607
  0
LINE
  8
0
 10
-388.313
 11
-385.313
 20
-164.607
 21
-164.607
  0
LINE
  8
0
 10
-385.313
 11
-385.313
 20
-164.607
 21
-155.642
  0
LINE
  8
0
 10
-385.313
 11
-388.313
 20
-155.642
 21
-155.642
  0
LINE
  8
0
 10
-388.313
 11
-388.313
 20
-155.642
 21
-146.426
  0
LINE
  8
0
 10
-388.313
 11
-385.313
 20
-146.426
 21
-146.426
  0
LINE
  8
0
 10
-385.313
 11
-385.313
 20
-146.426
 21
-137.461
  0
LINE
  8
0
 10
-385.313
 11
-388.313
 20
-137.461
 21
-137.461
  0
LINE
  8
0
 10
-388.313
 11
-388.313
 20
-137.461
 21
-128.244
  0
LINE
  8
0
 10
-388.313
 11
-385.313
 20
-128.244
 21
-128.244
  0
LINE
  8
0
 10
-385.313
 11
-385.313
 20
-128.244
 21
-119.279
  0
LINE
  8
0
 10
-385.313
 11
-388.313
 20
-119.279
 21
-119.279
  0
LINE
  8
0
 10
-388.313
 11
-388.313
 20
-119.279
 21
-110.062
  0
LINE
  8
0
 10
-388.313
 11
-375.005
 20
-110.062
 21
-110.062
  0
LINE
  8
0
 10
-375.005
 11
-375.005
 20
-110.062
 21
-107.062
  0
LINE
  8
0
 10
-375.005
 11
-364.572
 20
-107.062
 21
-107.062
  0
LINE
  8
0
 10
-364.572
 11
-364.572
 20
-107.062
 21
-110.062
  0
LINE
  8
0
 10
-364.572
 11
-354.39
 20
-110.062
 21
-110.062
  0
LINE
  8
0
 10
-354.39
 11
-354.39
 20
-110.062
 21
-107.062
  0
LINE
  8
0
 10
-354.39
 11
-343.956
 20
-107.062
 21
-107.062
  0
LINE
  8
0
 10
-343.956
 11
-343.956
 20
-107.062
 21
-110.062
  0
LINE
  8
0
 10
-343.956
 11
-333.774
 20
-110.062
 21
-110.062
  0
LINE
  8
0
 10
-333.774
 11
-333.774
 20
-110.062
 21
-107.062
  0
LINE
  8
0
 10
-333.774
 11
-323.341
 20
-107.062
 21
-107.062
  0
LINE
  8
0
 10
-323.341
 11
-323.341
 20
-107.062
 21
-110.062
  0
LINE
  8
0
 10
-323.341
 11
-313.159
 20
-110.062
 21
-110.062
  0
LINE
  8
0
 10
-313.159
 11
-313.159
 20
-110.062
 21
-107.062
  0
LINE
  8
0
 10
-313.159
 11
-302.725
 20
-107.062
 21
-107.062
  0
LINE
  8
0
 10
-302.725
 11
-302.725
 20
-107.062
 21
-110.062
  0
LINE
  8
0
 10
-302.725
 11
-292.543
 20
-110.062
 21
-110.062
  0
LINE
  8
0
 10
-292.543
 11
-292.543
 20
-110.062
 21
-107.062
  0
LINE
  8
0
 10
-292.543
 11
-282.11
 20
-107.062
 21
-107.062
  0
LINE
  8
0
 10
-282.11
 11
-282.11
 20
-107.062
 21
-110.062
  0
LINE
  8
0
 10
-282.11
 11
-271.928
 20
-110.062
 21
-110.062
  0
LINE
  8
0
 10
-271.928
 11
-271.928
 20
-110.062
 21
-107.062
  0
LINE
  8
0
 10
-271.928
 11
-261.495
 20
-107.062
 21
-107.062
  0
LINE
  8
0
 10
-261.495
 11
-261.495
 20
-107.062
 21
-110.062
  0
LINE
  8
0
 10
-261.495
 11
-251.75
 20
-110.062
 21
-110.062
  0
LINE
  8
0
 10
-251.75
 11
-251.75
 20
-110.062
 21
-210.188
  0
LINE
  8
0
 10
-251.75
 11
-261.495
 20
-210.188
 21
-210.188
  0
LINE
  8
0
 10
-261.495
 11
-261.495
 20
-210.188
 21
-213.188
  0
LINE
  8
0
 10
-261.495
 11
-271.928
 20
-213.188
 21
-213.188
  0
LINE
  8
0
 10
-271.928
 11
-271.928
 20
-213.188
 21
-210.188
  0
LINE
  8
0
 10
-271.928
 11
-282.11
 20
-210.188
 21
-210.188
  0
LINE
  8
0
 10
-282.11
 11
-282.11
 20
-210.188
 21
-213.188
  0
LINE
  8
0
 10
-282.11
 11
-292.544
 20
-213.188
 21
-213.188
  0
LINE
  8
0
 10
-292.544
 11
-292.544
 20
-213.188
 21
-210.188
  0
LINE
  8
0
 10
-292.544
 11
-302.726
 20
-210.188
 21
-210.188
  0
LINE
  8
0
 10
-302.726
 11
-302.726
 20
-210.188
 21
-213.188
  0
LINE
  8
0
 10
-302.726
 11
-313.159
 20
-213.188
 21
-213.188
  0
LINE
  8
0
 10
-313.159
 11
-313.159
 20
-213.188
 21
-210.188
  0
LINE
  8
0
 10
-313.159
 11
-323.341
 20
-210.188
 21
-210.188
  0
LINE
  8
0
 10
-323.341
 11
-323.341
 20
-210.188
 21
-213.188
  0
LINE
  8
0
 10
-323.341
 11
-333.775
 20
-213.188
 21
-213.188
  0
LINE
  8
0
 10
-333.775
 11
-333.775
 20
-213.188
 21
-210.188
  0
LINE
  8
0
 10
-333.775
 11
-343.957
 20
-210.188
 21
-210.188
  0
LINE
  8
0
 10
-343.957
 11
-343.957
 20
-210.188
 21
-213.188
  0
LINE
  8
0
 10
-343.957
 11
-354.39
 20
-213.188
 21
-213.188
  0
LINE
  8
0
 10
-354.39
 11
-354.39
 20
-213.188
 21
-210.188
  0
LINE
  8
0
 10
-354.39
 11
-364.572
 20
-210.188
 21
-210.188
  0
LINE
  8
0
 10
-364.572
 11
-364.572
 20
-210.188
 21
-213.188
  0
LINE
  8
0
 10
-364.572
 11
-375.005
 20
-213.188
 21
-213.188
  0
LINE
  8
0
 10
-375.005
 11
-375.005
 20
-213.188
 21
-210.188
  0
LINE
  8
0
 10
-375.005
 11
-388.313
 20
-210.188
 21
-210.188
  0
LINE
  8
0
 10
-388.313
 11
-388.313
 20
-103.063
 21
-93.846
  0
LINE
  8
0
 10
-388.313
 11
-385.313
 20
-93.846
 21
-93.846
  0
LINE
  8
0
 10
-385.313
 11
-385.313
 20
-93.846
 21
-84.881
  0
LINE
  8
0
 10
-385.313
 11
-388.313
 20
-84.881
 21
-84.881
  0
LINE
  8
0
 10
-388.313
 11
-388.313
 20
-84.881
 21
-75.664
  0
LINE
  8
0
 10
-388.313
 11
-385.313
 20
-75.664
 21
-75.664
  0
LINE
  8
0
 10
-385.313
 11
-385.313
 20
-75.664
 21
-66.699
  0
LINE
  8
0
 10
-385.313
 11
-388.313
 20
-66.699
 21
-66.699
  0
LINE
  8
0
 10
-388.313
 11
-388.313
 20
-66.699
 21
-57.482
  0
LINE
  8
0
 10
-388.313
 11
-385.313
 20
-57.482
 21
-57.482
  0
LINE
  8
0
 10
-385.313
 11
-385.313
 20
-57.482
 21
-48.517
  0
LINE
  8
0
 10
-385.313
 11
-388.313
 20
-48.517
 21
-48.517
  0
LINE
  8
0
 10
-388.313
 11
-388.313
 20
-48.517
 21
-39.301
  0
LINE
  8
0
 10
-388.313
 11
-385.313
 20
-39.301
 21
-39.301
  0
LINE
  8
0
 10
-385.313
 11
-385.313
 20
-39.301
 21
-30.336
  0
LINE
  8
0
 10
-385.313
 11
-388.313
 20
-30.336
 21
-30.336
  0
LINE
  8
0
 10
-388.313
 11
-388.313
 20
-30.336
 21
-21.119
  0
LINE
  8
0
 10
-388.313
 11
-385.313
 20
-21.119
 21
-21.119
  0
LINE
  8
0
 10
-385.313
 11
-385.313
 20
-21.119
 21
-12.154
  0
LINE
  8
0
 10
-385.313
 11
-388.313
 20
-12.154
 21
-12.154
  0
LINE
  8
0
 10
-388.313
 11
-388.313
 20
-12.154
 21
-2.937
  0
LINE
  8
0
 10
-388.313
 11
-375.005
 20
-2.937
 21
-2.937
  0
LINE
  8
0
 10
-375.005
 11
-375.005
 20
-2.937
 21
0.063
  0
LINE
  8
0
 10
-375.005
 11
-364.572
 20
0.063
 21
0.063
  0
LINE
  8
0
 10
-364.572
 11
-364.572
 20
0.063
 21
-2.937
  0
LINE
  8
0
 10
-364.572
 11
-354.39
 20
-2.937
 21
-2.937
  0
LINE
  8
0
 10
-354.39
 11
-354.39
 20
-2.937
 21
0.063
  0
LINE
  8
0
 10
-354.39
 11
-343.956
 20
0.063
 21
0.063
  0
LINE
  8
0
 10
-343.956
 11
-343.956
 20
0.063
 21
-2.937
  0
LINE
  8
0
 10
-343.956
 11
-333.774
 20
-2.937
 21
-2.937
  0
LINE
  8
0
 10
-333.774
 11
-333.774
 20
-2.937
 21
0.063
  0
LINE
  8
0
 10
-333.774
 11
-323.341
 20
0.063
 21
0.063
  0
LINE
  8
0
 10
-323.341
 11
-323.341
 20
0.063
 21
-2.937
  0
LINE
  8
0
 10
-323.341
 11
-313.159
 20
-2.937
 21
-2.937
  0
LINE
  8
0
 10
-313.159
 11
-313.159
 20
-2.937
 21
0.063
  0
LINE
  8
0
 10
-313.159
 11
-302.725
 20
0.063
 21
0.063
  0
LINE
  8
0
 10
-302.725
 11
-302.725
 20
0.063
 21
-2.937
  0
LINE
  8
0
 10
-302.725
 11
-292.543
 20
-2.937
 21
-2.937
  0
LINE
  8
0
 10
-292.543
 11
-292.543
 20
-2.937
 21
0.063
  0
LINE
  8
0
 10
-292.543
 11
-282.11
 20
0.063
 21
0.063
  0
LINE
  8
0
 10
-282.11
 11
-282.11
 20
0.063
 21
-2.937
  0
LINE
  8
0
 10
-282.11
 11
-271.928
 20
-2.937
 21
-2.937
  0
LINE
  8
0
 10
-271.928
 11
-271.928
 20
-2.937
 21
0.063
  0
LINE
  8
0
 10
-271.928
 11
-261.495
 20
0.063
 21
0.063
  0
LINE
  8
0
 10
-261.495
 11
-261.495
 20
0.063
 21
-2.937
  0
LINE
  8
0
 10
-261.495
 11
-251.75
 20
-2.937
 21
-2.937
  0
LINE
  8
0
 10
-251.75
 11
-251.75
 20
-2.937
 21
-103.063
  0
LINE
  8
0
 10
-251.75
 11
-261.495
 20
-103.063
 21
-103.063
  0
LINE
  8
0
 10
-261.495
 11
-261.495
 20
-103.063
 21
-106.063
  0
LINE
  8
0
 10
-261.495
 11
-271.928
 20
-106.063
 21
-106.063
  0
LINE
  8
0
 10
-271.928
 11
-271.928
 20
-106.063
 21
-103.063
  0
LINE
  8
0
 10
-271.928
 11
-282.11
 20
-103.063
 21
-103.063
  0
LINE
  8
0
 10
-282.11
 11
-282.11
 20
-103.063
 21
-106.063
  0
LINE
  8
0
 10
-282.11
 11
-292.544
 20
-106.063
 21
-106.063
  0
LINE
  8
0
 10
-292.544
 11
-292.544
 20
-106.063
 21
-103.063
  0
LINE
  8
0
 10
-292.544
 11
-302.726
 20
-103.063
 21
-103.063
  0
LINE
  8
0
 10
-302.726
 11
-302.726
 20
-103.063
 21
-106.063
  0
LINE
  8
0
 10
-302.726
 11
-313.159
 20
-106.063
 21
-106.063
  0
LINE
  8
0
 10
-313.159
 11
-313.159
 20
-106.063
 21
-103.063
  0
LINE
  8
0
 10
-313.159
 11
-323.341
 20
-103.063
 21
-103.063
  0
LINE
  8
0
 10
-323.341
 11
-323.341
 20
-103.063
 21
-106.063
  0
LINE
  8
0
 10
-323.341
 11
-333.775
 20
-106.063
 21
-106.063
  0
LINE
  8
0
 10
-333.775
 11
-333.775
 20
-106.063
 21
-103.063
  0
LINE
  8
0
 10
-333.775
 11
-343.957
 20
-103.063
 21
-103.063
  0
LINE
  8
0
 10
-343.957
 11
-343.957
 20
-103.063
 21
-106.063
  0
LINE
  8
0
 10
-343.957
 11
-354.39
 20
-106.063
 21
-106.063
  0
LINE
  8
0
 10
-354.39
 11
-354.39
 20
-106.063
 21
-103.063
  0
LINE
  8
0
 10
-354.39
 11
-364.572
 20
-103.063
 21
-103.063
  0
LINE
  8
0
 10
-364.572
 11
-364.572
 20
-103.063
 21
-106.063
  0
LINE
  8
0
 10
-364.572
 11
-375.005
 20
-106.063
 21
-106.063
  0
LINE
  8
0
 10
-375.005
 11
-375.005
 20
-106.063
 21
-103.063
  0
LINE
  8
0
 10
-375.005
 11
-388.313
 20
-103.063
 21
-103.063
  0
LINE
  8
0
 10
-381.4
 11
-381.4
 20
-204.602
 21
-187.336
  0
LINE
  8
0
 10
-381.4
 11
-380.353
 20
-187.336
 21
-187.627
  0
LINE
  8
0
 10
-380.353
 11
-374.658
 20
-187.627
 21
-204.628
  0
LINE
  8
0
 10
-374.658
 11
-381.4
 20
-204.628
 21
-204.602
  0
LINE
  8
0
 10
-381.4
 11
-381.4
 20
-185.368
 21
-165.078
  0
LINE
  8
0
 10
-381.4
 11
-365.602
 20
-165.078
 21
-170.575
  0
LINE
  8
0
 10
-365.602
 11
-367.178
 20
-170.575
 21
-178.636
  0
LINE
  8
0
 10
-367.178
 11
-379.774
 20
-178.636
 21
-185.815
  0
LINE
  8
0
 10
-379.774
 11
-381.4
 20
-185.815
 21
-185.368
  0
LINE
  8
0
 10
-381.4
 11
-381.4
 20
-163.079
 21
-153.659
  0
LINE
  8
0
 10
-381.4
 11
-371.924
 20
-153.659
 21
-146.412
  0
LINE
  8
0
 10
-371.924
 11
-359.923
 20
-146.412
 21
-154.353
  0
LINE
  8
0
 10
-359.923
 11
-363.591
 20
-154.353
 21
-167.866
  0
LINE
  8
0
 10
-363.591
 11
-364.749
 20
-167.866
 21
-168.865
  0
LINE
  8
0
 10
-364.749
 11
-381.4
 20
-168.865
 21
-163.079
  0
LINE
  8
0
 10
-381.4
 11
-381.4
 20
-151.305
 21
-131.445
  0
LINE
  8
0
 10
-381.4
 11
-380.031
 20
-131.445
 21
-131.358
  0
LINE
  8
0
 10
-380.031
 11
-373.999
 20
-131.358
 21
-136.285
  0
LINE
  8
0
 10
-373.999
 11
-372.921
 20
-136.285
 21
-144.82
  0
LINE
  8
0
 10
-372.921
 11
-381.4
 20
-144.82
 21
-151.305
  0
LINE
  8
0
 10
-381.4
 11
-381.4
 20
-129.54
 21
-114
  0
LINE
  8
0
 10
-381.4
 11
-374.716
 20
-114
 21
-114
  0
LINE
  8
0
 10
-374.716
 11
-380.369
 20
-114
 21
-129.478
  0
LINE
  8
0
 10
-380.369
 11
-381.4
 20
-129.478
 21
-129.54
  0
LINE
  8
0
 10
-381.4
 11
-381.4
 20
-98.602
 21
-81.336
  0
LINE
  8
0
 10
-381.4
 11
-380.353
 20
-81.336
 21
-81.627
  0
LINE
  8
0
 10
-380.353
 11
-374.658
 20
-81.627
 21
-98.628
  0
LINE
  8
0
 10
-374.658
 11
-381.4
 20
-98.628
 21
-98.602
  0
LINE
  8
0
 10
-381.4
 11
-381.4
 20
-79.368
 21
-59.078
  0
LINE
  8
0
 10
-381.4
 11
-365.602
 20
-59.078
 21
-64.575
  0
LINE
  8
0
 10
-365.602
 11
-367.178
 20
-64.575
 21
-72.636
  0
LINE
  8
0
 10
-367.178
 11
-379.774
 20
-72.636
 21
-79.816
  0
LINE
  8
0
 10
-379.774
 11
-381.4
 20
-79.816
 21
-79.368
  0
LINE
  8
0
 10
-381.4
 11
-381.4
 20
-57.079
 21
-47.659
  0
LINE
  8
0
 10
-381.4
 11
-371.924
 20
-47.659
 21
-40.412
  0
LINE
  8
0
 10
-371.924
 11
-359.923
 20
-40.412
 21
-48.353
  0
LINE
  8
0
 10
-359.923
 11
-363.591
 20
-48.353
 21
-61.866
  0
LINE
  8
0
 10
-363.591
 11
-364.749
 20
-61.866
 21
-62.865
  0
LINE
  8
0
 10
-364.749
 11
-381.4
 20
-62.865
 21
-57.079
  0
LINE
  8
0
 10
-381.4
 11
-381.4
 20
-45.305
 21
-25.445
  0
LINE
  8
0
 10
-381.4
 11
-380.031
 20
-25.445
 21
-25.358
  0
LINE
  8
0
 10
-380.031
 11
-373.999
 20
-25.358
 21
-30.285
  0
LINE
  8
0
 10
-373.999
 11
-372.921
 20
-30.285
 21
-38.82
  0
LINE
  8
0
 10
-372.921
 11
-381.4
 20
-38.82
 21
-45.305
  0
LINE
  8
0
 10
-381.4
 11
-381.4
 20
-23.54
 21
-8
  0
LINE
  8
0
 10
-381.4
 11
-374.716
 20
-8
 21
-8
  0
LINE
  8
0
 10
-374.716
 11
-380.369
 20
-8
 21
-23.478
  0
LINE
  8
0
 10
-380.369
 11
-381.4
 20
-23.478
 21
-23.54
  0
LINE
  8
0
 10
-378.664
 11
-372.786
 20
-130.071
 21
-114
  0
LINE
  8
0
 10
-372.786
 11
-361.903
 20
-114
 21
-114
  0
LINE
  8
0
 10
-361.903
 11
-357.752
 20
-114
 21
-123.315
  0
LINE
  8
0
 10
-357.752
 11
-359.907
 20
-123.315
 21
-128.056
  0
LINE
  8
0
 10
-359.907
 11
-373.034
 20
-128.056
 21
-134.677
  0
LINE
  8
0
 10
-373.034
 11
-378.664
 20
-134.677
 21
-130.071
  0
LINE
  8
0
 10
-378.664
 11
-372.786
 20
-24.071
 21
-8
  0
LINE
  8
0
 10
-372.786
 11
-361.903
 20
-8
 21
-8
  0
LINE
  8
0
 10
-361.903
 11
-357.752
 20
-8
 21
-17.315
  0
LINE
  8
0
 10
-357.752
 11
-359.907
 20
-17.315
 21
-22.056
  0
LINE
  8
0
 10
-359.907
 11
-373.034
 20
-22.056
 21
-28.677
  0
LINE
  8
0
 10
-373.034
 11
-378.664
 20
-28.677
 21
-24.071
  0
LINE
  8
0
 10
-378.552
 11
-366.68
 20
-187.289
 21
-180.515
  0
LINE
  8
0
 10
-366.68
 11
-358.91
 20
-180.515
 21
-193.046
  0
LINE
  8
0
 10
-358.91
 11
-372.68
 20
-193.046
 21
-204.815
  0
LINE
  8
0
 10
-372.68
 11
-378.552
 20
-204.815
 21
-187.289
  0
LINE
  8
0
 10
-378.552
 11
-366.68
 20
-81.289
 21
-74.515
  0
LINE
  8
0
 10
-366.68
 11
-358.91
 20
-74.515
 21
-87.046
  0
LINE
  8
0
 10
-358.91
 11
-372.68
 20
-87.046
 21
-98.815
  0
LINE
  8
0
 10
-372.68
 11
-378.552
 20
-98.815
 21
-81.289
  0
LINE
  8
0
 10
-372.165
 11
-359.714
 20
-136.336
 21
-130.071
  0
LINE
  8
0
 10
-359.714
 11
-352.716
 20
-130.071
 21
-148.901
  0
LINE
  8
0
 10
-352.716
 11
-358.861
 20
-148.901
 21
-152.812
  0
LINE
  8
0
 10
-358.861
 11
-371.119
 20
-152.812
 21
-144.702
  0
LINE
  8
0
 10
-371.119
 11
-372.165
 20
-144.702
 21
-136.336
  0
LINE
  8
0
 10
-372.165
 11
-359.714
 20
-30.336
 21
-24.071
  0
LINE
  8
0
 10
-359.714
 11
-352.716
 20
-24.071
 21
-42.901
  0
LINE
  8
0
 10
-352.716
 11
-358.861
 20
-42.901
 21
-46.812
  0
LINE
  8
0
 10
-358.861
 11
-371.119
 20
-46.812
 21
-38.702
  0
LINE
  8
0
 10
-371.119
 11
-372.165
 20
-38.702
 21
-30.336
  0
LINE
  8
0
 10
-371.207
 11
-357.478
 20
-206
 21
-194.265
  0
LINE
  8
0
 10
-357.478
 11
-354.26
 20
-194.265
 21
-195.01
  0
LINE
  8
0
 10
-354.26
 11
-352.577
 20
-195.01
 21
-206
  0
LINE
  8
0
 10
-352.577
 11
-371.207
 20
-206
 21
-206
  0
LINE
  8
0
 10
-371.207
 11
-357.478
 20
-100
 21
-88.265
  0
LINE
  8
0
 10
-357.478
 11
-354.26
 20
-88.265
 21
-89.01
  0
LINE
  8
0
 10
-354.26
 11
-352.577
 20
-89.01
 21
-100
  0
LINE
  8
0
 10
-352.577
 11
-371.207
 20
-100
 21
-100
  0
LINE
  8
0
 10
-365.425
 11
-363.736
 20
-179.059
 21
-170.457
  0
LINE
  8
0
 10
-363.736
 11
-362.61
 20
-170.457
 21
-169.475
  0
LINE
  8
0
 10
-362.61
 11
-344.689
 20
-169.475
 21
-175.605
  0
LINE
  8
0
 10
-344.689
 11
-343.804
 20
-175.605
 21
-188.847
  0
LINE
  8
0
 10
-343.804
 11
-353.553
 20
-188.847
 21
-193.232
  0
LINE
  8
0
 10
-353.553
 11
-357.156
 20
-193.232
 21
-192.386
  0
LINE
  8
0
 10
-357.156
 11
-365.425
 20
-192.386
 21
-179.059
  0
LINE
  8
0
 10
-365.425
 11
-363.736
 20
-73.059
 21
-64.457
  0
LINE
  8
0
 10
-363.736
 11
-362.61
 20
-64.457
 21
-63.475
  0
LINE
  8
0
 10
-362.61
 11
-344.689
 20
-63.475
 21
-69.605
  0
LINE
  8
0
 10
-344.689
 11
-343.804
 20
-69.605
 21
-82.846
  0
LINE
  8
0
 10
-343.804
 11
-353.553
 20
-82.846
 21
-87.232
  0
LINE
  8
0
 10
-353.553
 11
-357.156
 20
-87.232
 21
-86.386
  0
LINE
  8
0
 10
-357.156
 11
-365.425
 20
-86.386
 21
-73.059
  0
LINE
  8
0
 10
-361.693
 11
-358.106
 20
-167.781
 21
-154.54
  0
LINE
  8
0
 10
-358.106
 11
-351.333
 20
-154.54
 21
-150.238
  0
LINE
  8
0
 10
-351.333
 11
-348.099
 20
-150.238
 21
-150.069
  0
LINE
  8
0
 10
-348.099
 11
-340.539
 20
-150.069
 21
-157.215
  0
LINE
  8
0
 10
-340.539
 11
-340.748
 20
-157.215
 21
-170.152
  0
LINE
  8
0
 10
-340.748
 11
-344.078
 20
-170.152
 21
-173.827
  0
LINE
  8
0
 10
-344.078
 11
-361.693
 20
-173.827
 21
-167.781
  0
LINE
  8
0
 10
-361.693
 11
-358.106
 20
-61.781
 21
-48.54
  0
LINE
  8
0
 10
-358.106
 11
-351.333
 20
-48.54
 21
-44.239
  0
LINE
  8
0
 10
-351.333
 11
-348.099
 20
-44.239
 21
-44.069
  0
LINE
  8
0
 10
-348.099
 11
-340.539
 20
-44.069
 21
-51.215
  0
LINE
  8
0
 10
-340.539
 11
-340.748
 20
-51.215
 21
-64.152
  0
LINE
  8
0
 10
-340.748
 11
-344.078
 20
-64.152
 21
-67.827
  0
LINE
  8
0
 10
-344.078
 11
-361.693
 20
-67.827
 21
-61.781
  0
LINE
  8
0
 10
-359.91
 11
-338.267
 20
-114
 21
-114
  0
LINE
  8
0
 10
-338.267
 11
-344.576
 20
-114
 21
-123.721
  0
LINE
  8
0
 10
-344.576
 11
-356.159
 20
-123.721
 21
-122.434
  0
LINE
  8
0
 10
-356.159
 11
-359.91
 20
-122.434
 21
-114
  0
LINE
  8
0
 10
-359.91
 11
-338.267
 20
-8
 21
-8
  0
LINE
  8
0
 10
-338.267
 11
-344.576
 20
-8
 21
-17.721
  0
LINE
  8
0
 10
-344.576
 11
-356.159
 20
-17.721
 21
-16.434
  0
LINE
  8
0
 10
-356.159
 11
-359.91
 20
-16.434
 21
-8
  0
LINE
  8
0
 10
-358.25
 11
-356.207
 20
-128.801
 21
-124.33
  0
LINE
  8
0
 10
-356.207
 11
-344.689
 20
-124.33
 21
-125.617
  0
LINE
  8
0
 10
-344.689
 11
-339.348
 20
-125.617
 21
-135.337
  0
LINE
  8
0
 10
-339.348
 11
-348.244
 20
-135.337
 21
-148.173
  0
LINE
  8
0
 10
-348.244
 11
-350.995
 20
-148.173
 21
-148.308
  0
LINE
  8
0
 10
-350.995
 11
-358.25
 20
-148.308
 21
-128.801
  0
LINE
  8
0
 10
-358.25
 11
-356.207
 20
-22.801
 21
-18.33
  0
LINE
  8
0
 10
-356.207
 11
-344.689
 20
-18.33
 21
-19.617
  0
LINE
  8
0
 10
-344.689
 11
-339.348
 20
-19.617
 21
-29.337
  0
LINE
  8
0
 10
-339.348
 11
-348.244
 20
-29.337
 21
-42.173
  0
LINE
  8
0
 10
-348.244
 11
-350.995
 20
-42.173
 21
-42.308
  0
LINE
  8
0
 10
-350.995
 11
-358.25
 20
-42.308
 21
-22.801
  0
LINE
  8
0
 10
-352.459
 11
-342.887
 20
-194.807
 21
-190.506
  0
LINE
  8
0
 10
-342.887
 11
-332.833
 20
-190.506
 21
-195.688
  0
LINE
  8
0
 10
-332.833
 11
-332.114
 20
-195.688
 21
-206
  0
LINE
  8
0
 10
-332.114
 11
-350.75
 20
-206
 21
-206
  0
LINE
  8
0
 10
-350.75
 11
-352.459
 20
-206
 21
-194.807
  0
LINE
  8
0
 10
-352.459
 11
-342.887
 20
-88.807
 21
-84.506
  0
LINE
  8
0
 10
-342.887
 11
-332.833
 20
-84.506
 21
-89.688
  0
LINE
  8
0
 10
-332.833
 11
-332.114
 20
-89.688
 21
-100
  0
LINE
  8
0
 10
-332.114
 11
-350.75
 20
-100
 21
-100
  0
LINE
  8
0
 10
-350.75
 11
-352.459
 20
-100
 21
-88.807
  0
LINE
  8
0
 10
-346.555
 11
-337.82
 20
-148.969
 21
-136.37
  0
LINE
  8
0
 10
-337.82
 11
-327.846
 20
-136.37
 21
-136.641
  0
LINE
  8
0
 10
-327.846
 11
-322.666
 20
-136.641
 21
-149.273
  0
LINE
  8
0
 10
-322.666
 11
-325.964
 20
-149.273
 21
-153.32
  0
LINE
  8
0
 10
-325.964
 11
-339.348
 20
-153.32
 21
-155.776
  0
LINE
  8
0
 10
-339.348
 11
-346.555
 20
-155.776
 21
-148.969
  0
LINE
  8
0
 10
-346.555
 11
-337.82
 20
-42.969
 21
-30.37
  0
LINE
  8
0
 10
-337.82
 11
-327.846
 20
-30.37
 21
-30.641
  0
LINE
  8
0
 10
-327.846
 11
-322.666
 20
-30.641
 21
-43.273
  0
LINE
  8
0
 10
-322.666
 11
-325.964
 20
-43.273
 21
-47.32
  0
LINE
  8
0
 10
-325.964
 11
-339.348
 20
-47.32
 21
-49.776
  0
LINE
  8
0
 10
-339.348
 11
-346.555
 20
-49.776
 21
-42.969
  0
LINE
  8
0
 10
-343.064
 11
-336.079
 20
-124.771
 21
-114
  0
LINE
  8
0
 10
-336.079
 11
-326.579
 20
-114
 21
-114
  0
LINE
  8
0
 10
-326.579
 11
-322.152
 20
-114
 21
-126.651
  0
LINE
  8
0
 10
-322.152
 11
-327.702
 20
-126.651
 21
-134.745
  0
LINE
  8
0
 10
-327.702
 11
-337.74
 20
-134.745
 21
-134.473
  0
LINE
  8
0
 10
-337.74
 11
-343.064
 20
-134.473
 21
-124.771
  0
LINE
  8
0
 10
-343.064
 11
-336.079
 20
-18.771
 21
-8
  0
LINE
  8
0
 10
-336.079
 11
-326.579
 20
-8
 21
-8
  0
LINE
  8
0
 10
-326.579
 11
-322.152
 20
-8
 21
-20.651
  0
LINE
  8
0
 10
-322.152
 11
-327.702
 20
-20.651
 21
-28.745
  0
LINE
  8
0
 10
-327.702
 11
-337.74
 20
-28.745
 21
-28.473
  0
LINE
  8
0
 10
-337.74
 11
-343.064
 20
-28.473
 21
-18.771
  0
LINE
  8
0
 10
-342.904
 11
-339.525
 20
-175.266
 21
-171.558
  0
LINE
  8
0
 10
-339.525
 11
-322.795
 20
-171.558
 21
-174.267
  0
LINE
  8
0
 10
-322.795
 11
-318.017
 20
-174.267
 21
-179.11
  0
LINE
  8
0
 10
-318.017
 11
-318.404
 20
-179.11
 21
-183.953
  0
LINE
  8
0
 10
-318.404
 11
-332.045
 20
-183.953
 21
-193.977
  0
LINE
  8
0
 10
-332.045
 11
-341.986
 20
-193.977
 21
-188.847
  0
LINE
  8
0
 10
-341.986
 11
-342.904
 20
-188.847
 21
-175.266
  0
LINE
  8
0
 10
-342.904
 11
-339.525
 20
-69.266
 21
-65.558
  0
LINE
  8
0
 10
-339.525
 11
-322.795
 20
-65.558
 21
-68.267
  0
LINE
  8
0
 10
-322.795
 11
-318.017
 20
-68.267
 21
-73.11
  0
LINE
  8
0
 10
-318.017
 11
-318.404
 20
-73.11
 21
-77.953
  0
LINE
  8
0
 10
-318.404
 11
-332.045
 20
-77.953
 21
-87.977
  0
LINE
  8
0
 10
-332.045
 11
-341.986
 20
-87.977
 21
-82.846
  0
LINE
  8
0
 10
-341.986
 11
-342.904
 20
-82.846
 21
-69.266
  0
LINE
  8
0
 10
-338.946
 11
-338.737
 20
-169.729
 21
-157.588
  0
LINE
  8
0
 10
-338.737
 11
-326.222
 20
-157.588
 21
-155.302
  0
LINE
  8
0
 10
-326.222
 11
-323.487
 20
-155.302
 21
-172.235
  0
LINE
  8
0
 10
-323.487
 11
-338.946
 20
-172.235
 21
-169.729
  0
LINE
  8
0
 10
-338.946
 11
-338.737
 20
-63.729
 21
-51.588
  0
LINE
  8
0
 10
-338.737
 11
-326.222
 20
-51.588
 21
-49.302
  0
LINE
  8
0
 10
-326.222
 11
-323.487
 20
-49.302
 21
-66.235
  0
LINE
  8
0
 10
-323.487
 11
-338.946
 20
-66.235
 21
-63.729
  0
LINE
  8
0
 10
-331.032
 11
-317.631
 20
-195.552
 21
-185.697
  0
LINE
  8
0
 10
-317.631
 11
-304.81
 20
-185.697
 21
-198.16
  0
LINE
  8
0
 10
-304.81
 11
-305.71
 20
-198.16
 21
-206
  0
LINE
  8
0
 10
-305.71
 11
-330.301
 20
-206
 21
-206
  0
LINE
  8
0
 10
-330.301
 11
-331.032
 20
-206
 21
-195.552
  0
LINE
  8
0
 10
-331.032
 11
-317.631
 20
-89.552
 21
-79.697
  0
LINE
  8
0
 10
-317.631
 11
-304.81
 20
-79.697
 21
-92.16
  0
LINE
  8
0
 10
-304.81
 11
-305.71
 20
-92.16
 21
-100
  0
LINE
  8
0
 10
-305.71
 11
-330.301
 20
-100
 21
-100
  0
LINE
  8
0
 10
-330.301
 11
-331.032
 20
-100
 21
-89.552
  0
LINE
  8
0
 10
-326.205
 11
-320.704
 20
-135.828
 21
-127.785
  0
LINE
  8
0
 10
-320.704
 11
-311.711
 20
-127.785
 21
-128.598
  0
LINE
  8
0
 10
-311.711
 11
-305.566
 20
-128.598
 21
-144.261
  0
LINE
  8
0
 10
-305.566
 11
-307.078
 20
-144.261
 21
-149.883
  0
LINE
  8
0
 10
-307.078
 11
-320.993
 20
-149.883
 21
-148.545
  0
LINE
  8
0
 10
-320.993
 11
-326.205
 20
-148.545
 21
-135.828
  0
LINE
  8
0
 10
-326.205
 11
-320.704
 20
-29.828
 21
-21.785
  0
LINE
  8
0
 10
-320.704
 11
-311.711
 20
-21.785
 21
-22.598
  0
LINE
  8
0
 10
-311.711
 11
-305.566
 20
-22.598
 21
-38.261
  0
LINE
  8
0
 10
-305.566
 11
-307.078
 20
-38.261
 21
-43.883
  0
LINE
  8
0
 10
-307.078
 11
-320.993
 20
-43.883
 21
-42.545
  0
LINE
  8
0
 10
-320.993
 11
-326.205
 20
-42.545
 21
-29.828
  0
LINE
  8
0
 10
-324.65
 11
-302.899
 20
-114
 21
-114
  0
LINE
  8
0
 10
-302.899
 11
-303.588
 20
-114
 21
-119.945
  0
LINE
  8
0
 10
-303.588
 11
-311.374
 20
-119.945
 21
-126.718
  0
LINE
  8
0
 10
-311.374
 11
-320.495
 20
-126.718
 21
-125.905
  0
LINE
  8
0
 10
-320.495
 11
-324.65
 20
-125.905
 21
-114
  0
LINE
  8
0
 10
-324.65
 11
-302.899
 20
-8
 21
-8
  0
LINE
  8
0
 10
-302.899
 11
-303.588
 20
-8
 21
-13.945
  0
LINE
  8
0
 10
-303.588
 11
-311.374
 20
-13.945
 21
-20.718
  0
LINE
  8
0
 10
-311.374
 11
-320.495
 20
-20.718
 21
-19.905
  0
LINE
  8
0
 10
-320.495
 11
-324.65
 20
-19.905
 21
-8
  0
LINE
  8
0
 10
-324.533
 11
-321.235
 20
-154.489
 21
-150.425
  0
LINE
  8
0
 10
-321.235
 11
-306.918
 20
-150.425
 21
-151.813
  0
LINE
  8
0
 10
-306.918
 11
-305.55
 20
-151.813
 21
-154.015
  0
LINE
  8
0
 10
-305.55
 11
-310.698
 20
-154.015
 21
-172.049
  0
LINE
  8
0
 10
-310.698
 11
-317.02
 20
-172.049
 21
-177.467
  0
LINE
  8
0
 10
-317.02
 11
-321.54
 20
-177.467
 21
-172.912
  0
LINE
  8
0
 10
-321.54
 11
-324.533
 20
-172.912
 21
-154.489
  0
LINE
  8
0
 10
-324.533
 11
-321.235
 20
-48.489
 21
-44.425
  0
LINE
  8
0
 10
-321.235
 11
-306.918
 20
-44.425
 21
-45.813
  0
LINE
  8
0
 10
-306.918
 11
-305.55
 20
-45.813
 21
-48.015
  0
LINE
  8
0
 10
-305.55
 11
-310.698
 20
-48.015
 21
-66.049
  0
LINE
  8
0
 10
-310.698
 11
-317.02
 20
-66.049
 21
-71.467
  0
LINE
  8
0
 10
-317.02
 11
-321.54
 20
-71.467
 21
-66.912
  0
LINE
  8
0
 10
-321.54
 11
-324.533
 20
-66.912
 21
-48.489
  0
LINE
  8
0
 10
-316.618
 11
-316.216
 20
-184.105
 21
-179.211
  0
LINE
  8
0
 10
-316.216
 11
-309.684
 20
-179.211
 21
-173.64
  0
LINE
  8
0
 10
-309.684
 11
-291.474
 20
-173.64
 21
-177.958
  0
LINE
  8
0
 10
-291.474
 11
-294.29
 20
-177.958
 21
-191.793
  0
LINE
  8
0
 10
-294.29
 11
-303.7
 20
-191.793
 21
-196.653
  0
LINE
  8
0
 10
-303.7
 11
-316.618
 20
-196.653
 21
-184.105
  0
LINE
  8
0
 10
-316.618
 11
-316.216
 20
-78.105
 21
-73.211
  0
LINE
  8
0
 10
-316.216
 11
-309.684
 20
-73.211
 21
-67.64
  0
LINE
  8
0
 10
-309.684
 11
-291.474
 20
-67.64
 21
-71.958
  0
LINE
  8
0
 10
-291.474
 11
-294.29
 20
-71.958
 21
-85.793
  0
LINE
  8
0
 10
-294.29
 11
-303.7
 20
-85.793
 21
-90.653
  0
LINE
  8
0
 10
-303.7
 11
-316.618
 20
-90.653
 21
-78.105
  0
LINE
  8
0
 10
-310.006
 11
-302.735
 20
-127.971
 21
-121.672
  0
LINE
  8
0
 10
-302.735
 11
-292.633
 20
-121.672
 21
-130.224
  0
LINE
  8
0
 10
-292.633
 11
-292.472
 20
-130.224
 21
-133.966
  0
LINE
  8
0
 10
-292.472
 11
-304.215
 20
-133.966
 21
-142.737
  0
LINE
  8
0
 10
-304.215
 11
-310.006
 20
-142.737
 21
-127.971
  0
LINE
  8
0
 10
-310.006
 11
-302.735
 20
-21.971
 21
-15.672
  0
LINE
  8
0
 10
-302.735
 11
-292.633
 20
-15.672
 21
-24.224
  0
LINE
  8
0
 10
-292.633
 11
-292.472
 20
-24.224
 21
-27.966
  0
LINE
  8
0
 10
-292.472
 11
-304.215
 20
-27.966
 21
-36.737
  0
LINE
  8
0
 10
-304.215
 11
-310.006
 20
-36.737
 21
-21.971
  0
LINE
  8
0
 10
-308.784
 11
-303.942
 20
-171.896
 21
-154.997
  0
LINE
  8
0
 10
-303.942
 11
-292.037
 20
-154.997
 21
-158.18
  0
LINE
  8
0
 10
-292.037
 11
-289.608
 20
-158.18
 21
-175.215
  0
LINE
  8
0
 10
-289.608
 11
-290.67
 20
-175.215
 21
-176.197
  0
LINE
  8
0
 10
-290.67
 11
-308.784
 20
-176.197
 21
-171.896
  0
LINE
  8
0
 10
-308.784
 11
-303.942
 20
-65.896
 21
-48.997
  0
LINE
  8
0
 10
-303.942
 11
-292.037
 20
-48.997
 21
-52.18
  0
LINE
  8
0
 10
-292.037
 11
-289.608
 20
-52.18
 21
-69.215
  0
LINE
  8
0
 10
-289.608
 11
-290.67
 20
-69.215
 21
-70.197
  0
LINE
  8
0
 10
-290.67
 11
-308.784
 20
-70.197
 21
-65.896
  0
LINE
  8
0
 10
-305.438
 11
-303.829
 20
-150.747
 21
-144.786
  0
LINE
  8
0
 10
-303.829
 11
-291.587
 20
-144.786
 21
-135.625
  0
LINE
  8
0
 10
-291.587
 11
-281.163
 20
-135.625
 21
-144.667
  0
LINE
  8
0
 10
-281.163
 11
-280.294
 20
-144.667
 21
-149.172
  0
LINE
  8
0
 10
-280.294
 11
-280.568
 20
-149.172
 21
-149.917
  0
LINE
  8
0
 10
-280.568
 11
-291.362
 20
-149.917
 21
-156.402
  0
LINE
  8
0
 10
-291.362
 11
-304.006
 20
-156.402
 21
-153.033
  0
LINE
  8
0
 10
-304.006
 11
-305.438
 20
-153.033
 21
-150.747
  0
LINE
  8
0
 10
-305.438
 11
-303.829
 20
-44.747
 21
-38.786
  0
LINE
  8
0
 10
-303.829
 11
-291.587
 20
-38.786
 21
-29.625
  0
LINE
  8
0
 10
-291.587
 11
-281.163
 20
-29.625
 21
-38.667
  0
LINE
  8
0
 10
-281.163
 11
-280.294
 20
-38.667
 21
-43.172
  0
LINE
  8
0
 10
-280.294
 11
-280.568
 20
-43.172
 21
-43.917
  0
LINE
  8
0
 10
-280.568
 11
-291.362
 20
-43.917
 21
-50.402
  0
LINE
  8
0
 10
-291.362
 11
-304.006
 20
-50.402
 21
-47.033
  0
LINE
  8
0
 10
-304.006
 11
-305.438
 20
-47.033
 21
-44.747
  0
LINE
  8
0
 10
-303.888
 11
-303.025
 20
-206
 21
-198.414
  0
LINE
  8
0
 10
-303.025
 11
-293.485
 20
-198.414
 21
-193.503
  0
LINE
  8
0
 10
-293.485
 11
-284.139
 20
-193.503
 21
-198.075
  0
LINE
  8
0
 10
-284.139
 11
-283.619
 20
-198.075
 21
-206
  0
LINE
  8
0
 10
-283.619
 11
-303.888
 20
-206
 21
-206
  0
LINE
  8
0
 10
-303.888
 11
-303.025
 20
-100
 21
-92.414
  0
LINE
  8
0
 10
-303.025
 11
-293.485
 20
-92.414
 21
-87.503
  0
LINE
  8
0
 10
-293.485
 11
-284.139
 20
-87.503
 21
-92.075
  0
LINE
  8
0
 10
-284.139
 11
-283.619
 20
-92.075
 21
-100
  0
LINE
  8
0
 10
-283.619
 11
-303.888
 20
-100
 21
-100
  0
LINE
  8
0
 10
-301.786
 11
-301.082
 20
-120.03
 21
-114
  0
LINE
  8
0
 10
-301.082
 11
-285.359
 20
-114
 21
-114
  0
LINE
  8
0
 10
-285.359
 11
-282.965
 20
-114
 21
-120.707
  0
LINE
  8
0
 10
-282.965
 11
-291.748
 20
-120.707
 21
-128.53
  0
LINE
  8
0
 10
-291.748
 11
-301.786
 20
-128.53
 21
-120.03
  0
LINE
  8
0
 10
-301.786
 11
-301.082
 20
-14.03
 21
-8
  0
LINE
  8
0
 10
-301.082
 11
-285.359
 20
-8
 21
-8
  0
LINE
  8
0
 10
-285.359
 11
-282.965
 20
-8
 21
-14.707
  0
LINE
  8
0
 10
-282.965
 11
-291.748
 20
-14.707
 21
-22.53
  0
LINE
  8
0
 10
-291.748
 11
-301.786
 20
-22.53
 21
-14.03
  0
LINE
  8
0
 10
-292.456
 11
-289.592
 20
-191.912
 21
-177.738
  0
LINE
  8
0
 10
-289.592
 11
-288.305
 20
-177.738
 21
-176.536
  0
LINE
  8
0
 10
-288.305
 11
-273.232
 20
-176.536
 21
-177.112
  0
LINE
  8
0
 10
-273.232
 11
-269.371
 20
-177.112
 21
-185.358
  0
LINE
  8
0
 10
-269.371
 11
-270.948
 20
-185.358
 21
-190.591
  0
LINE
  8
0
 10
-270.948
 11
-283.27
 20
-190.591
 21
-196.399
  0
LINE
  8
0
 10
-283.27
 11
-292.456
 20
-196.399
 21
-191.912
  0
LINE
  8
0
 10
-292.456
 11
-289.592
 20
-85.911
 21
-71.738
  0
LINE
  8
0
 10
-289.592
 11
-288.305
 20
-71.738
 21
-70.536
  0
LINE
  8
0
 10
-288.305
 11
-273.232
 20
-70.536
 21
-71.112
  0
LINE
  8
0
 10
-273.232
 11
-269.371
 20
-71.112
 21
-79.358
  0
LINE
  8
0
 10
-269.371
 11
-270.948
 20
-79.358
 21
-84.591
  0
LINE
  8
0
 10
-270.948
 11
-283.27
 20
-84.591
 21
-90.399
  0
LINE
  8
0
 10
-283.27
 11
-292.456
 20
-90.399
 21
-85.911
  0
LINE
  8
0
 10
-290.815
 11
-281.726
 20
-130.189
 21
-122.079
  0
LINE
  8
0
 10
-281.726
 11
-271.253
 20
-122.079
 21
-126.278
  0
LINE
  8
0
 10
-271.253
 11
-280.568
 20
-126.278
 21
-142.72
  0
LINE
  8
0
 10
-280.568
 11
-290.67
 20
-142.72
 21
-133.966
  0
LINE
  8
0
 10
-290.67
 11
-290.815
 20
-133.966
 21
-130.189
  0
LINE
  8
0
 10
-290.815
 11
-281.726
 20
-24.189
 21
-16.079
  0
LINE
  8
0
 10
-281.726
 11
-271.253
 20
-16.079
 21
-20.278
  0
LINE
  8
0
 10
-271.253
 11
-280.568
 20
-20.278
 21
-36.72
  0
LINE
  8
0
 10
-280.568
 11
-290.67
 20
-36.72
 21
-27.966
  0
LINE
  8
0
 10
-290.67
 11
-290.815
 20
-27.966
 21
-24.189
  0
LINE
  8
0
 10
-290.252
 11
-280.149
 20
-157.909
 21
-151.864
  0
LINE
  8
0
 10
-280.149
 11
-270.658
 20
-151.864
 21
-168.002
  0
LINE
  8
0
 10
-270.658
 11
-273.28
 20
-168.002
 21
-175.215
  0
LINE
  8
0
 10
-273.28
 11
-287.855
 20
-175.215
 21
-174.656
  0
LINE
  8
0
 10
-287.855
 11
-290.252
 20
-174.656
 21
-157.909
  0
LINE
  8
0
 10
-290.252
 11
-280.149
 20
-51.909
 21
-45.864
  0
LINE
  8
0
 10
-280.149
 11
-270.658
 20
-45.864
 21
-62.002
  0
LINE
  8
0
 10
-270.658
 11
-273.28
 20
-62.002
 21
-69.215
  0
LINE
  8
0
 10
-273.28
 11
-287.855
 20
-69.215
 21
-68.656
  0
LINE
  8
0
 10
-287.855
 11
-290.252
 20
-68.656
 21
-51.909
  0
LINE
  8
0
 10
-283.429
 11
-264.356
 20
-114
 21
-114
  0
LINE
  8
0
 10
-264.356
 11
-265.462
 20
-114
 21
-123.535
  0
LINE
  8
0
 10
-265.462
 11
-269.886
 20
-123.535
 21
-124.788
  0
LINE
  8
0
 10
-269.886
 11
-281.195
 20
-124.788
 21
-120.267
  0
LINE
  8
0
 10
-281.195
 11
-283.429
 20
-120.267
 21
-114
  0
LINE
  8
0
 10
-283.429
 11
-264.356
 20
-8
 21
-8
  0
LINE
  8
0
 10
-264.356
 11
-265.462
 20
-8
 21
-17.535
  0
LINE
  8
0
 10
-265.462
 11
-269.886
 20
-17.535
 21
-18.788
  0
LINE
  8
0
 10
-269.886
 11
-281.195
 20
-18.788
 21
-14.267
  0
LINE
  8
0
 10
-281.195
 11
-283.429
 20
-14.267
 21
-8
  0
LINE
  8
0
 10
-282.337
 11
-270.626
 20
-198.041
 21
-192.521
  0
LINE
  8
0
 10
-270.626
 11
-266.09
 20
-192.521
 21
-201.919
  0
LINE
  8
0
 10
-266.09
 11
-269.008
 20
-201.919
 21
-206
  0
LINE
  8
0
 10
-269.008
 11
-281.811
 20
-206
 21
-206
  0
LINE
  8
0
 10
-281.811
 11
-282.337
 20
-206
 21
-198.041
  0
LINE
  8
0
 10
-282.337
 11
-270.626
 20
-92.041
 21
-86.521
  0
LINE
  8
0
 10
-270.626
 11
-266.09
 20
-86.521
 21
-95.919
  0
LINE
  8
0
 10
-266.09
 11
-269.008
 20
-95.919
 21
-100
  0
LINE
  8
0
 10
-269.008
 11
-281.811
 20
-100
 21
-100
  0
LINE
  8
0
 10
-281.811
 11
-282.337
 20
-100
 21
-92.041
  0
LINE
  8
0
 10
-279.377
 11
-269.339
 20
-144.329
 21
-126.616
  0
LINE
  8
0
 10
-269.339
 11
-264.835
 20
-126.616
 21
-125.313
  0
LINE
  8
0
 10
-264.835
 11
-256
 20
-125.313
 21
-132.525
  0
LINE
  8
0
 10
-256
 11
-256
 20
-132.525
 21
-139.43
  0
LINE
  8
0
 10
-256
 11
-256.534
 20
-139.43
 21
-144.904
  0
LINE
  8
0
 10
-256.534
 11
-278.637
 20
-144.904
 21
-148.173
  0
LINE
  8
0
 10
-278.637
 11
-279.377
 20
-148.173
 21
-144.329
  0
LINE
  8
0
 10
-279.377
 11
-269.339
 20
-38.329
 21
-20.616
  0
LINE
  8
0
 10
-269.339
 11
-264.835
 20
-20.616
 21
-19.313
  0
LINE
  8
0
 10
-264.835
 11
-256
 20
-19.313
 21
-26.525
  0
LINE
  8
0
 10
-256
 11
-256
 20
-26.525
 21
-33.43
  0
LINE
  8
0
 10
-256
 11
-256.534
 20
-33.43
 21
-38.904
  0
LINE
  8
0
 10
-256.534
 11
-278.637
 20
-38.904
 21
-42.173
  0
LINE
  8
0
 10
-278.637
 11
-279.377
 20
-42.173
 21
-38.329
  0
LINE
  8
0
 10
-278.83
 11
-278.702
 20
-150.493
 21
-150.103
  0
LINE
  8
0
 10
-278.702
 11
-256.228
 20
-150.103
 21
-146.767
  0
LINE
  8
0
 10
-256.228
 11
-256
 20
-146.767
 21
-147.257
  0
LINE
  8
0
 10
-256
 11
-256
 20
-147.257
 21
-149.128
  0
LINE
  8
0
 10
-256
 11
-257.789
 20
-149.128
 21
-161.55
  0
LINE
  8
0
 10
-257.789
 11
-269.291
 20
-161.55
 21
-166.715
  0
LINE
  8
0
 10
-269.291
 11
-278.83
 20
-166.715
 21
-150.493
  0
LINE
  8
0
 10
-278.83
 11
-278.702
 20
-44.493
 21
-44.103
  0
LINE
  8
0
 10
-278.702
 11
-256.228
 20
-44.103
 21
-40.767
  0
LINE
  8
0
 10
-256.228
 11
-256
 20
-40.767
 21
-41.257
  0
LINE
  8
0
 10
-256
 11
-256
 20
-41.257
 21
-43.128
  0
LINE
  8
0
 10
-256
 11
-257.789
 20
-43.128
 21
-55.55
  0
LINE
  8
0
 10
-257.789
 11
-269.291
 20
-55.55
 21
-60.715
  0
LINE
  8
0
 10
-269.291
 11
-278.83
 20
-60.715
 21
-44.493
  0
LINE
  8
0
 10
-271.688
 11
-268.953
 20
-176.146
 21
-168.628
  0
LINE
  8
0
 10
-268.953
 11
-257.145
 20
-168.628
 21
-163.328
  0
LINE
  8
0
 10
-257.145
 11
-256
 20
-163.328
 21
-164.396
  0
LINE
  8
0
 10
-256
 11
-256
 20
-164.396
 21
-183.427
  0
LINE
  8
0
 10
-256
 11
-267.859
 20
-183.427
 21
-184.291
  0
LINE
  8
0
 10
-267.859
 11
-271.688
 20
-184.291
 21
-176.146
  0
LINE
  8
0
 10
-271.688
 11
-268.953
 20
-70.146
 21
-62.628
  0
LINE
  8
0
 10
-268.953
 11
-257.145
 20
-62.628
 21
-57.328
  0
LINE
  8
0
 10
-257.145
 11
-256
 20
-57.328
 21
-58.396
  0
LINE
  8
0
 10
-256
 11
-256
 20
-58.396
 21
-77.427
  0
LINE
  8
0
 10
-256
 11
-267.859
 20
-77.427
 21
-78.292
  0
LINE
  8
0
 10
-267.859
 11
-271.688
 20
-78.292
 21
-70.146
  0
LINE
  8
0
 10
-269.243
 11
-267.731
 20
-191.2
 21
-186.188
  0
LINE
  8
0
 10
-267.731
 11
-256
 20
-186.188
 21
-185.341
  0
LINE
  8
0
 10
-256
 11
-256
 20
-185.341
 21
-204.657
  0
LINE
  8
0
 10
-256
 11
-264.384
 20
-204.657
 21
-201.259
  0
LINE
  8
0
 10
-264.384
 11
-269.243
 20
-201.259
 21
-191.2
  0
LINE
  8
0
 10
-269.243
 11
-267.731
 20
-85.2
 21
-80.188
  0
LINE
  8
0
 10
-267.731
 11
-256
 20
-80.188
 21
-79.341
  0
LINE
  8
0
 10
-256
 11
-256
 20
-79.341
 21
-98.657
  0
LINE
  8
0
 10
-256
 11
-264.384
 20
-98.657
 21
-95.259
  0
LINE
  8
0
 10
-264.384
 11
-269.243
 20
-95.259
 21
-85.2
  0
LINE
  8
0
 10
-266.744
 11
-264.722
 20
-206
 21
-203.172
  0
LINE
  8
0
 10
-264.722
 11
-257.733
 20
-203.172
 21
-206
  0
LINE
  8
0
 10
-257.733
 11
-266.744
 20
-206
 21
-206
  0
LINE
  8
0
 10
-266.744
 11
-264.722
 20
-100
 21
-97.172
  0
LINE
  8
0
 10
-264.722
 11
-257.733
 20
-97.172
 21
-100
  0
LINE
  8
0
 10
-257.733
 11
-266.744
 20
-100
 21
-100
  0
LINE
  8
0
 10
-263.677
 11
-262.538
 20
-123.856
 21
-114
  0
LINE
  8
0
 10
-262.538
 11
-256
 20
-114
 21
-114
  0
LINE
  8
0
 10
-256
 11
-256
 20
-114
 21
-130.114
  0
LINE
  8
0
 10
-256
 11
-263.677
 20
-130.114
 21
-123.856
  0
LINE
  8
0
 10
-263.677
 11
-262.538
 20
-17.856
 21
-8
  0
LINE
  8
0
 10
-262.538
 11
-256
 20
-8
 21
-8
  0
LINE
  8
0
 10
-256
 11
-256
 20
-8
 21
-24.114
  0
LINE
  8
0
 10
-256
 11
-263.677
 20
-24.114
 21
-17.856
  0
LINE
  8
0
 10
-256.019
 11
-256
 20
-161.855
 21
-161.721
  0
LINE
  8
0
 10
-256
 11
-256
 20
-161.721
 21
-161.873
  0
LINE
  8
0
 10
-256
 11
-256.019
 20
-161.873
 21
-161.855
  0
LINE
  8
0
 10
-256.019
 11
-256
 20
-55.855
 21
-55.721
  0
LINE
  8
0
 10
-256
 11
-256
 20
-55.721
 21
-55.873
  0
LINE
  8
0
 10
-256
 11
-256.019
 20
-55.873
 21
-55.855
  0
LINE
  8
0
 10
-247.188
 11
-247.188
 20
-213.188
 21
-200.971
  0
LINE
  8
0
 10
-247.188
 11
-244.188
 20
-200.971
 21
-200.971
  0
LINE
  8
0
 10
-244.188
 11
-244.188
 20
-200.971
 21
-192.006
  0
LINE
  8
0
 10
-244.188
 11
-247.188
 20
-192.006
 21
-192.006
  0
LINE
  8
0
 10
-247.188
 11
-247.188
 20
-192.006
 21
-182.789
  0
LINE
  8
0
 10
-247.188
 11
-244.188
 20
-182.789
 21
-182.789
  0
LINE
  8
0
 10
-244.188
 11
-244.188
 20
-182.789
 21
-173.824
  0
LINE
  8
0
 10
-244.188
 11
-247.188
 20
-173.824
 21
-173.824
  0
LINE
  8
0
 10
-247.188
 11
-247.188
 20
-173.824
 21
-164.607
  0
LINE
  8
0
 10
-247.188
 11
-244.188
 20
-164.607
 21
-164.607
  0
LINE
  8
0
 10
-244.188
 11
-244.188
 20
-164.607
 21
-155.642
  0
LINE
  8
0
 10
-244.188
 11
-247.188
 20
-155.642
 21
-155.642
  0
LINE
  8
0
 10
-247.188
 11
-247.188
 20
-155.642
 21
-146.426
  0
LINE
  8
0
 10
-247.188
 11
-244.188
 20
-146.426
 21
-146.426
  0
LINE
  8
0
 10
-244.188
 11
-244.188
 20
-146.426
 21
-137.461
  0
LINE
  8
0
 10
-244.188
 11
-247.188
 20
-137.461
 21
-137.461
  0
LINE
  8
0
 10
-247.188
 11
-247.188
 20
-137.461
 21
-128.244
  0
LINE
  8
0
 10
-247.188
 11
-244.188
 20
-128.244
 21
-128.244
  0
LINE
  8
0
 10
-244.188
 11
-244.188
 20
-128.244
 21
-119.279
  0
LINE
  8
0
 10
-244.188
 11
-247.188
 20
-119.279
 21
-119.279
  0
LINE
  8
0
 10
-247.188
 11
-247.188
 20
-119.279
 21
-107.062
  0
LINE
  8
0
 10
-247.188
 11
-233.754
 20
-107.062
 21
-107.062
  0
LINE
  8
0
 10
-233.754
 11
-233.754
 20
-107.062
 21
-110.062
  0
LINE
  8
0
 10
-233.754
 11
-223.572
 20
-110.062
 21
-110.062
  0
LINE
  8
0
 10
-223.572
 11
-223.572
 20
-110.062
 21
-107.062
  0
LINE
  8
0
 10
-223.572
 11
-213.139
 20
-107.062
 21
-107.062
  0
LINE
  8
0
 10
-213.139
 11
-213.139
 20
-107.062
 21
-110.062
  0
LINE
  8
0
 10
-213.139
 11
-202.957
 20
-110.062
 21
-110.062
  0
LINE
  8
0
 10
-202.957
 11
-202.957
 20
-110.062
 21
-107.062
  0
LINE
  8
0
 10
-202.957
 11
-192.524
 20
-107.062
 21
-107.062
  0
LINE
  8
0
 10
-192.524
 11
-192.524
 20
-107.062
 21
-110.062
  0
LINE
  8
0
 10
-192.524
 11
-182.342
 20
-110.062
 21
-110.062
  0
LINE
  8
0
 10
-182.342
 11
-182.342
 20
-110.062
 21
-107.062
  0
LINE
  8
0
 10
-182.342
 11
-171.908
 20
-107.062
 21
-107.062
  0
LINE
  8
0
 10
-171.908
 11
-171.908
 20
-107.062
 21
-110.062
  0
LINE
  8
0
 10
-171.908
 11
-161.726
 20
-110.062
 21
-110.062
  0
LINE
  8
0
 10
-161.726
 11
-161.726
 20
-110.062
 21
-107.062
  0
LINE
  8
0
 10
-161.726
 11
-151.293
 20
-107.062
 21
-107.062
  0
LINE
  8
0
 10
-151.293
 11
-151.293
 20
-107.062
 21
-110.062
  0
LINE
  8
0
 10
-151.293
 11
-141.111
 20
-110.062
 21
-110.062
  0
LINE
  8
0
 10
-141.111
 11
-141.111
 20
-110.062
 21
-107.062
  0
LINE
  8
0
 10
-141.111
 11
-130.677
 20
-107.062
 21
-107.062
  0
LINE
  8
0
 10
-130.677
 11
-130.677
 20
-107.062
 21
-110.062
  0
LINE
  8
0
 10
-130.677
 11
-120.495
 20
-110.062
 21
-110.062
  0
LINE
  8
0
 10
-120.495
 11
-120.495
 20
-110.062
 21
-107.062
  0
LINE
  8
0
 10
-120.495
 11
-110.625
 20
-107.062
 21
-107.062
  0
LINE
  8
0
 10
-110.625
 11
-110.625
 20
-107.062
 21
-213.188
  0
LINE
  8
0
 10
-110.625
 11
-120.496
 20
-213.188
 21
-213.188
  0
LINE
  8
0
 10
-120.496
 11
-120.496
 20
-213.188
 21
-210.188
  0
LINE
  8
0
 10
-120.496
 11
-130.678
 20
-210.188
 21
-210.188
  0
LINE
  8
0
 10
-130.678
 11
-130.678
 20
-210.188
 21
-213.188
  0
LINE
  8
0
 10
-130.678
 11
-141.111
 20
-213.188
 21
-213.188
  0
LINE
  8
0
 10
-141.111
 11
-141.111
 20
-213.188
 21
-210.188
  0
LINE
  8
0
 10
-141.111
 11
-151.293
 20
-210.188
 21
-210.188
  0
LINE
  8
0
 10
-151.293
 11
-151.293
 20
-210.188
 21
-213.188
  0
LINE
  8
0
 10
-151.293
 11
-161.726
 20
-213.188
 21
-213.188
  0
LINE
  8
0
 10
-161.726
 11
-161.726
 20
-213.188
 21
-210.188
  0
LINE
  8
0
 10
-161.726
 11
-171.908
 20
-210.188
 21
-210.188
  0
LINE
  8
0
 10
-171.908
 11
-171.908
 20
-210.188
 21
-213.188
  0
LINE
  8
0
 10
-171.908
 11
-182.342
 20
-213.188
 21
-213.188
  0
LINE
  8
0
 10
-182.342
 11
-182.342
 20
-213.188
 21
-210.188
  0
LINE
  8
0
 10
-182.342
 11
-192.524
 20
-210.188
 21
-210.188
  0
LINE
  8
0
 10
-192.524
 11
-192.524
 20
-210.188
 21
-213.188
  0
LINE
  8
0
 10
-192.524
 11
-202.957
 20
-213.188
 21
-213.188
  0
LINE
  8
0
 10
-202.957
 11
-202.957
 20
-213.188
 21
-210.188
  0
LINE
  8
0
 10
-202.957
 11
-213.139
 20
-210.188
 21
-210.188
  0
LINE
  8
0
 10
-213.139
 11
-213.139
 20
-210.188
 21
-213.188
  0
LINE
  8
0
 10
-213.139
 11
-223.573
 20
-213.188
 21
-213.188
  0
LINE
  8
0
 10
-223.573
 11
-223.573
 20
-213.188
 21
-210.188
  0
LINE
  8
0
 10
-223.573
 11
-233.755
 20
-210.188
 21
-210.188
  0
LINE
  8
0
 10
-233.755
 11
-233.755
 20
-210.188
 21
-213.188
  0
LINE
  8
0
 10
-233.755
 11
-247.188
 20
-213.188
 21
-213.188
  0
LINE
  8
0
 10
-247.188
 11
-247.188
 20
-106.063
 21
-93.846
  0
LINE
  8
0
 10
-247.188
 11
-244.188
 20
-93.846
 21
-93.846
  0
LINE
  8
0
 10
-244.188
 11
-244.188
 20
-93.846
 21
-84.881
  0
LINE
  8
0
 10
-244.188
 11
-247.188
 20
-84.881
 21
-84.881
  0
LINE
  8
0
 10
-247.188
 11
-247.188
 20
-84.881
 21
-75.664
  0
LINE
  8
0
 10
-247.188
 11
-244.188
 20
-75.664
 21
-75.664
  0
LINE
  8
0
 10
-244.188
 11
-244.188
 20
-75.664
 21
-66.699
  0
LINE
  8
0
 10
-244.188
 11
-247.188
 20
-66.699
 21
-66.699
  0
LINE
  8
0
 10
-247.188
 11
-247.188
 20
-66.699
 21
-57.482
  0
LINE
  8
0
 10
-247.188
 11
-244.188
 20
-57.482
 21
-57.482
  0
LINE
  8
0
 10
-244.188
 11
-244.188
 20
-57.482
 21
-48.517
  0
LINE
  8
0
 10
-244.188
 11
-247.188
 20
-48.517
 21
-48.517
  0
LINE
  8
0
 10
-247.188
 11
-247.188
 20
-48.517
 21
-39.301
  0
LINE
  8
0
 10
-247.188
 11
-244.188
 20
-39.301
 21
-39.301
  0
LINE
  8
0
 10
-244.188
 11
-244.188
 20
-39.301
 21
-30.336
  0
LINE
  8
0
 10
-244.188
 11
-247.188
 20
-30.336
 21
-30.336
  0
LINE
  8
0
 10
-247.188
 11
-247.188
 20
-30.336
 21
-21.119
  0
LINE
  8
0
 10
-247.188
 11
-244.188
 20
-21.119
 21
-21.119
  0
LINE
  8
0
 10
-244.188
 11
-244.188
 20
-21.119
 21
-12.154
  0
LINE
  8
0
 10
-244.188
 11
-247.188
 20
-12.154
 21
-12.154
  0
LINE
  8
0
 10
-247.188
 11
-247.188
 20
-12.154
 21
0.063
  0
LINE
  8
0
 10
-247.188
 11
-233.754
 20
0.063
 21
0.063
  0
LINE
  8
0
 10
-233.754
 11
-233.754
 20
0.063
 21
-2.937
  0
LINE
  8
0
 10
-233.754
 11
-223.572
 20
-2.937
 21
-2.937
  0
LINE
  8
0
 10
-223.572
 11
-223.572
 20
-2.937
 21
0.063
  0
LINE
  8
0
 10
-223.572
 11
-213.139
 20
0.063
 21
0.063
  0
LINE
  8
0
 10
-213.139
 11
-213.139
 20
0.063
 21
-2.937
  0
LINE
  8
0
 10
-213.139
 11
-202.957
 20
-2.937
 21
-2.937
  0
LINE
  8
0
 10
-202.957
 11
-202.957
 20
-2.937
 21
0.063
  0
LINE
  8
0
 10
-202.957
 11
-192.524
 20
0.063
 21
0.063
  0
LINE
  8
0
 10
-192.524
 11
-192.524
 20
0.063
 21
-2.937
  0
LINE
  8
0
 10
-192.524
 11
-182.342
 20
-2.937
 21
-2.937
  0
LINE
  8
0
 10
-182.342
 11
-182.342
 20
-2.937
 21
0.063
  0
LINE
  8
0
 10
-182.342
 11
-171.908
 20
0.063
 21
0.063
  0
LINE
  8
0
 10
-171.908
 11
-171.908
 20
0.063
 21
-2.937
  0
LINE
  8
0
 10
-171.908
 11
-161.726
 20
-2.937
 21
-2.937
  0
LINE
  8
0
 10
-161.726
 11
-161.726
 20
-2.937
 21
0.063
  0
LINE
  8
0
 10
-161.726
 11
-151.293
 20
0.063
 21
0.063
  0
LINE
  8
0
 10
-151.293
 11
-151.293
 20
0.063
 21
-2.937
  0
LINE
  8
0
 10
-151.293
 11
-141.111
 20
-2.937
 21
-2.937
  0
LINE
  8
0
 10
-141.111
 11
-141.111
 20
-2.937
 21
0.063
  0
LINE
  8
0
 10
-141.111
 11
-130.677
 20
0.063
 21
0.063
  0
LINE
  8
0
 10
-130.677
 11
-130.677
 20
0.063
 21
-2.937
  0
LINE
  8
0
 10
-130.677
 11
-120.495
 20
-2.937
 21
-2.937
  0
LINE
  8
0
 10
-120.495
 11
-120.495
 20
-2.937
 21
0.063
  0
LINE
  8
0
 10
-120.495
 11
-110.625
 20
0.063
 21
0.063
  0
LINE
  8
0
 10
-110.625
 11
-110.625
 20
0.063
 21
-106.063
  0
LINE
  8
0
 10
-110.625
 11
-120.496
 20
-106.063
 21
-106.063
  0
LINE
  8
0
 10
-120.496
 11
-120.496
 20
-106.063
 21
-103.063
  0
LINE
  8
0
 10
-120.496
 11
-130.678
 20
-103.063
 21
-103.063
  0
LINE
  8
0
 10
-130.678
 11
-130.678
 20
-103.063
 21
-106.063
  0
LINE
  8
0
 10
-130.678
 11
-141.111
 20
-106.063
 21
-106.063
  0
LINE
  8
0
 10
-141.111
 11
-141.111
 20
-106.063
 21
-103.063
  0
LINE
  8
0
 10
-141.111
 11
-151.293
 20
-103.063
 21
-103.063
  0
LINE
  8
0
 10
-151.293
 11
-151.293
 20
-103.063
 21
-106.063
  0
LINE
  8
0
 10
-151.293
 11
-161.726
 20
-106.063
 21
-106.063
  0
LINE
  8
0
 10
-161.726
 11
-161.726
 20
-106.063
 21
-103.063
  0
LINE
  8
0
 10
-161.726
 11
-171.908
 20
-103.063
 21
-103.063
  0
LINE
  8
0
 10
-171.908
 11
-171.908
 20
-103.063
 21
-106.063
  0
LINE
  8
0
 10
-171.908
 11
-182.342
 20
-106.063
 21
-106.063
  0
LINE
  8
0
 10
-182.342
 11
-182.342
 20
-106.063
 21
-103.063
  0
LINE
  8
0
 10
-182.342
 11
-192.524
 20
-103.063
 21
-103.063
  0
LINE
  8
0
 10
-192.524
 11
-192.524
 20
-103.063
 21
-106.063
  0
LINE
  8
0
 10
-192.524
 11
-202.957
 20
-106.063
 21
-106.063
  0
LINE
  8
0
 10
-202.957
 11
-202.957
 20
-106.063
 21
-103.063
  0
LINE
  8
0
 10
-202.957
 11
-213.139
 20
-103.063
 21
-103.063
  0
LINE
  8
0
 10
-213.139
 11
-213.139
 20
-103.063
 21
-106.063
  0
LINE
  8
0
 10
-213.139
 11
-223.573
 20
-106.063
 21
-106.063
  0
LINE
  8
0
 10
-223.573
 11
-223.573
 20
-106.063
 21
-103.063
  0
LINE
  8
0
 10
-223.573
 11
-233.755
 20
-103.063
 21
-103.063
  0
LINE
  8
0
 10
-233.755
 11
-233.755
 20
-103.063
 21
-106.063
  0
LINE
  8
0
 10
-233.755
 11
-247.188
 20
-106.063
 21
-106.063
  0
LINE
  8
0
 10
-240.4
 11
-240.4
 20
-204.602
 21
-187.336
  0
LINE
  8
0
 10
-240.4
 11
-239.353
 20
-187.336
 21
-187.627
  0
LINE
  8
0
 10
-239.353
 11
-233.658
 20
-187.627
 21
-204.628
  0
LINE
  8
0
 10
-233.658
 11
-240.4
 20
-204.628
 21
-204.602
  0
LINE
  8
0
 10
-240.4
 11
-240.4
 20
-185.368
 21
-165.078
  0
LINE
  8
0
 10
-240.4
 11
-224.602
 20
-165.078
 21
-170.575
  0
LINE
  8
0
 10
-224.602
 11
-226.178
 20
-170.575
 21
-178.636
  0
LINE
  8
0
 10
-226.178
 11
-238.774
 20
-178.636
 21
-185.815
  0
LINE
  8
0
 10
-238.774
 11
-240.4
 20
-185.815
 21
-185.368
  0
LINE
  8
0
 10
-240.4
 11
-240.4
 20
-163.079
 21
-153.659
  0
LINE
  8
0
 10
-240.4
 11
-230.924
 20
-153.659
 21
-146.412
  0
LINE
  8
0
 10
-230.924
 11
-218.923
 20
-146.412
 21
-154.353
  0
LINE
  8
0
 10
-218.923
 11
-222.591
 20
-154.353
 21
-167.866
  0
LINE
  8
0
 10
-222.591
 11
-223.749
 20
-167.866
 21
-168.865
  0
LINE
  8
0
 10
-223.749
 11
-240.4
 20
-168.865
 21
-163.079
  0
LINE
  8
0
 10
-240.4
 11
-240.4
 20
-151.305
 21
-131.445
  0
LINE
  8
0
 10
-240.4
 11
-239.031
 20
-131.445
 21
-131.358
  0
LINE
  8
0
 10
-239.031
 11
-232.999
 20
-131.358
 21
-136.285
  0
LINE
  8
0
 10
-232.999
 11
-231.921
 20
-136.285
 21
-144.82
  0
LINE
  8
0
 10
-231.921
 11
-240.4
 20
-144.82
 21
-151.305
  0
LINE
  8
0
 10
-240.4
 11
-240.4
 20
-129.54
 21
-114
  0
LINE
  8
0
 10
-240.4
 11
-233.716
 20
-114
 21
-114
  0
LINE
  8
0
 10
-233.716
 11
-239.369
 20
-114
 21
-129.478
  0
LINE
  8
0
 10
-239.369
 11
-240.4
 20
-129.478
 21
-129.54
  0
LINE
  8
0
 10
-240.4
 11
-240.4
 20
-98.602
 21
-81.336
  0
LINE
  8
0
 10
-240.4
 11
-239.353
 20
-81.336
 21
-81.627
  0
LINE
  8
0
 10
-239.353
 11
-233.658
 20
-81.627
 21
-98.628
  0
LINE
  8
0
 10
-233.658
 11
-240.4
 20
-98.628
 21
-98.602
  0
LINE
  8
0
 10
-240.4
 11
-240.4
 20
-79.368
 21
-59.078
  0
LINE
  8
0
 10
-240.4
 11
-224.602
 20
-59.078
 21
-64.575
  0
LINE
  8
0
 10
-224.602
 11
-226.178
 20
-64.575
 21
-72.636
  0
LINE
  8
0
 10
-226.178
 11
-238.774
 20
-72.636
 21
-79.816
  0
LINE
  8
0
 10
-238.774
 11
-240.4
 20
-79.816
 21
-79.368
  0
LINE
  8
0
 10
-240.4
 11
-240.4
 20
-57.079
 21
-47.659
  0
LINE
  8
0
 10
-240.4
 11
-230.924
 20
-47.659
 21
-40.412
  0
LINE
  8
0
 10
-230.924
 11
-218.923
 20
-40.412
 21
-48.353
  0
LINE
  8
0
 10
-218.923
 11
-222.591
 20
-48.353
 21
-61.866
  0
LINE
  8
0
 10
-222.591
 11
-223.749
 20
-61.866
 21
-62.865
  0
LINE
  8
0
 10
-223.749
 11
-240.4
 20
-62.865
 21
-57.079
  0
LINE
  8
0
 10
-240.4
 11
-240.4
 20
-45.305
 21
-25.445
  0
LINE
  8
0
 10
-240.4
 11
-239.031
 20
-25.445
 21
-25.358
  0
LINE
  8
0
 10
-239.031
 11
-232.999
 20
-25.358
 21
-30.285
  0
LINE
  8
0
 10
-232.999
 11
-231.921
 20
-30.285
 21
-38.82
  0
LINE
  8
0
 10
-231.921
 11
-240.4
 20
-38.82
 21
-45.305
  0
LINE
  8
0
 10
-240.4
 11
-240.4
 20
-23.54
 21
-8
  0
LINE
  8
0
 10
-240.4
 11
-233.716
 20
-8
 21
-8
  0
LINE
  8
0
 10
-233.716
 11
-239.369
 20
-8
 21
-23.478
  0
LINE
  8
0
 10
-239.369
 11
-240.4
 20
-23.478
 21
-23.54
  0
LINE
  8
0
 10
-237.664
 11
-231.786
 20
-130.071
 21
-114
  0
LINE
  8
0
 10
-231.786
 11
-220.903
 20
-114
 21
-114
  0
LINE
  8
0
 10
-220.903
 11
-216.752
 20
-114
 21
-123.315
  0
LINE
  8
0
 10
-216.752
 11
-218.907
 20
-123.315
 21
-128.056
  0
LINE
  8
0
 10
-218.907
 11
-232.034
 20
-128.056
 21
-134.677
  0
LINE
  8
0
 10
-232.034
 11
-237.664
 20
-134.677
 21
-130.071
  0
LINE
  8
0
 10
-237.664
 11
-231.786
 20
-24.071
 21
-8
  0
LINE
  8
0
 10
-231.786
 11
-220.903
 20
-8
 21
-8
  0
LINE
  8
0
 10
-220.903
 11
-216.752
 20
-8
 21
-17.315
  0
LINE
  8
0
 10
-216.752
 11
-218.907
 20
-17.315
 21
-22.056
  0
LINE
  8
0
 10
-218.907
 11
-232.034
 20
-22.056
 21
-28.677
  0
LINE
  8
0
 10
-232.034
 11
-237.664
 20
-28.677
 21
-24.071
  0
LINE
  8
0
 10
-237.552
 11
-225.68
 20
-187.289
 21
-180.515
  0
LINE
  8
0
 10
-225.68
 11
-217.91
 20
-180.515
 21
-193.046
  0
LINE
  8
0
 10
-217.91
 11
-231.68
 20
-193.046
 21
-204.815
  0
LINE
  8
0
 10
-231.68
 11
-237.552
 20
-204.815
 21
-187.289
  0
LINE
  8
0
 10
-237.552
 11
-225.68
 20
-81.289
 21
-74.515
  0
LINE
  8
0
 10
-225.68
 11
-217.91
 20
-74.515
 21
-87.046
  0
LINE
  8
0
 10
-217.91
 11
-231.68
 20
-87.046
 21
-98.815
  0
LINE
  8
0
 10
-231.68
 11
-237.552
 20
-98.815
 21
-81.289
  0
LINE
  8
0
 10
-231.165
 11
-218.714
 20
-136.336
 21
-130.071
  0
LINE
  8
0
 10
-218.714
 11
-211.716
 20
-130.071
 21
-148.901
  0
LINE
  8
0
 10
-211.716
 11
-217.861
 20
-148.901
 21
-152.812
  0
LINE
  8
0
 10
-217.861
 11
-230.119
 20
-152.812
 21
-144.702
  0
LINE
  8
0
 10
-230.119
 11
-231.165
 20
-144.702
 21
-136.336
  0
LINE
  8
0
 10
-231.165
 11
-218.714
 20
-30.336
 21
-24.071
  0
LINE
  8
0
 10
-218.714
 11
-211.716
 20
-24.071
 21
-42.901
  0
LINE
  8
0
 10
-211.716
 11
-217.861
 20
-42.901
 21
-46.812
  0
LINE
  8
0
 10
-217.861
 11
-230.119
 20
-46.812
 21
-38.702
  0
LINE
  8
0
 10
-230.119
 11
-231.165
 20
-38.702
 21
-30.336
  0
LINE
  8
0
 10
-230.207
 11
-216.478
 20
-206
 21
-194.265
  0
LINE
  8
0
 10
-216.478
 11
-213.26
 20
-194.265
 21
-195.01
  0
LINE
  8
0
 10
-213.26
 11
-211.577
 20
-195.01
 21
-206
  0
LINE
  8
0
 10
-211.577
 11
-230.207
 20
-206
 21
-206
  0
LINE
  8
0
 10
-230.207
 11
-216.478
 20
-100
 21
-88.265
  0
LINE
  8
0
 10
-216.478
 11
-213.26
 20
-88.265
 21
-89.01
  0
LINE
  8
0
 10
-213.26
 11
-211.577
 20
-89.01
 21
-100
  0
LINE
  8
0
 10
-211.577
 11
-230.207
 20
-100
 21
-100
  0
LINE
  8
0
 10
-224.425
 11
-222.736
 20
-179.059
 21
-170.457
  0
LINE
  8
0
 10
-222.736
 11
-221.61
 20
-170.457
 21
-169.475
  0
LINE
  8
0
 10
-221.61
 11
-203.689
 20
-169.475
 21
-175.605
  0
LINE
  8
0
 10
-203.689
 11
-202.804
 20
-175.605
 21
-188.847
  0
LINE
  8
0
 10
-202.804
 11
-212.553
 20
-188.847
 21
-193.232
  0
LINE
  8
0
 10
-212.553
 11
-216.156
 20
-193.232
 21
-192.386
  0
LINE
  8
0
 10
-216.156
 11
-224.425
 20
-192.386
 21
-179.059
  0
LINE
  8
0
 10
-224.425
 11
-222.736
 20
-73.059
 21
-64.457
  0
LINE
  8
0
 10
-222.736
 11
-221.61
 20
-64.457
 21
-63.475
  0
LINE
  8
0
 10
-221.61
 11
-203.689
 20
-63.475
 21
-69.605
  0
LINE
  8
0
 10
-203.689
 11
-202.804
 20
-69.605
 21
-82.846
  0
LINE
  8
0
 10
-202.804
 11
-212.553
 20
-82.846
 21
-87.232
  0
LINE
  8
0
 10
-212.553
 11
-216.156
 20
-87.232
 21
-86.386
  0
LINE
  8
0
 10
-216.156
 11
-224.425
 20
-86.386
 21
-73.059
  0
LINE
  8
0
 10
-220.693
 11
-217.106
 20
-167.781
 21
-154.54
  0
LINE
  8
0
 10
-217.106
 11
-210.333
 20
-154.54
 21
-150.238
  0
LINE
  8
0
 10
-210.333
 11
-207.099
 20
-150.238
 21
-150.069
  0
LINE
  8
0
 10
-207.099
 11
-199.539
 20
-150.069
 21
-157.215
  0
LINE
  8
0
 10
-199.539
 11
-199.748
 20
-157.215
 21
-170.152
  0
LINE
  8
0
 10
-199.748
 11
-203.078
 20
-170.152
 21
-173.827
  0
LINE
  8
0
 10
-203.078
 11
-220.693
 20
-173.827
 21
-167.781
  0
LINE
  8
0
 10
-220.693
 11
-217.106
 20
-61.781
 21
-48.54
  0
LINE
  8
0
 10
-217.106
 11
-210.333
 20
-48.54
 21
-44.239
  0
LINE
  8
0
 10
-210.333
 11
-207.099
 20
-44.239
 21
-44.069
  0
LINE
  8
0
 10
-207.099
 11
-199.539
 20
-44.069
 21
-51.215
  0
LINE
  8
0
 10
-199.539
 11
-199.748
 20
-51.215
 21
-64.152
  0
LINE
  8
0
 10
-199.748
 11
-203.078
 20
-64.152
 21
-67.827
  0
LINE
  8
0
 10
-203.078
 11
-220.693
 20
-67.827
 21
-61.781
  0
LINE
  8
0
 10
-218.91
 11
-197.267
 20
-114
 21
-114
  0
LINE
  8
0
 10
-197.267
 11
-203.576
 20
-114
 21
-123.721
  0
LINE
  8
0
 10
-203.576
 11
-215.159
 20
-123.721
 21
-122.434
  0
LINE
  8
0
 10
-215.159
 11
-218.91
 20
-122.434
 21
-114
  0
LINE
  8
0
 10
-218.91
 11
-197.267
 20
-8
 21
-8
  0
LINE
  8
0
 10
-197.267
 11
-203.576
 20
-8
 21
-17.721
  0
LINE
  8
0
 10
-203.576
 11
-215.159
 20
-17.721
 21
-16.434
  0
LINE
  8
0
 10
-215.159
 11
-218.91
 20
-16.434
 21
-8
  0
LINE
  8
0
 10
-217.25
 11
-215.207
 20
-128.801
 21
-124.33
  0
LINE
  8
0
 10
-215.207
 11
-203.689
 20
-124.33
 21
-125.617
  0
LINE
  8
0
 10
-203.689
 11
-198.348
 20
-125.617
 21
-135.337
  0
LINE
  8
0
 10
-198.348
 11
-207.244
 20
-135.337
 21
-148.173
  0
LINE
  8
0
 10
-207.244
 11
-209.995
 20
-148.173
 21
-148.308
  0
LINE
  8
0
 10
-209.995
 11
-217.25
 20
-148.308
 21
-128.801
  0
LINE
  8
0
 10
-217.25
 11
-215.207
 20
-22.801
 21
-18.33
  0
LINE
  8
0
 10
-215.207
 11
-203.689
 20
-18.33
 21
-19.617
  0
LINE
  8
0
 10
-203.689
 11
-198.348
 20
-19.617
 21
-29.337
  0
LINE
  8
0
 10
-198.348
 11
-207.244
 20
-29.337
 21
-42.173
  0
LINE
  8
0
 10
-207.244
 11
-209.995
 20
-42.173
 21
-42.308
  0
LINE
  8
0
 10
-209.995
 11
-217.25
 20
-42.308
 21
-22.801
  0
LINE
  8
0
 10
-211.459
 11
-201.887
 20
-194.807
 21
-190.506
  0
LINE
  8
0
 10
-201.887
 11
-191.833
 20
-190.506
 21
-195.688
  0
LINE
  8
0
 10
-191.833
 11
-191.114
 20
-195.688
 21
-206
  0
LINE
  8
0
 10
-191.114
 11
-209.75
 20
-206
 21
-206
  0
LINE
  8
0
 10
-209.75
 11
-211.459
 20
-206
 21
-194.807
  0
LINE
  8
0
 10
-211.459
 11
-201.887
 20
-88.807
 21
-84.506
  0
LINE
  8
0
 10
-201.887
 11
-191.833
 20
-84.506
 21
-89.688
  0
LINE
  8
0
 10
-191.833
 11
-191.114
 20
-89.688
 21
-100
  0
LINE
  8
0
 10
-191.114
 11
-209.75
 20
-100
 21
-100
  0
LINE
  8
0
 10
-209.75
 11
-211.459
 20
-100
 21
-88.807
  0
LINE
  8
0
 10
-205.555
 11
-196.82
 20
-148.969
 21
-136.37
  0
LINE
  8
0
 10
-196.82
 11
-186.846
 20
-136.37
 21
-136.641
  0
LINE
  8
0
 10
-186.846
 11
-181.666
 20
-136.641
 21
-149.273
  0
LINE
  8
0
 10
-181.666
 11
-184.964
 20
-149.273
 21
-153.32
  0
LINE
  8
0
 10
-184.964
 11
-198.348
 20
-153.32
 21
-155.776
  0
LINE
  8
0
 10
-198.348
 11
-205.555
 20
-155.776
 21
-148.969
  0
LINE
  8
0
 10
-205.555
 11
-196.82
 20
-42.969
 21
-30.37
  0
LINE
  8
0
 10
-196.82
 11
-186.846
 20
-30.37
 21
-30.641
  0
LINE
  8
0
 10
-186.846
 11
-181.666
 20
-30.641
 21
-43.273
  0
LINE
  8
0
 10
-181.666
 11
-184.964
 20
-43.273
 21
-47.32
  0
LINE
  8
0
 10
-184.964
 11
-198.348
 20
-47.32
 21
-49.776
  0
LINE
  8
0
 10
-198.348
 11
-205.555
 20
-49.776
 21
-42.969
  0
LINE
  8
0
 10
-202.064
 11
-195.079
 20
-124.771
 21
-114
  0
LINE
  8
0
 10
-195.079
 11
-185.579
 20
-114
 21
-114
  0
LINE
  8
0
 10
-185.579
 11
-181.152
 20
-114
 21
-126.651
  0
LINE
  8
0
 10
-181.152
 11
-186.702
 20
-126.651
 21
-134.745
  0
LINE
  8
0
 10
-186.702
 11
-196.74
 20
-134.745
 21
-134.473
  0
LINE
  8
0
 10
-196.74
 11
-202.064
 20
-134.473
 21
-124.771
  0
LINE
  8
0
 10
-202.064
 11
-195.079
 20
-18.771
 21
-8
  0
LINE
  8
0
 10
-195.079
 11
-185.579
 20
-8
 21
-8
  0
LINE
  8
0
 10
-185.579
 11
-181.152
 20
-8
 21
-20.651
  0
LINE
  8
0
 10
-181.152
 11
-186.702
 20
-20.651
 21
-28.745
  0
LINE
  8
0
 10
-186.702
 11
-196.74
 20
-28.745
 21
-28.473
  0
LINE
  8
0
 10
-196.74
 11
-202.064
 20
-28.473
 21
-18.771
  0
LINE
  8
0
 10
-201.904
 11
-198.525
 20
-175.266
 21
-171.558
  0
LINE
  8
0
 10
-198.525
 11
-181.795
 20
-171.558
 21
-174.267
  0
LINE
  8
0
 10
-181.795
 11
-177.017
 20
-174.267
 21
-179.11
  0
LINE
  8
0
 10
-177.017
 11
-177.404
 20
-179.11
 21
-183.953
  0
LINE
  8
0
 10
-177.404
 11
-191.045
 20
-183.953
 21
-193.977
  0
LINE
  8
0
 10
-191.045
 11
-200.986
 20
-193.977
 21
-188.847
  0
LINE
  8
0
 10
-200.986
 11
-201.904
 20
-188.847
 21
-175.266
  0
LINE
  8
0
 10
-201.904
 11
-198.525
 20
-69.266
 21
-65.558
  0
LINE
  8
0
 10
-198.525
 11
-181.795
 20
-65.558
 21
-68.267
  0
LINE
  8
0
 10
-181.795
 11
-177.017
 20
-68.267
 21
-73.11
  0
LINE
  8
0
 10
-177.017
 11
-177.404
 20
-73.11
 21
-77.953
  0
LINE
  8
0
 10
-177.404
 11
-191.045
 20
-77.953
 21
-87.977
  0
LINE
  8
0
 10
-191.045
 11
-200.986
 20
-87.977
 21
-82.846
  0
LINE
  8
0
 10
-200.986
 11
-201.904
 20
-82.846
 21
-69.266
  0
LINE
  8
0
 10
-197.946
 11
-197.737
 20
-169.729
 21
-157.588
  0
LINE
  8
0
 10
-197.737
 11
-185.222
 20
-157.588
 21
-155.302
  0
LINE
  8
0
 10
-185.222
 11
-182.487
 20
-155.302
 21
-172.235
  0
LINE
  8
0
 10
-182.487
 11
-197.946
 20
-172.235
 21
-169.729
  0
LINE
  8
0
 10
-197.946
 11
-197.737
 20
-63.729
 21
-51.588
  0
LINE
  8
0
 10
-197.737
 11
-185.222
 20
-51.588
 21
-49.302
  0
LINE
  8
0
 10
-185.222
 11
-182.487
 20
-49.302
 21
-66.235
  0
LINE
  8
0
 10
-182.487
 11
-197.946
 20
-66.235
 21
-63.729
  0
LINE
  8
0
 10
-190.032
 11
-176.631
 20
-195.552
 21
-185.697
  0
LINE
  8
0
 10
-176.631
 11
-163.81
 20
-185.697
 21
-198.16
  0
LINE
  8
0
 10
-163.81
 11
-164.71
 20
-198.16
 21
-206
  0
LINE
  8
0
 10
-164.71
 11
-189.301
 20
-206
 21
-206
  0
LINE
  8
0
 10
-189.301
 11
-190.032
 20
-206
 21
-195.552
  0
LINE
  8
0
 10
-190.032
 11
-176.631
 20
-89.552
 21
-79.697
  0
LINE
  8
0
 10
-176.631
 11
-163.81
 20
-79.697
 21
-92.16
  0
LINE
  8
0
 10
-163.81
 11
-164.71
 20
-92.16
 21
-100
  0
LINE
  8
0
 10
-164.71
 11
-189.301
 20
-100
 21
-100
  0
LINE
  8
0
 10
-189.301
 11
-190.032
 20
-100
 21
-89.552
  0
LINE
  8
0
 10
-185.205
 11
-179.704
 20
-135.828
 21
-127.785
  0
LINE
  8
0
 10
-179.704
 11
-170.711
 20
-127.785
 21
-128.598
  0
LINE
  8
0
 10
-170.711
 11
-164.566
 20
-128.598
 21
-144.261
  0
LINE
  8
0
 10
-164.566
 11
-166.078
 20
-144.261
 21
-149.883
  0
LINE
  8
0
 10
-166.078
 11
-179.993
 20
-149.883
 21
-148.545
  0
LINE
  8
0
 10
-179.993
 11
-185.205
 20
-148.545
 21
-135.828
  0
LINE
  8
0
 10
-185.205
 11
-179.704
 20
-29.828
 21
-21.785
  0
LINE
  8
0
 10
-179.704
 11
-170.711
 20
-21.785
 21
-22.598
  0
LINE
  8
0
 10
-170.711
 11
-164.566
 20
-22.598
 21
-38.261
  0
LINE
  8
0
 10
-164.566
 11
-166.078
 20
-38.261
 21
-43.883
  0
LINE
  8
0
 10
-166.078
 11
-179.993
 20
-43.883
 21
-42.545
  0
LINE
  8
0
 10
-179.993
 11
-185.205
 20
-42.545
 21
-29.828
  0
LINE
  8
0
 10
-183.65
 11
-161.899
 20
-114
 21
-114
  0
LINE
  8
0
 10
-161.899
 11
-162.588
 20
-114
 21
-119.945
  0
LINE
  8
0
 10
-162.588
 11
-170.374
 20
-119.945
 21
-126.718
  0
LINE
  8
0
 10
-170.374
 11
-179.495
 20
-126.718
 21
-125.905
  0
LINE
  8
0
 10
-179.495
 11
-183.65
 20
-125.905
 21
-114
  0
LINE
  8
0
 10
-183.65
 11
-161.899
 20
-8
 21
-8
  0
LINE
  8
0
 10
-161.899
 11
-162.588
 20
-8
 21
-13.945
  0
LINE
  8
0
 10
-162.588
 11
-170.374
 20
-13.945
 21
-20.718
  0
LINE
  8
0
 10
-170.374
 11
-179.495
 20
-20.718
 21
-19.905
  0
LINE
  8
0
 10
-179.495
 11
-183.65
 20
-19.905
 21
-8
  0
LINE
  8
0
 10
-183.533
 11
-180.235
 20
-154.489
 21
-150.425
  0
LINE
  8
0
 10
-180.235
 11
-165.918
 20
-150.425
 21
-151.813
  0
LINE
  8
0
 10
-165.918
 11
-164.55
 20
-151.813
 21
-154.015
  0
LINE
  8
0
 10
-164.55
 11
-169.698
 20
-154.015
 21
-172.049
  0
LINE
  8
0
 10
-169.698
 11
-176.02
 20
-172.049
 21
-177.467
  0
LINE
  8
0
 10
-176.02
 11
-180.54
 20
-177.467
 21
-172.912
  0
LINE
  8
0
 10
-180.54
 11
-183.533
 20
-172.912
 21
-154.489
  0
LINE
  8
0
 10
-183.533
 11
-180.235
 20
-48.489
 21
-44.425
  0
LINE
  8
0
 10
-180.235
 11
-165.918
 20
-44.425
 21
-45.813
  0
LINE
  8
0
 10
-165.918
 11
-164.55
 20
-45.813
 21
-48.015
  0
LINE
  8
0
 10
-164.55
 11
-169.698
 20
-48.015
 21
-66.049
  0
LINE
  8
0
 10
-169.698
 11
-176.02
 20
-66.049
 21
-71.467
  0
LINE
  8
0
 10
-176.02
 11
-180.54
 20
-71.467
 21
-66.912
  0
LINE
  8
0
 10
-180.54
 11
-183.533
 20
-66.912
 21
-48.489
  0
LINE
  8
0
 10
-175.618
 11
-175.216
 20
-184.105
 21
-179.211
  0
LINE
  8
0
 10
-175.216
 11
-168.684
 20
-179.211
 21
-173.64
  0
LINE
  8
0
 10
-168.684
 11
-150.474
 20
-173.64
 21
-177.958
  0
LINE
  8
0
 10
-150.474
 11
-153.29
 20
-177.958
 21
-191.793
  0
LINE
  8
0
 10
-153.29
 11
-162.7
 20
-191.793
 21
-196.653
  0
LINE
  8
0
 10
-162.7
 11
-175.618
 20
-196.653
 21
-184.105
  0
LINE
  8
0
 10
-175.618
 11
-175.216
 20
-78.105
 21
-73.211
  0
LINE
  8
0
 10
-175.216
 11
-168.684
 20
-73.211
 21
-67.64
  0
LINE
  8
0
 10
-168.684
 11
-150.474
 20
-67.64
 21
-71.958
  0
LINE
  8
0
 10
-150.474
 11
-153.29
 20
-71.958
 21
-85.793
  0
LINE
  8
0
 10
-153.29
 11
-162.7
 20
-85.793
 21
-90.653
  0
LINE
  8
0
 10
-162.7
 11
-175.618
 20
-90.653
 21
-78.105
  0
LINE
  8
0
 10
-169.006
 11
-161.735
 20
-127.971
 21
-121.672
  0
LINE
  8
0
 10
-161.735
 11
-151.633
 20
-121.672
 21
-130.224
  0
LINE
  8
0
 10
-151.633
 11
-151.472
 20
-130.224
 21
-133.966
  0
LINE
  8
0
 10
-151.472
 11
-163.215
 20
-133.966
 21
-142.737
  0
LINE
  8
0
 10
-163.215
 11
-169.006
 20
-142.737
 21
-127.971
  0
LINE
  8
0
 10
-169.006
 11
-161.735
 20
-21.971
 21
-15.672
  0
LINE
  8
0
 10
-161.735
 11
-151.633
 20
-15.672
 21
-24.224
  0
LINE
  8
0
 10
-151.633
 11
-151.472
 20
-24.224
 21
-27.966
  0
LINE
  8
0
 10
-151.472
 11
-163.215
 20
-27.966
 21
-36.737
  0
LINE
  8
0
 10
-163.215
 11
-169.006
 20
-36.737
 21
-21.971
  0
LINE
  8
0
 10
-167.784
 11
-162.942
 20
-171.896
 21
-154.997
  0
LINE
  8
0
 10
-162.942
 11
-151.037
 20
-154.997
 21
-158.18
  0
LINE
  8
0
 10
-151.037
 11
-148.608
 20
-158.18
 21
-175.215
  0
LINE
  8
0
 10
-148.608
 11
-149.67
 20
-175.215
 21
-176.197
  0
LINE
  8
0
 10
-149.67
 11
-167.784
 20
-176.197
 21
-171.896
  0
LINE
  8
0
 10
-167.784
 11
-162.942
 20
-65.896
 21
-48.997
  0
LINE
  8
0
 10
-162.942
 11
-151.037
 20
-48.997
 21
-52.18
  0
LINE
  8
0
 10
-151.037
 11
-148.608
 20
-52.18
 21
-69.215
  0
LINE
  8
0
 10
-148.608
 11
-149.67
 20
-69.215
 21
-70.197
  0
LINE
  8
0
 10
-149.67
 11
-167.784
 20
-70.197
 21
-65.896
  0
LINE
  8
0
 10
-164.438
 11
-162.829
 20
-150.747
 21
-144.786
  0
LINE
  8
0
 10
-162.829
 11
-150.587
 20
-144.786
 21
-135.625
  0
LINE
  8
0
 10
-150.587
 11
-140.163
 20
-135.625
 21
-144.667
  0
LINE
  8
0
 10
-140.163
 11
-139.294
 20
-144.667
 21
-149.172
  0
LINE
  8
0
 10
-139.294
 11
-139.568
 20
-149.172
 21
-149.917
  0
LINE
  8
0
 10
-139.568
 11
-150.362
 20
-149.917
 21
-156.402
  0
LINE
  8
0
 10
-150.362
 11
-163.006
 20
-156.402
 21
-153.033
  0
LINE
  8
0
 10
-163.006
 11
-164.438
 20
-153.033
 21
-150.747
  0
LINE
  8
0
 10
-164.438
 11
-162.829
 20
-44.747
 21
-38.786
  0
LINE
  8
0
 10
-162.829
 11
-150.587
 20
-38.786
 21
-29.625
  0
LINE
  8
0
 10
-150.587
 11
-140.163
 20
-29.625
 21
-38.667
  0
LINE
  8
0
 10
-140.163
 11
-139.294
 20
-38.667
 21
-43.172
  0
LINE
  8
0
 10
-139.294
 11
-139.568
 20
-43.172
 21
-43.917
  0
LINE
  8
0
 10
-139.568
 11
-150.362
 20
-43.917
 21
-50.402
  0
LINE
  8
0
 10
-150.362
 11
-163.006
 20
-50.402
 21
-47.033
  0
LINE
  8
0
 10
-163.006
 11
-164.438
 20
-47.033
 21
-44.747
  0
LINE
  8
0
 10
-162.888
 11
-162.025
 20
-206
 21
-198.414
  0
LINE
  8
0
 10
-162.025
 11
-152.485
 20
-198.414
 21
-193.503
  0
LINE
  8
0
 10
-152.485
 11
-143.139
 20
-193.503
 21
-198.075
  0
LINE
  8
0
 10
-143.139
 11
-142.619
 20
-198.075
 21
-206
  0
LINE
  8
0
 10
-142.619
 11
-162.888
 20
-206
 21
-206
  0
LINE
  8
0
 10
-162.888
 11
-162.025
 20
-100
 21
-92.414
  0
LINE
  8
0
 10
-162.025
 11
-152.485
 20
-92.414
 21
-87.503
  0
LINE
  8
0
 10
-152.485
 11
-143.139
 20
-87.503
 21
-92.075
  0
LINE
  8
0
 10
-143.139
 11
-142.619
 20
-92.075
 21
-100
  0
LINE
  8
0
 10
-142.619
 11
-162.888
 20
-100
 21
-100
  0
LINE
  8
0
 10
-160.786
 11
-160.082
 20
-120.03
 21
-114
  0
LINE
  8
0
 10
-160.082
 11
-144.359
 20
-114
 21
-114
  0
LINE
  8
0
 10
-144.359
 11
-141.965
 20
-114
 21
-120.707
  0
LINE
  8
0
 10
-141.965
 11
-150.748
 20
-120.707
 21
-128.53
  0
LINE
  8
0
 10
-150.748
 11
-160.786
 20
-128.53
 21
-120.03
  0
LINE
  8
0
 10
-160.786
 11
-160.082
 20
-14.03
 21
-8
  0
LINE
  8
0
 10
-160.082
 11
-144.359
 20
-8
 21
-8
  0
LINE
  8
0
 10
-144.359
 11
-141.965
 20
-8
 21
-14.707
  0
LINE
  8
0
 10
-141.965
 11
-150.748
 20
-14.707
 21
-22.53
  0
LINE
  8
0
 10
-150.748
 11
-160.786
 20
-22.53
 21
-14.03
  0
LINE
  8
0
 10
-151.456
 11
-148.592
 20
-191.912
 21
-177.738
  0
LINE
  8
0
 10
-148.592
 11
-147.305
 20
-177.738
 21
-176.536
  0
LINE
  8
0
 10
-147.305
 11
-132.232
 20
-176.536
 21
-177.112
  0
LINE
  8
0
 10
-132.232
 11
-128.371
 20
-177.112
 21
-185.358
  0
LINE
  8
0
 10
-128.371
 11
-129.948
 20
-185.358
 21
-190.591
  0
LINE
  8
0
 10
-129.948
 11
-142.27
 20
-190.591
 21
-196.399
  0
LINE
  8
0
 10
-142.27
 11
-151.456
 20
-196.399
 21
-191.912
  0
LINE
  8
0
 10
-151.456
 11
-148.592
 20
-85.911
 21
-71.738
  0
LINE
  8
0
 10
-148.592
 11
-147.305
 20
-71.738
 21
-70.536
  0
LINE
  8
0
 10
-147.305
 11
-132.232
 20
-70.536
 21
-71.112
  0
LINE
  8
0
 10
-132.232
 11
-128.371
 20
-71.112
 21
-79.358
  0
LINE
  8
0
 10
-128.371
 11
-129.948
 20
-79.358
 21
-84.591
  0
LINE
  8
0
 10
-129.948
 11
-142.27
 20
-84.591
 21
-90.399
  0
LINE
  8
0
 10
-142.27
 11
-151.456
 20
-90.399
 21
-85.911
  0
LINE
  8
0
 10
-149.815
 11
-140.726
 20
-130.189
 21
-122.079
  0
LINE
  8
0
 10
-140.726
 11
-130.253
 20
-122.079
 21
-126.278
  0
LINE
  8
0
 10
-130.253
 11
-139.568
 20
-126.278
 21
-142.72
  0
LINE
  8
0
 10
-139.568
 11
-149.67
 20
-142.72
 21
-133.966
  0
LINE
  8
0
 10
-149.67
 11
-149.815
 20
-133.966
 21
-130.189
  0
LINE
  8
0
 10
-149.815
 11
-140.726
 20
-24.189
 21
-16.079
  0
LINE
  8
0
 10
-140.726
 11
-130.253
 20
-16.079
 21
-20.278
  0
LINE
  8
0
 10
-130.253
 11
-139.568
 20
-20.278
 21
-36.72
  0
LINE
  8
0
 10
-139.568
 11
-149.67
 20
-36.72
 21
-27.966
  0
LINE
  8
0
 10
-149.67
 11
-149.815
 20
-27.966
 21
-24.189
  0
LINE
  8
0
 10
-149.252
 11
-139.149
 20
-157.909
 21
-151.864
  0
LINE
  8
0
 10
-139.149
 11
-129.658
 20
-151.864
 21
-168.002
  0
LINE
  8
0
 10
-129.658
 11
-132.28
 20
-168.002
 21
-175.215
  0
LINE
  8
0
 10
-132.28
 11
-146.855
 20
-175.215
 21
-174.656
  0
LINE
  8
0
 10
-146.855
 11
-149.252
 20
-174.656
 21
-157.909
  0
LINE
  8
0
 10
-149.252
 11
-139.149
 20
-51.909
 21
-45.864
  0
LINE
  8
0
 10
-139.149
 11
-129.658
 20
-45.864
 21
-62.002
  0
LINE
  8
0
 10
-129.658
 11
-132.28
 20
-62.002
 21
-69.215
  0
LINE
  8
0
 10
-132.28
 11
-146.855
 20
-69.215
 21
-68.656
  0
LINE
  8
0
 10
-146.855
 11
-149.252
 20
-68.656
 21
-51.909
  0
LINE
  8
0
 10
-142.429
 11
-123.356
 20
-114
 21
-114
  0
LINE
  8
0
 10
-123.356
 11
-124.462
 20
-114
 21
-123.535
  0
LINE
  8
0
 10
-124.462
 11
-128.886
 20
-123.535
 21
-124.788
  0
LINE
  8
0
 10
-128.886
 11
-140.195
 20
-124.788
 21
-120.267
  0
LINE
  8
0
 10
-140.195
 11
-142.429
 20
-120.267
 21
-114
  0
LINE
  8
0
 10
-142.429
 11
-123.356
 20
-8
 21
-8
  0
LINE
  8
0
 10
-123.356
 11
-124.462
 20
-8
 21
-17.535
  0
LINE
  8
0
 10
-124.462
 11
-128.886
 20
-17.535
 21
-18.788
  0
LINE
  8
0
 10
-128.886
 11
-140.195
 20
-18.788
 21
-14.267
  0
LINE
  8
0
 10
-140.195
 11
-142.429
 20
-14.267
 21
-8
  0
LINE
  8
0
 10
-141.337
 11
-129.626
 20
-198.041
 21
-192.521
  0
LINE
  8
0
 10
-129.626
 11
-125.09
 20
-192.521
 21
-201.919
  0
LINE
  8
0
 10
-125.09
 11
-128.008
 20
-201.919
 21
-206
  0
LINE
  8
0
 10
-128.008
 11
-140.811
 20
-206
 21
-206
  0
LINE
  8
0
 10
-140.811
 11
-141.337
 20
-206
 21
-198.041
  0
LINE
  8
0
 10
-141.337
 11
-129.626
 20
-92.041
 21
-86.521
  0
LINE
  8
0
 10
-129.626
 11
-125.09
 20
-86.521
 21
-95.919
  0
LINE
  8
0
 10
-125.09
 11
-128.008
 20
-95.919
 21
-100
  0
LINE
  8
0
 10
-128.008
 11
-140.811
 20
-100
 21
-100
  0
LINE
  8
0
 10
-140.811
 11
-141.337
 20
-100
 21
-92.041
  0
LINE
  8
0
 10
-138.377
 11
-128.339
 20
-144.329
 21
-126.616
  0
LINE
  8
0
 10
-128.339
 11
-123.835
 20
-126.616
 21
-125.313
  0
LINE
  8
0
 10
-123.835
 11
-115
 20
-125.313
 21
-132.525
  0
LINE
  8
0
 10
-115
 11
-115
 20
-132.525
 21
-139.43
  0
LINE
  8
0
 10
-115
 11
-115.534
 20
-139.43
 21
-144.904
  0
LINE
  8
0
 10
-115.534
 11
-137.637
 20
-144.904
 21
-148.173
  0
LINE
  8
0
 10
-137.637
 11
-138.377
 20
-148.173
 21
-144.329
  0
LINE
  8
0
 10
-138.377
 11
-128.339
 20
-38.329
 21
-20.616
  0
LINE
  8
0
 10
-128.339
 11
-123.835
 20
-20.616
 21
-19.313
  0
LINE
  8
0
 10
-123.835
 11
-115
 20
-19.313
 21
-26.525
  0
LINE
  8
0
 10
-115
 11
-115
 20
-26.525
 21
-33.43
  0
LINE
  8
0
 10
-115
 11
-115.534
 20
-33.43
 21
-38.904
  0
LINE
  8
0
 10
-115.534
 11
-137.637
 20
-38.904
 21
-42.173
  0
LINE
  8
0
 10
-137.637
 11
-138.377
 20
-42.173
 21
-38.329
  0
LINE
  8
0
 10
-137.83
 11
-137.702
 20
-150.493
 21
-150.103
  0
LINE
  8
0
 10
-137.702
 11
-115.228
 20
-150.103
 21
-146.767
  0
LINE
  8
0
 10
-115.228
 11
-115
 20
-146.767
 21
-147.257
  0
LINE
  8
0
 10
-115
 11
-115
 20
-147.257
 21
-149.128
  0
LINE
  8
0
 10
-115
 11
-116.789
 20
-149.128
 21
-161.55
  0
LINE
  8
0
 10
-116.789
 11
-128.291
 20
-161.55
 21
-166.715
  0
LINE
  8
0
 10
-128.291
 11
-137.83
 20
-166.715
 21
-150.493
  0
LINE
  8
0
 10
-137.83
 11
-137.702
 20
-44.493
 21
-44.103
  0
LINE
  8
0
 10
-137.702
 11
-115.228
 20
-44.103
 21
-40.767
  0
LINE
  8
0
 10
-115.228
 11
-115
 20
-40.767
 21
-41.257
  0
LINE
  8
0
 10
-115
 11
-115
 20
-41.257
 21
-43.128
  0
LINE
  8
0
 10
-115
 11
-116.789
 20
-43.128
 21
-55.55
  0
LINE
  8
0
 10
-116.789
 11
-128.291
 20
-55.55
 21
-60.715
  0
LINE
  8
0
 10
-128.291
 11
-137.83
 20
-60.715
 21
-44.493
  0
LINE
  8
0
 10
-130.688
 11
-127.953
 20
-176.146
 21
-168.628
  0
LINE
  8
0
 10
-127.953
 11
-116.145
 20
-168.628
 21
-163.328
  0
LINE
  8
0
 10
-116.145
 11
-115
 20
-163.328
 21
-164.396
  0
LINE
  8
0
 10
-115
 11
-115
 20
-164.396
 21
-183.427
  0
LINE
  8
0
 10
-115
 11
-126.859
 20
-183.427
 21
-184.291
  0
LINE
  8
0
 10
-126.859
 11
-130.688
 20
-184.291
 21
-176.146
  0
LINE
  8
0
 10
-130.688
 11
-127.953
 20
-70.146
 21
-62.628
  0
LINE
  8
0
 10
-127.953
 11
-116.145
 20
-62.628
 21
-57.328
  0
LINE
  8
0
 10
-116.145
 11
-115
 20
-57.328
 21
-58.396
  0
LINE
  8
0
 10
-115
 11
-115
 20
-58.396
 21
-77.427
  0
LINE
  8
0
 10
-115
 11
-126.859
 20
-77.427
 21
-78.292
  0
LINE
  8
0
 10
-126.859
 11
-130.688
 20
-78.292
 21
-70.146
  0
LINE
  8
0
 10
-128.243
 11
-126.731
 20
-191.2
 21
-186.188
  0
LINE
  8
0
 10
-126.731
 11
-115
 20
-186.188
 21
-185.341
  0
LINE
  8
0
 10
-115
 11
-115
 20
-185.341
 21
-204.657
  0
LINE
  8
0
 10
-115
 11
-123.384
 20
-204.657
 21
-201.259
  0
LINE
  8
0
 10
-123.384
 11
-128.243
 20
-201.259
 21
-191.2
  0
LINE
  8
0
 10
-128.243
 11
-126.731
 20
-85.2
 21
-80.188
  0
LINE
  8
0
 10
-126.731
 11
-115
 20
-80.188
 21
-79.341
  0
LINE
  8
0
 10
-115
 11
-115
 20
-79.341
 21
-98.657
  0
LINE
  8
0
 10
-115
 11
-123.384
 20
-98.657
 21
-95.259
  0
LINE
  8
0
 10
-123.384
 11
-128.243
 20
-95.259
 21
-85.2
  0
LINE
  8
0
 10
-125.744
 11
-123.722
 20
-206
 21
-203.172
  0
LINE
  8
0
 10
-123.722
 11
-116.733
 20
-203.172
 21
-206
  0
LINE
  8
0
 10
-116.733
 11
-125.744
 20
-206
 21
-206
  0
LINE
  8
0
 10
-125.744
 11
-123.722
 20
-100
 21
-97.172
  0
LINE
  8
0
 10
-123.722
 11
-116.733
 20
-97.172
 21
-100
  0
LINE
  8
0
 10
-116.733
 11
-125.744
 20
-100
 21
-100
  0
LINE
  8
0
 10
-122.677
 11
-121.538
 20
-123.856
 21
-114
  0
LINE
  8
0
 10
-121.538
 11
-115
 20
-114
 21
-114
  0
LINE
  8
0
 10
-115
 11
-115
 20
-114
 21
-130.114
  0
LINE
  8
0
 10
-115
 11
-122.677
 20
-130.114
 21
-123.856
  0
LINE
  8
0
 10
-122.677
 11
-121.538
 20
-17.856
 21
-8
  0
LINE
  8
0
 10
-121.538
 11
-115
 20
-8
 21
-8
  0
LINE
  8
0
 10
-115
 11
-115
 20
-8
 21
-24.114
  0
LINE
  8
0
 10
-115
 11
-122.677
 20
-24.114
 21
-17.856
  0
LINE
  8
0
 10
-115.019
 11
-115
 20
-161.855
 21
-161.721
  0
LINE
  8
0
 10
-115
 11
-115
 20
-161.721
 21
-161.873
  0
LINE
  8
0
 10
-115
 11
-115.019
 20
-161.873
 21
-161.855
  0
LINE
  8
0
 10
-115.019
 11
-115
 20
-55.855
 21
-55.721
  0
LINE
  8
0
 10
-115
 11
-115
 20
-55.721
 21
-55.873
  0
LINE
  8
0
 10
-115
 11
-115.019
 20
-55.873
 21
-55.855
  0
LINE
  8
0
 10
-106.063
 11
-106.063
 20
-201.097
 21
-191.88
  0
LINE
  8
0
 10
-106.063
 11
-103.063
 20
-191.88
 21
-191.88
  0
LINE
  8
0
 10
-103.063
 11
-103.063
 20
-191.88
 21
-182.915
  0
LINE
  8
0
 10
-103.063
 11
-106.063
 20
-182.915
 21
-182.915
  0
LINE
  8
0
 10
-106.063
 11
-106.063
 20
-182.915
 21
-173.698
  0
LINE
  8
0
 10
-106.063
 11
-103.063
 20
-173.698
 21
-173.698
  0
LINE
  8
0
 10
-103.063
 11
-103.063
 20
-173.698
 21
-164.733
  0
LINE
  8
0
 10
-103.063
 11
-106.063
 20
-164.733
 21
-164.733
  0
LINE
  8
0
 10
-106.063
 11
-106.063
 20
-164.733
 21
-155.517
  0
LINE
  8
0
 10
-106.063
 11
-103.063
 20
-155.517
 21
-155.517
  0
LINE
  8
0
 10
-103.063
 11
-103.063
 20
-155.517
 21
-146.552
  0
LINE
  8
0
 10
-103.063
 11
-106.063
 20
-146.552
 21
-146.552
  0
LINE
  8
0
 10
-106.063
 11
-106.063
 20
-146.552
 21
-137.335
  0
LINE
  8
0
 10
-106.063
 11
-103.063
 20
-137.335
 21
-137.335
  0
LINE
  8
0
 10
-103.063
 11
-103.063
 20
-137.335
 21
-128.37
  0
LINE
  8
0
 10
-103.063
 11
-106.063
 20
-128.37
 21
-128.37
  0
LINE
  8
0
 10
-106.063
 11
-106.063
 20
-128.37
 21
-119.153
  0
LINE
  8
0
 10
-106.063
 11
-103.063
 20
-119.153
 21
-119.153
  0
LINE
  8
0
 10
-103.063
 11
-103.063
 20
-119.153
 21
-110.062
  0
LINE
  8
0
 10
-103.063
 11
-93.972
 20
-110.062
 21
-110.062
  0
LINE
  8
0
 10
-93.972
 11
-93.972
 20
-110.062
 21
-107.062
  0
LINE
  8
0
 10
-93.972
 11
-84.755
 20
-107.062
 21
-107.062
  0
LINE
  8
0
 10
-84.755
 11
-84.755
 20
-107.062
 21
-110.062
  0
LINE
  8
0
 10
-84.755
 11
-75.79
 20
-110.062
 21
-110.062
  0
LINE
  8
0
 10
-75.79
 11
-75.79
 20
-110.062
 21
-107.062
  0
LINE
  8
0
 10
-75.79
 11
-66.573
 20
-107.062
 21
-107.062
  0
LINE
  8
0
 10
-66.573
 11
-66.573
 20
-107.062
 21
-110.062
  0
LINE
  8
0
 10
-66.573
 11
-57.608
 20
-110.062
 21
-110.062
  0
LINE
  8
0
 10
-57.608
 11
-57.608
 20
-110.062
 21
-107.062
  0
LINE
  8
0
 10
-57.608
 11
-48.392
 20
-107.062
 21
-107.062
  0
LINE
  8
0
 10
-48.392
 11
-48.392
 20
-107.062
 21
-110.062
  0
LINE
  8
0
 10
-48.392
 11
-39.427
 20
-110.062
 21
-110.062
  0
LINE
  8
0
 10
-39.427
 11
-39.427
 20
-110.062
 21
-107.062
  0
LINE
  8
0
 10
-39.427
 11
-30.21
 20
-107.062
 21
-107.062
  0
LINE
  8
0
 10
-30.21
 11
-30.21
 20
-107.062
 21
-110.062
  0
LINE
  8
0
 10
-30.21
 11
-21.245
 20
-110.062
 21
-110.062
  0
LINE
  8
0
 10
-21.245
 11
-21.245
 20
-110.062
 21
-107.062
  0
LINE
  8
0
 10
-21.245
 11
-12.028
 20
-107.062
 21
-107.062
  0
LINE
  8
0
 10
-12.028
 11
-12.028
 20
-107.062
 21
-110.062
  0
LINE
  8
0
 10
-12.028
 11
-2.937
 20
-110.062
 21
-110.062
  0
LINE
  8
0
 10
-2.937
 11
-2.937
 20
-110.062
 21
-119.153
  0
LINE
  8
0
 10
-2.937
 11
0.063
 20
-119.153
 21
-119.153
  0
LINE
  8
0
 10
0.063
 11
0.063
 20
-119.153
 21
-128.37
  0
LINE
  8
0
 10
0.063
 11
-2.937
 20
-128.37
 21
-128.37
  0
LINE
  8
0
 10
-2.937
 11
-2.937
 20
-128.37
 21
-137.335
  0
LINE
  8
0
 10
-2.937
 11
0.063
 20
-137.335
 21
-137.335
  0
LINE
  8
0
 10
0.063
 11
0.063
 20
-137.335
 21
-146.552
  0
LINE
  8
0
 10
0.063
 11
-2.937
 20
-146.552
 21
-146.552
  0
LINE
  8
0
 10
-2.937
 11
-2.937
 20
-146.552
 21
-155.517
  0
LINE
  8
0
 10
-2.937
 11
0.063
 20
-155.517
 21
-155.517
  0
LINE
  8
0
 10
0.063
 11
0.063
 20
-155.517
 21
-164.733
  0
LINE
  8
0
 10
0.063
 11
-2.937
 20
-164.733
 21
-164.733
  0
LINE
  8
0
 10
-2.937
 11
-2.937
 20
-164.733
 21
-173.698
  0
LINE
  8
0
 10
-2.937
 11
0.063
 20
-173.698
 21
-173.698
  0
LINE
  8
0
 10
0.063
 11
0.063
 20
-173.698
 21
-182.915
  0
LINE
  8
0
 10
0.063
 11
-2.937
 20
-182.915
 21
-182.915
  0
LINE
  8
0
 10
-2.937
 11
-2.937
 20
-182.915
 21
-191.88
  0
LINE
  8
0
 10
-2.937
 11
0.063
 20
-191.88
 21
-191.88
  0
LINE
  8
0
 10
0.063
 11
0.063
 20
-191.88
 21
-201.097
  0
LINE
  8
0
 10
0.063
 11
-2.937
 20
-201.097
 21
-201.097
  0
LINE
  8
0
 10
-2.937
 11
-2.937
 20
-201.097
 21
-210.188
  0
LINE
  8
0
 10
-2.937
 11
-12.028
 20
-210.188
 21
-210.188
  0
LINE
  8
0
 10
-12.028
 11
-12.028
 20
-210.188
 21
-213.188
  0
LINE
  8
0
 10
-12.028
 11
-21.245
 20
-213.188
 21
-213.188
  0
LINE
  8
0
 10
-21.245
 11
-21.245
 20
-213.188
 21
-210.188
  0
LINE
  8
0
 10
-21.245
 11
-30.21
 20
-210.188
 21
-210.188
  0
LINE
  8
0
 10
-30.21
 11
-30.21
 20
-210.188
 21
-213.188
  0
LINE
  8
0
 10
-30.21
 11
-39.427
 20
-213.188
 21
-213.188
  0
LINE
  8
0
 10
-39.427
 11
-39.427
 20
-213.188
 21
-210.188
  0
LINE
  8
0
 10
-39.427
 11
-48.392
 20
-210.188
 21
-210.188
  0
LINE
  8
0
 10
-48.392
 11
-48.392
 20
-210.188
 21
-213.188
  0
LINE
  8
0
 10
-48.392
 11
-57.608
 20
-213.188
 21
-213.188
  0
LINE
  8
0
 10
-57.608
 11
-57.608
 20
-213.188
 21
-210.188
  0
LINE
  8
0
 10
-57.608
 11
-66.573
 20
-210.188
 21
-210.188
  0
LINE
  8
0
 10
-66.573
 11
-66.573
 20
-210.188
 21
-213.188
  0
LINE
  8
0
 10
-66.573
 11
-75.79
 20
-213.188
 21
-213.188
  0
LINE
  8
0
 10
-75.79
 11
-75.79
 20
-213.188
 21
-210.188
  0
LINE
  8
0
 10
-75.79
 11
-84.755
 20
-210.188
 21
-210.188
  0
LINE
  8
0
 10
-84.755
 11
-84.755
 20
-210.188
 21
-213.188
  0
LINE
  8
0
 10
-84.755
 11
-93.972
 20
-213.188
 21
-213.188
  0
LINE
  8
0
 10
-93.972
 11
-93.972
 20
-213.188
 21
-210.188
  0
LINE
  8
0
 10
-93.972
 11
-103.063
 20
-210.188
 21
-210.188
  0
LINE
  8
0
 10
-103.063
 11
-103.063
 20
-210.188
 21
-201.097
  0
LINE
  8
0
 10
-103.063
 11
-106.063
 20
-201.097
 21
-201.097
  0
ENDSEC
  0
SECTION
  2
OBJECTS
  0
DICTIONARY
  0
ENDSEC
  0
EOF
