  0
SECTION
  2
BLOCKS
  0
ENDSEC
  0
SECTION
  2
ENTITIES
  0
LINE
  8
0
 10
-388.313
 11
-388.313
 20
-210.188
 21
-200.971
  0
LINE
  8
0
 10
-388.313
 11
-385.313
 20
-200.971
 21
-200.971
  0
LINE
  8
0
 10
-385.313
 11
-385.313
 20
-200.971
 21
-192.006
  0
LINE
  8
0
 10
-385.313
 11
-388.313
 20
-192.006
 21
-192.006
  0
LINE
  8
0
 10
-388.313
 11
-388.313
 20
-192.006
 21
-182.789
  0
LINE
  8
0
 10
-388.313
 11
-385.313
 20
-182.789
 21
-182.789
  0
LINE
  8
0
 10
-385.313
 11
-385.313
 20
-182.789
 21
-173.824
  0
LINE
  8
0
 10
-385.313
 11
-388.313
 20
-173.824
 21
-173.824
  0
LINE
  8
0
 10
-388.313
 11
-388.313
 20
-173.824
 21
-164.607
  0
LINE
  8
0
 10
-388.313
 11
-385.313
 20
-164.607
 21
-164.607
  0
LINE
  8
0
 10
-385.313
 11
-385.313
 20
-164.607
 21
-155.642
  0
LINE
  8
0
 10
-385.313
 11
-388.313
 20
-155.642
 21
-155.642
  0
LINE
  8
0
 10
-388.313
 11
-388.313
 20
-155.642
 21
-146.426
  0
LINE
  8
0
 10
-388.313
 11
-385.313
 20
-146.426
 21
-146.426
  0
LINE
  8
0
 10
-385.313
 11
-385.313
 20
-146.426
 21
-137.461
  0
LINE
  8
0
 10
-385.313
 11
-388.313
 20
-137.461
 21
-137.461
  0
LINE
  8
0
 10
-388.313
 11
-388.313
 20
-137.461
 21
-128.244
  0
LINE
  8
0
 10
-388.313
 11
-385.313
 20
-128.244
 21
-128.244
  0
LINE
  8
0
 10
-385.313
 11
-385.313
 20
-128.244
 21
-119.279
  0
LINE
  8
0
 10
-385.313
 11
-388.313
 20
-119.279
 21
-119.279
  0
LINE
  8
0
 10
-388.313
 11
-388.313
 20
-119.279
 21
-110.062
  0
LINE
  8
0
 10
-388.313
 11
-375.005
 20
-110.062
 21
-110.062
  0
LINE
  8
0
 10
-375.005
 11
-375.005
 20
-110.062
 21
-107.062
  0
LINE
  8
0
 10
-375.005
 11
-364.572
 20
-107.062
 21
-107.062
  0
LINE
  8
0
 10
-364.572
 11
-364.572
 20
-107.062
 21
-110.062
  0
LINE
  8
0
 10
-364.572
 11
-354.39
 20
-110.062
 21
-110.062
  0
LINE
  8
0
 10
-354.39
 11
-354.39
 20
-110.062
 21
-107.062
  0
LINE
  8
0
 10
-354.39
 11
-343.956
 20
-107.062
 21
-107.062
  0
LINE
  8
0
 10
-343.956
 11
-343.956
 20
-107.062
 21
-110.062
  0
LINE
  8
0
 10
-343.956
 11
-333.774
 20
-110.062
 21
-110.062
  0
LINE
  8
0
 10
-333.774
 11
-333.774
 20
-110.062
 21
-107.062
  0
LINE
  8
0
 10
-333.774
 11
-323.341
 20
-107.062
 21
-107.062
  0
LINE
  8
0
 10
-323.341
 11
-323.341
 20
-107.062
 21
-110.062
  0
LINE
  8
0
 10
-323.341
 11
-313.159
 20
-110.062
 21
-110.062
  0
LINE
  8
0
 10
-313.159
 11
-313.159
 20
-110.062
 21
-107.062
  0
LINE
  8
0
 10
-313.159
 11
-302.725
 20
-107.062
 21
-107.062
  0
LINE
  8
0
 10
-302.725
 11
-302.725
 20
-107.062
 21
-110.062
  0
LINE
  8
0
 10
-302.725
 11
-292.543
 20
-110.062
 21
-110.062
  0
LINE
  8
0
 10
-292.543
 11
-292.543
 20
-110.062
 21
-107.062
  0
LINE
  8
0
 10
-292.543
 11
-282.11
 20
-107.062
 21
-107.062
  0
LINE
  8
0
 10
-282.11
 11
-282.11
 20
-107.062
 21
-110.062
  0
LINE
  8
0
 10
-282.11
 11
-271.928
 20
-110.062
 21
-110.062
  0
LINE
  8
0
 10
-271.928
 11
-271.928
 20
-110.062
 21
-107.062
  0
LINE
  8
0
 10
-271.928
 11
-261.495
 20
-107.062
 21
-107.062
  0
LINE
  8
0
 10
-261.495
 11
-261.495
 20
-107.062
 21
-110.062
  0
LINE
  8
0
 10
-261.495
 11
-251.75
 20
-110.062
 21
-110.062
  0
LINE
  8
0
 10
-251.75
 11
-251.75
 20
-110.062
 21
-210.188
  0
LINE
  8
0
 10
-251.75
 11
-261.495
 20
-210.188
 21
-210.188
  0
LINE
  8
0
 10
-261.495
 11
-261.495
 20
-210.188
 21
-213.188
  0
LINE
  8
0
 10
-261.495
 11
-271.928
 20
-213.188
 21
-213.188
  0
LINE
  8
0
 10
-271.928
 11
-271.928
 20
-213.188
 21
-210.188
  0
LINE
  8
0
 10
-271.928
 11
-282.11
 20
-210.188
 21
-210.188
  0
LINE
  8
0
 10
-282.11
 11
-282.11
 20
-210.188
 21
-213.188
  0
LINE
  8
0
 10
-282.11
 11
-292.544
 20
-213.188
 21
-213.188
  0
LINE
  8
0
 10
-292.544
 11
-292.544
 20
-213.188
 21
-210.188
  0
LINE
  8
0
 10
-292.544
 11
-302.726
 20
-210.188
 21
-210.188
  0
LINE
  8
0
 10
-302.726
 11
-302.726
 20
-210.188
 21
-213.188
  0
LINE
  8
0
 10
-302.726
 11
-313.159
 20
-213.188
 21
-213.188
  0
LINE
  8
0
 10
-313.159
 11
-313.159
 20
-213.188
 21
-210.188
  0
LINE
  8
0
 10
-313.159
 11
-323.341
 20
-210.188
 21
-210.188
  0
LINE
  8
0
 10
-323.341
 11
-323.341
 20
-210.188
 21
-213.188
  0
LINE
  8
0
 10
-323.341
 11
-333.775
 20
-213.188
 21
-213.188
  0
LINE
  8
0
 10
-333.775
 11
-333.775
 20
-213.188
 21
-210.188
  0
LINE
  8
0
 10
-333.775
 11
-343.957
 20
-210.188
 21
-210.188
  0
LINE
  8
0
 10
-343.957
 11
-343.957
 20
-210.188
 21
-213.188
  0
LINE
  8
0
 10
-343.957
 11
-354.39
 20
-213.188
 21
-213.188
  0
LINE
  8
0
 10
-354.39
 11
-354.39
 20
-213.188
 21
-210.188
  0
LINE
  8
0
 10
-354.39
 11
-364.572
 20
-210.188
 21
-210.188
  0
LINE
  8
0
 10
-364.572
 11
-364.572
 20
-210.188
 21
-213.188
  0
LINE
  8
0
 10
-364.572
 11
-375.005
 20
-213.188
 21
-213.188
  0
LINE
  8
0
 10
-375.005
 11
-375.005
 20
-213.188
 21
-210.188
  0
LINE
  8
0
 10
-375.005
 11
-388.313
 20
-210.188
 21
-210.188
  0
LINE
  8
0
 10
-388.313
 11
-388.313
 20
-103.063
 21
-93.846
  0
LINE
  8
0
 10
-388.313
 11
-385.313
 20
-93.846
 21
-93.846
  0
LINE
  8
0
 10
-385.313
 11
-385.313
 20
-93.846
 21
-84.881
  0
LINE
  8
0
 10
-385.313
 11
-388.313
 20
-84.881
 21
-84.881
  0
LINE
  8
0
 10
-388.313
 11
-388.313
 20
-84.881
 21
-75.664
  0
LINE
  8
0
 10
-388.313
 11
-385.313
 20
-75.664
 21
-75.664
  0
LINE
  8
0
 10
-385.313
 11
-385.313
 20
-75.664
 21
-66.699
  0
LINE
  8
0
 10
-385.313
 11
-388.313
 20
-66.699
 21
-66.699
  0
LINE
  8
0
 10
-388.313
 11
-388.313
 20
-66.699
 21
-57.482
  0
LINE
  8
0
 10
-388.313
 11
-385.313
 20
-57.482
 21
-57.482
  0
LINE
  8
0
 10
-385.313
 11
-385.313
 20
-57.482
 21
-48.517
  0
LINE
  8
0
 10
-385.313
 11
-388.313
 20
-48.517
 21
-48.517
  0
LINE
  8
0
 10
-388.313
 11
-388.313
 20
-48.517
 21
-39.301
  0
LINE
  8
0
 10
-388.313
 11
-385.313
 20
-39.301
 21
-39.301
  0
LINE
  8
0
 10
-385.313
 11
-385.313
 20
-39.301
 21
-30.336
  0
LINE
  8
0
 10
-385.313
 11
-388.313
 20
-30.336
 21
-30.336
  0
LINE
  8
0
 10
-388.313
 11
-388.313
 20
-30.336
 21
-21.119
  0
LINE
  8
0
 10
-388.313
 11
-385.313
 20
-21.119
 21
-21.119
  0
LINE
  8
0
 10
-385.313
 11
-385.313
 20
-21.119
 21
-12.154
  0
LINE
  8
0
 10
-385.313
 11
-388.313
 20
-12.154
 21
-12.154
  0
LINE
  8
0
 10
-388.313
 11
-388.313
 20
-12.154
 21
-2.937
  0
LINE
  8
0
 10
-388.313
 11
-375.005
 20
-2.937
 21
-2.937
  0
LINE
  8
0
 10
-375.005
 11
-375.005
 20
-2.937
 21
0.063
  0
LINE
  8
0
 10
-375.005
 11
-364.572
 20
0.063
 21
0.063
  0
LINE
  8
0
 10
-364.572
 11
-364.572
 20
0.063
 21
-2.937
  0
LINE
  8
0
 10
-364.572
 11
-354.39
 20
-2.937
 21
-2.937
  0
LINE
  8
0
 10
-354.39
 11
-354.39
 20
-2.937
 21
0.063
  0
LINE
  8
0
 10
-354.39
 11
-343.956
 20
0.063
 21
0.063
  0
LINE
  8
0
 10
-343.956
 11
-343.956
 20
0.063
 21
-2.937
  0
LINE
  8
0
 10
-343.956
 11
-333.774
 20
-2.937
 21
-2.937
  0
LINE
  8
0
 10
-333.774
 11
-333.774
 20
-2.937
 21
0.063
  0
LINE
  8
0
 10
-333.774
 11
-323.341
 20
0.063
 21
0.063
  0
LINE
  8
0
 10
-323.341
 11
-323.341
 20
0.063
 21
-2.937
  0
LINE
  8
0
 10
-323.341
 11
-313.159
 20
-2.937
 21
-2.937
  0
LINE
  8
0
 10
-313.159
 11
-313.159
 20
-2.937
 21
0.063
  0
LINE
  8
0
 10
-313.159
 11
-302.725
 20
0.063
 21
0.063
  0
LINE
  8
0
 10
-302.725
 11
-302.725
 20
0.063
 21
-2.937
  0
LINE
  8
0
 10
-302.725
 11
-292.543
 20
-2.937
 21
-2.937
  0
LINE
  8
0
 10
-292.543
 11
-292.543
 20
-2.937
 21
0.063
  0
LINE
  8
0
 10
-292.543
 11
-282.11
 20
0.063
 21
0.063
  0
LINE
  8
0
 10
-282.11
 11
-282.11
 20
0.063
 21
-2.937
  0
LINE
  8
0
 10
-282.11
 11
-271.928
 20
-2.937
 21
-2.937
  0
LINE
  8
0
 10
-271.928
 11
-271.928
 20
-2.937
 21
0.063
  0
LINE
  8
0
 10
-271.928
 11
-261.495
 20
0.063
 21
0.063
  0
LINE
  8
0
 10
-261.495
 11
-261.495
 20
0.063
 21
-2.937
  0
LINE
  8
0
 10
-261.495
 11
-251.75
 20
-2.937
 21
-2.937
  0
LINE
  8
0
 10
-251.75
 11
-251.75
 20
-2.937
 21
-103.063
  0
LINE
  8
0
 10
-251.75
 11
-261.495
 20
-103.063
 21
-103.063
  0
LINE
  8
0
 10
-261.495
 11
-261.495
 20
-103.063
 21
-106.063
  0
LINE
  8
0
 10
-261.495
 11
-271.928
 20
-106.063
 21
-106.063
  0
LINE
  8
0
 10
-271.928
 11
-271.928
 20
-106.063
 21
-103.063
  0
LINE
  8
0
 10
-271.928
 11
-282.11
 20
-103.063
 21
-103.063
  0
LINE
  8
0
 10
-282.11
 11
-282.11
 20
-103.063
 21
-106.063
  0
LINE
  8
0
 10
-282.11
 11
-292.544
 20
-106.063
 21
-106.063
  0
LINE
  8
0
 10
-292.544
 11
-292.544
 20
-106.063
 21
-103.063
  0
LINE
  8
0
 10
-292.544
 11
-302.726
 20
-103.063
 21
-103.063
  0
LINE
  8
0
 10
-302.726
 11
-302.726
 20
-103.063
 21
-106.063
  0
LINE
  8
0
 10
-302.726
 11
-313.159
 20
-106.063
 21
-106.063
  0
LINE
  8
0
 10
-313.159
 11
-313.159
 20
-106.063
 21
-103.063
  0
LINE
  8
0
 10
-313.159
 11
-323.341
 20
-103.063
 21
-103.063
  0
LINE
  8
0
 10
-323.341
 11
-323.341
 20
-103.063
 21
-106.063
  0
LINE
  8
0
 10
-323.341
 11
-333.775
 20
-106.063
 21
-106.063
  0
LINE
  8
0
 10
-333.775
 11
-333.775
 20
-106.063
 21
-103.063
  0
LINE
  8
0
 10
-333.775
 11
-343.957
 20
-103.063
 21
-103.063
  0
LINE
  8
0
 10
-343.957
 11
-343.957
 20
-103.063
 21
-106.063
  0
LINE
  8
0
 10
-343.957
 11
-354.39
 20
-106.063
 21
-106.063
  0
LINE
  8
0
 10
-354.39
 11
-354.39
 20
-106.063
 21
-103.063
  0
LINE
  8
0
 10
-354.39
 11
-364.572
 20
-103.063
 21
-103.063
  0
LINE
  8
0
 10
-364.572
 11
-364.572
 20
-103.063
 21
-106.063
  0
LINE
  8
0
 10
-364.572
 11
-375.005
 20
-106.063
 21
-106.063
  0
LINE
  8
0
 10
-375.005
 11
-375.005
 20
-106.063
 21
-103.063
  0
LINE
  8
0
 10
-375.005
 11
-388.313
 20
-103.063
 21
-103.063
  0
LINE
  8
0
 10
-247.188
 11
-247.188
 20
-213.188
 21
-200.971
  0
LINE
  8
0
 10
-247.188
 11
-244.188
 20
-200.971
 21
-200.971
  0
LINE
  8
0
 10
-244.188
 11
-244.188
 20
-200.971
 21
-192.006
  0
LINE
  8
0
 10
-244.188
 11
-247.188
 20
-192.006
 21
-192.006
  0
LINE
  8
0
 10
-247.188
 11
-247.188
 20
-192.006
 21
-182.789
  0
LINE
  8
0
 10
-247.188
 11
-244.188
 20
-182.789
 21
-182.789
  0
LINE
  8
0
 10
-244.188
 11
-244.188
 20
-182.789
 21
-173.824
  0
LINE
  8
0
 10
-244.188
 11
-247.188
 20
-173.824
 21
-173.824
  0
LINE
  8
0
 10
-247.188
 11
-247.188
 20
-173.824
 21
-164.607
  0
LINE
  8
0
 10
-247.188
 11
-244.188
 20
-164.607
 21
-164.607
  0
LINE
  8
0
 10
-244.188
 11
-244.188
 20
-164.607
 21
-155.642
  0
LINE
  8
0
 10
-244.188
 11
-247.188
 20
-155.642
 21
-155.642
  0
LINE
  8
0
 10
-247.188
 11
-247.188
 20
-155.642
 21
-146.426
  0
LINE
  8
0
 10
-247.188
 11
-244.188
 20
-146.426
 21
-146.426
  0
LINE
  8
0
 10
-244.188
 11
-244.188
 20
-146.426
 21
-137.461
  0
LINE
  8
0
 10
-244.188
 11
-247.188
 20
-137.461
 21
-137.461
  0
LINE
  8
0
 10
-247.188
 11
-247.188
 20
-137.461
 21
-128.244
  0
LINE
  8
0
 10
-247.188
 11
-244.188
 20
-128.244
 21
-128.244
  0
LINE
  8
0
 10
-244.188
 11
-244.188
 20
-128.244
 21
-119.279
  0
LINE
  8
0
 10
-244.188
 11
-247.188
 20
-119.279
 21
-119.279
  0
LINE
  8
0
 10
-247.188
 11
-247.188
 20
-119.279
 21
-107.062
  0
LINE
  8
0
 10
-247.188
 11
-233.754
 20
-107.062
 21
-107.062
  0
LINE
  8
0
 10
-233.754
 11
-233.754
 20
-107.062
 21
-110.062
  0
LINE
  8
0
 10
-233.754
 11
-223.572
 20
-110.062
 21
-110.062
  0
LINE
  8
0
 10
-223.572
 11
-223.572
 20
-110.062
 21
-107.062
  0
LINE
  8
0
 10
-223.572
 11
-213.139
 20
-107.062
 21
-107.062
  0
LINE
  8
0
 10
-213.139
 11
-213.139
 20
-107.062
 21
-110.062
  0
LINE
  8
0
 10
-213.139
 11
-202.957
 20
-110.062
 21
-110.062
  0
LINE
  8
0
 10
-202.957
 11
-202.957
 20
-110.062
 21
-107.062
  0
LINE
  8
0
 10
-202.957
 11
-192.524
 20
-107.062
 21
-107.062
  0
LINE
  8
0
 10
-192.524
 11
-192.524
 20
-107.062
 21
-110.062
  0
LINE
  8
0
 10
-192.524
 11
-182.342
 20
-110.062
 21
-110.062
  0
LINE
  8
0
 10
-182.342
 11
-182.342
 20
-110.062
 21
-107.062
  0
LINE
  8
0
 10
-182.342
 11
-171.908
 20
-107.062
 21
-107.062
  0
LINE
  8
0
 10
-171.908
 11
-171.908
 20
-107.062
 21
-110.062
  0
LINE
  8
0
 10
-171.908
 11
-161.726
 20
-110.062
 21
-110.062
  0
LINE
  8
0
 10
-161.726
 11
-161.726
 20
-110.062
 21
-107.062
  0
LINE
  8
0
 10
-161.726
 11
-151.293
 20
-107.062
 21
-107.062
  0
LINE
  8
0
 10
-151.293
 11
-151.293
 20
-107.062
 21
-110.062
  0
LINE
  8
0
 10
-151.293
 11
-141.111
 20
-110.062
 21
-110.062
  0
LINE
  8
0
 10
-141.111
 11
-141.111
 20
-110.062
 21
-107.062
  0
LINE
  8
0
 10
-141.111
 11
-130.677
 20
-107.062
 21
-107.062
  0
LINE
  8
0
 10
-130.677
 11
-130.677
 20
-107.062
 21
-110.062
  0
LINE
  8
0
 10
-130.677
 11
-120.495
 20
-110.062
 21
-110.062
  0
LINE
  8
0
 10
-120.495
 11
-120.495
 20
-110.062
 21
-107.062
  0
LINE
  8
0
 10
-120.495
 11
-110.625
 20
-107.062
 21
-107.062
  0
LINE
  8
0
 10
-110.625
 11
-110.625
 20
-107.062
 21
-213.188
  0
LINE
  8
0
 10
-110.625
 11
-120.496
 20
-213.188
 21
-213.188
  0
LINE
  8
0
 10
-120.496
 11
-120.496
 20
-213.188
 21
-210.188
  0
LINE
  8
0
 10
-120.496
 11
-130.678
 20
-210.188
 21
-210.188
  0
LINE
  8
0
 10
-130.678
 11
-130.678
 20
-210.188
 21
-213.188
  0
LINE
  8
0
 10
-130.678
 11
-141.111
 20
-213.188
 21
-213.188
  0
LINE
  8
0
 10
-141.111
 11
-141.111
 20
-213.188
 21
-210.188
  0
LINE
  8
0
 10
-141.111
 11
-151.293
 20
-210.188
 21
-210.188
  0
LINE
  8
0
 10
-151.293
 11
-151.293
 20
-210.188
 21
-213.188
  0
LINE
  8
0
 10
-151.293
 11
-161.726
 20
-213.188
 21
-213.188
  0
LINE
  8
0
 10
-161.726
 11
-161.726
 20
-213.188
 21
-210.188
  0
LINE
  8
0
 10
-161.726
 11
-171.908
 20
-210.188
 21
-210.188
  0
LINE
  8
0
 10
-171.908
 11
-171.908
 20
-210.188
 21
-213.188
  0
LINE
  8
0
 10
-171.908
 11
-182.342
 20
-213.188
 21
-213.188
  0
LINE
  8
0
 10
-182.342
 11
-182.342
 20
-213.188
 21
-210.188
  0
LINE
  8
0
 10
-182.342
 11
-192.524
 20
-210.188
 21
-210.188
  0
LINE
  8
0
 10
-192.524
 11
-192.524
 20
-210.188
 21
-213.188
  0
LINE
  8
0
 10
-192.524
 11
-202.957
 20
-213.188
 21
-213.188
  0
LINE
  8
0
 10
-202.957
 11
-202.957
 20
-213.188
 21
-210.188
  0
LINE
  8
0
 10
-202.957
 11
-213.139
 20
-210.188
 21
-210.188
  0
LINE
  8
0
 10
-213.139
 11
-213.139
 20
-210.188
 21
-213.188
  0
LINE
  8
0
 10
-213.139
 11
-223.573
 20
-213.188
 21
-213.188
  0
LINE
  8
0
 10
-223.573
 11
-223.573
 20
-213.188
 21
-210.188
  0
LINE
  8
0
 10
-223.573
 11
-233.755
 20
-210.188
 21
-210.188
  0
LINE
  8
0
 10
-233.755
 11
-233.755
 20
-210.188
 21
-213.188
  0
LINE
  8
0
 10
-233.755
 11
-247.188
 20
-213.188
 21
-213.188
  0
LINE
  8
0
 10
-247.188
 11
-247.188
 20
-106.063
 21
-93.846
  0
LINE
  8
0
 10
-247.188
 11
-244.188
 20
-93.846
 21
-93.846
  0
LINE
  8
0
 10
-244.188
 11
-244.188
 20
-93.846
 21
-84.881
  0
LINE
  8
0
 10
-244.188
 11
-247.188
 20
-84.881
 21
-84.881
  0
LINE
  8
0
 10
-247.188
 11
-247.188
 20
-84.881
 21
-75.664
  0
LINE
  8
0
 10
-247.188
 11
-244.188
 20
-75.664
 21
-75.664
  0
LINE
  8
0
 10
-244.188
 11
-244.188
 20
-75.664
 21
-66.699
  0
LINE
  8
0
 10
-244.188
 11
-247.188
 20
-66.699
 21
-66.699
  0
LINE
  8
0
 10
-247.188
 11
-247.188
 20
-66.699
 21
-57.482
  0
LINE
  8
0
 10
-247.188
 11
-244.188
 20
-57.482
 21
-57.482
  0
LINE
  8
0
 10
-244.188
 11
-244.188
 20
-57.482
 21
-48.517
  0
LINE
  8
0
 10
-244.188
 11
-247.188
 20
-48.517
 21
-48.517
  0
LINE
  8
0
 10
-247.188
 11
-247.188
 20
-48.517
 21
-39.301
  0
LINE
  8
0
 10
-247.188
 11
-244.188
 20
-39.301
 21
-39.301
  0
LINE
  8
0
 10
-244.188
 11
-244.188
 20
-39.301
 21
-30.336
  0
LINE
  8
0
 10
-244.188
 11
-247.188
 20
-30.336
 21
-30.336
  0
LINE
  8
0
 10
-247.188
 11
-247.188
 20
-30.336
 21
-21.119
  0
LINE
  8
0
 10
-247.188
 11
-244.188
 20
-21.119
 21
-21.119
  0
LINE
  8
0
 10
-244.188
 11
-244.188
 20
-21.119
 21
-12.154
  0
LINE
  8
0
 10
-244.188
 11
-247.188
 20
-12.154
 21
-12.154
  0
LINE
  8
0
 10
-247.188
 11
-247.188
 20
-12.154
 21
0.063
  0
LINE
  8
0
 10
-247.188
 11
-233.754
 20
0.063
 21
0.063
  0
LINE
  8
0
 10
-233.754
 11
-233.754
 20
0.063
 21
-2.937
  0
LINE
  8
0
 10
-233.754
 11
-223.572
 20
-2.937
 21
-2.937
  0
LINE
  8
0
 10
-223.572
 11
-223.572
 20
-2.937
 21
0.063
  0
LINE
  8
0
 10
-223.572
 11
-213.139
 20
0.063
 21
0.063
  0
LINE
  8
0
 10
-213.139
 11
-213.139
 20
0.063
 21
-2.937
  0
LINE
  8
0
 10
-213.139
 11
-202.957
 20
-2.937
 21
-2.937
  0
LINE
  8
0
 10
-202.957
 11
-202.957
 20
-2.937
 21
0.063
  0
LINE
  8
0
 10
-202.957
 11
-192.524
 20
0.063
 21
0.063
  0
LINE
  8
0
 10
-192.524
 11
-192.524
 20
0.063
 21
-2.937
  0
LINE
  8
0
 10
-192.524
 11
-182.342
 20
-2.937
 21
-2.937
  0
LINE
  8
0
 10
-182.342
 11
-182.342
 20
-2.937
 21
0.063
  0
LINE
  8
0
 10
-182.342
 11
-171.908
 20
0.063
 21
0.063
  0
LINE
  8
0
 10
-171.908
 11
-171.908
 20
0.063
 21
-2.937
  0
LINE
  8
0
 10
-171.908
 11
-161.726
 20
-2.937
 21
-2.937
  0
LINE
  8
0
 10
-161.726
 11
-161.726
 20
-2.937
 21
0.063
  0
LINE
  8
0
 10
-161.726
 11
-151.293
 20
0.063
 21
0.063
  0
LINE
  8
0
 10
-151.293
 11
-151.293
 20
0.063
 21
-2.937
  0
LINE
  8
0
 10
-151.293
 11
-141.111
 20
-2.937
 21
-2.937
  0
LINE
  8
0
 10
-141.111
 11
-141.111
 20
-2.937
 21
0.063
  0
LINE
  8
0
 10
-141.111
 11
-130.677
 20
0.063
 21
0.063
  0
LINE
  8
0
 10
-130.677
 11
-130.677
 20
0.063
 21
-2.937
  0
LINE
  8
0
 10
-130.677
 11
-120.495
 20
-2.937
 21
-2.937
  0
LINE
  8
0
 10
-120.495
 11
-120.495
 20
-2.937
 21
0.063
  0
LINE
  8
0
 10
-120.495
 11
-110.625
 20
0.063
 21
0.063
  0
LINE
  8
0
 10
-110.625
 11
-110.625
 20
0.063
 21
-106.063
  0
LINE
  8
0
 10
-110.625
 11
-120.496
 20
-106.063
 21
-106.063
  0
LINE
  8
0
 10
-120.496
 11
-120.496
 20
-106.063
 21
-103.063
  0
LINE
  8
0
 10
-120.496
 11
-130.678
 20
-103.063
 21
-103.063
  0
LINE
  8
0
 10
-130.678
 11
-130.678
 20
-103.063
 21
-106.063
  0
LINE
  8
0
 10
-130.678
 11
-141.111
 20
-106.063
 21
-106.063
  0
LINE
  8
0
 10
-141.111
 11
-141.111
 20
-106.063
 21
-103.063
  0
LINE
  8
0
 10
-141.111
 11
-151.293
 20
-103.063
 21
-103.063
  0
LINE
  8
0
 10
-151.293
 11
-151.293
 20
-103.063
 21
-106.063
  0
LINE
  8
0
 10
-151.293
 11
-161.726
 20
-106.063
 21
-106.063
  0
LINE
  8
0
 10
-161.726
 11
-161.726
 20
-106.063
 21
-103.063
  0
LINE
  8
0
 10
-161.726
 11
-171.908
 20
-103.063
 21
-103.063
  0
LINE
  8
0
 10
-171.908
 11
-171.908
 20
-103.063
 21
-106.063
  0
LINE
  8
0
 10
-171.908
 11
-182.342
 20
-106.063
 21
-106.063
  0
LINE
  8
0
 10
-182.342
 11
-182.342
 20
-106.063
 21
-103.063
  0
LINE
  8
0
 10
-182.342
 11
-192.524
 20
-103.063
 21
-103.063
  0
LINE
  8
0
 10
-192.524
 11
-192.524
 20
-103.063
 21
-106.063
  0
LINE
  8
0
 10
-192.524
 11
-202.957
 20
-106.063
 21
-106.063
  0
LINE
  8
0
 10
-202.957
 11
-202.957
 20
-106.063
 21
-103.063
  0
LINE
  8
0
 10
-202.957
 11
-213.139
 20
-103.063
 21
-103.063
  0
LINE
  8
0
 10
-213.139
 11
-213.139
 20
-103.063
 21
-106.063
  0
LINE
  8
0
 10
-213.139
 11
-223.573
 20
-106.063
 21
-106.063
  0
LINE
  8
0
 10
-223.573
 11
-223.573
 20
-106.063
 21
-103.063
  0
LINE
  8
0
 10
-223.573
 11
-233.755
 20
-103.063
 21
-103.063
  0
LINE
  8
0
 10
-233.755
 11
-233.755
 20
-103.063
 21
-106.063
  0
LINE
  8
0
 10
-233.755
 11
-247.188
 20
-106.063
 21
-106.063
  0
LINE
  8
0
 10
-106.063
 11
-106.063
 20
-201.097
 21
-191.88
  0
LINE
  8
0
 10
-106.063
 11
-103.063
 20
-191.88
 21
-191.88
  0
LINE
  8
0
 10
-103.063
 11
-103.063
 20
-191.88
 21
-182.915
  0
LINE
  8
0
 10
-103.063
 11
-106.063
 20
-182.915
 21
-182.915
  0
LINE
  8
0
 10
-106.063
 11
-106.063
 20
-182.915
 21
-173.698
  0
LINE
  8
0
 10
-106.063
 11
-103.063
 20
-173.698
 21
-173.698
  0
LINE
  8
0
 10
-103.063
 11
-103.063
 20
-173.698
 21
-164.733
  0
LINE
  8
0
 10
-103.063
 11
-106.063
 20
-164.733
 21
-164.733
  0
LINE
  8
0
 10
-106.063
 11
-106.063
 20
-164.733
 21
-155.517
  0
LINE
  8
0
 10
-106.063
 11
-103.063
 20
-155.517
 21
-155.517
  0
LINE
  8
0
 10
-103.063
 11
-103.063
 20
-155.517
 21
-146.552
  0
LINE
  8
0
 10
-103.063
 11
-106.063
 20
-146.552
 21
-146.552
  0
LINE
  8
0
 10
-106.063
 11
-106.063
 20
-146.552
 21
-137.335
  0
LINE
  8
0
 10
-106.063
 11
-103.063
 20
-137.335
 21
-137.335
  0
LINE
  8
0
 10
-103.063
 11
-103.063
 20
-137.335
 21
-128.37
  0
LINE
  8
0
 10
-103.063
 11
-106.063
 20
-128.37
 21
-128.37
  0
LINE
  8
0
 10
-106.063
 11
-106.063
 20
-128.37
 21
-119.153
  0
LINE
  8
0
 10
-106.063
 11
-103.063
 20
-119.153
 21
-119.153
  0
LINE
  8
0
 10
-103.063
 11
-103.063
 20
-119.153
 21
-110.062
  0
LINE
  8
0
 10
-103.063
 11
-93.972
 20
-110.062
 21
-110.062
  0
LINE
  8
0
 10
-93.972
 11
-93.972
 20
-110.062
 21
-107.062
  0
LINE
  8
0
 10
-93.972
 11
-84.755
 20
-107.062
 21
-107.062
  0
LINE
  8
0
 10
-84.755
 11
-84.755
 20
-107.062
 21
-110.062
  0
LINE
  8
0
 10
-84.755
 11
-75.79
 20
-110.062
 21
-110.062
  0
LINE
  8
0
 10
-75.79
 11
-75.79
 20
-110.062
 21
-107.062
  0
LINE
  8
0
 10
-75.79
 11
-66.573
 20
-107.062
 21
-107.062
  0
LINE
  8
0
 10
-66.573
 11
-66.573
 20
-107.062
 21
-110.062
  0
LINE
  8
0
 10
-66.573
 11
-57.608
 20
-110.062
 21
-110.062
  0
LINE
  8
0
 10
-57.608
 11
-57.608
 20
-110.062
 21
-107.062
  0
LINE
  8
0
 10
-57.608
 11
-48.392
 20
-107.062
 21
-107.062
  0
LINE
  8
0
 10
-48.392
 11
-48.392
 20
-107.062
 21
-110.062
  0
LINE
  8
0
 10
-48.392
 11
-39.427
 20
-110.062
 21
-110.062
  0
LINE
  8
0
 10
-39.427
 11
-39.427
 20
-110.062
 21
-107.062
  0
LINE
  8
0
 10
-39.427
 11
-30.21
 20
-107.062
 21
-107.062
  0
LINE
  8
0
 10
-30.21
 11
-30.21
 20
-107.062
 21
-110.062
  0
LINE
  8
0
 10
-30.21
 11
-21.245
 20
-110.062
 21
-110.062
  0
LINE
  8
0
 10
-21.245
 11
-21.245
 20
-110.062
 21
-107.062
  0
LINE
  8
0
 10
-21.245
 11
-12.028
 20
-107.062
 21
-107.062
  0
LINE
  8
0
 10
-12.028
 11
-12.028
 20
-107.062
 21
-110.062
  0
LINE
  8
0
 10
-12.028
 11
-2.937
 20
-110.062
 21
-110.062
  0
LINE
  8
0
 10
-2.937
 11
-2.937
 20
-110.062
 21
-119.153
  0
LINE
  8
0
 10
-2.937
 11
0.063
 20
-119.153
 21
-119.153
  0
LINE
  8
0
 10
0.063
 11
0.063
 20
-119.153
 21
-128.37
  0
LINE
  8
0
 10
0.063
 11
-2.937
 20
-128.37
 21
-128.37
  0
LINE
  8
0
 10
-2.937
 11
-2.937
 20
-128.37
 21
-137.335
  0
LINE
  8
0
 10
-2.937
 11
0.063
 20
-137.335
 21
-137.335
  0
LINE
  8
0
 10
0.063
 11
0.063
 20
-137.335
 21
-146.552
  0
LINE
  8
0
 10
0.063
 11
-2.937
 20
-146.552
 21
-146.552
  0
LINE
  8
0
 10
-2.937
 11
-2.937
 20
-146.552
 21
-155.517
  0
LINE
  8
0
 10
-2.937
 11
0.063
 20
-155.517
 21
-155.517
  0
LINE
  8
0
 10
0.063
 11
0.063
 20
-155.517
 21
-164.733
  0
LINE
  8
0
 10
0.063
 11
-2.937
 20
-164.733
 21
-164.733
  0
LINE
  8
0
 10
-2.937
 11
-2.937
 20
-164.733
 21
-173.698
  0
LINE
  8
0
 10
-2.937
 11
0.063
 20
-173.698
 21
-173.698
  0
LINE
  8
0
 10
0.063
 11
0.063
 20
-173.698
 21
-182.915
  0
LINE
  8
0
 10
0.063
 11
-2.937
 20
-182.915
 21
-182.915
  0
LINE
  8
0
 10
-2.937
 11
-2.937
 20
-182.915
 21
-191.88
  0
LINE
  8
0
 10
-2.937
 11
0.063
 20
-191.88
 21
-191.88
  0
LINE
  8
0
 10
0.063
 11
0.063
 20
-191.88
 21
-201.097
  0
LINE
  8
0
 10
0.063
 11
-2.937
 20
-201.097
 21
-201.097
  0
LINE
  8
0
 10
-2.937
 11
-2.937
 20
-201.097
 21
-210.188
  0
LINE
  8
0
 10
-2.937
 11
-12.028
 20
-210.188
 21
-210.188
  0
LINE
  8
0
 10
-12.028
 11
-12.028
 20
-210.188
 21
-213.188
  0
LINE
  8
0
 10
-12.028
 11
-21.245
 20
-213.188
 21
-213.188
  0
LINE
  8
0
 10
-21.245
 11
-21.245
 20
-213.188
 21
-210.188
  0
LINE
  8
0
 10
-21.245
 11
-30.21
 20
-210.188
 21
-210.188
  0
LINE
  8
0
 10
-30.21
 11
-30.21
 20
-210.188
 21
-213.188
  0
LINE
  8
0
 10
-30.21
 11
-39.427
 20
-213.188
 21
-213.188
  0
LINE
  8
0
 10
-39.427
 11
-39.427
 20
-213.188
 21
-210.188
  0
LINE
  8
0
 10
-39.427
 11
-48.392
 20
-210.188
 21
-210.188
  0
LINE
  8
0
 10
-48.392
 11
-48.392
 20
-210.188
 21
-213.188
  0
LINE
  8
0
 10
-48.392
 11
-57.608
 20
-213.188
 21
-213.188
  0
LINE
  8
0
 10
-57.608
 11
-57.608
 20
-213.188
 21
-210.188
  0
LINE
  8
0
 10
-57.608
 11
-66.573
 20
-210.188
 21
-210.188
  0
LINE
  8
0
 10
-66.573
 11
-66.573
 20
-210.188
 21
-213.188
  0
LINE
  8
0
 10
-66.573
 11
-75.79
 20
-213.188
 21
-213.188
  0
LINE
  8
0
 10
-75.79
 11
-75.79
 20
-213.188
 21
-210.188
  0
LINE
  8
0
 10
-75.79
 11
-84.755
 20
-210.188
 21
-210.188
  0
LINE
  8
0
 10
-84.755
 11
-84.755
 20
-210.188
 21
-213.188
  0
LINE
  8
0
 10
-84.755
 11
-93.972
 20
-213.188
 21
-213.188
  0
LINE
  8
0
 10
-93.972
 11
-93.972
 20
-213.188
 21
-210.188
  0
LINE
  8
0
 10
-93.972
 11
-103.063
 20
-210.188
 21
-210.188
  0
LINE
  8
0
 10
-103.063
 11
-103.063
 20
-210.188
 21
-201.097
  0
LINE
  8
0
 10
-103.063
 11
-106.063
 20
-201.097
 21
-201.097
  0
ENDSEC
  0
SECTION
  2
OBJECTS
  0
DICTIONARY
  0
ENDSEC
  0
EOF
